<?xml version="1.0" encoding="UTF-8" standalone="no"?>
<!-- Created with Inkscape (http://www.inkscape.org/) -->

<svg
   xmlns:dc="http://purl.org/dc/elements/1.1/"
   xmlns:cc="http://creativecommons.org/ns#"
   xmlns:rdf="http://www.w3.org/1999/02/22-rdf-syntax-ns#"
   xmlns:svg="http://www.w3.org/2000/svg"
   xmlns="http://www.w3.org/2000/svg"
   xmlns:sodipodi="http://sodipodi.sourceforge.net/DTD/sodipodi-0.dtd"
   xmlns:inkscape="http://www.inkscape.org/namespaces/inkscape"
   width="205.0443mm"
   height="135.78448mm"
   viewBox="0 0 205.0443 135.78448"
   version="1.1"
   id="svg893"
   inkscape:version="0.92.3 (2405546, 2018-03-11)"
   sodipodi:docname="panel_dim.svg">
  <sodipodi:namedview
     id="base"
     pagecolor="#ffffff"
     bordercolor="#666666"
     borderopacity="1.0"
     inkscape:pageopacity="0.0"
     inkscape:pageshadow="2"
     inkscape:zoom="1.1107389"
     inkscape:cx="427.02539"
     inkscape:cy="236.68777"
     inkscape:document-units="mm"
     inkscape:current-layer="layer1"
     showgrid="false"
     inkscape:snap-midpoints="true"
     inkscape:object-paths="true"
     inkscape:snap-smooth-nodes="true"
     inkscape:snap-center="true"
     inkscape:snap-object-midpoints="true"
     inkscape:snap-intersection-paths="true"
     inkscape:window-width="1920"
     inkscape:window-height="1017"
     inkscape:window-x="3832"
     inkscape:window-y="1056"
     inkscape:window-maximized="1"
     fit-margin-top="0"
     fit-margin-left="0"
     fit-margin-right="0"
     fit-margin-bottom="0" />
  <defs
     id="defs887" />
  <metadata
     id="metadata890">
    <rdf:RDF>
      <cc:Work
         rdf:about="">
        <dc:format>image/svg+xml</dc:format>
        <dc:type
           rdf:resource="http://purl.org/dc/dcmitype/StillImage" />
        <dc:title></dc:title>
      </cc:Work>
    </rdf:RDF>
  </metadata>
  <g
     transform="translate(-2.9331922,-4.5899006)"
     id="layer1"
     inkscape:groupmode="layer"
     inkscape:label="Layer 1">
    <path
       id="path1457-4"
       d="M2.9331664 4.5899027L2.9331664 140.37441L207.97757 140.37441L207.97757 4.5899027L169.88577 4.5899027L146.44537 4.5899027L2.9331664 4.5899027M44.832966 11.939303L58.540166 11.939303L58.540166 21.830703L52.675866 22.869403L52.675866 34.902803L50.770066 34.902803L50.770066 23.213603L29.9727035 27.203028L20.033466 29.271103L19.307366 26.650103L27.127066 24.554603L19.490366 22.508203L37.247866 17.749803L30.197166 15.861103L44.832966 11.939303M61.279966 11.939303L74.576366 11.939303L74.576366 19.178203L61.279966 21.355803L61.279966 11.939303M77.315766 11.939303L92.750966 11.939303L92.750966 16.617103L86.878966 17.377803L86.878966 34.902803L84.973166 34.902803L84.973166 17.638703L77.315766 18.756003L77.315766 11.939303M95.490366 11.939303L110.39067 11.939303L110.39067 14.840403L95.490366 16.280103L95.490366 11.939303M113.13007 11.939303L126.93547 11.939303L126.93547 14.761403L121.08207 14.425503L121.08207 34.902803L119.17567 34.902803L119.17567 14.431203L118.61087 14.441203L113.13007 14.668003L113.13007 11.939303M129.67537 11.939303L150.68847 11.939303L153.27907 16.426403L144.73847 21.356803L144.73847 21.366803L141.948029375 19.40509675L138.546995 17.657478L134.475123125 16.20727175L129.67217 15.137803L129.67537 11.939303M165.64267 11.939303L191.26127 11.939303L200.90557 21.583703L200.90557 28.037103L190.97077 28.037103L189.087645 27.84817175L187.157589531 27.3661108125L184.945295 26.407078L182.733328594 24.8071420625L180.8042575 22.40237175L179.440648906 19.0288358125L178.92507 14.522603L176.269234062 15.4718983125L173.8344325 16.8242155L171.661099687 18.5389514375L169.78967 20.575503L162.93997 16.620203L165.64267 11.939303M154.64847 18.798903L158.16557 24.890003L161.57007 18.992603L168.27707 22.865303L166.6942075 26.8253155L166.13457 31.199103L166.323018437 33.7582545625L166.8703325 36.2001905L167.749465312 38.4980326875L168.93337 40.624903L161.10387 45.145603L151.26417 39.464803L152.22897 35.856203L144.28477 35.856203L144.28477 33.949903L152.22897 33.949903L151.82517 32.0690155L150.92412 29.486128L149.328945 26.474053L146.84277 23.305603L154.64847 18.798903M16.660466 27.359103L17.370566 29.922203L15.7116894375 30.551218625L14.2289035 31.512653L13.1526738125 32.924012375L12.713466 34.902803L12.9304812344 36.3117973359L13.474400375 37.4428826875L15.255691 39.0172905L17.482819125 39.9179545625L19.581266 40.436803L20.4503394375 40.7141170625L22.2391285 41.7838905L23.0947767422 42.7274328828L23.7199863125 44.0028701875L23.9613013516 45.6547957734L23.665266 47.727803L22.130966 53.454603L10.005066 53.454603L10.005066 29.142403L16.660466 27.359103M183.39867 30.245703L200.90557 30.245703L200.90557 32.152003L183.39867 32.152003L183.39867 30.245703M190.97077 34.360703L200.90557 34.360703L200.90557 51.047503L183.65597 51.047503L190.95067 55.259203L162.47337 55.259203L162.47337 47.518003L170.62527 42.811303L172.3901575 44.496606125L174.379145 45.920703L176.564595 47.055674875L178.91887 47.873603L179.436499492 43.3679270234L180.801655938 39.9948014375L182.731841289 37.5903172578L184.9445575 35.9905655L187.157306523 35.0316371797L189.087590313 34.5496233125L190.97077 34.360703L190.97077 34.360703M150.12527 41.970603L159.73397 47.518003L159.73397 55.259203L151.04927 55.259203L157.70827 59.103903L141.69477 59.103903L148.22457 62.874203L135.12047 62.874203L135.12047 53.410203L138.12390125 52.3317487031L140.75627 51.085324875L145.00547 48.223653L148.06337 45.095356125L150.12527 41.970603L150.12527 41.970603M161.10387 46.726903L161.10447 46.727403L161.10447 46.727403L161.10387 46.726903M52.382366 47.035903L53.919766 47.163503L53.929766 47.163503L70.4630838125 49.9803545625L87.6163055 52.5288655L104.096458438 54.4452201875L118.61057 55.365603L120.20997 55.382603L120.20997 62.872003L106.94927 62.872003L114.61597 67.298603L99.732666 67.298603L99.732666 69.232903L94.096866 69.232903L94.096866 62.446703L93.8190238125 61.0636201875L93.0604035 59.9366155L91.9333644375 59.1780295625L90.550266 58.900203L88.643466 58.900203L87.2603675625 59.1780295625L86.1333285 59.9366155L85.3747081875 61.0636201875L85.096866 62.446703L85.096866 64.222303L78.746866 64.222303L78.746866 60.202403L78.472062875 58.834437375L77.721741 57.719728L76.607031625 56.969406125L75.239066 56.694603L73.254666 56.694603L71.8867425625 56.969406125L70.7720285 57.719728L70.0216831875 58.834437375L69.746866 60.202403L69.746866 61.483003L63.396866 61.483003L63.396866 58.005703L63.1246331875 56.6506983125L62.3813535 55.5464655L61.2771550625 54.8031514375L59.922166 54.530903L57.871166 54.530903L56.5162550625 54.8031514375L55.4122285 55.5464655L54.6691206875 56.6506983125L54.396966 58.005703L54.396966 61.570803L48.046966 61.570803L48.046966 55.775303L35.907066 55.775303L35.907066 53.869003L48.046966 53.869003L48.046966 51.854603L48.0968706875 51.115428L48.5413035 49.481728L49.0496173672 48.6030990938L49.8223425625 47.8292405L50.9147388516 47.2696194063L52.382066 47.033703L52.382366 47.035903M132.38107 54.137803L132.38107 62.874203L122.94967 62.874203L122.94967 55.331003L127.9689325 54.918153L132.38107 54.137803L132.38107 54.137803M10.005066 56.194003L21.396666 56.194003L17.668766 70.107903L10.005066 70.107903L10.005066 56.194003M63.397166 64.224503L69.747166 64.224503L69.747166 77.536903L63.397166 77.536903L63.397166 64.224503M48.047266 64.312503L54.397266 64.312503L54.397266 77.537003L48.047266 77.537003L48.047266 72.013803L35.907366 72.013803L35.907366 70.108003L48.047266 70.108003L48.047266 64.312503M57.944266 66.673003L59.850166 66.673003L59.850166 89.493903L59.922166 89.493903L61.2771550625 89.2216545625L62.3813535 88.4783405L63.1246331875 87.3741076875L63.396866 86.019103L63.396866 80.276903L69.746866 80.276903L69.746866 83.822903L70.0216831875 85.19094675L70.7720285 86.305828L71.8867425625 87.05632175L73.254666 87.331203L75.239066 87.331203L76.607031625 87.05632175L77.721741 86.305828L78.472062875 85.19094675L78.746866 83.822903L78.746866 77.537003L85.096866 77.537003L85.096866 81.578603L85.374694125 82.9616858125L86.133291 84.0886905L87.260325375 84.8472764375L88.643466 85.125103L88.643966 85.125103L88.643966 70.980803L90.549766 70.980803L90.549766 85.125103L90.550266 85.125103L91.9333644375 84.8472764375L93.0604035 84.0886905L93.8190238125 82.9616858125L94.096866 81.578603L94.096866 71.975003L99.732666 71.975003L99.732666 73.909303L114.61607 73.909303L106.94927 78.335903L120.20997 78.335903L120.20997 88.502703L120.12797 88.502203L118.61027 88.522203L105.01453157 89.3575212695L89.6093645625 91.0942040937L73.4733368984 93.4288434961L57.6850165 96.0580315L31.4657691875 100.986421406L19.580166 103.45211L17.66637225 103.918488125L15.605091 104.68721L13.84047225 105.983781875L13.2082081875 106.900482266L12.816666 108.03371L44.948666 108.03371L45.5387867031 106.897792636L46.5162988125 105.826843293L49.52782225 103.872365156L53.7718863125 102.155308566L59.037141 100.6607065L65.1122363125 99.3735919336L71.78582225 98.2789978437L86.083066 96.607503L86.083066 107.31541L83.6823285 106.8719225L82.3171425625 106.268133438L81.072566 105.28971L79.4815285 104.2601725L77.555466 103.88411L75.569256625 104.285080312L73.947341 105.3785725L72.853837875 107.000458438L72.452866 108.98661L72.853837875 110.972761562L73.947341 112.5946475L75.569256625 113.688139688L77.555466 114.08911L79.4815285 113.7130475L81.072566 112.68351L82.3171425625 111.704994375L83.6823285 111.100935L86.083066 110.65731L86.083066 121.36571L71.7858363125 119.69421625L65.1122626797 118.599623281L59.0371785 117.31251L53.7719302578 115.817909219L49.5278644375 114.10085375L46.5163275234 112.146376406L45.5388031826 111.075427285L44.948666 109.93951L12.816766 109.93951L13.5515988125 111.632513125L14.8084785 112.82146L16.3674769375 113.620031875L18.008666 114.14191L17.022166 117.70341L10.004466 115.82291L10.004466 72.847703L16.933766 72.847703L13.322166 86.327003L13.0564613125 87.474956125L13.0884785 90.000453L13.6047880703 91.3492979219L14.6619144375 92.525949875L16.4153197109 93.3582158906L19.020466 93.673903L41.097666 93.673903L41.986137875 93.6951155L44.028091 93.278553L45.1893749844 92.681012375L46.288331625 91.7039155L47.2080617031 90.257224875L47.831666 88.250903L35.906766 88.250903L35.906766 86.345103L48.032666 86.345103L48.046666 85.800403L48.046666 80.277303L54.396666 80.277303L54.396666 86.019503L54.6688206875 87.3745076875L55.4119285 88.4787405L56.5159550625 89.2220545625L57.870866 89.494303L57.943866 89.494303L57.944266 66.673003M78.747166 66.964503L85.097166 66.964503L85.097166 74.797603L78.747166 74.797603L78.747166 66.964503M73.293766 68.836703L75.200066 68.836703L75.200066 87.330703L73.293766 87.330703L73.293766 68.836703M122.94967 78.335903L132.38107 78.335903L132.38107 89.746603L127.968745 88.9669655L122.94967 88.554903L122.94967 78.335903M135.12047 78.335903L148.22457 78.335903L141.69477 82.105703L157.70827 82.105703L151.04927 85.950903L158.87457 85.950903L158.87457 93.692103L148.66697 99.585203L146.479834062 97.016599875L143.5622825 94.546303L139.810449688 92.318856125L135.12047 90.478803L135.12047 78.335903M161.61397 85.950903L190.95067 85.950903L183.65597 90.162603L200.90557 90.162603L200.90557 107.41221L190.97137 107.41221L188.606262188 107.087578641L186.182028789 106.409919006L183.4030325 105.147034125L180.624040898 103.117677041L178.199821563 100.140600797L177.231616362 98.2400283157L176.48514207 96.0345584355L176.004744634 93.5015352869L175.83477 90.618303L173.040309063 91.477331125L170.4323075 92.709728L168.041712188 94.283412375L165.89947 96.166303L161.61397 93.692103L161.61397 85.950903M160.24347 94.482703L160.24347 94.482703L160.24297 94.483203L160.24347 94.482703M120.26967 94.682203L120.26967 105.82411L113.05357 105.82411L111.349375664 105.625310781L109.924552813 105.10120375L107.8487325 103.51081L106.697530938 101.92041625L106.34237 101.19751L103.21647 101.32261L103.21647 95.351403L120.12917 94.683203L120.26967 94.683203L120.26967 94.682203M123.00907 94.770203L126.995188359 95.5120472461L130.091185625 96.8549619062L132.408912578 98.6292698633L134.06022 100.665294L135.156958672 102.793357199L135.810979375 104.843782344L136.23827 108.03301L144.28477 108.03301L144.28477 109.93881L136.23777 109.93881L135.81061375 113.1280225L135.156687188 115.178539688L134.060045 117.30671L132.408824688 119.342817813L130.09116375 121.1171475L126.995199688 122.459983438L123.00907 123.20161L123.00907 112.14751L123.00907 109.93881L110.95507 109.93881L110.95507 108.03301L123.00907 108.03301L123.00907 105.82381L123.00907 94.770203M100.47707 95.509703L100.47707 101.77761L97.8198915 102.6114225L95.329666 103.99191L93.4551535 105.3079725L91.3909988125 106.360358437L88.823566 107.14881L88.823566 96.364503L100.47707 95.509703L100.47707 95.509703M160.24397 96.064203L164.07377 98.274903L162.345209063 100.992217984L161.0546575 103.977421625L160.247237188 107.185992703L159.96807 110.57341L160.2077075 113.715136563L160.90282 116.7065725L162.0177075 119.512252188L163.51667 122.09671L158.36347 125.07181L155.14147 119.49121L150.91487 126.81221L144.21497 122.94421L146.804506328 120.622874063L148.776260625 118.23357875L150.214225859 115.892667813L151.202395 113.716485L152.165316875 110.32367875L152.33697 108.98591L152.011795 106.8994225L151.348516875 104.647895938L150.12317 101.90781L160.24397 96.064203M77.556066 106.01501L78.9343323693 106.356530701L79.996666 107.29871L78.669066 108.20531L78.085166 108.98591L78.669991 109.767385L79.999266 110.67471L78.9355360935 111.616600974L77.556066 111.95681L76.4191447365 111.730675846L75.4553091661 111.086666834L74.8113001538 110.122831263L74.585166 108.98591L74.8113001537 107.848988737L75.4553091661 106.885153166L76.4191447365 106.241144154L77.556066 106.01501L77.556066 106.01501M180.44637 109.62051L200.90557 109.62051L200.90557 111.52631L180.44637 111.52631L180.44637 109.62051M88.823566 110.82251L91.3909988125 111.611081875L93.4551535 112.663635L95.329666 113.97991L97.8198915 115.3604475L100.47707 116.19431L100.47707 122.46211L88.823566 121.60741L88.823566 110.82251M113.05357 112.14701L113.05357 112.14751L120.26967 112.14751L120.26967 123.29051L120.12917 123.29051L103.21647 122.62231L103.21647 116.65061L106.34237 116.77571L106.697530938 116.05280375L107.8487325 114.46241L109.924552813 112.87201625L111.349375664 112.347909219L113.05357 112.14911L113.05357 112.14701M190.97137 113.73551L200.90557 113.73551L200.90557 123.37991L191.26067 133.02481L162.95497 133.02481L159.73297 127.44421L165.22867 124.27131L167.466216875 126.40889125L170.00607 128.191535L172.808498125 129.57844125L175.83377 130.52881L176.00390418 127.645635122L176.484443438 125.112668789L177.231042852 122.907254702L178.1993575 121.006736563L180.623752813 118.02976293L183.40287 116.0004975L186.181949688 114.737689883L188.6062325 114.060089688L190.97137 113.73551L190.97137 113.73551M20.680466 114.76081L33.9859535 117.4851725L57.586166 121.89261L57.586166 133.02481L44.832966 133.02481L30.197166 129.10301L37.247866 127.21431L19.490366 122.45591L27.127066 120.41001L19.669166 118.41171L20.680466 114.76081M60.325566 122.36861L73.622366 124.56381L73.622366 133.02481L60.325566 133.02481L60.325566 122.36861M141.68807 124.64851L149.54487 129.18471L147.32797 133.02481L128.72087 133.02481L128.72087 128.89991L132.612498125 128.170617813L136.05332 127.1937975L139.069716875 126.007183438L141.68807 124.64851L141.68807 124.64851M76.361766 124.98801L91.796466 127.15641L91.796466 133.02481L76.361766 133.02481L76.361766 124.98801M94.536366 127.49281L109.43627 128.98001L109.43627 133.02481L94.536366 133.02481L94.536366 127.49281M112.17617 129.16871L118.61087 129.45031L125.98147 129.22451L125.98147 133.02481L112.17617 133.02481L112.17617 129.16871"
       style="fill:#e9ddaf;stroke:none;stroke-width:0.26458332px;stroke-linecap:butt;stroke-linejoin:miter;stroke-opacity:1"
       inkscape:connector-curvature="0" />
  </g>
</svg>
