<?xml version="1.0" encoding="UTF-8" standalone="no"?>
<!-- Created with Inkscape (http://www.inkscape.org/) -->

<svg
   xmlns:dc="http://purl.org/dc/elements/1.1/"
   xmlns:cc="http://creativecommons.org/ns#"
   xmlns:rdf="http://www.w3.org/1999/02/22-rdf-syntax-ns#"
   xmlns:svg="http://www.w3.org/2000/svg"
   xmlns="http://www.w3.org/2000/svg"
   xmlns:sodipodi="http://sodipodi.sourceforge.net/DTD/sodipodi-0.dtd"
   xmlns:inkscape="http://www.inkscape.org/namespaces/inkscape"
   width="205.0443mm"
   height="135.78448mm"
   viewBox="0 0 205.0443 135.78448"
   version="1.1"
   id="svg893"
   inkscape:version="0.92.3 (2405546, 2018-03-11)"
   sodipodi:docname="panel.svg">
  <sodipodi:namedview
     id="base"
     pagecolor="#ffffff"
     bordercolor="#666666"
     borderopacity="1.0"
     inkscape:pageopacity="0.0"
     inkscape:pageshadow="2"
     inkscape:zoom="1.1107389"
     inkscape:cx="394.57273"
     inkscape:cy="272.2961"
     inkscape:document-units="mm"
     inkscape:current-layer="g5074"
     showgrid="false"
     inkscape:snap-midpoints="true"
     inkscape:object-paths="true"
     inkscape:snap-smooth-nodes="true"
     inkscape:snap-center="true"
     inkscape:snap-object-midpoints="true"
     inkscape:snap-intersection-paths="true"
     inkscape:window-width="1920"
     inkscape:window-height="1017"
     inkscape:window-x="3832"
     inkscape:window-y="1056"
     inkscape:window-maximized="1"
     fit-margin-top="0"
     fit-margin-left="0"
     fit-margin-right="0"
     fit-margin-bottom="0" />
  <defs
     id="defs887" />
  <metadata
     id="metadata890">
    <rdf:RDF>
      <cc:Work
         rdf:about="">
        <dc:format>image/svg+xml</dc:format>
        <dc:type
           rdf:resource="http://purl.org/dc/dcmitype/StillImage" />
        <dc:title></dc:title>
      </cc:Work>
    </rdf:RDF>
  </metadata>
  <g
     transform="translate(-2.9331922,-4.5899006)"
     id="layer1"
     inkscape:groupmode="layer"
     inkscape:label="Layer 1">
    <path
       id="path1457-4"
       d="M2.9331664 4.5899027L2.9331664 140.37441L207.97757 140.37441L207.97757 4.5899027L169.88577 4.5899027L146.44537 4.5899027L2.9331664 4.5899027M44.832966 11.939303L58.540166 11.939303L58.540166 21.830703L52.675866 22.869403L52.675866 34.902803L50.770066 34.902803L50.770066 23.213603L29.9727035 27.203028L20.033466 29.271103L19.307366 26.650103L27.127066 24.554603L19.490366 22.508203L37.247866 17.749803L30.197166 15.861103L44.832966 11.939303M61.279966 11.939303L74.576366 11.939303L74.576366 19.178203L61.279966 21.355803L61.279966 11.939303M77.315766 11.939303L92.750966 11.939303L92.750966 16.617103L86.878966 17.377803L86.878966 34.902803L84.973166 34.902803L84.973166 17.638703L77.315766 18.756003L77.315766 11.939303M95.490366 11.939303L110.39067 11.939303L110.39067 14.840403L95.490366 16.280103L95.490366 11.939303M113.13007 11.939303L126.93547 11.939303L126.93547 14.761403L121.08207 14.425503L121.08207 34.902803L119.17567 34.902803L119.17567 14.431203L118.61087 14.441203L113.13007 14.668003L113.13007 11.939303M129.67537 11.939303L150.68847 11.939303L153.27907 16.426403L144.73847 21.356803L144.73847 21.366803L141.948029375 19.40509675L138.546995 17.657478L134.475123125 16.20727175L129.67217 15.137803L129.67537 11.939303M165.64267 11.939303L191.26127 11.939303L200.90557 21.583703L200.90557 28.037103L190.97077 28.037103L189.087645 27.84817175L187.157589531 27.3661108125L184.945295 26.407078L182.733328594 24.8071420625L180.8042575 22.40237175L179.440648906 19.0288358125L178.92507 14.522603L176.269234062 15.4718983125L173.8344325 16.8242155L171.661099687 18.5389514375L169.78967 20.575503L162.93997 16.620203L165.64267 11.939303M154.64847 18.798903L158.16557 24.890003L161.57007 18.992603L168.27707 22.865303L166.6942075 26.8253155L166.13457 31.199103L166.323018437 33.7582545625L166.8703325 36.2001905L167.749465312 38.4980326875L168.93337 40.624903L161.10387 45.145603L151.26417 39.464803L152.22897 35.856203L144.28477 35.856203L144.28477 33.949903L152.22897 33.949903L151.82517 32.0690155L150.92412 29.486128L149.328945 26.474053L146.84277 23.305603L154.64847 18.798903M16.660466 27.359103L17.370566 29.922203L15.7116894375 30.551218625L14.2289035 31.512653L13.1526738125 32.924012375L12.713466 34.902803L12.9304812344 36.3117973359L13.474400375 37.4428826875L15.255691 39.0172905L17.482819125 39.9179545625L19.581266 40.436803L20.4503394375 40.7141170625L22.2391285 41.7838905L23.0947767422 42.7274328828L23.7199863125 44.0028701875L23.9613013516 45.6547957734L23.665266 47.727803L22.130966 53.454603L10.005066 53.454603L10.005066 29.142403L16.660466 27.359103M183.39867 30.245703L200.90557 30.245703L200.90557 32.152003L183.39867 32.152003L183.39867 30.245703M190.97077 34.360703L200.90557 34.360703L200.90557 51.047503L183.65597 51.047503L190.95067 55.259203L162.47337 55.259203L162.47337 47.518003L170.62527 42.811303L172.3901575 44.496606125L174.379145 45.920703L176.564595 47.055674875L178.91887 47.873603L179.436499492 43.3679270234L180.801655938 39.9948014375L182.731841289 37.5903172578L184.9445575 35.9905655L187.157306523 35.0316371797L189.087590313 34.5496233125L190.97077 34.360703L190.97077 34.360703M150.12527 41.970603L159.73397 47.518003L159.73397 55.259203L151.04927 55.259203L157.70827 59.103903L141.69477 59.103903L148.22457 62.874203L135.12047 62.874203L135.12047 53.410203L138.12390125 52.3317487031L140.75627 51.085324875L145.00547 48.223653L148.06337 45.095356125L150.12527 41.970603L150.12527 41.970603M161.10387 46.726903L161.10447 46.727403L161.10447 46.727403L161.10387 46.726903M52.382366 47.035903L53.919766 47.163503L53.929766 47.163503L70.4630838125 49.9803545625L87.6163055 52.5288655L104.096458438 54.4452201875L118.61057 55.365603L120.20997 55.382603L120.20997 62.872003L106.94927 62.872003L114.61597 67.298603L99.732666 67.298603L99.732666 69.232903L94.096866 69.232903L94.096866 62.446703L93.8190238125 61.0636201875L93.0604035 59.9366155L91.9333644375 59.1780295625L90.550266 58.900203L88.643466 58.900203L87.2603675625 59.1780295625L86.1333285 59.9366155L85.3747081875 61.0636201875L85.096866 62.446703L85.096866 64.222303L78.746866 64.222303L78.746866 60.202403L78.472062875 58.834437375L77.721741 57.719728L76.607031625 56.969406125L75.239066 56.694603L73.254666 56.694603L71.8867425625 56.969406125L70.7720285 57.719728L70.0216831875 58.834437375L69.746866 60.202403L69.746866 61.483003L63.396866 61.483003L63.396866 58.005703L63.1246331875 56.6506983125L62.3813535 55.5464655L61.2771550625 54.8031514375L59.922166 54.530903L57.871166 54.530903L56.5162550625 54.8031514375L55.4122285 55.5464655L54.6691206875 56.6506983125L54.396966 58.005703L54.396966 61.570803L48.046966 61.570803L48.046966 55.775303L35.907066 55.775303L35.907066 53.869003L48.046966 53.869003L48.046966 51.854603L48.0968706875 51.115428L48.5413035 49.481728L49.0496173672 48.6030990938L49.8223425625 47.8292405L50.9147388516 47.2696194063L52.382066 47.033703L52.382366 47.035903M132.38107 54.137803L132.38107 62.874203L122.94967 62.874203L122.94967 55.331003L127.9689325 54.918153L132.38107 54.137803L132.38107 54.137803M10.005066 56.194003L21.396666 56.194003L17.668766 70.107903L10.005066 70.107903L10.005066 56.194003M63.397166 64.224503L69.747166 64.224503L69.747166 77.536903L63.397166 77.536903L63.397166 64.224503M48.047266 64.312503L54.397266 64.312503L54.397266 77.537003L48.047266 77.537003L48.047266 72.013803L35.907366 72.013803L35.907366 70.108003L48.047266 70.108003L48.047266 64.312503M57.944266 66.673003L59.850166 66.673003L59.850166 89.493903L59.922166 89.493903L61.2771550625 89.2216545625L62.3813535 88.4783405L63.1246331875 87.3741076875L63.396866 86.019103L63.396866 80.276903L69.746866 80.276903L69.746866 83.822903L70.0216831875 85.19094675L70.7720285 86.305828L71.8867425625 87.05632175L73.254666 87.331203L75.239066 87.331203L76.607031625 87.05632175L77.721741 86.305828L78.472062875 85.19094675L78.746866 83.822903L78.746866 77.537003L85.096866 77.537003L85.096866 81.578603L85.374694125 82.9616858125L86.133291 84.0886905L87.260325375 84.8472764375L88.643466 85.125103L88.643966 85.125103L88.643966 70.980803L90.549766 70.980803L90.549766 85.125103L90.550266 85.125103L91.9333644375 84.8472764375L93.0604035 84.0886905L93.8190238125 82.9616858125L94.096866 81.578603L94.096866 71.975003L99.732666 71.975003L99.732666 73.909303L114.61607 73.909303L106.94927 78.335903L120.20997 78.335903L120.20997 88.502703L120.12797 88.502203L118.61027 88.522203L105.01453157 89.3575212695L89.6093645625 91.0942040937L73.4733368984 93.4288434961L57.6850165 96.0580315L31.4657691875 100.986421406L19.580166 103.45211L17.66637225 103.918488125L15.605091 104.68721L13.84047225 105.983781875L13.2082081875 106.900482266L12.816666 108.03371L44.948666 108.03371L45.5387867031 106.897792636L46.5162988125 105.826843293L49.52782225 103.872365156L53.7718863125 102.155308566L59.037141 100.6607065L65.1122363125 99.3735919336L71.78582225 98.2789978437L86.083066 96.607503L86.083066 107.31541L83.6823285 106.8719225L82.3171425625 106.268133438L81.072566 105.28971L79.4815285 104.2601725L77.555466 103.88411L75.569256625 104.285080312L73.947341 105.3785725L72.853837875 107.000458438L72.452866 108.98661L72.853837875 110.972761562L73.947341 112.5946475L75.569256625 113.688139688L77.555466 114.08911L79.4815285 113.7130475L81.072566 112.68351L82.3171425625 111.704994375L83.6823285 111.100935L86.083066 110.65731L86.083066 121.36571L71.7858363125 119.69421625L65.1122626797 118.599623281L59.0371785 117.31251L53.7719302578 115.817909219L49.5278644375 114.10085375L46.5163275234 112.146376406L45.5388031826 111.075427285L44.948666 109.93951L12.816766 109.93951L13.5515988125 111.632513125L14.8084785 112.82146L16.3674769375 113.620031875L18.008666 114.14191L17.022166 117.70341L10.004466 115.82291L10.004466 72.847703L16.933766 72.847703L13.322166 86.327003L13.0564613125 87.474956125L13.0884785 90.000453L13.6047880703 91.3492979219L14.6619144375 92.525949875L16.4153197109 93.3582158906L19.020466 93.673903L41.097666 93.673903L41.986137875 93.6951155L44.028091 93.278553L45.1893749844 92.681012375L46.288331625 91.7039155L47.2080617031 90.257224875L47.831666 88.250903L35.906766 88.250903L35.906766 86.345103L48.032666 86.345103L48.046666 85.800403L48.046666 80.277303L54.396666 80.277303L54.396666 86.019503L54.6688206875 87.3745076875L55.4119285 88.4787405L56.5159550625 89.2220545625L57.870866 89.494303L57.943866 89.494303L57.944266 66.673003M78.747166 66.964503L85.097166 66.964503L85.097166 74.797603L78.747166 74.797603L78.747166 66.964503M73.293766 68.836703L75.200066 68.836703L75.200066 87.330703L73.293766 87.330703L73.293766 68.836703M122.94967 78.335903L132.38107 78.335903L132.38107 89.746603L127.968745 88.9669655L122.94967 88.554903L122.94967 78.335903M135.12047 78.335903L148.22457 78.335903L141.69477 82.105703L157.70827 82.105703L151.04927 85.950903L158.87457 85.950903L158.87457 93.692103L148.66697 99.585203L146.479834062 97.016599875L143.5622825 94.546303L139.810449688 92.318856125L135.12047 90.478803L135.12047 78.335903M161.61397 85.950903L190.95067 85.950903L183.65597 90.162603L200.90557 90.162603L200.90557 107.41221L190.97137 107.41221L188.606262188 107.087578641L186.182028789 106.409919006L183.4030325 105.147034125L180.624040898 103.117677041L178.199821563 100.140600797L177.231616362 98.2400283157L176.48514207 96.0345584355L176.004744634 93.5015352869L175.83477 90.618303L173.040309063 91.477331125L170.4323075 92.709728L168.041712188 94.283412375L165.89947 96.166303L161.61397 93.692103L161.61397 85.950903M160.24347 94.482703L160.24347 94.482703L160.24297 94.483203L160.24347 94.482703M120.26967 94.682203L120.26967 105.82411L113.05357 105.82411L111.349375664 105.625310781L109.924552813 105.10120375L107.8487325 103.51081L106.697530938 101.92041625L106.34237 101.19751L103.21647 101.32261L103.21647 95.351403L120.12917 94.683203L120.26967 94.683203L120.26967 94.682203M123.00907 94.770203L126.995188359 95.5120472461L130.091185625 96.8549619062L132.408912578 98.6292698633L134.06022 100.665294L135.156958672 102.793357199L135.810979375 104.843782344L136.23827 108.03301L144.28477 108.03301L144.28477 109.93881L136.23777 109.93881L135.81061375 113.1280225L135.156687188 115.178539688L134.060045 117.30671L132.408824688 119.342817813L130.09116375 121.1171475L126.995199688 122.459983438L123.00907 123.20161L123.00907 112.14751L123.00907 109.93881L110.95507 109.93881L110.95507 108.03301L123.00907 108.03301L123.00907 105.82381L123.00907 94.770203M100.47707 95.509703L100.47707 101.77761L97.8198915 102.6114225L95.329666 103.99191L93.4551535 105.3079725L91.3909988125 106.360358437L88.823566 107.14881L88.823566 96.364503L100.47707 95.509703L100.47707 95.509703M160.24397 96.064203L164.07377 98.274903L162.345209063 100.992217984L161.0546575 103.977421625L160.247237188 107.185992703L159.96807 110.57341L160.2077075 113.715136563L160.90282 116.7065725L162.0177075 119.512252188L163.51667 122.09671L158.36347 125.07181L155.14147 119.49121L150.91487 126.81221L144.21497 122.94421L146.804506328 120.622874063L148.776260625 118.23357875L150.214225859 115.892667813L151.202395 113.716485L152.165316875 110.32367875L152.33697 108.98591L152.011795 106.8994225L151.348516875 104.647895938L150.12317 101.90781L160.24397 96.064203M77.556066 106.01501L78.9343323693 106.356530701L79.996666 107.29871L78.669066 108.20531L78.085166 108.98591L78.669991 109.767385L79.999266 110.67471L78.9355360935 111.616600974L77.556066 111.95681L76.4191447365 111.730675846L75.4553091661 111.086666834L74.8113001538 110.122831263L74.585166 108.98591L74.8113001537 107.848988737L75.4553091661 106.885153166L76.4191447365 106.241144154L77.556066 106.01501L77.556066 106.01501M180.44637 109.62051L200.90557 109.62051L200.90557 111.52631L180.44637 111.52631L180.44637 109.62051M88.823566 110.82251L91.3909988125 111.611081875L93.4551535 112.663635L95.329666 113.97991L97.8198915 115.3604475L100.47707 116.19431L100.47707 122.46211L88.823566 121.60741L88.823566 110.82251M113.05357 112.14701L113.05357 112.14751L120.26967 112.14751L120.26967 123.29051L120.12917 123.29051L103.21647 122.62231L103.21647 116.65061L106.34237 116.77571L106.697530938 116.05280375L107.8487325 114.46241L109.924552813 112.87201625L111.349375664 112.347909219L113.05357 112.14911L113.05357 112.14701M190.97137 113.73551L200.90557 113.73551L200.90557 123.37991L191.26067 133.02481L162.95497 133.02481L159.73297 127.44421L165.22867 124.27131L167.466216875 126.40889125L170.00607 128.191535L172.808498125 129.57844125L175.83377 130.52881L176.00390418 127.645635122L176.484443438 125.112668789L177.231042852 122.907254702L178.1993575 121.006736563L180.623752813 118.02976293L183.40287 116.0004975L186.181949688 114.737689883L188.6062325 114.060089688L190.97137 113.73551L190.97137 113.73551M20.680466 114.76081L33.9859535 117.4851725L57.586166 121.89261L57.586166 133.02481L44.832966 133.02481L30.197166 129.10301L37.247866 127.21431L19.490366 122.45591L27.127066 120.41001L19.669166 118.41171L20.680466 114.76081M60.325566 122.36861L73.622366 124.56381L73.622366 133.02481L60.325566 133.02481L60.325566 122.36861M141.68807 124.64851L149.54487 129.18471L147.32797 133.02481L128.72087 133.02481L128.72087 128.89991L132.612498125 128.170617813L136.05332 127.1937975L139.069716875 126.007183438L141.68807 124.64851L141.68807 124.64851M76.361766 124.98801L91.796466 127.15641L91.796466 133.02481L76.361766 133.02481L76.361766 124.98801M94.536366 127.49281L109.43627 128.98001L109.43627 133.02481L94.536366 133.02481L94.536366 127.49281M112.17617 129.16871L118.61087 129.45031L125.98147 129.22451L125.98147 133.02481L112.17617 133.02481L112.17617 129.16871"
       style="fill:#e9ddaf;stroke:none;stroke-width:0.26458332px;stroke-linecap:butt;stroke-linejoin:miter;stroke-opacity:1"
       inkscape:connector-curvature="0" />
    <g
       transform="translate(-2.58e-5)"
       id="g5033">
      <path
         inkscape:connector-curvature="0"
         style="fill:#ffcc00;stroke:none;stroke-width:0.99999994px;stroke-linecap:butt;stroke-linejoin:miter;stroke-opacity:1"
         d="m 553.49414,17.347656 14.76563,25.574219 29.53125,51.150391 28.3125,-49.03711 96.77343,0.08984 36.45117,36.451172 V 192.93555 h -65.19531 l 27.57031,15.91797 H 570.89258 l 25.16992,14.5332 h -60.52539 l 24.68164,14.24805 h -156 l 28.97656,16.73046 h -56.25195 v 24.97657 h 56.25195 l -28.97656,16.73047 h 156 l -24.68164,14.25 h 60.52539 l -25.16992,14.53125 h 150.81054 l -27.57031,15.91796 h 65.19531 v 125.54883 l -36.45117,36.45117 H 615.89258 l -29.53125,-51.15039 -29.53125,51.15039 -16.03711,27.77735 h 35.97461 118.33203 7.95508 83.00195 V 340.77148 192.93555 17.347656 h -84.91016 -6.04687 l 0.006,0.0059 -53.05274,0.05469 z"
         transform="scale(0.26458333)"
         id="path2329-7" />
      <path
         style="opacity:1;vector-effect:none;fill:#ffcc00;fill-opacity:1;stroke:none;stroke-width:0.30961877;stroke-linecap:round;stroke-linejoin:round;stroke-miterlimit:4;stroke-dasharray:none;stroke-dashoffset:0;stroke-opacity:1"
         d="M 2.9331922,4.5899028 H 75.817164 l -30.984206,7.3494202 -14.635798,3.921729 7.050731,1.88877 -17.75757,4.75837 7.636742,2.04638 -17.121951,4.58784 -7.0719198,1.75748 z"
         id="rect2275"
         inkscape:connector-curvature="0"
         sodipodi:nodetypes="cccccccccc" />
      <path
         style="opacity:1;vector-effect:none;fill:#ffcc00;fill-opacity:1;stroke:none;stroke-width:0.3096188;stroke-linecap:round;stroke-linejoin:round;stroke-miterlimit:4;stroke-dasharray:none;stroke-dashoffset:0;stroke-opacity:1"
         d="M 2.9331928,140.37438 H 75.817165 l -30.984206,-7.34942 -14.635798,-3.92172 7.050731,-1.88877 -17.75757,-4.75838 7.636742,-2.04637 -17.121951,-4.58784 -7.0719202,-1.75748 z"
         id="rect2275-0"
         inkscape:connector-curvature="0"
         sodipodi:nodetypes="cccccccccc" />
    </g>
    <g
       id="g5074">
      <path
         style="fill:#e6e6e6;stroke:none;stroke-width:0.26458332px;stroke-linecap:butt;stroke-linejoin:miter;stroke-opacity:1"
         d="M175.83479 90.618023L172.543467852 91.676629291L169.521174687 93.2501901406L166.82025043 95.2863446387L164.493035 97.732731875L162.59186832 100.536990939L161.169090313 103.646760922L160.277040898 107.009680912L159.96806 110.57339L160.276997051 114.136850293L161.168930781 117.499576719L162.591545059 120.609216348L164.49252375 123.41341625L166.819550723 125.859823496L169.520309844 127.896085156L172.54248498 129.469848301L175.83376 130.52876L176.188140625 126.44385L177.15922 123.0815125L178.609489375 120.37128125L180.40144 118.24269L179.169164063 116.544465312L178.2659375 114.6688225L177.709447188 112.662788437L177.51738 110.57339L177.707847344 108.483106094L178.26299375 106.47595875L179.165185781 104.599039531L180.39679 102.89944L178.606712656 100.770960828L177.15820875 98.061484125L176.188495469 94.7006311094L175.83479 90.618023L175.83479 90.618023"
         id="path1810-3"
         inkscape:connector-curvature="0"
         sodipodi:nodetypes="csccccc" />
      <path
         style="fill:#e6e6e6;stroke:none;stroke-width:0.26458332px;stroke-linecap:butt;stroke-linejoin:miter;stroke-opacity:1"
         d="M178.92504 14.52263L176.261590781 15.4752961504L173.82045375 16.8331850156L171.642564844 18.5553847168L169.76886 20.600983375L168.240275156 22.9290691113L167.09774625 25.4987300469L166.382209219 28.2690543027L166.1346 31.19913L166.381946895 34.127511207L167.096791406 36.8963512187L168.238339277 39.4648382461L169.76579625 41.7921605L171.638368066 43.8375061914L173.815260469 45.5600635312L176.255679199 46.9190207305L178.91883 47.873566L179.29306875 43.9925752969L180.30276 40.937815625L181.77778125 38.6096253906L183.54801 36.908343L182.28274375 35.7929362031L181.3361675 34.425719625L180.742845 32.8722534844L180.53734 31.198098L180.744844844 29.5246053437L181.33979875 27.9721925L182.287610781 26.6063331562L183.55369 25.492501L181.782721406 23.7912456875L180.30729875 21.462441L179.297909219 18.4061985625L178.92504 14.52263L178.92504 14.52263"
         id="path1924-7"
         inkscape:connector-curvature="0"
         sodipodi:nodetypes="csccccc" />
      <path
         inkscape:connector-curvature="0"
         style="opacity:1;vector-effect:none;fill:#e6e6e6;fill-opacity:1;stroke:none;stroke-width:0.30500001;stroke-linecap:round;stroke-linejoin:round;stroke-miterlimit:4;stroke-dasharray:none;stroke-dashoffset:0;stroke-opacity:1"
         d="M106.04267 101.18865L101.5692655 101.55194375L98.37797975 102.392266406L95.329626 103.9921L92.838184625 105.663315L90.1655625469 106.812275312L86.934277 107.33453L84.8006525 107.15763375L82.8855029688 106.560267031L81.073134 105.28918L79.48211025 104.25964625L77.556036 103.88358L75.56986725 104.284550781L73.94797275 105.37804625L72.854477625 106.999941094L72.453507 108.98611L72.854477625 110.972274687L73.94797275 112.59417L75.56986725 113.687667812L77.556036 114.08864L79.48211025 113.7125775L81.073134 112.68304L82.8855029688 111.411875937L84.8006525 110.81433L86.934277 110.63717L90.1655625469 111.159505937L92.838184625 112.308645L95.329626 113.98012L97.0199825195 115.001296875L98.8388392812 115.740794375L102.42576175 116.5541625L106.3424 116.77427L106.8172925 115.84698125L108.3707 113.94446L107.485667563 111.535138175L107.18472 108.98611L107.490528234 106.440282051L108.37897 104.03499L106.81909875 102.12798L106.3424 101.19744L106.04267 101.18844L106.04267 101.18865"
         id="path2044-5" />
      <path
         inkscape:connector-curvature="0"
         style="fill:#e6e6e6;stroke:none;stroke-width:0.26458332px;stroke-linecap:butt;stroke-linejoin:miter;stroke-opacity:1"
         d="M121.08206 14.425453L121.08206 22.436335L122.84113 22.492665L122.84113 22.493194L129.133651719 23.1552673906L132.381753848 23.9163831777L135.50204625 25.028524125L138.347750996 26.5399195566L140.772090156 28.4987987969L142.628285801 30.9533911699L143.76956 33.951926L144.28478 33.949826L152.229 33.949826L151.800179687 31.9770328574L150.825186875 29.2565807344L149.0821725 26.0954765879L146.3492875 22.800727375L142.404682812 19.6793400527L139.908657754 18.2795967747L137.026509375 17.0383215781L133.730506543 15.9938903328L129.992918125 15.1846789082L125.786012988 14.6490631741L121.08206 14.425419L121.08206 14.425453M119.17571 14.431153L118.61089 14.437853L103.75623875 15.392010375L86.87898 17.377207L86.87898 25.452166L101.66255 23.790819125L116.44927 22.600146L119.17571 22.457517L119.17571 14.431153M84.97315 17.638705L68.466106375 20.149577125L52.675897 22.869391L52.675897 30.942284L68.768732125 28.0858915L84.97315 25.698666L84.97315 17.638705M50.770069 23.213559L29.18765075 27.36240575L19.581276 29.368219L17.4828487188 29.8871316719L15.2557895 30.787976125L13.4745242813 32.3625787656L12.9305725273 33.4937351582L12.713479 34.902766L12.9305729375 36.311756498L13.4745256875 37.4428429219L15.25579325 39.017262125L17.4828529375 39.9179407656L19.581276 40.436796L20.4503461719 40.7141130313L22.239128875 41.78389375L23.0947743887 42.7274406289L23.7199823906 44.0028825938L23.961297666 45.6548126992L23.665265 47.727824L13.322744 86.32649L13.0570372969 87.4744335938L13.089056125 89.9999095L13.6053714902 91.3487432227L14.6625088906 92.5253854063L16.415931877 93.3576445117L19.021104 93.673329L23.270974 93.673329L22.644655 85.572533L22.8402799297 82.2066335898L23.409325875 78.7481924062L25.30101275 71.6508925L27.5863795 64.4750488438L29.53209 57.415077L31.1864918906 52.0563685L31.6826023652 49.2502288359L31.864216125 46.43378075L31.6610058691 43.6626856328L31.0026442969 40.992604875L29.8188041074 38.4791998672L28.039158 36.178132L50.770069 31.308145L50.770069 23.213559"
         id="path1457-6-0" />
      <path
         style="fill:#e6e6e6;stroke:none;stroke-width:0.99999994px;stroke-linecap:butt;stroke-linejoin:miter;stroke-opacity:1"
         d="M454.0293 334.49609L454.0293 334.49809L448.29297 334.57229L423.709903835 335.653301062L396.907572244 337.729341152L368.395535582 340.657067502L338.683354203 344.293137344L308.280588463 348.494207908L277.696798717 353.116936426L218.024388625 363.05399625L163.742606768 372.957574668L118.927935984 381.680929531L74.005859 391.0L66.7727480313 392.762877187L62.8422008164 394.019520742L58.9821195 395.668355L55.4023493711 397.815920508L52.3127357188 400.568757813L49.923123832 404.033407461L49.0563952036 406.065955835L48.443359 408.31641L169.88672 408.31641L171.694537054 404.639765464L174.578103735 401.142201094L178.47546895 397.819356372L183.324681602 394.666870781L189.063790596 391.680383804L195.630844839 388.855534922L202.963893234 386.187963618L211.000984687 383.673309375L228.939492388 379.08531L248.95075918 375.056652656L270.539176304 371.552453203L293.209135 368.5378275L316.465026509 365.977891406L339.81124207 363.837760781L362.752172925 362.082551484L384.792210313 360.677379375L424.187169648 358.777610156L454.03125 357.85938L457.03516 357.83198L466.316229729 358.312110681L474.551994238 359.589001387L481.804632761 361.568346985L488.136324531 364.155842344L493.609248782 367.257182332L498.285584746 370.778061816L502.227511658 374.624175667L505.49720875 378.70121875L508.156855256 382.914885935L510.26863041 387.17087209L511.894713445 391.374872083L513.097283594 395.432580781L514.480602168 402.73190377L514.91602 408.3144L520.30664 408.3144L520.30664 394.7812L539.9375 394.7812L539.9375 408.3144L545.32812 408.3144L545.32812 415.51753L539.9375 415.51753L539.9375 429.05073L520.30664 429.05073L520.30664 415.51753L514.91406 415.51753L514.463195273 421.22353375L513.018957188 428.69726875L511.759917788 432.847663398L510.055248633 437.140744375L507.839187583 441.476762852L505.0459725 445.75597L501.609841245 449.878616992L497.46503168 453.744955L492.545781665 457.255235195L486.786329063 460.30970875L480.120911733 462.808626836L472.483767539 464.652240625L463.809134341 465.740801289L454.03125 465.97456L424.187188105 465.056317539L384.792273594 463.156535313L362.752263562 461.751357095L339.811360723 459.996142305L316.465171858 457.856007065L293.20930375 455.2960675L270.539363181 452.281439731L248.950956934 448.777239883L228.93969179 444.748584077L211.001174531 440.160588437L202.964073479 437.645936968L195.631011941 434.978369087L189.063940766 432.153524308L183.324810801 429.167042148L178.475572894 426.014562122L174.578177893 422.691723745L171.694576646 419.194166533L169.88672 415.51753L160.79492 415.51753L160.79492 429.04878L141.16406 429.04878L141.16406 415.51758L48.443359 415.51758L49.056395665 417.767954475L49.9231255547 419.800394551L52.312741625 423.264761406L55.4023604453 426.017260371L58.98213525 428.16447125L62.8422192734 429.812973848L66.77276575 431.069347969L74.005859 432.83203L118.927930359 442.15141125L163.742596221 450.875084453L218.024373625 460.7790275L277.696781139 470.716451484L308.280570739 475.339347295L338.683337328 479.5405675L368.395520728 483.176763486L396.90756076 486.104586641L423.709897243 488.18068835L448.29297 489.26172L459.593561835 489.291222115L470.206159331 488.86393864L480.152354222 488.009763907L489.453738242 486.758592246L498.131903127 485.14031799L506.20844061 483.184835471L513.704942427 480.92203902L520.643000312 478.381822969L527.044206 475.594081649L532.930151226 472.588709392L538.322427723 469.39560053L543.242627227 466.044649395L547.712341472 462.565750317L551.753162192 458.988797629L555.386681124 455.343685663L558.63449 451.66030875L564.059344526 444.29833741L568.200459648 437.142038262L571.230569243 430.430565959L573.322407187 424.403075156L574.648707358 419.298720505L575.382203633 415.35665666L575.76172 411.91602L575.397400273 408.577213457L574.694862329 404.7458853L573.425727187 399.777433906L571.425235991 393.89997929L568.528629883 387.341641465L564.571150005 380.330540447L559.3880375 373.09479625L556.28538187 369.463970464L552.814533511 365.862528889L548.954897567 362.318986527L544.68587918 358.861858379L539.986883493 355.519659447L534.837315649 352.320904734L529.216580792 349.29410924L523.104084062 346.467787969L516.479230605 343.870455921L509.321425562 341.530628098L501.610074075 339.476819503L493.324581289 337.737545137L484.444352346 336.341320002L474.948792388 335.316659099L464.817306558 334.692077431L454.0293 334.49609L454.0293 334.49609M141.16406 394.78125L160.79492 394.78125L160.79492 408.31445L141.16406 408.31445L141.16406 394.78125"
         transform="scale(0.26458333)"
         id="path1457"
         inkscape:connector-curvature="0" />
      <path
         style="opacity:1;vector-effect:none;fill:#e6e6e6;fill-opacity:1;stroke:none;stroke-width:0.86550629;stroke-linecap:round;stroke-linejoin:round;stroke-miterlimit:4;stroke-dasharray:none;stroke-dashoffset:0;stroke-opacity:1"
         d="M335.03125 222.62305L332.323097793 222.894417559L329.803819844 223.673134219L327.52649541 224.906120957L325.54420375 226.54029875L323.910024121 228.522588574L322.677035781 230.799911406L321.898317988 233.319188223L321.62695 236.02734L321.62695 248.27344L335.0332 248.27344L342.23633 248.27344L355.64258 248.27344L355.64258 236.02734L355.371212012 233.319188223L354.592494219 230.799911406L353.359505879 228.522588574L351.72532625 226.54029875L349.74303459 224.906120957L347.465710156 223.673134219L344.946432207 222.894417559L342.23828 222.62305L335.03125 222.62305M321.62695 308.32812L321.898632168 311.035961602L322.677550469 313.554912188L323.910637598 315.83191043L325.54482625 317.813895L327.527049121 319.44780457L329.804238906 320.680577813L332.323328301 321.459153398L335.03125 321.73047L335.03325 321.73047L335.03325 308.32812L321.62695 308.32812M342.23633 308.32812L342.23633 321.73047L342.23833 321.73047L344.946249238 321.459151758L347.465332656 320.680572188L349.742515059 319.447794023L351.72473125 317.81388L353.358916035 315.831892852L354.592004219 313.554895313L355.370930605 311.035950117L355.64263 308.32812L342.23633 308.32812"
         transform="scale(0.26458333)"
         id="rect2237"
         inkscape:connector-curvature="0"
         sodipodi:nodetypes="ssccccssscscccccscc" />
      <path
         style="opacity:1;vector-effect:none;fill:#e6e6e6;fill-opacity:1;stroke:none;stroke-width:0.93548757;stroke-linecap:round;stroke-linejoin:round;stroke-miterlimit:4;stroke-dasharray:none;stroke-dashoffset:0;stroke-opacity:1"
         d="M276.86914 214.28711L274.190632891 214.555518066L271.69891 215.325739531L269.446476484 216.545270293L267.4858375 218.16160625L265.869498203 220.122243301L264.64996375 222.374677344L263.879739297 224.866404277L263.61133 227.54492L263.61133 240.16992L277.01562 240.16992L284.2207 240.16992L297.62695 240.16992L297.62695 227.54492L297.358542344 224.866404277L296.588321875 222.374677344L295.368792344 220.122243301L293.7524575 218.16160625L291.791821094 216.545270293L289.539386875 215.325739531L287.047658594 214.555518066L284.36914 214.28711L276.86914 214.28711M263.61133 316.81055L263.879739297 319.489140898L264.64996375 321.981084688L265.869498203 324.233830508L267.4858375 326.1948275L269.446476484 327.811524805L271.69891 329.031371563L274.190632891 329.801816914L276.86914 330.07031L284.36914 330.07031L287.047658594 329.801816914L289.539386875 329.031371563L291.791821094 327.811524805L293.7524575 326.1948275L295.368792344 324.233830508L296.588321875 321.981084688L297.358542344 319.489140898L297.62695 316.81055L284.2207 316.81055L284.2207 330.06836L277.01562 330.06836L277.01562 316.81055L263.61133 316.81055"
         transform="scale(0.26458333)"
         id="rect2237-6"
         inkscape:connector-curvature="0"
         sodipodi:nodetypes="ssccccssscsscccccc" />
      <path
         style="opacity:1;vector-effect:none;fill:#e6e6e6;fill-opacity:1;stroke:none;stroke-width:0.99936712;stroke-linecap:round;stroke-linejoin:round;stroke-miterlimit:4;stroke-dasharray:none;stroke-dashoffset:0;stroke-opacity:1"
         d="M218.72656 206.10938L216.073593945 206.375289297L213.605680312 207.13832625L211.374808398 208.346454453L209.4329675 209.9476375L207.832146914 211.889838984L206.624335938 214.1210225L205.861523867 216.589151641L205.5957 219.24219L205.5957 231.99219L219.00195 231.99219L226.20508 231.99219L239.61133 231.99219L239.61133 219.24219L239.345425215 216.58915123L238.582399219 214.121021094L237.374284551 211.889836348L235.77311375 209.94763375L233.830919355 208.346450059L231.599733906 207.138322031L229.131589941 206.375286426L226.47852 206.10938L218.72656 206.10938M205.5957 325.11133L205.861523867 327.764379844L206.624335938 330.232514375L207.832146914 332.463698594L209.4329675 334.4058975L211.374808398 336.007076094L213.605680312 337.215199375L216.073593945 337.978232344L218.72656 338.24414L219.00195 338.24414L219.00195 325.11133L205.5957 325.11133M226.20508 325.11133L226.20508 338.24414L226.47852 338.24414L229.131589941 337.978232344L231.599733906 337.215199375L233.830919355 336.007076094L235.77311375 334.4058975L237.374284551 332.463698594L238.582399219 330.232514375L239.345425215 327.764379844L239.61133 325.11133L226.20508 325.11133"
         transform="scale(0.26458333)"
         id="rect2237-6-6"
         inkscape:connector-curvature="0"
         sodipodi:nodetypes="ssccccscscscccccscc" />
      <rect
         style="opacity:1;vector-effect:none;fill:#e6e6e6;fill-opacity:1;stroke:none;stroke-width:0.30499998;stroke-linecap:round;stroke-linejoin:round;stroke-miterlimit:4;stroke-dasharray:none;stroke-dashoffset:0;stroke-opacity:1"
         id="rect4481-2"
         width="3.5470695"
         height="2.7707887"
         x="54.397232"
         y="66.672935" />
      <rect
         style="opacity:1;vector-effect:none;fill:#e6e6e6;fill-opacity:1;stroke:none;stroke-width:0.30499998;stroke-linecap:round;stroke-linejoin:round;stroke-miterlimit:4;stroke-dasharray:none;stroke-dashoffset:0;stroke-opacity:1"
         id="rect4481-2-2"
         width="3.5470695"
         height="2.7707887"
         x="59.850132"
         y="66.672935" />
      <rect
         style="opacity:1;vector-effect:none;fill:#e6e6e6;fill-opacity:1;stroke:none;stroke-width:0.30499998;stroke-linecap:round;stroke-linejoin:round;stroke-miterlimit:4;stroke-dasharray:none;stroke-dashoffset:0;stroke-opacity:1"
         id="rect4481-2-3"
         width="3.5470695"
         height="2.7707887"
         x="69.746948"
         y="68.836632" />
      <rect
         style="opacity:1;vector-effect:none;fill:#e6e6e6;fill-opacity:1;stroke:none;stroke-width:0.30499998;stroke-linecap:round;stroke-linejoin:round;stroke-miterlimit:4;stroke-dasharray:none;stroke-dashoffset:0;stroke-opacity:1"
         id="rect4481-2-4"
         width="3.5470695"
         height="2.7707887"
         x="75.200104"
         y="68.836632" />
      <rect
         style="opacity:1;vector-effect:none;fill:#e6e6e6;fill-opacity:1;stroke:none;stroke-width:0.30499998;stroke-linecap:round;stroke-linejoin:round;stroke-miterlimit:4;stroke-dasharray:none;stroke-dashoffset:0;stroke-opacity:1"
         id="rect4481-2-5"
         width="3.5470695"
         height="2.7707887"
         x="85.097183"
         y="70.980682" />
      <rect
         style="opacity:1;vector-effect:none;fill:#e6e6e6;fill-opacity:1;stroke:none;stroke-width:0.30499998;stroke-linecap:round;stroke-linejoin:round;stroke-miterlimit:4;stroke-dasharray:none;stroke-dashoffset:0;stroke-opacity:1"
         id="rect4481-2-85"
         width="3.5470695"
         height="2.7707887"
         x="90.550079"
         y="70.980682" />
      <rect
         style="opacity:1;vector-effect:none;fill:#e6e6e6;fill-opacity:1;stroke:none;stroke-width:0.22381367;stroke-linecap:round;stroke-linejoin:round;stroke-miterlimit:4;stroke-dasharray:none;stroke-dashoffset:0;stroke-opacity:1"
         id="rect4481-2-85-4"
         width="1.9100437"
         height="2.7707887"
         x="-53.871159"
         y="35.907417"
         transform="rotate(-90)" />
      <rect
         style="opacity:1;vector-effect:none;fill:#e6e6e6;fill-opacity:1;stroke:none;stroke-width:0.22381367;stroke-linecap:round;stroke-linejoin:round;stroke-miterlimit:4;stroke-dasharray:none;stroke-dashoffset:0;stroke-opacity:1"
         id="rect4481-2-85-4-4"
         width="1.9100437"
         height="2.7707887"
         x="-57.687542"
         y="35.907417"
         transform="rotate(-90)" />
      <rect
         style="opacity:1;vector-effect:none;fill:#e6e6e6;fill-opacity:1;stroke:none;stroke-width:0.22381367;stroke-linecap:round;stroke-linejoin:round;stroke-miterlimit:4;stroke-dasharray:none;stroke-dashoffset:0;stroke-opacity:1"
         id="rect4481-2-85-4-2"
         width="1.9100437"
         height="2.7707887"
         x="-73.923737"
         y="35.90741"
         transform="rotate(-90)" />
      <rect
         style="opacity:1;vector-effect:none;fill:#e6e6e6;fill-opacity:1;stroke:none;stroke-width:0.22381367;stroke-linecap:round;stroke-linejoin:round;stroke-miterlimit:4;stroke-dasharray:none;stroke-dashoffset:0;stroke-opacity:1"
         id="rect4481-2-85-4-5"
         width="1.9100437"
         height="2.7707887"
         x="-70.107872"
         y="35.90741"
         transform="rotate(-90)" />
      <rect
         style="opacity:1;vector-effect:none;fill:#e6e6e6;fill-opacity:1;stroke:none;stroke-width:0.22381367;stroke-linecap:round;stroke-linejoin:round;stroke-miterlimit:4;stroke-dasharray:none;stroke-dashoffset:0;stroke-opacity:1"
         id="rect4481-2-85-4-3"
         width="1.9100437"
         height="2.7707887"
         x="-86.344604"
         y="35.90741"
         transform="rotate(-90)" />
      <rect
         style="opacity:1;vector-effect:none;fill:#e6e6e6;fill-opacity:1;stroke:none;stroke-width:0.22381367;stroke-linecap:round;stroke-linejoin:round;stroke-miterlimit:4;stroke-dasharray:none;stroke-dashoffset:0;stroke-opacity:1"
         id="rect4481-2-85-4-36"
         width="1.9100437"
         height="2.7707887"
         x="-90.160469"
         y="35.90741"
         transform="rotate(-90)" />
      <rect
         style="opacity:1;vector-effect:none;fill:#e6e6e6;fill-opacity:1;stroke:none;stroke-width:0.22381367;stroke-linecap:round;stroke-linejoin:round;stroke-miterlimit:4;stroke-dasharray:none;stroke-dashoffset:0;stroke-opacity:1"
         id="rect4481-2-85-4-3-3"
         width="1.9100437"
         height="2.7707887"
         x="-108.03318"
         y="38.56126"
         transform="rotate(-90)" />
      <rect
         style="opacity:1;vector-effect:none;fill:#e6e6e6;fill-opacity:1;stroke:none;stroke-width:0.22381367;stroke-linecap:round;stroke-linejoin:round;stroke-miterlimit:4;stroke-dasharray:none;stroke-dashoffset:0;stroke-opacity:1"
         id="rect4481-2-85-4-3-2"
         width="1.9100437"
         height="2.7707887"
         x="-111.84906"
         y="38.56126"
         transform="rotate(-90)" />
      <rect
         style="opacity:1;vector-effect:none;fill:#e6e6e6;fill-opacity:1;stroke:none;stroke-width:0.22381367;stroke-linecap:round;stroke-linejoin:round;stroke-miterlimit:4;stroke-dasharray:none;stroke-dashoffset:0;stroke-opacity:1"
         id="rect4481-2-85-4-3-3-3"
         width="1.9100437"
         height="2.7707887"
         x="-108.0332"
         y="138.87607"
         transform="rotate(-90)" />
      <rect
         style="opacity:1;vector-effect:none;fill:#e6e6e6;fill-opacity:1;stroke:none;stroke-width:0.22381367;stroke-linecap:round;stroke-linejoin:round;stroke-miterlimit:4;stroke-dasharray:none;stroke-dashoffset:0;stroke-opacity:1"
         id="rect4481-2-85-4-3-3-4"
         width="1.9100437"
         height="2.7707887"
         x="-111.84906"
         y="138.87587"
         transform="rotate(-90)" />
      <rect
         style="opacity:1;vector-effect:none;fill:#e6e6e6;fill-opacity:1;stroke:none;stroke-width:0.22381367;stroke-linecap:round;stroke-linejoin:round;stroke-miterlimit:4;stroke-dasharray:none;stroke-dashoffset:0;stroke-opacity:1"
         id="rect4481-2-85-4-3-3-3-5"
         width="1.9100437"
         height="2.7707887"
         x="-30.245703"
         y="183.39867"
         transform="rotate(-90)" />
      <rect
         style="opacity:1;vector-effect:none;fill:#e6e6e6;fill-opacity:1;stroke:none;stroke-width:0.22381367;stroke-linecap:round;stroke-linejoin:round;stroke-miterlimit:4;stroke-dasharray:none;stroke-dashoffset:0;stroke-opacity:1"
         id="rect4481-2-85-4-3-3-3-8"
         width="1.9100437"
         height="2.7707887"
         x="-34.062088"
         y="183.39867"
         transform="rotate(-90)" />
      <rect
         style="opacity:1;vector-effect:none;fill:#e6e6e6;fill-opacity:1;stroke:none;stroke-width:0.22381367;stroke-linecap:round;stroke-linejoin:round;stroke-miterlimit:4;stroke-dasharray:none;stroke-dashoffset:0;stroke-opacity:1"
         id="rect4481-2-85-4-3-3-3-4"
         width="1.9100437"
         height="2.7707887"
         x="-109.6207"
         y="180.4464"
         transform="rotate(-90)" />
      <rect
         style="opacity:1;vector-effect:none;fill:#e6e6e6;fill-opacity:1;stroke:none;stroke-width:0.22381367;stroke-linecap:round;stroke-linejoin:round;stroke-miterlimit:4;stroke-dasharray:none;stroke-dashoffset:0;stroke-opacity:1"
         id="rect4481-2-85-4-3-3-3-9"
         width="1.9100437"
         height="2.7707887"
         x="-113.43656"
         y="180.4464"
         transform="rotate(-90)" />
      <rect
         style="opacity:1;vector-effect:none;fill:#e6e6e6;fill-opacity:1;stroke:none;stroke-width:0.22381367;stroke-linecap:round;stroke-linejoin:round;stroke-miterlimit:4;stroke-dasharray:none;stroke-dashoffset:0;stroke-opacity:1"
         id="rect4481-2-85-4-3-3-3-7"
         width="1.9100437"
         height="2.7707887"
         x="-108.0332"
         y="110.95503"
         transform="rotate(-90)" />
      <rect
         style="opacity:1;vector-effect:none;fill:#e6e6e6;fill-opacity:1;stroke:none;stroke-width:0.22381367;stroke-linecap:round;stroke-linejoin:round;stroke-miterlimit:4;stroke-dasharray:none;stroke-dashoffset:0;stroke-opacity:1"
         id="rect4481-2-85-4-3-3-3-1"
         width="1.9100437"
         height="2.7707887"
         x="-111.84906"
         y="110.95503"
         transform="rotate(-90)" />
      <rect
         style="opacity:1;vector-effect:none;fill:#e6e6e6;fill-opacity:1;stroke:none;stroke-width:0.22381367;stroke-linecap:round;stroke-linejoin:round;stroke-miterlimit:4;stroke-dasharray:none;stroke-dashoffset:0;stroke-opacity:1"
         id="rect4481-2-85-4-3-3-3-73"
         width="1.9100437"
         height="2.7707887"
         x="121.08206"
         y="34.902782" />
      <rect
         style="opacity:1;vector-effect:none;fill:#e6e6e6;fill-opacity:1;stroke:none;stroke-width:0.22381367;stroke-linecap:round;stroke-linejoin:round;stroke-miterlimit:4;stroke-dasharray:none;stroke-dashoffset:0;stroke-opacity:1"
         id="rect4481-2-85-4-3-3-3-73-0"
         width="1.9100437"
         height="2.7707887"
         x="117.26568"
         y="34.902782" />
      <rect
         style="opacity:1;vector-effect:none;fill:#e6e6e6;fill-opacity:1;stroke:none;stroke-width:0.22381367;stroke-linecap:round;stroke-linejoin:round;stroke-miterlimit:4;stroke-dasharray:none;stroke-dashoffset:0;stroke-opacity:1"
         id="rect4481-2-85-4-3-3-3-73-9"
         width="1.9100437"
         height="2.7707887"
         x="86.878967"
         y="34.902782" />
      <rect
         style="opacity:1;vector-effect:none;fill:#e6e6e6;fill-opacity:1;stroke:none;stroke-width:0.22381367;stroke-linecap:round;stroke-linejoin:round;stroke-miterlimit:4;stroke-dasharray:none;stroke-dashoffset:0;stroke-opacity:1"
         id="rect4481-2-85-4-3-3-3-73-05"
         width="1.9100437"
         height="2.7707887"
         x="83.063103"
         y="34.902782" />
      <rect
         style="opacity:1;vector-effect:none;fill:#e6e6e6;fill-opacity:1;stroke:none;stroke-width:0.22381367;stroke-linecap:round;stroke-linejoin:round;stroke-miterlimit:4;stroke-dasharray:none;stroke-dashoffset:0;stroke-opacity:1"
         id="rect4481-2-85-4-3-3-3-73-2"
         width="1.9100437"
         height="2.7707887"
         x="48.860023"
         y="34.902782" />
      <rect
         style="opacity:1;vector-effect:none;fill:#e6e6e6;fill-opacity:1;stroke:none;stroke-width:0.22381367;stroke-linecap:round;stroke-linejoin:round;stroke-miterlimit:4;stroke-dasharray:none;stroke-dashoffset:0;stroke-opacity:1"
         id="rect4481-2-85-4-3-3-3-73-28"
         width="1.9100437"
         height="2.7707887"
         x="52.675892"
         y="34.902782" />
      <rect
         style="opacity:1;vector-effect:none;fill:#e6e6e6;fill-opacity:1;stroke:none;stroke-width:0.22381367;stroke-linecap:round;stroke-linejoin:round;stroke-miterlimit:4;stroke-dasharray:none;stroke-dashoffset:0;stroke-opacity:1"
         id="rect4481-2-85-4-3-3-9"
         width="1.9100437"
         height="2.7707887"
         x="-37.766258"
         y="138.87592"
         transform="rotate(-90)" />
      <rect
         style="opacity:1;vector-effect:none;fill:#e6e6e6;fill-opacity:1;stroke:none;stroke-width:0.22381367;stroke-linecap:round;stroke-linejoin:round;stroke-miterlimit:4;stroke-dasharray:none;stroke-dashoffset:0;stroke-opacity:1"
         id="rect4481-2-85-4-3-3-9-7"
         width="1.9100437"
         height="2.7707887"
         x="-37.766254"
         y="38.56131"
         transform="rotate(-90)" />
      <rect
         style="opacity:1;vector-effect:none;fill:#e6e6e6;fill-opacity:1;stroke:none;stroke-width:0.22381367;stroke-linecap:round;stroke-linejoin:round;stroke-miterlimit:4;stroke-dasharray:none;stroke-dashoffset:0;stroke-opacity:1"
         id="rect4481-2-85-4-3-3-9-5"
         width="1.9100437"
         height="2.7707887"
         x="-33.949867"
         y="138.87592"
         transform="rotate(-90)" />
    </g>
  </g>
</svg>
