<?xml version="1.0" encoding="UTF-8" standalone="no"?>
<!-- Created with Inkscape (http://www.inkscape.org/) -->

<svg
   xmlns:dc="http://purl.org/dc/elements/1.1/"
   xmlns:cc="http://creativecommons.org/ns#"
   xmlns:rdf="http://www.w3.org/1999/02/22-rdf-syntax-ns#"
   xmlns:svg="http://www.w3.org/2000/svg"
   xmlns="http://www.w3.org/2000/svg"
   xmlns:sodipodi="http://sodipodi.sourceforge.net/DTD/sodipodi-0.dtd"
   xmlns:inkscape="http://www.inkscape.org/namespaces/inkscape"
   width="205.0443mm"
   height="135.78448mm"
   viewBox="0 0 205.0443 135.78448"
   version="1.1"
   id="svg893"
   inkscape:version="0.92.3 (2405546, 2018-03-11)"
   sodipodi:docname="panel_copper.svg">
  <sodipodi:namedview
     id="base"
     pagecolor="#ffffff"
     bordercolor="#666666"
     borderopacity="1.0"
     inkscape:pageopacity="0.0"
     inkscape:pageshadow="2"
     inkscape:zoom="4"
     inkscape:cx="267.19388"
     inkscape:cy="302.57363"
     inkscape:document-units="mm"
     inkscape:current-layer="g5074"
     showgrid="false"
     inkscape:snap-midpoints="true"
     inkscape:object-paths="true"
     inkscape:snap-smooth-nodes="true"
     inkscape:snap-center="true"
     inkscape:snap-object-midpoints="true"
     inkscape:snap-intersection-paths="true"
     inkscape:window-width="1920"
     inkscape:window-height="1017"
     inkscape:window-x="3832"
     inkscape:window-y="1056"
     inkscape:window-maximized="1"
     fit-margin-top="0"
     fit-margin-left="0"
     fit-margin-right="0"
     fit-margin-bottom="0" />
  <defs
     id="defs887" />
  <metadata
     id="metadata890">
    <rdf:RDF>
      <cc:Work
         rdf:about="">
        <dc:format>image/svg+xml</dc:format>
        <dc:type
           rdf:resource="http://purl.org/dc/dcmitype/StillImage" />
        <dc:title />
      </cc:Work>
    </rdf:RDF>
  </metadata>
  <g
     transform="translate(-2.9331922,-4.5899006)"
     id="layer1"
     inkscape:groupmode="layer"
     inkscape:label="Layer 1">
    <g
       id="g5074">
      <path
         style="fill:#e6e6e6;stroke:none;stroke-width:0.26458332px;stroke-linecap:butt;stroke-linejoin:miter;stroke-opacity:1"
         d="m 175.83479,90.618023 -3.29132,1.058606 -3.0223,1.573561 -2.70092,2.036155 -2.32722,2.446387 -1.90116,2.804258 -1.42278,3.10977 -0.89205,3.36292 -0.30898,3.56371 0.30894,3.56346 0.89193,3.36273 1.42262,3.10964 1.90097,2.8042 2.32703,2.4464 2.70076,2.03627 3.02217,1.57376 3.29128,1.05891 0.35438,-4.08491 0.97108,-3.36234 1.45027,-2.71023 1.79195,-2.12859 -1.23228,-1.69822 -0.90322,-1.87565 -0.55649,-2.00603 -0.19207,-2.0894 0.19047,-2.09028 0.55514,-2.00715 0.9022,-1.87692 1.2316,-1.6996 -1.79008,-2.12848 -1.4485,-2.709476 -0.96971,-3.360853 -0.35371,-4.082608 v 0"
         id="path1810-3"
         inkscape:connector-curvature="0"
         sodipodi:nodetypes="csccccc" />
      <path
         style="fill:#e6e6e6;stroke:none;stroke-width:0.26458332px;stroke-linecap:butt;stroke-linejoin:miter;stroke-opacity:1"
         d="m 178.92504,14.52263 -2.66345,0.952666 -2.44114,1.357889 -2.17789,1.7222 -1.8737,2.045598 -1.52858,2.328086 -1.14253,2.569661 -0.71554,2.770324 -0.24761,2.930076 0.24735,2.928381 0.71484,2.76884 1.14155,2.568487 1.52746,2.327323 1.87257,2.045345 2.17689,1.722558 2.44042,1.358957 2.66315,0.954545 0.37424,-3.880991 1.00969,-3.054759 1.47502,-2.328191 1.77023,-1.701282 -1.26527,-1.115407 -0.94657,-1.367216 -0.59333,-1.553467 -0.2055,-1.674155 0.2075,-1.673493 0.59496,-1.552413 0.94781,-1.365859 1.26608,-1.113832 -1.77097,-1.701255 -1.47542,-2.328805 -1.00939,-3.056242 -0.37287,-3.883569 v 0"
         id="path1924-7"
         inkscape:connector-curvature="0"
         sodipodi:nodetypes="csccccc" />
      <path
         inkscape:connector-curvature="0"
         style="opacity:1;vector-effect:none;fill:#e6e6e6;fill-opacity:1;stroke:none;stroke-width:0.30500001;stroke-linecap:round;stroke-linejoin:round;stroke-miterlimit:4;stroke-dasharray:none;stroke-dashoffset:0;stroke-opacity:1"
         d="m 106.04267,101.18865 -4.4734,0.36329 -3.19129,0.84033 -3.048354,1.59983 -2.491441,1.67121 -2.672622,1.14897 -3.231286,0.52225 -2.133625,-0.1769 -1.915149,-0.59736 -1.812369,-1.27109 -1.591024,-1.02953 -1.926074,-0.37607 -1.986169,0.40097 -1.621894,1.0935 -1.093495,1.62189 -0.400971,1.98617 0.400971,1.98616 1.093495,1.6219 1.621894,1.0935 1.986169,0.40097 1.926074,-0.37606 1.591024,-1.02954 1.812369,-1.27116 1.915149,-0.59755 2.133625,-0.17716 3.231286,0.52234 2.672622,1.14914 2.491441,1.67147 1.690357,1.02118 1.818856,0.73949 3.586921,0.81337 3.91664,0.22011 0.47489,-0.92729 1.55341,-1.90252 -0.88503,-2.40932 -0.30095,-2.54903 0.30581,-2.54583 0.88844,-2.40529 -1.55987,-1.90701 -0.4767,-0.93054 -0.29973,-0.009 v 2.1e-4"
         id="path2044-5" />
      <path
         inkscape:connector-curvature="0"
         style="fill:#e6e6e6;stroke:none;stroke-width:0.26458332px;stroke-linecap:butt;stroke-linejoin:miter;stroke-opacity:1"
         d="m 121.08206,14.425453 v 8.010882 l 1.75907,0.05633 v 5.29e-4 l 6.29252,0.662073 3.2481,0.761116 3.1203,1.112141 2.8457,1.511396 2.42434,1.958879 1.8562,2.454592 1.14127,2.998535 0.51522,-0.0021 h 7.94422 l -0.42882,-1.972793 -0.97499,-2.720452 -1.74302,-3.161104 -2.73288,-3.29475 -3.94461,-3.121387 -2.49602,-1.399743 -2.88215,-1.241275 -3.296,-1.044432 -3.73759,-0.809211 -4.20691,-0.535616 -4.70395,-0.223644 v 3.4e-5 m -1.90635,0.0057 -0.56482,0.0067 -14.85465,0.954157 -16.87726,1.985197 v 8.074959 l 14.78357,-1.661347 14.78672,-1.190673 2.72644,-0.142629 v -8.026364 m -34.20256,3.207552 -16.507044,2.510872 -15.790209,2.719814 v 8.072893 L 68.768732,28.085891 84.97315,25.698666 v -8.059961 m -34.203081,5.574854 -21.582418,4.148847 -9.606375,2.005813 -2.098427,0.518913 -2.227059,0.900844 -1.781266,1.574603 -0.543951,1.131156 -0.217094,1.409031 0.217094,1.40899 0.543953,1.131087 1.781267,1.574419 2.22706,0.900679 2.098423,0.518855 0.86907,0.277317 1.788783,1.069781 0.855645,0.943547 0.625208,1.275442 0.241316,1.65193 -0.296033,2.073011 -10.342521,38.598666 -0.265707,1.147944 0.03202,2.525475 0.516315,1.348834 1.057138,1.176642 1.753423,0.83226 2.605172,0.315684 h 4.24987 l -0.626319,-8.100796 0.195625,-3.365899 0.569046,-3.458442 1.891687,-7.0973 2.285366,-7.175843 1.945711,-7.059972 1.654402,-5.358709 0.49611,-2.806139 0.181614,-2.816448 -0.20321,-2.771095 -0.658362,-2.670081 -1.18384,-2.513405 -1.779646,-2.301068 22.730911,-4.869987 v -8.094586"
         id="path1457-6-0" />
      <path
         style="fill:#e6e6e6;stroke:none;stroke-width:0.99999994px;stroke-linecap:butt;stroke-linejoin:miter;stroke-opacity:1"
         d="m 454.0293,334.49609 v 0.002 l -5.73633,0.0742 -24.58307,1.08101 -26.80233,2.07604 -28.51203,2.92773 -29.71219,3.63607 -30.40276,4.20107 -30.58379,4.62273 -59.67241,9.93706 -54.28178,9.90357 -44.81467,8.72336 L 74.005859,391 l -7.233111,1.76288 -3.930547,1.25664 -3.860081,1.64884 -3.579771,2.14756 -3.089613,2.75284 -2.389612,3.46465 -0.866729,2.03255 -0.613036,2.25045 76.755951,-1e-5 15.96475,-0.002 v -13.53316 l 19.63086,10e-6 v 13.53321 l 9.0918,0.002 1.80782,-3.67667 2.88356,-3.49757 3.89737,-3.32284 4.84921,-3.15249 5.73911,-2.98649 6.56705,-2.82485 7.33305,-2.66757 8.03709,-2.51465 17.93851,-4.588 20.01127,-4.02866 21.58842,-3.5042 22.66995,-3.01462 23.2559,-2.55994 23.34621,-2.14013 22.94093,-1.75521 22.04004,-1.40517 39.39496,-1.89977 29.84408,-0.91823 3.00391,-0.0274 9.28107,0.48013 8.23576,1.27689 7.25264,1.97935 6.33169,2.58749 5.47293,3.10134 4.67633,3.52088 3.94193,3.84612 3.2697,4.07704 2.65965,4.21367 2.11177,4.25598 1.62608,4.204 1.20257,4.05771 1.38332,7.29932 0.43542,5.5825 h 5.39062 v -13.5332 h 19.63086 v 13.5332 h 5.39062 v 7.20313 h -5.39062 v 13.5332 h -19.63086 v -13.5332 h -5.39258 l -0.45086,5.706 -1.44424,7.47374 -1.25904,4.15039 -1.70467,4.29308 -2.21606,4.33602 -2.79322,4.27921 -3.43613,4.12265 -4.14481,3.86633 -4.91925,3.51029 -5.75945,3.05447 -6.66542,2.49892 -7.63714,1.84361 -8.67464,1.08856 -9.77788,0.23376 -29.84406,-0.91824 -39.39492,-1.89978 -22.04001,-1.40518 -22.9409,-1.75522 -23.34619,-2.14013 -23.25587,-2.55994 -22.66994,-3.01463 -21.5884,-3.5042 -20.01127,-4.02866 -17.93852,-4.58799 -8.0371,-2.51465 -7.33306,-2.66757 -6.56707,-2.82485 -5.73913,-2.98648 -4.84924,-3.15248 -3.89739,-3.32284 -2.8836,-3.49755 -1.80786,-3.67664 h -9.0918 v 13.53125 h -19.63086 v -13.5312 H 128.80052 48.443359 l 0.613037,2.25037 0.86673,2.03244 2.389616,3.46437 3.089618,2.7525 3.579775,2.14721 3.860084,1.6485 3.930547,1.25638 7.233093,1.76268 44.922071,9.31938 44.81467,8.72367 54.28177,9.90395 59.67241,9.93742 30.58379,4.6229 30.40277,4.20122 29.71218,3.63619 28.51204,2.92783 26.80234,2.0761 24.58307,1.08103 11.30059,0.0295 10.6126,-0.42728 9.94619,-0.85418 9.30139,-1.25117 8.67816,-1.61827 8.07654,-1.95548 7.4965,-2.2628 6.93806,-2.54022 6.40121,-2.78774 5.88594,-3.00537 5.39228,-3.19311 4.9202,-3.35095 4.46971,-3.4789 4.04082,-3.57695 3.63352,-3.64511 3.24781,-3.68338 5.42485,-7.36197 4.14112,-7.1563 3.03011,-6.71147 2.09184,-6.02749 1.3263,-5.10436 0.73349,-3.94206 0.37952,-3.44064 -0.36432,-3.33881 -0.70254,-3.83132 -1.26913,-4.96846 -2.00049,-5.87745 -2.89661,-6.55834 -3.95748,-7.0111 -5.18311,-7.23574 -3.10266,-3.63083 -3.47085,-3.60144 -3.85963,-3.54354 -4.26902,-3.45713 -4.699,-3.3422 -5.14956,-3.19876 -5.62074,-3.02679 -6.1125,-2.82632 -6.62485,-2.59733 -7.1578,-2.33983 -7.71136,-2.05381 -8.28549,-1.73927 -8.88023,-1.39623 -9.49556,-1.02466 -10.13148,-0.62458 -10.78801,-0.19599 v 0"
         transform="scale(0.26458333)"
         id="path7114"
         inkscape:connector-curvature="0"
         sodipodi:nodetypes="cccccccccccccccccccccccccccccccccccccccccccccccccccccccccccccccccccccccccccccccccccccccccccccccccccccccccccccccccccccccccccccccccccccccccccccccccccccccccccccccccccccccccccccc" />
      <path
         style="opacity:1;vector-effect:none;fill:#e6e6e6;fill-opacity:1;stroke:none;stroke-width:0.86550629;stroke-linecap:round;stroke-linejoin:round;stroke-miterlimit:4;stroke-dasharray:none;stroke-dashoffset:0;stroke-opacity:1"
         d="M335.03125 222.62305L332.3231 222.89442L329.80382 223.67313L327.5265 224.90612L325.5442 226.5403L323.91002 228.52259L322.67704 230.79991L321.89832 233.31919L321.62695 236.02734L321.62695 248.27344L335.0332 248.27344L342.23633 248.27344L355.64258 248.27344L355.64258 236.02734L355.37121 233.31919L354.59249 230.79991L353.35951 228.52259L351.72533 226.5403L349.74303 224.90612L347.46571 223.67313L344.94643 222.89442L342.23828 222.62305L335.03125 222.62305M321.62695 308.32812L321.89863 311.03596L322.67755 313.55491L323.91064 315.83191L325.54483 317.81389L327.52705 319.4478L329.80424 320.68058L332.32333 321.45915L335.03125 321.73047L335.03325 321.73047L335.03325 308.32812L321.62695 308.32812M342.23633 308.32812L342.23633 321.73047L342.23833 321.73047L344.94625 321.45915L347.46533 320.68057L349.74252 319.44779L351.72473 317.81388L353.35892 315.83189L354.592 313.5549L355.37093 311.03595L355.64263 308.32812L342.23633 308.32812"
         transform="scale(0.26458333)"
         id="rect2237"
         inkscape:connector-curvature="0"
         sodipodi:nodetypes="ssccccssscscccccscc" />
      <path
         style="opacity:1;vector-effect:none;fill:#e6e6e6;fill-opacity:1;stroke:none;stroke-width:0.93548757;stroke-linecap:round;stroke-linejoin:round;stroke-miterlimit:4;stroke-dasharray:none;stroke-dashoffset:0;stroke-opacity:1"
         d="m 274.19063,214.55552 -2.49172,0.77022 -2.25243,1.21953 -1.96064,1.61634 -1.61634,1.96063 -1.21954,2.25244 -0.77022,2.49172 -0.26841,2.67852 v 12.625 h 13.40429 7.20508 13.40625 v -12.625 l -0.26841,-2.67852 -0.77022,-2.49172 -1.21953,-2.25244 -1.61633,-1.96063 -1.96064,-1.61634 -2.25243,-1.21953 -2.49173,-0.77022 -2.67852,-0.26841 h -7.5 z"
         transform="scale(0.26458333)"
         id="path7132"
         inkscape:connector-curvature="0"
         sodipodi:nodetypes="ccccccccccccccccccccccc" />
      <path
         style="opacity:1;vector-effect:none;fill:#e6e6e6;fill-opacity:1;stroke:none;stroke-width:0.93548757;stroke-linecap:round;stroke-linejoin:round;stroke-miterlimit:4;stroke-dasharray:none;stroke-dashoffset:0;stroke-opacity:1"
         d="m 263.87974,319.48914 0.77022,2.49194 1.21954,2.25275 1.61634,1.961 1.96064,1.61669 2.25243,1.21985 2.49172,0.77045 2.75175,0.26752 0.0732,-13.25879 h -13.40429 z"
         transform="scale(0.26458333)"
         id="path7138"
         inkscape:connector-curvature="0"
         sodipodi:nodetypes="ccccccccccc" />
      <path
         style="opacity:1;vector-effect:none;fill:#e6e6e6;fill-opacity:1;stroke:none;stroke-width:0.93548757;stroke-linecap:round;stroke-linejoin:round;stroke-miterlimit:4;stroke-dasharray:none;stroke-dashoffset:0;stroke-opacity:1"
         d="m 287.04766,329.80182 2.49173,-0.77045 2.25243,-1.21985 1.96064,-1.61669 1.61633,-1.961 1.21953,-2.25275 0.77022,-2.49194 0.26841,-2.67859 H 284.2207 l 0.0742,13.25879 z"
         transform="scale(0.26458333)"
         id="path7130"
         inkscape:connector-curvature="0"
         sodipodi:nodetypes="ccccccccccc" />
      <path
         style="opacity:1;vector-effect:none;fill:#e6e6e6;fill-opacity:1;stroke:none;stroke-width:0.99936712;stroke-linecap:round;stroke-linejoin:round;stroke-miterlimit:4;stroke-dasharray:none;stroke-dashoffset:0;stroke-opacity:1"
         d="m 216.07359,206.37529 -2.46791,0.76304 -2.23087,1.20812 -1.94184,1.60119 -1.60082,1.9422 -1.20781,2.23118 -0.76282,2.46813 -0.26582,2.65304 v 12.75 h 13.40625 7.20313 13.40625 v -12.75 l -0.2659,-2.65304 -0.76303,-2.46813 -1.20812,-2.23118 -1.60117,-1.94221 -1.94219,-1.60118 -2.23119,-1.20813 -2.46814,-0.76303 -2.65307,-0.26591 h -7.75196 z m -10.21207,121.38909 0.76282,2.46813 1.20781,2.23119 1.60082,1.9422 1.94184,1.60118 2.23087,1.20812 2.46791,0.76303 2.65297,0.26591 h 0.27539 V 325.11133 H 205.5957 Z m 20.34356,10.47976 h 0.27344 l 2.65307,-0.26591 2.46814,-0.76303 2.23119,-1.20812 1.94219,-1.60118 1.60117,-1.9422 1.20812,-2.23119 0.76303,-2.46813 0.2659,-2.65305 h -13.40625 z"
         transform="scale(0.26458333)"
         id="rect2237-6-6"
         inkscape:connector-curvature="0"
         sodipodi:nodetypes="sccccscscscccccsccccccscccccccccccccccccccccccc" />
      <path
         style="opacity:1;vector-effect:none;fill:#e6e6e6;fill-opacity:1;stroke:none;stroke-width:0.30499998;stroke-linecap:round;stroke-linejoin:round;stroke-miterlimit:4;stroke-dasharray:none;stroke-dashoffset:0;stroke-opacity:1"
         d="m 54.397232,66.672935 h 3.54707 v 2.770789 h -3.54707 z"
         id="rect4481-2" />
      <path
         style="opacity:1;vector-effect:none;fill:#e6e6e6;fill-opacity:1;stroke:none;stroke-width:0.30499998;stroke-linecap:round;stroke-linejoin:round;stroke-miterlimit:4;stroke-dasharray:none;stroke-dashoffset:0;stroke-opacity:1"
         d="m 59.850132,66.672935 h 3.54707 v 2.770789 h -3.54707 z"
         id="rect4481-2-2" />
      <path
         style="opacity:1;vector-effect:none;fill:#e6e6e6;fill-opacity:1;stroke:none;stroke-width:0.30499998;stroke-linecap:round;stroke-linejoin:round;stroke-miterlimit:4;stroke-dasharray:none;stroke-dashoffset:0;stroke-opacity:1"
         d="m 69.746948,68.836632 h 3.54707 v 2.770788 h -3.54707 z"
         id="rect4481-2-3" />
      <path
         style="opacity:1;vector-effect:none;fill:#e6e6e6;fill-opacity:1;stroke:none;stroke-width:0.30499998;stroke-linecap:round;stroke-linejoin:round;stroke-miterlimit:4;stroke-dasharray:none;stroke-dashoffset:0;stroke-opacity:1"
         d="m 75.200104,68.836632 h 3.547069 v 2.770788 h -3.547069 z"
         id="rect4481-2-4" />
      <path
         style="opacity:1;vector-effect:none;fill:#e6e6e6;fill-opacity:1;stroke:none;stroke-width:0.30499998;stroke-linecap:round;stroke-linejoin:round;stroke-miterlimit:4;stroke-dasharray:none;stroke-dashoffset:0;stroke-opacity:1"
         d="m 85.097183,70.980682 h 3.54707 v 2.770789 h -3.54707 z"
         id="rect4481-2-5" />
      <path
         style="opacity:1;vector-effect:none;fill:#e6e6e6;fill-opacity:1;stroke:none;stroke-width:0.30499998;stroke-linecap:round;stroke-linejoin:round;stroke-miterlimit:4;stroke-dasharray:none;stroke-dashoffset:0;stroke-opacity:1"
         d="m 90.550079,70.980682 h 3.54707 v 2.770789 h -3.54707 z"
         id="rect4481-2-85" />
      <path
         transform="rotate(-90)"
         style="opacity:1;vector-effect:none;fill:#e6e6e6;fill-opacity:1;stroke:none;stroke-width:0.22381367;stroke-linecap:round;stroke-linejoin:round;stroke-miterlimit:4;stroke-dasharray:none;stroke-dashoffset:0;stroke-opacity:1"
         d="m -53.871159,35.907417 h 1.910044 v 2.770789 h -1.910044 z"
         id="rect4481-2-85-4" />
      <path
         transform="rotate(-90)"
         style="opacity:1;vector-effect:none;fill:#e6e6e6;fill-opacity:1;stroke:none;stroke-width:0.22381367;stroke-linecap:round;stroke-linejoin:round;stroke-miterlimit:4;stroke-dasharray:none;stroke-dashoffset:0;stroke-opacity:1"
         d="m -57.687542,35.907417 h 1.910044 v 2.770789 h -1.910044 z"
         id="rect4481-2-85-4-4" />
      <path
         transform="rotate(-90)"
         style="opacity:1;vector-effect:none;fill:#e6e6e6;fill-opacity:1;stroke:none;stroke-width:0.22381367;stroke-linecap:round;stroke-linejoin:round;stroke-miterlimit:4;stroke-dasharray:none;stroke-dashoffset:0;stroke-opacity:1"
         d="m -73.923737,35.90741 h 1.910044 v 2.770788 h -1.910044 z"
         id="rect4481-2-85-4-2" />
      <path
         transform="rotate(-90)"
         style="opacity:1;vector-effect:none;fill:#e6e6e6;fill-opacity:1;stroke:none;stroke-width:0.22381367;stroke-linecap:round;stroke-linejoin:round;stroke-miterlimit:4;stroke-dasharray:none;stroke-dashoffset:0;stroke-opacity:1"
         d="m -70.107872,35.90741 h 1.910044 v 2.770788 h -1.910044 z"
         id="rect4481-2-85-4-5" />
      <path
         transform="rotate(-90)"
         style="opacity:1;vector-effect:none;fill:#e6e6e6;fill-opacity:1;stroke:none;stroke-width:0.22381367;stroke-linecap:round;stroke-linejoin:round;stroke-miterlimit:4;stroke-dasharray:none;stroke-dashoffset:0;stroke-opacity:1"
         d="m -86.344604,35.90741 h 1.910043 v 2.770788 h -1.910043 z"
         id="rect4481-2-85-4-3" />
      <path
         transform="rotate(-90)"
         style="opacity:1;vector-effect:none;fill:#e6e6e6;fill-opacity:1;stroke:none;stroke-width:0.22381367;stroke-linecap:round;stroke-linejoin:round;stroke-miterlimit:4;stroke-dasharray:none;stroke-dashoffset:0;stroke-opacity:1"
         d="m -90.160469,35.90741 h 1.910044 v 2.770788 h -1.910044 z"
         id="rect4481-2-85-4-36" />
      <path
         transform="rotate(-90)"
         style="opacity:1;vector-effect:none;fill:#e6e6e6;fill-opacity:1;stroke:none;stroke-width:0.22381367;stroke-linecap:round;stroke-linejoin:round;stroke-miterlimit:4;stroke-dasharray:none;stroke-dashoffset:0;stroke-opacity:1"
         d="m -108.03318,38.56126 h 1.91004 v 2.770789 h -1.91004 z"
         id="rect4481-2-85-4-3-3" />
      <path
         transform="rotate(-90)"
         style="opacity:1;vector-effect:none;fill:#e6e6e6;fill-opacity:1;stroke:none;stroke-width:0.22381367;stroke-linecap:round;stroke-linejoin:round;stroke-miterlimit:4;stroke-dasharray:none;stroke-dashoffset:0;stroke-opacity:1"
         d="m -111.84906,38.56126 h 1.91004 v 2.770789 h -1.91004 z"
         id="rect4481-2-85-4-3-2" />
      <path
         transform="rotate(-90)"
         style="opacity:1;vector-effect:none;fill:#e6e6e6;fill-opacity:1;stroke:none;stroke-width:0.22381367;stroke-linecap:round;stroke-linejoin:round;stroke-miterlimit:4;stroke-dasharray:none;stroke-dashoffset:0;stroke-opacity:1"
         d="m -108.0332,138.87607 h 1.91004 v 2.77079 h -1.91004 z"
         id="rect4481-2-85-4-3-3-3" />
      <path
         transform="rotate(-90)"
         style="opacity:1;vector-effect:none;fill:#e6e6e6;fill-opacity:1;stroke:none;stroke-width:0.22381367;stroke-linecap:round;stroke-linejoin:round;stroke-miterlimit:4;stroke-dasharray:none;stroke-dashoffset:0;stroke-opacity:1"
         d="m -111.84906,138.87587 h 1.91004 v 2.77079 h -1.91004 z"
         id="rect4481-2-85-4-3-3-4" />
      <path
         transform="rotate(-90)"
         style="opacity:1;vector-effect:none;fill:#e6e6e6;fill-opacity:1;stroke:none;stroke-width:0.22381367;stroke-linecap:round;stroke-linejoin:round;stroke-miterlimit:4;stroke-dasharray:none;stroke-dashoffset:0;stroke-opacity:1"
         d="m -30.245703,183.39867 h 1.910044 v 2.77079 h -1.910044 z"
         id="rect4481-2-85-4-3-3-3-5" />
      <path
         transform="rotate(-90)"
         style="opacity:1;vector-effect:none;fill:#e6e6e6;fill-opacity:1;stroke:none;stroke-width:0.22381367;stroke-linecap:round;stroke-linejoin:round;stroke-miterlimit:4;stroke-dasharray:none;stroke-dashoffset:0;stroke-opacity:1"
         d="m -34.062088,183.39867 h 1.910044 v 2.77079 h -1.910044 z"
         id="rect4481-2-85-4-3-3-3-8" />
      <path
         transform="rotate(-90)"
         style="opacity:1;vector-effect:none;fill:#e6e6e6;fill-opacity:1;stroke:none;stroke-width:0.22381367;stroke-linecap:round;stroke-linejoin:round;stroke-miterlimit:4;stroke-dasharray:none;stroke-dashoffset:0;stroke-opacity:1"
         d="m -109.6207,180.4464 h 1.91005 v 2.77078 h -1.91005 z"
         id="rect4481-2-85-4-3-3-3-4" />
      <path
         transform="rotate(-90)"
         style="opacity:1;vector-effect:none;fill:#e6e6e6;fill-opacity:1;stroke:none;stroke-width:0.22381367;stroke-linecap:round;stroke-linejoin:round;stroke-miterlimit:4;stroke-dasharray:none;stroke-dashoffset:0;stroke-opacity:1"
         d="m -113.43656,180.4464 h 1.91004 v 2.77078 h -1.91004 z"
         id="rect4481-2-85-4-3-3-3-9" />
      <path
         transform="rotate(-90)"
         style="opacity:1;vector-effect:none;fill:#e6e6e6;fill-opacity:1;stroke:none;stroke-width:0.22381367;stroke-linecap:round;stroke-linejoin:round;stroke-miterlimit:4;stroke-dasharray:none;stroke-dashoffset:0;stroke-opacity:1"
         d="m -108.0332,110.95503 h 1.91004 v 2.77079 h -1.91004 z"
         id="rect4481-2-85-4-3-3-3-7" />
      <path
         transform="rotate(-90)"
         style="opacity:1;vector-effect:none;fill:#e6e6e6;fill-opacity:1;stroke:none;stroke-width:0.22381367;stroke-linecap:round;stroke-linejoin:round;stroke-miterlimit:4;stroke-dasharray:none;stroke-dashoffset:0;stroke-opacity:1"
         d="m -111.84906,110.95503 h 1.91004 v 2.77079 h -1.91004 z"
         id="rect4481-2-85-4-3-3-3-1" />
      <path
         style="opacity:1;vector-effect:none;fill:#e6e6e6;fill-opacity:1;stroke:none;stroke-width:0.22381367;stroke-linecap:round;stroke-linejoin:round;stroke-miterlimit:4;stroke-dasharray:none;stroke-dashoffset:0;stroke-opacity:1"
         d="m 121.08206,34.902782 h 1.91005 v 2.770789 h -1.91005 z"
         id="rect4481-2-85-4-3-3-3-73" />
      <path
         style="opacity:1;vector-effect:none;fill:#e6e6e6;fill-opacity:1;stroke:none;stroke-width:0.22381367;stroke-linecap:round;stroke-linejoin:round;stroke-miterlimit:4;stroke-dasharray:none;stroke-dashoffset:0;stroke-opacity:1"
         d="m 117.26568,34.902782 h 1.91004 v 2.770789 h -1.91004 z"
         id="rect4481-2-85-4-3-3-3-73-0" />
      <path
         style="opacity:1;vector-effect:none;fill:#e6e6e6;fill-opacity:1;stroke:none;stroke-width:0.22381367;stroke-linecap:round;stroke-linejoin:round;stroke-miterlimit:4;stroke-dasharray:none;stroke-dashoffset:0;stroke-opacity:1"
         d="m 86.878967,34.902782 h 1.910044 v 2.770789 h -1.910044 z"
         id="rect4481-2-85-4-3-3-3-73-9" />
      <path
         style="opacity:1;vector-effect:none;fill:#e6e6e6;fill-opacity:1;stroke:none;stroke-width:0.22381367;stroke-linecap:round;stroke-linejoin:round;stroke-miterlimit:4;stroke-dasharray:none;stroke-dashoffset:0;stroke-opacity:1"
         d="m 83.063103,34.902782 h 1.910043 v 2.770789 h -1.910043 z"
         id="rect4481-2-85-4-3-3-3-73-05" />
      <path
         style="opacity:1;vector-effect:none;fill:#e6e6e6;fill-opacity:1;stroke:none;stroke-width:0.22381367;stroke-linecap:round;stroke-linejoin:round;stroke-miterlimit:4;stroke-dasharray:none;stroke-dashoffset:0;stroke-opacity:1"
         d="m 48.860023,34.902782 h 1.910044 v 2.770789 h -1.910044 z"
         id="rect4481-2-85-4-3-3-3-73-2" />
      <path
         style="opacity:1;vector-effect:none;fill:#e6e6e6;fill-opacity:1;stroke:none;stroke-width:0.22381367;stroke-linecap:round;stroke-linejoin:round;stroke-miterlimit:4;stroke-dasharray:none;stroke-dashoffset:0;stroke-opacity:1"
         d="m 52.675892,34.902782 h 1.910044 v 2.770789 h -1.910044 z"
         id="rect4481-2-85-4-3-3-3-73-28" />
      <path
         transform="rotate(-90)"
         style="opacity:1;vector-effect:none;fill:#e6e6e6;fill-opacity:1;stroke:none;stroke-width:0.22381367;stroke-linecap:round;stroke-linejoin:round;stroke-miterlimit:4;stroke-dasharray:none;stroke-dashoffset:0;stroke-opacity:1"
         d="m -37.766258,138.87592 h 1.910043 v 2.77078 h -1.910043 z"
         id="rect4481-2-85-4-3-3-9" />
      <path
         transform="rotate(-90)"
         style="opacity:1;vector-effect:none;fill:#e6e6e6;fill-opacity:1;stroke:none;stroke-width:0.22381367;stroke-linecap:round;stroke-linejoin:round;stroke-miterlimit:4;stroke-dasharray:none;stroke-dashoffset:0;stroke-opacity:1"
         d="m -37.766254,38.56131 h 1.910043 v 2.770788 h -1.910043 z"
         id="rect4481-2-85-4-3-3-9-7" />
      <path
         transform="rotate(-90)"
         style="opacity:1;vector-effect:none;fill:#e6e6e6;fill-opacity:1;stroke:none;stroke-width:0.22381367;stroke-linecap:round;stroke-linejoin:round;stroke-miterlimit:4;stroke-dasharray:none;stroke-dashoffset:0;stroke-opacity:1"
         d="m -33.949867,138.87592 h 1.910043 v 2.77078 h -1.910043 z"
         id="rect4481-2-85-4-3-3-9-5" />
    </g>
  </g>
</svg>
