<?xml version="1.0" encoding="UTF-8" standalone="no"?>
<!-- Created with Inkscape (http://www.inkscape.org/) -->

<svg
   xmlns:dc="http://purl.org/dc/elements/1.1/"
   xmlns:cc="http://creativecommons.org/ns#"
   xmlns:rdf="http://www.w3.org/1999/02/22-rdf-syntax-ns#"
   xmlns:svg="http://www.w3.org/2000/svg"
   xmlns="http://www.w3.org/2000/svg"
   xmlns:sodipodi="http://sodipodi.sourceforge.net/DTD/sodipodi-0.dtd"
   xmlns:inkscape="http://www.inkscape.org/namespaces/inkscape"
   sodipodi:docname="panel_mask.svg"
   inkscape:version="0.92.3 (2405546, 2018-03-11)"
   id="svg1822"
   version="1.1"
   viewBox="0 0 133.26009 120.56009"
   height="120.56009mm"
   width="133.26009mm">
  <sodipodi:namedview
     fit-margin-bottom="0"
     fit-margin-right="0"
     fit-margin-left="0"
     fit-margin-top="0"
     inkscape:window-maximized="1"
     inkscape:window-y="1056"
     inkscape:window-x="3832"
     inkscape:window-height="1017"
     inkscape:window-width="1920"
     showguides="false"
     inkscape:snap-center="true"
     inkscape:snap-object-midpoints="true"
     inkscape:snap-midpoints="true"
     inkscape:snap-intersection-paths="false"
     inkscape:snap-nodes="true"
     inkscape:snap-smooth-nodes="true"
     inkscape:object-paths="true"
     showgrid="false"
     inkscape:current-layer="layer1"
     inkscape:document-units="mm"
     inkscape:cy="13.991937"
     inkscape:cx="657.51751"
     inkscape:zoom="0.7"
     inkscape:pageshadow="2"
     inkscape:pageopacity="0.0"
     borderopacity="1.0"
     bordercolor="#666666"
     pagecolor="#ffffff"
     id="base" />
  <defs
     id="defs1816" />
  <metadata
     id="metadata1819">
    <rdf:RDF>
      <cc:Work
         rdf:about="">
        <dc:format>image/svg+xml</dc:format>
        <dc:type
           rdf:resource="http://purl.org/dc/dcmitype/StillImage" />
        <dc:title />
      </cc:Work>
    </rdf:RDF>
  </metadata>
  <g
     transform="translate(-1.4799599,-1.6190828)"
     id="layer1"
     inkscape:groupmode="layer"
     inkscape:label="Layer 1">
    <path
       id="rect2625"
       transform="matrix(0.26458333,0,0,0.26458333,1.4799599,1.6190828)"
       d="M81.427734 0.0L81.427734 205.11719L0.0 205.11719L0.0 455.66016L422.23242 455.66016L422.23242 250.54297L503.66016 250.54297L503.66016 0.0L81.427734 0.0L81.427734 0.0M335.43164 3.5449219L339.610761437 3.85273276411L343.639805337 4.74221674918L347.466101157 6.17958970879L351.036978353 8.13106749651L354.299766379 10.5628659659L357.201794692 13.4412009706L359.690392747 16.7322883641L361.71289 20.402344L364.426298016 18.6041196448L367.380847186 17.291871646L370.512160263 16.4879848242L373.75586 16.214844L377.561681424 16.5910859827L381.186594952 17.692329677L384.528731102 19.476387332L387.486220391 21.9010711967L389.911202018 24.8583163412L391.695596167 28.2002728465L392.79720483 31.8250754777L393.17383 35.630859L392.797205001 39.436642666L391.695596454 43.0614454606L389.911202366 46.4034021374L387.486220744 49.3606474498L384.528731412 51.785331461L381.186595183 53.5693892273L377.561681548 54.6706329925L373.75586 55.046875L369.73869618 54.6209708477L365.935388755 53.3899828433L362.464679452 51.4063861673L359.44531 48.722656L357.350907187 51.4603812399L354.955131719 53.9218902639L352.284915392 56.082610406L349.36719 57.917969L347.682331406 60.071767875L345.43930125 63.81889675L344.386989316 66.2004381797L343.529355469 68.872886L342.977806699 71.8004315078L342.84375 74.947266L333.60742 78.136719L333.853102812 76.0562865313L334.0130625 71.21341075L333.79038582 68.4115667539L333.221665937 65.7057240938L332.198698711 63.3580868242L330.61328 61.630859L329.56055 60.871094L324.223230756 59.216578969L319.30273 56.568359L317.218307155 57.9019069376L314.960463488 58.8747409525L312.575415578 59.4712394912L310.10938 59.675781L307.127408659 59.3809727246L304.287180353 58.5181191599L301.668508756 57.1202736139L299.351207542 55.2204893947L297.451124801 52.903432948L296.052941903 50.2849414572L295.18972244 47.4448243364L294.89453 44.462891L295.149884672 41.7453568556L295.88672 39.117188L293.615473466 38.4501633515L291.542046365 37.4230052607L289.698807773 36.0752298272L288.118126762 34.4463531505L286.832372405 32.5758913299L285.873913777 30.503360465L285.275119951 28.2682766552L285.06836 25.910156L285.329540425 23.2698601902L286.093680228 20.7550978596L287.33150832 18.4365377817L289.013753609 16.3848487303L291.065442286 14.7026029839L293.384002088 13.4647743762L295.898764248 12.7006340129L298.53906 12.439453L301.942872314 12.8786543883L305.078662057 14.1383063111L307.802560772 16.1383753284L309.9707 18.798828L312.075437298 15.4525686613L314.578736073 12.4633242574L317.435298473 9.8582331888L320.599826644 7.66443385628L324.027022736 5.90906466048L327.671588894 4.61926400206L331.488227266 3.82217028168L335.43164 3.5449219L335.43164 3.5449219M165.11328 35.871094L165.50391 35.972656L166.912621719 36.0194086445L169.982273125 37.3493452188L172.032929141 38.6887357876L174.370393594 40.5807963086L176.951857656 43.102818105L179.7345125 46.3320925L182.675549297 50.3459108169L185.732159219 55.2215643789L188.861533437 61.0363445093L192.020863125 67.8675425313L195.167339453 75.7924497681L198.258153594 84.888357543L201.250496719 95.2325571792L204.10156 106.90234L194.578028698 104.787588293L184.952271947 103.258434119L175.251256722 102.318322885L165.50195 101.9707L155.756144371 102.307684855L146.057943353 103.23674068L136.434285659 104.754456166L126.91211 106.85742L129.601853328 95.8039800339L132.419673496 85.9366808809L135.329492034 77.1904007834L138.295230469 69.5000179844L141.28081033 62.8004107263L144.250153145 57.026457252L147.167180442 52.113035804L149.99581375 47.995024625L152.699974597 44.6073019578L155.243584512 41.8847460449L159.704837656 38.1746474531L163.09094541 36.343754791L165.11328 35.871094L165.11328 35.871094M207.5 36.375L320.42578 106.77539L320.44531 106.75195L320.63867 106.75195L315.822201387 114.921475566L310.899231719 125.499365156L306.032081504 138.779784355L301.38307125 155.05689875L299.191093767 164.411143391L297.114521465 174.624873926L295.173644407 185.734861052L293.388752656 197.777875469L291.780136277 210.790687874L290.368085332 224.810068965L289.172889885 239.872789441L288.21484 256.01562L288.21484 256.01953L207.5 36.375L207.5 36.375M468.8125 36.376953L388.09961 256.01562L387.141539351 239.873040408L385.946326523 224.810548574L384.53426145 210.791374915L382.925634062 197.778749844L381.140734292 185.735903777L379.19985207 174.626067129L377.123277329 164.412470315L374.9313 155.05834375L370.282297305 138.781423027L365.415163437 125.501148281L360.492217852 114.923362832L355.67578 106.75391L355.86914 106.75391L355.88672 106.77734L468.8125 36.376953L468.8125 36.376953M115.56055 200.14453L115.56055 200.14844L116.518598127 216.291279238L117.713792051 231.354007031L119.125841707 245.373394121L120.734457031 258.38621125L122.519347961 270.42922916L124.460224434 281.539218594L126.536796384 291.752950293L128.72877375 301.107195L133.377784473 317.384306406L138.244936094 330.66471875L143.167908105 341.242597969L147.98438 349.41211L147.79102 349.41211L147.77148 349.38867L34.845703 419.78906L115.56055 200.14453L115.56055 200.14453M215.44336 200.14648L296.1582 419.79102L183.23242 349.39062L183.21289 349.41406L183.01953 349.41406L187.835999023 341.244536895L192.758969687 330.666653281L197.626121133 317.386241465L202.2751325 301.10913375L204.467110386 291.754891526L206.54368293 281.541162441L208.484560024 270.431175535L210.269451563 258.388159844L211.878067437 245.375344407L213.290117539 231.355958262L214.485311763 216.293230447L215.44336 200.15039L215.44336 200.14648L215.44336 200.14648M299.56836 349.30859L308.205884531 351.231817187L316.92983625 352.6735575L325.720119844 353.631056562L334.55664 354.10156L334.55664 419.2832L331.460774941 417.349126074L327.675001406 414.056270469L323.361749355 409.110773691L318.68344875 402.21877625L313.802529551 393.086418652L308.881421719 381.419841406L304.082555215 366.92518502L301.779721824 358.525496057L299.56836 349.30859L299.56836 349.30859M376.74805 349.54492L374.536684771 358.761826057L372.233848633 367.16151502L367.434978438 381.656171406L362.513869023 393.322748652L357.63295 402.45510625L352.954650977 409.347103691L348.641401562 414.292600469L344.855631367 417.585456074L341.75977 419.51953L341.75977 354.33789L350.59628875 353.867386562L359.3865775 352.9098875L368.1105325 351.468147187L376.74805 349.54492L376.74805 349.54492M168.38672 376.23438L168.141037187 378.314807813L167.9810775 383.1576825L168.20375418 385.959526289L168.772474062 388.665368437L169.795441289 391.013004492L171.38086 392.74023L172.43359 393.5L177.770908965 395.154512619L182.69141 397.80273L184.77613434 396.468431538L187.034428366 395.495010531L189.420040709 394.898106758L191.88672 394.69336L194.868652093 394.988552192L197.708768147 395.851770947L200.327258842 397.24995273L202.644314859 399.150034006L204.544099136 401.467333542L205.94194529 404.086003424L206.804800013 406.926230096L207.09961 409.9082L206.845219872 412.625646456L206.10938 415.25391L208.380326044 415.921193248L210.453444592 416.948521089L212.296378528 418.296384868L213.876770737 419.925275933L215.162264105 421.795685632L216.120501514 423.868105311L216.719125851 426.103026318L216.92578 428.46094L216.664599062 431.101235379L215.900458911 433.615997219L214.662630637 435.934556783L212.98038533 437.98624533L210.928696783 439.668490637L208.610137219 440.906318911L206.095375379 441.670459062L203.45508 441.93164L200.05181413 441.492072743L196.916576512 440.232315662L194.193168138 438.232378249L192.02539 435.57227L189.920652183 438.918528449L187.417353059 441.907771964L184.56079047 444.512862163L181.396262257 446.706660662L177.969066262 448.462029079L174.324500327 449.751829029L170.507862292 450.548922131L166.56445 450.82617L162.385054378 450.518603706L158.355724032 449.629286071L154.529139985 448.192005449L150.957983259 446.240550196L147.694934875 443.80870867L144.792675856 440.930269224L142.303887224 437.639020216L140.28125 433.96875L137.567841984 435.766974355L134.613292814 437.079222354L131.481979737 437.883109176L128.23828 438.15625L124.432457955 437.780007893L120.807543893 436.678763845L117.465407345 434.894705633L114.507917841 432.470021036L112.082936243 429.512775052L110.298542398 426.170817689L109.196934314 422.546014241L108.82031 418.74023L109.196936026 414.934447196L110.298545268 411.309645382L112.082939721 407.967689734L114.507921377 405.010445429L117.465410451 402.585762297L120.807546203 400.801705199L124.432459198 399.700461859L128.23828 399.32422L132.255443909 399.750124365L136.058751369 400.981112614L139.529460644 402.964709557L142.54883 405.64844L144.643671828 402.910578524L147.039927727 400.449019319L149.710654763 398.288340455L152.62891 396.45312L154.31346375 394.299020625L156.5558225 390.5512125L157.607775234 388.169309063L158.465095 385.496548125L159.016420391 382.56878625L159.15039 379.42188L168.38672 376.23438L168.38672 376.23438"
       style="opacity:1;vector-effect:none;fill:#ffeeaa;fill-opacity:1;stroke:#ffffff;stroke-width:0.096;stroke-linecap:round;stroke-linejoin:round;stroke-miterlimit:4;stroke-dasharray:none;stroke-dashoffset:0;stroke-opacity:1" />
  </g>
</svg>
