<?xml version="1.0" encoding="UTF-8" standalone="no"?>
<!-- Created with Inkscape (http://www.inkscape.org/) -->

<svg
   xmlns:dc="http://purl.org/dc/elements/1.1/"
   xmlns:cc="http://creativecommons.org/ns#"
   xmlns:rdf="http://www.w3.org/1999/02/22-rdf-syntax-ns#"
   xmlns:svg="http://www.w3.org/2000/svg"
   xmlns="http://www.w3.org/2000/svg"
   xmlns:sodipodi="http://sodipodi.sourceforge.net/DTD/sodipodi-0.dtd"
   xmlns:inkscape="http://www.inkscape.org/namespaces/inkscape"
   sodipodi:docname="panel_silk.svg"
   inkscape:version="0.92.3 (2405546, 2018-03-11)"
   id="svg1822"
   version="1.1"
   viewBox="0 0 133.26009 120.56009"
   height="120.56009mm"
   width="133.26009mm">
  <sodipodi:namedview
     fit-margin-bottom="0"
     fit-margin-right="0"
     fit-margin-left="0"
     fit-margin-top="0"
     inkscape:window-maximized="1"
     inkscape:window-y="1056"
     inkscape:window-x="3832"
     inkscape:window-height="1017"
     inkscape:window-width="1920"
     showguides="false"
     inkscape:snap-center="true"
     inkscape:snap-object-midpoints="true"
     inkscape:snap-midpoints="true"
     inkscape:snap-intersection-paths="false"
     inkscape:snap-nodes="true"
     inkscape:snap-smooth-nodes="true"
     inkscape:object-paths="true"
     showgrid="false"
     inkscape:current-layer="layer1"
     inkscape:document-units="mm"
     inkscape:cy="71.134794"
     inkscape:cx="657.51751"
     inkscape:zoom="0.7"
     inkscape:pageshadow="2"
     inkscape:pageopacity="0.0"
     borderopacity="1.0"
     bordercolor="#666666"
     pagecolor="#ffffff"
     id="base" />
  <defs
     id="defs1816" />
  <metadata
     id="metadata1819">
    <rdf:RDF>
      <cc:Work
         rdf:about="">
        <dc:format>image/svg+xml</dc:format>
        <dc:type
           rdf:resource="http://purl.org/dc/dcmitype/StillImage" />
        <dc:title />
      </cc:Work>
    </rdf:RDF>
  </metadata>
  <g
     inkscape:label="Layer 1"
     inkscape:groupmode="layer"
     id="layer1"
     transform="translate(-1.4799599,-1.6190828)">
    <path
       style="opacity:1;vector-effect:none;fill:#00ffff;fill-opacity:1;stroke:none;stroke-width:0.79823613;stroke-linecap:round;stroke-linejoin:round;stroke-miterlimit:4;stroke-dasharray:none;stroke-dashoffset:0;stroke-opacity:1"
       d="M46.032474 101.16464L43.588744 102.00801L43.4073530625 103.615195625L42.9020315 104.952415L41.862804 106.51373L40.3842371714 107.571195811L39.196194 108.94704L37.4789746094 107.712091815L35.409733 107.27371L33.4437002706 107.664638594L31.7769400826 108.778200596L30.6632191105 110.444854566L30.272103 112.41085L30.6632191105 114.376845434L31.7769400826 116.043499404L33.4437002706 117.157061406L35.409733 117.54799L37.0964347543 117.26302145L38.596064 116.44005L39.7897028572 118.281878693L41.4209013268 119.686839617L43.378161133 120.583420733L45.549984 120.90011L47.6031190272 120.615902147L49.4741652595 119.81026717L51.0672476121 118.540641107L52.286491 116.86446L53.5808427212 118.097350506L55.310994 118.54673L56.6749143279 118.275436858L57.8311892835 117.502839384L58.6037822155 116.346561394L58.87507 114.98264L58.6618900976 113.767469925L58.068134424 112.724317822L57.1623007885 111.936804308L56.012887 111.48855L56.27498 110.07384L55.958639987 108.50705318L55.0959989667 107.227597498L53.8165422131 106.364958067L52.249755 106.04862L50.965999691 106.260658699L49.816951 106.87113L47.103184 105.73242L46.824714 105.53138L46.1345719688 104.4533075L45.92516775 102.996215L46.032474 101.16464L46.032474 101.16464"
       id="path6605"
       inkscape:connector-curvature="0" />
    <path
       style="opacity:1;vector-effect:none;fill:#00ffff;fill-opacity:1;stroke:none;stroke-width:0.79823613;stroke-linecap:round;stroke-linejoin:round;stroke-miterlimit:4;stroke-dasharray:none;stroke-dashoffset:0;stroke-opacity:1"
       d="M89.746844 22.292506L92.190573 21.449139L92.3719639375 19.8419506406L92.8772855 18.504730125L93.916513 16.943415L95.3950808898 15.8859493751L96.583125 14.510105L98.3003416455 15.7450519766L100.36958 16.183435L102.335612729 15.7925064065L104.002372917 14.6789444037L105.116093889 13.012290434L105.50721 11.046295L105.116093947 9.08029950459L104.002372988 7.41364546704L102.335612776 6.30008341268L100.36958 5.9091548L98.6828798289 6.19412384227L97.183252 7.0170948L95.9896131558 5.17526659536L94.3584148975 3.77030603061L92.4011554404 2.87372510056L90.229333 2.5570358L88.1761975204 2.84124308742L86.3051507612 3.64687773233L84.7120678714 4.91650368608L83.492824 6.5926849L82.1984740435 5.35979530863L80.468325 4.9104148L79.1044031367 5.18170650697L77.9481264843 5.95430364826L77.1755322628 7.1105822516L76.904244 8.4745048L77.1174246962 9.68967606583L77.7111818334 10.7328287288L78.617017304 11.5203419774L79.766433 11.968595L79.504334 13.383305L79.8206745197 14.9500930322L80.6833168011 16.2295492699L81.9627751819 17.0921883727L83.529564 17.408525L84.8133166779 17.1964855036L85.962363 16.586015L88.676134 17.724728L88.954602 17.925764L89.6447451875 19.0038376562L89.85415 20.46093075L89.746844 22.292506L89.746844 22.292506"
       id="path6605-8"
       inkscape:connector-curvature="0" />
  </g>
</svg>
