<?xml version="1.0" encoding="UTF-8" standalone="no"?>
<!-- Created with Inkscape (http://www.inkscape.org/) -->

<svg
   xmlns:dc="http://purl.org/dc/elements/1.1/"
   xmlns:cc="http://creativecommons.org/ns#"
   xmlns:rdf="http://www.w3.org/1999/02/22-rdf-syntax-ns#"
   xmlns:svg="http://www.w3.org/2000/svg"
   xmlns="http://www.w3.org/2000/svg"
   xmlns:sodipodi="http://sodipodi.sourceforge.net/DTD/sodipodi-0.dtd"
   xmlns:inkscape="http://www.inkscape.org/namespaces/inkscape"
   width="108.06332mm"
   height="94.427826mm"
   viewBox="0 0 108.06332 94.427826"
   version="1.1"
   id="svg932"
   inkscape:version="0.92.3 (2405546, 2018-03-11)"
   sodipodi:docname="copper.svg">
  <sodipodi:namedview
     id="base"
     pagecolor="#ffffff"
     bordercolor="#666666"
     borderopacity="1.0"
     inkscape:pageopacity="0.0"
     inkscape:pageshadow="2"
     inkscape:zoom="1.4"
     inkscape:cx="44.218136"
     inkscape:cy="176.21587"
     inkscape:document-units="mm"
     inkscape:current-layer="layer1"
     showgrid="false"
     inkscape:snap-center="false"
     inkscape:snap-midpoints="false"
     inkscape:object-paths="true"
     inkscape:snap-smooth-nodes="true"
     inkscape:lockguides="true"
     inkscape:window-width="1536"
     inkscape:window-height="801"
     inkscape:window-x="-8"
     inkscape:window-y="-8"
     inkscape:window-maximized="1"
     inkscape:snap-intersection-paths="true"
     inkscape:snap-nodes="true"
     fit-margin-top="0"
     fit-margin-left="0"
     fit-margin-right="0"
     fit-margin-bottom="0" />
  <defs
     id="defs926" />
  <metadata
     id="metadata929">
    <rdf:RDF>
      <cc:Work
         rdf:about="">
        <dc:format>image/svg+xml</dc:format>
        <dc:type
           rdf:resource="http://purl.org/dc/dcmitype/StillImage" />
        <dc:title />
      </cc:Work>
    </rdf:RDF>
  </metadata>
  <g
     inkscape:label="Layer 1"
     inkscape:groupmode="layer"
     id="layer1"
     transform="translate(-3.4395833,-2.4008871)">
    <path
       style="opacity:1;vector-effect:none;fill:none;fill-opacity:1;stroke:#000000;stroke-width:0.0254;stroke-linecap:round;stroke-linejoin:round;stroke-miterlimit:4;stroke-dasharray:none;stroke-dashoffset:0;stroke-opacity:1"
       d="m 35.768063,49.620605 -5.82e-4,1.90686"
       id="path890"
       inkscape:connector-curvature="0" />
    <path
       style="fill:#ececec;stroke:none;stroke-width:0.26458332px;stroke-linecap:butt;stroke-linejoin:miter;stroke-opacity:1"
       d="M7.1437423 26.712581L10.2262421266 25.2009126875L14.8216495375 23.42753L20.7398057547 21.8430145625L27.790552 20.897948L27.790552 15.409383L28.2801915781 12.9841670625L29.615476125 11.0036865L31.5959543594 9.6683971875L34.021175 9.178755L34.021175 9.1792841L35.769905 9.1792841L35.769883 10.756449L34.021144 10.756449L34.020044 17.100765L35.769805 17.100765L35.769755 18.677929L34.019986 18.677929L34.018886 25.022245L35.769676 25.022245L35.769644 26.599409L34.019138 26.599409L16.322027 26.599409L16.322027 28.506269L34.018617 28.506269L35.769928 28.506269L35.769928 30.083479L34.018617 30.083479L22.643597 30.081379L8.7167971 44.008177L16.758167 30.080344L11.545567 30.079815L7.1437669 28.244768L7.1437423 26.712581"
       id="path995"
       inkscape:connector-curvature="0"
       sodipodi:nodetypes="ccsccccccccccccccccccccccccc" />
    <path
       style="fill:#ececec;stroke:none;stroke-width:0.26458332px;stroke-linecap:butt;stroke-linejoin:miter;stroke-opacity:1"
       d="M7.1411573 49.73398L10.2236571266 48.22231125L14.8190645375 46.4489285L20.7372207547 44.864413L27.787967 43.919346L27.787967 38.430779L28.2776065781 36.0055630625L29.612891125 34.0250825L31.5933693594 32.6897931875L34.01859 32.200151L34.01859 32.20068L35.76732 32.20068L35.767298 33.777846L34.018559 33.777846L34.017459 40.122163L35.76722 40.122163L35.76717 41.699328L34.017401 41.699328L34.016301 48.043642L35.767091 48.043642L35.767059 49.620807L34.016553 49.620807L16.319442 49.620807L16.319442 51.527667L34.016032 51.527667L35.767343 51.527667L35.767343 53.104878L34.016032 53.104878L22.641012 53.102778L8.7142121 67.029577L16.755582 53.101741L11.542982 53.101212L7.1411819 51.266183L7.1411573 49.73398"
       id="path995-8"
       inkscape:connector-curvature="0"
       sodipodi:nodetypes="ccsccccccccccccccccccccccccc" />
    <path
       style="fill:#ececec;stroke:none;stroke-width:0.26458332px;stroke-linecap:butt;stroke-linejoin:miter;stroke-opacity:1"
       d="M7.1385723 72.754783L10.2210721266 71.24311425L14.8164795375 69.4697315L20.7346357547 67.885216L27.785382 66.940149L27.785382 61.451585L28.2750215781 59.0263673281L29.610306125 57.045885875L31.5907843594 55.7105962344L34.016005 55.220954L34.016005 55.221484L35.764735 55.221484L35.764713 56.798649L34.015974 56.798649L34.014874 63.142966L35.764635 63.142966L35.764585 64.720131L34.014816 64.720131L34.013716 71.064445L35.764506 71.064445L35.764474 72.641611L34.013968 72.641611L16.316857 72.641611L16.316857 74.548471L34.013447 74.548471L35.764756 74.548471L35.764756 76.125681L34.013447 76.125681L22.638427 76.123581L8.7116271 90.05038L16.752997 76.122544L11.540397 76.122015L7.1385972 74.286967L7.1385723 72.754783"
       id="path995-1"
       inkscape:connector-curvature="0"
       sodipodi:nodetypes="ccsccccccccccccccccccccccccc" />
    <path
       inkscape:connector-curvature="0"
       style="opacity:1;vector-effect:none;fill:#ececec;fill-opacity:1;stroke:none;stroke-width:0.23082246;stroke-linecap:round;stroke-linejoin:round;stroke-miterlimit:4;stroke-dasharray:none;stroke-dashoffset:0;stroke-opacity:1"
       d="M74.661075 26.77976L74.661075 37.411152L72.754212 37.411152L72.754212 26.793712L68.9225768594 27.1454653594L65.172234125 27.944060375L61.5420453281 29.1787892031L58.070872 30.838944L58.046582 30.797084L54.3484633501 33.1705257923L51.0472504363 35.980241002L48.172359269 39.1765385394L45.7532058589 42.7097273147L43.8192062164 46.5301162381L42.399776352 50.58801422L41.5243322764 54.8337301705L41.22229 59.217573L41.366985 62.10577L41.436235 62.802368L41.829491 65.404275L41.921481 65.872981L42.648054 68.717771L42.714204 68.928607L43.786489 71.867964L45.128008 74.644025L54.322798 69.3353L55.276226 70.986364L46.110377 76.278031L46.591485 77.062994L47.348545 78.154403L48.386725 79.520727L49.429038 80.753725L50.388668 81.784153L51.934311 83.276056L52.584919 83.847596L55.077273 85.781843L55.157373 85.839203L56.743841 86.875314L56.737641 86.886694L60.6998134824 88.9625629005L64.8894794152 90.4687504834L69.2457318904 91.3879708246L73.707664 91.702938L78.4778335829 91.3461928183L83.1194784954 90.3001928069L87.5585586602 88.587431642L91.721034 86.230403L92.326682 85.818542L94.46402 84.193836L94.827306 83.884292L96.876277 81.975881L97.107268 81.740754L99.141771 79.424618L99.171741 79.386378L101.31993 76.286826L92.139095 70.986376L93.092523 69.335312L102.26819 74.633181L102.5984 74.058021L102.6945 73.872503L103.92027 71.134169L104.05566 70.777601L104.92279 68.166909L105.05973 67.681666L105.65143 65.045136L105.76305 64.384712L106.06639 61.891323L106.14239 60.647988L106.19309 59.217579L105.891755901 54.8032214445L105.009188032 50.5291893997L103.575525898 46.4461084932L101.620909006 42.6046043525L99.1754768641 39.0553026052L96.2693689779 35.848828879L92.9327248542 33.0358088014L89.195684 30.666868L89.160024 30.728358L85.9799407344 29.2119604688L82.665632125 28.05231L79.2470444531 27.2572292813L75.754124 26.834541L74.661167 26.779761L74.661075 26.77976"
       id="path1038" />
  </g>
</svg>
