<?xml version="1.0" encoding="UTF-8" standalone="no"?>
<!-- Created with Inkscape (http://www.inkscape.org/) -->

<svg
   xmlns:dc="http://purl.org/dc/elements/1.1/"
   xmlns:cc="http://creativecommons.org/ns#"
   xmlns:rdf="http://www.w3.org/1999/02/22-rdf-syntax-ns#"
   xmlns:svg="http://www.w3.org/2000/svg"
   xmlns="http://www.w3.org/2000/svg"
   xmlns:sodipodi="http://sodipodi.sourceforge.net/DTD/sodipodi-0.dtd"
   xmlns:inkscape="http://www.inkscape.org/namespaces/inkscape"
   width="210mm"
   height="297mm"
   viewBox="0 0 210 297"
   version="1.1"
   id="svg932"
   inkscape:version="0.92.3 (2405546, 2018-03-11)"
   sodipodi:docname="drawing.svg.2019_04_08_02_00_47.0.svg">
  <defs
     id="defs926" />
  <sodipodi:namedview
     id="base"
     pagecolor="#ffffff"
     bordercolor="#666666"
     borderopacity="1.0"
     inkscape:pageopacity="0.0"
     inkscape:pageshadow="2"
     inkscape:zoom="1.4"
     inkscape:cx="363.57629"
     inkscape:cy="923.28421"
     inkscape:document-units="mm"
     inkscape:current-layer="layer1"
     showgrid="false"
     inkscape:snap-center="true"
     inkscape:snap-midpoints="true"
     inkscape:object-paths="true"
     inkscape:snap-smooth-nodes="true"
     inkscape:lockguides="true"
     inkscape:window-width="1920"
     inkscape:window-height="1017"
     inkscape:window-x="3832"
     inkscape:window-y="1056"
     inkscape:window-maximized="1" />
  <metadata
     id="metadata929">
    <rdf:RDF>
      <cc:Work
         rdf:about="">
        <dc:format>image/svg+xml</dc:format>
        <dc:type
           rdf:resource="http://purl.org/dc/dcmitype/StillImage" />
        <dc:title />
      </cc:Work>
    </rdf:RDF>
  </metadata>
  <g
     inkscape:label="Layer 1"
     inkscape:groupmode="layer"
     id="layer1">
    <path
       style="opacity:1;vector-effect:none;fill:none;fill-opacity:1;stroke:#000000;stroke-width:0.0254;stroke-linecap:round;stroke-linejoin:round;stroke-miterlimit:4;stroke-dasharray:none;stroke-dashoffset:0;stroke-opacity:1"
       d="M 1.8523045,1.3425532 V 97.887045 H 36.828463 40.556918 145.55878 V 1.3425532 h -34.96944 -3.72846 -66.303962 -3.728455 z"
       id="path866" />
    <path
       style="opacity:1;vector-effect:none;fill:none;fill-opacity:1;stroke:#000000;stroke-width:0.0254;stroke-linecap:round;stroke-linejoin:round;stroke-miterlimit:4;stroke-dasharray:none;stroke-dashoffset:0;stroke-opacity:1"
       d="M 7.1439715,6.6342202 H 35.77013 v 2.545064 H 34.0214 v -5.16e-4 c -3.44103,0 -6.230627,2.7895968 -6.230627,6.2306248 v 5.488557 c -10.07151,0.633531 -17.629921,4.173825 -20.6468015,5.814631 z"
       id="path864" />
    <path
       style="opacity:1;vector-effect:none;fill:none;fill-opacity:1;stroke:#000000;stroke-width:0.0254;stroke-linecap:round;stroke-linejoin:round;stroke-miterlimit:4;stroke-dasharray:none;stroke-dashoffset:0;stroke-opacity:1"
       d="m 111.64767,6.6342202 h 28.61944 V 26.712581 c -3.01659,-1.640702 -10.57533,-5.18106 -20.64732,-5.814631 v -5.488557 c 0,-3.441028 -2.78959,-6.2306248 -6.23062,-6.2306248 v 5.16e-4 h -1.7415 z"
       id="path862" />
    <path
       style="opacity:1;vector-effect:none;fill:none;fill-opacity:1;stroke:#000000;stroke-width:0.0254;stroke-linecap:round;stroke-linejoin:round;stroke-miterlimit:4;stroke-dasharray:none;stroke-dashoffset:0;stroke-opacity:1"
       d="m 34.0214,10.756449 h 1.74873 v 6.344314 h -1.749764 z"
       id="path860" />
    <path
       style="opacity:1;vector-effect:none;fill:none;fill-opacity:1;stroke:#000000;stroke-width:0.0254;stroke-linecap:round;stroke-linejoin:round;stroke-miterlimit:4;stroke-dasharray:none;stroke-dashoffset:0;stroke-opacity:1"
       d="m 111.6476,17.100763 7e-5,-6.344314 h 1.7415 l -0.001,6.344314 z"
       id="path897"
       inkscape:connector-curvature="0"
       sodipodi:nodetypes="ccccc" />
    <path
       style="opacity:1;vector-effect:none;fill:none;fill-opacity:1;stroke:#000000;stroke-width:0.0254;stroke-linecap:round;stroke-linejoin:round;stroke-miterlimit:4;stroke-dasharray:none;stroke-dashoffset:0;stroke-opacity:1"
       d="m 124.7667,30.081435 13.9268,13.9268 -8.04137,-13.92783 5.2126,-5.2e-4 c 1.88119,-0.708968 3.37732,-1.363502 4.40231,-1.835545 v 21.488615 c -3.01834,-1.64133 -10.57563,-5.18021 -20.64473,-5.8136 v -5.48856 c 0,-3.44103 -2.7896,-6.23062 -6.23063,-6.23062 h -1.74408 v -2.11667 l 1.74149,-3.5e-5 z"
       id="path913"
       inkscape:connector-curvature="0"
       sodipodi:nodetypes="cccccccsscccc" />
    <path
       style="opacity:1;vector-effect:none;fill:none;fill-opacity:1;stroke:#000000;stroke-width:0.0254;stroke-linecap:round;stroke-linejoin:round;stroke-miterlimit:4;stroke-dasharray:none;stroke-dashoffset:0;stroke-opacity:1"
       d="m 111.6476,28.506338 v -1.90686 l 1.74357,-7e-5 h 17.69711 v 1.90686 l -17.69919,3.5e-5 z"
       id="path903"
       inkscape:connector-curvature="0"
       sodipodi:nodetypes="ccccccc" />
    <path
       style="opacity:1;vector-effect:none;fill:none;fill-opacity:1;stroke:#000000;stroke-width:0.0254;stroke-linecap:round;stroke-linejoin:round;stroke-miterlimit:4;stroke-dasharray:none;stroke-dashoffset:0;stroke-opacity:1"
       d="m 111.64774,25.022245 v -6.344316 h 1.74045 l -0.001,6.344316 z"
       id="path858"
       inkscape:connector-curvature="0"
       sodipodi:nodetypes="ccccc" />
    <path
       style="opacity:1;vector-effect:none;fill:none;fill-opacity:1;stroke:#000000;stroke-width:0.0254;stroke-linecap:round;stroke-linejoin:round;stroke-miterlimit:4;stroke-dasharray:none;stroke-dashoffset:0;stroke-opacity:1"
       d="m 73.707865,14.981514 c 5.919306,-2e-6 11.487214,1.503858 16.343195,4.149617 l -0.8909,1.543058 C 84.702117,18.243062 79.736436,16.890363 74.661297,16.72456 v 10.632424 h -1.90686 V 16.739546 c -5.145769,0.166352 -10.178396,1.552831 -14.683343,4.045231 l -0.894001,-1.548744 c 4.900232,-2.70991 10.534735,-4.254521 16.530772,-4.254519 z"
       id="path856" />
    <path
       style="opacity:1;vector-effect:none;fill:none;fill-opacity:1;stroke:#000000;stroke-width:0.0254;stroke-linecap:round;stroke-linejoin:round;stroke-miterlimit:4;stroke-dasharray:none;stroke-dashoffset:0;stroke-opacity:1"
       d="m 34.020366,18.677929 h 1.749764 v 6.344316 h -1.750796 z"
       id="path854" />
    <path
       style="opacity:1;vector-effect:none;fill:none;fill-opacity:1;stroke:#000000;stroke-width:0.0254;stroke-linecap:round;stroke-linejoin:round;stroke-miterlimit:4;stroke-dasharray:none;stroke-dashoffset:0;stroke-opacity:1"
       d="m 91.56673,20.009114 c 9.57439,5.872024 16.03419,16.323541 16.33543,28.305761 h -1.73942 c -0.13313,-5.079519 -1.45544,-10.057056 -3.86075,-14.53296 l -9.20926,5.31699 -0.95343,-1.65055 9.18135,-5.30097 C 98.646013,27.835267 94.998836,24.20933 90.67117,21.559924 Z"
       id="path852" />
    <path
       style="opacity:1;vector-effect:none;fill:none;fill-opacity:1;stroke:#000000;stroke-width:0.0254;stroke-linecap:round;stroke-linejoin:round;stroke-miterlimit:4;stroke-dasharray:none;stroke-dashoffset:0;stroke-opacity:1"
       d="m 55.667108,20.122284 0.894001,1.548228 c -4.251243,2.637751 -7.83611,6.221381 -10.475328,10.471713 l 9.190651,5.30613 -0.953428,1.65055 -9.217525,-5.32164 c -2.404213,4.477742 -3.724764,9.45693 -3.85558,14.53761 h -1.736844 c 0.299461,-11.90609 6.679684,-22.300201 16.154053,-28.192591 z"
       id="path850" />
    <path
       style="opacity:1;vector-effect:none;fill:none;fill-opacity:1;stroke:#000000;stroke-width:0.0254;stroke-linecap:round;stroke-linejoin:round;stroke-miterlimit:4;stroke-dasharray:none;stroke-dashoffset:0;stroke-opacity:1"
       d="m 16.322223,26.599408 h 17.697111 1.750796 v 1.90686 H 34.018816 16.322223 Z"
       id="path848" />
    <path
       style="opacity:1;vector-effect:none;fill:none;fill-opacity:1;stroke:#000000;stroke-width:0.0254;stroke-linecap:round;stroke-linejoin:round;stroke-miterlimit:4;stroke-dasharray:none;stroke-dashoffset:0;stroke-opacity:1"
       d="m 7.1439715,28.244786 c 1.024993,0.472024 2.521071,1.126236 4.4017985,1.835029 l 5.212602,5.2e-4 -8.0413705,13.92783 13.9267995,-13.9268 11.375015,0.002 h 1.751314 v 2.11667 h -1.751314 c -3.441028,0 -6.230626,2.78959 -6.230626,6.23062 v 5.48856 c -10.068362,0.63335 -17.625429,4.17159 -20.6442185,5.81308 z"
       id="path846" />
    <path
       style="opacity:1;vector-effect:none;fill:none;fill-opacity:1;stroke:#000000;stroke-width:0.0254;stroke-linecap:round;stroke-linejoin:round;stroke-miterlimit:4;stroke-dasharray:none;stroke-dashoffset:0;stroke-opacity:1"
       d="m 34.016749,48.043445 0.001,-6.34432 h 1.751314 l -0.001,6.34432 z"
       id="path874"
       inkscape:connector-curvature="0"
       sodipodi:nodetypes="ccccc" />
    <path
       style="opacity:1;vector-effect:none;fill:none;fill-opacity:1;stroke:#000000;stroke-width:0.0254;stroke-linecap:round;stroke-linejoin:round;stroke-miterlimit:4;stroke-dasharray:none;stroke-dashoffset:0;stroke-opacity:1"
       d="m 35.769063,40.121955 h -1.751314 l 0.0011,-6.34469 h 1.751314 l -0.0011,6.34469"
       id="path870" />
    <path
       style="opacity:1;vector-effect:none;fill:none;fill-opacity:1;stroke:#000000;stroke-width:0.0254;stroke-linecap:round;stroke-linejoin:round;stroke-miterlimit:4;stroke-dasharray:none;stroke-dashoffset:0;stroke-opacity:1"
       d="m 35.768063,49.620605 -5.82e-4,1.90686"
       id="path890" />
    <path
       style="opacity:1;vector-effect:none;fill:none;fill-opacity:1;stroke:#000000;stroke-width:0.0254;stroke-linecap:round;stroke-linejoin:round;stroke-miterlimit:4;stroke-dasharray:none;stroke-dashoffset:0;stroke-opacity:1"
       d="M 35.770181,92.595385 H 7.1439715 v -18.30586 c 1.024981,0.47187 2.519677,1.12507 4.3966305,1.83244 l 5.212602,5.2e-4 -8.0413695,13.92783 13.9267995,-13.9268 11.375014,0.002 h 1.751314 z"
       id="path885" />
    <path
       style="opacity:1;vector-effect:none;fill:none;fill-opacity:1;stroke:#000000;stroke-width:0.0254;stroke-linecap:round;stroke-linejoin:round;stroke-miterlimit:4;stroke-dasharray:none;stroke-dashoffset:0;stroke-opacity:1"
       d="M 35.764962,74.548345 H 34.013648 16.317055 v -1.90686 h 17.697112 1.751314 z"
       id="path881" />
    <path
       style="opacity:1;vector-effect:none;fill:none;fill-opacity:1;stroke:#000000;stroke-width:0.0254;stroke-linecap:round;stroke-linejoin:round;stroke-miterlimit:4;stroke-dasharray:none;stroke-dashoffset:0;stroke-opacity:1"
       d="m 35.765481,71.064325 h -1.751314 l 10e-4,-6.34432 h 1.751314 z"
       id="path877" />
    <path
       style="opacity:1;vector-effect:none;fill:none;fill-opacity:1;stroke:#000000;stroke-width:0.0254;stroke-linecap:round;stroke-linejoin:round;stroke-miterlimit:4;stroke-dasharray:none;stroke-dashoffset:0;stroke-opacity:1"
       d="m 35.766481,63.142845 h -1.751314 l 0.001,-6.34431 h 1.751314 z"
       id="path873" />
    <path
       style="opacity:1;vector-effect:none;fill:none;fill-opacity:1;stroke:#000000;stroke-width:0.0254;stroke-linecap:round;stroke-linejoin:round;stroke-miterlimit:4;stroke-dasharray:none;stroke-dashoffset:0;stroke-opacity:1"
       d="m 35.767481,55.221365 h -1.751314 v -5.2e-4 c -3.44103,0 -6.230628,2.7896 -6.230628,6.23063 v 5.48855 c -10.065203,0.63315 -17.620938,4.16989 -20.6416335,5.81205 v -21.48499 c 1.024988,0.47195 2.520383,1.12591 4.3992145,1.834 l 5.212602,5.1e-4 -8.0413705,13.92783 13.9267985,-13.9268 11.375017,0.002 h 1.751314 z"
       id="path886" />
    <path
       style="opacity:1;vector-effect:none;fill:none;fill-opacity:1;stroke:#000000;stroke-width:0.0254;stroke-linecap:round;stroke-linejoin:round;stroke-miterlimit:4;stroke-dasharray:none;stroke-dashoffset:0;stroke-opacity:1"
       d="M 35.767481,51.527465 H 34.016233 16.319639 v -1.90686 h 17.69711 1.751314"
       id="path842" />
    <path
       style="opacity:1;vector-effect:none;fill:none;fill-opacity:1;stroke:#000000;stroke-width:0.0254;stroke-linecap:round;stroke-linejoin:round;stroke-miterlimit:4;stroke-dasharray:none;stroke-dashoffset:0;stroke-opacity:1"
       d="m 124.76918,53.102245 13.9268,13.9268 -8.04137,-13.92783 5.2126,-5.1e-4 c 1.8793,-0.70826 3.37474,-1.36255 4.39973,-1.83452 v 21.48603 c -3.02025,-1.64201 -10.57621,-5.17937 -20.64215,-5.81257 v -5.48855 c 0,-3.44103 -2.78959,-6.23063 -6.23062,-6.23063 v 5.2e-4 h -1.74667 v -2.11719 l 1.74409,2.25e-4 z"
       id="path941"
       inkscape:connector-curvature="0"
       sodipodi:nodetypes="cccccccscccccc" />
    <path
       style="opacity:1;vector-effect:none;fill:none;fill-opacity:1;stroke:#000000;stroke-width:0.0254;stroke-linecap:round;stroke-linejoin:round;stroke-miterlimit:4;stroke-dasharray:none;stroke-dashoffset:0;stroke-opacity:1"
       d="m 111.6475,51.526635 v -1.90686 l 1.74408,2.25e-4 17.69918,2.25e-4 v 1.90686 l -17.69918,-2.25e-4 z"
       id="path931"
       inkscape:connector-curvature="0"
       sodipodi:nodetypes="ccccccc" />
    <path
       style="opacity:1;vector-effect:none;fill:none;fill-opacity:1;stroke:#000000;stroke-width:0.0254;stroke-linecap:round;stroke-linejoin:round;stroke-miterlimit:4;stroke-dasharray:none;stroke-dashoffset:0;stroke-opacity:1"
       d="m 111.6475,48.042615 v -6.34432 h 1.7431 l -0.001,6.34432 z"
       id="path923"
       inkscape:connector-curvature="0"
       sodipodi:nodetypes="ccccc" />
    <path
       style="opacity:1;vector-effect:none;fill:none;fill-opacity:1;stroke:#000000;stroke-width:0.0254;stroke-linecap:round;stroke-linejoin:round;stroke-miterlimit:4;stroke-dasharray:none;stroke-dashoffset:0;stroke-opacity:1"
       d="m 111.6475,40.121125 7e-5,-6.34386 h 1.74408 l -0.001,6.34386 z"
       id="path840"
       inkscape:connector-curvature="0"
       sodipodi:nodetypes="ccccc" />
    <path
       style="opacity:1;vector-effect:none;fill:none;fill-opacity:1;stroke:#000000;stroke-width:0.0254;stroke-linecap:round;stroke-linejoin:round;stroke-miterlimit:4;stroke-dasharray:none;stroke-dashoffset:0;stroke-opacity:1"
       d="M 39.513055,50.066195 H 41.253 c 0.133292,5.079168 1.455593,10.056335 3.860747,14.53193 l 9.209257,-5.31699 0.953428,1.65106 -9.181351,5.30097 c 2.674426,4.312248 6.321426,7.938363 10.648963,10.58798 l -0.895035,1.5503 C 46.274725,72.499325 39.814577,62.048105 39.513055,50.066195 Z"
       id="path838" />
    <path
       style="opacity:1;vector-effect:none;fill:none;fill-opacity:1;stroke:#000000;stroke-width:0.0254;stroke-linecap:round;stroke-linejoin:round;stroke-miterlimit:4;stroke-dasharray:none;stroke-dashoffset:0;stroke-opacity:1"
       d="m 106.1648,50.066195 h 1.73736 c -0.30329,12.05813 -6.84316,22.56665 -16.51785,28.41738 l -0.88315,-1.52962 c 4.411929,-2.65932 8.128511,-6.329316 10.84327,-10.70735 l -9.20513,-5.31441 0.95343,-1.65106 9.19996,5.31182 c 2.40833,-4.473069 3.73451,-9.448427 3.87211,-14.52676 z"
       id="path836" />
    <path
       style="opacity:1;vector-effect:none;fill:none;fill-opacity:1;stroke:#000000;stroke-width:0.0254;stroke-linecap:round;stroke-linejoin:round;stroke-miterlimit:4;stroke-dasharray:none;stroke-dashoffset:0;stroke-opacity:1"
       d="m 111.64767,56.798605 h 1.74667 l 0.001,6.34431 h -1.7477 z"
       id="path834" />
    <path
       style="opacity:1;vector-effect:none;fill:none;fill-opacity:1;stroke:#000000;stroke-width:0.0254;stroke-linecap:round;stroke-linejoin:round;stroke-miterlimit:4;stroke-dasharray:none;stroke-dashoffset:0;stroke-opacity:1"
       d="m 124.77194,76.123585 13.92679,13.9268 -8.04137,-13.92783 5.21261,-5.2e-4 c 1.87727,-0.70749 3.37216,-1.36056 4.39714,-1.83244 v 18.30586 h -28.61944 v -16.4698 l 1.7477,-3.5e-5 z"
       id="path957"
       inkscape:connector-curvature="0"
       sodipodi:nodetypes="cccccccccc" />
    <path
       style="opacity:1;vector-effect:none;fill:none;fill-opacity:1;stroke:#000000;stroke-width:0.0254;stroke-linecap:round;stroke-linejoin:round;stroke-miterlimit:4;stroke-dasharray:none;stroke-dashoffset:0;stroke-opacity:1"
       d="m 111.64767,74.548485 v -1.90686 l 1.74768,-3.5e-5 17.69813,-3.5e-5 v 1.90686 l -17.69811,3.5e-5 z"
       id="path951"
       inkscape:connector-curvature="0"
       sodipodi:nodetypes="ccccccc" />
    <path
       style="opacity:1;vector-effect:none;fill:none;fill-opacity:1;stroke:#000000;stroke-width:0.0254;stroke-linecap:round;stroke-linejoin:round;stroke-miterlimit:4;stroke-dasharray:none;stroke-dashoffset:0;stroke-opacity:1"
       d="m 113.39434,71.064465 h -1.74667 v -6.34439 h 1.7477 z"
       id="path832"
       inkscape:connector-curvature="0"
       sodipodi:nodetypes="cccc" />
    <path
       style="opacity:1;vector-effect:none;fill:none;fill-opacity:1;stroke:#000000;stroke-width:0.0254;stroke-linecap:round;stroke-linejoin:round;stroke-miterlimit:4;stroke-dasharray:none;stroke-dashoffset:0;stroke-opacity:1"
       d="m 72.754437,71.023575 h 1.90686 v 10.61795 c 5.000986,-0.16128 9.897202,-1.475083 14.307143,-3.83904 l 0.894,1.54822 c -4.811469,2.58263 -10.311535,4.04885 -16.154575,4.04885 -5.919549,0 -11.487515,-1.5041 -16.343703,-4.15013 l 0.890902,-1.54306 c 4.458196,2.431204 9.42406,3.783905 14.499373,3.94963 z"
       id="rect1699" />
  </g>
</svg>
