  0
SECTION
  2
HEADER
  9
$ACADVER
  1
AC1014
  9
$HANDSEED
  5
FFFF
  9
$MEASUREMENT
 70
     1
  0
ENDSEC
  0
SECTION
  2
TABLES
  0
TABLE
  2
VPORT
  5
8
330
0
100
AcDbSymbolTable
 70
     4
  0
VPORT
  5
2E
330
8
100
AcDbSymbolTableRecord
100
AcDbViewportTableRecord
  2
*ACTIVE
 70
     0
 10
0.0
 20
0.0
 11
1.0
 21
1.0
 12
210.0
 22
148.5
 13
0.0
 23
0.0
 14
10.0
 24
10.0
 15
10.0
 25
10.0
 16
0.0
 26
0.0
 36
1.0
 17
0.0
 27
0.0
 37
0.0
 40
341.0
 41
1.24
 42
50.0
 43
0.0
 44
0.0
 50
0.0
 51
0.0
 71
     0
 72
   100
 73
     1
 74
     3
 75
     0
 76
     0
 77
     0
 78
     0
  0
ENDTAB
  0
TABLE
  2
LTYPE
  5
5
330
0
100
AcDbSymbolTable
 70
     1
  0
LTYPE
  5
14
330
5
100
AcDbSymbolTableRecord
100
AcDbLinetypeTableRecord
  2
BYBLOCK
 70
     0
  3

 72
    65
 73
     0
 40
0.0
  0
LTYPE
  5
15
330
5
100
AcDbSymbolTableRecord
100
AcDbLinetypeTableRecord
  2
BYLAYER
 70
     0
  3

 72
    65
 73
     0
 40
0.0
  0
LTYPE
  5
16
330
5
100
AcDbSymbolTableRecord
100
AcDbLinetypeTableRecord
  2
CONTINUOUS
 70
     0
  3
Solid line
 72
    65
 73
     0
 40
0.0
  0
ENDTAB
  0
TABLE
  2
LAYER
  5
2
100
AcDbSymbolTable
 70
2
  0
LAYER
  5
50
100
AcDbSymbolTableRecord
100
AcDbLayerTableRecord
  2
0
 70
0
  6
CONTINUOUS
  0
LAYER
  5
51
100
AcDbSymbolTableRecord
100
AcDbLayerTableRecord
  2
Layer_1
 70
0
  6
CONTINUOUS
  0
ENDTAB
  0
TABLE
  2
STYLE
  5
3
330
0
100
AcDbSymbolTable
 70
     1
  0
STYLE
  5
11
330
3
100
AcDbSymbolTableRecord
100
AcDbTextStyleTableRecord
  2
STANDARD
 70
     0
 40
0.0
 41
1.0
 50
0.0
 71
     0
 42
2.5
  3
txt
  4

  0
ENDTAB
  0
TABLE
  2
VIEW
  5
6
330
0
100
AcDbSymbolTable
 70
     0
  0
ENDTAB
  0
TABLE
  2
UCS
  5
7
330
0
100
AcDbSymbolTable
 70
     0
  0
ENDTAB
  0
TABLE
  2
APPID
  5
9
330
0
100
AcDbSymbolTable
 70
     2
  0
APPID
  5
12
330
9
100
AcDbSymbolTableRecord
100
AcDbRegAppTableRecord
  2
ACAD
 70
     0
  0
ENDTAB
  0
TABLE
  2
DIMSTYLE
  5
A
330
0
100
AcDbSymbolTable
 70
     1
  0
DIMSTYLE
105
27
330
A
100
AcDbSymbolTableRecord
100
AcDbDimStyleTableRecord
  2
ISO-25
 70
     0
  3

  4

  5

  6

  7

 40
1.0
 41
2.5
 42
0.625
 43
3.75
 44
1.25
 45
0.0
 46
0.0
 47
0.0
 48
0.0
140
2.5
141
2.5
142
0.0
143
0.03937007874016
144
1.0
145
0.0
146
1.0
147
0.625
 71
     0
 72
     0
 73
     0
 74
     0
 75
     0
 76
     0
 77
     1
 78
     8
170
     0
171
     3
172
     1
173
     0
174
     0
175
     0
176
     0
177
     0
178
     0
270
     2
271
     2
272
     2
273
     2
274
     3
340
11
275
     0
280
     0
281
     0
282
     0
283
     0
284
     8
285
     0
286
     0
287
     3
288
     0
  0
ENDTAB
  0
TABLE
  2
BLOCK_RECORD
  5
1
330
0
100
AcDbSymbolTable
 70
     1
  0
BLOCK_RECORD
  5
1F
330
1
100
AcDbSymbolTableRecord
100
AcDbBlockTableRecord
  2
*MODEL_SPACE
  0
BLOCK_RECORD
  5
1B
330
1
100
AcDbSymbolTableRecord
100
AcDbBlockTableRecord
  2
*PAPER_SPACE
  0
ENDTAB
  0
ENDSEC
  0
SECTION
  2
BLOCKS
  0
BLOCK
  5
20
330
1F
100
AcDbEntity
  8
0
100
AcDbBlockBegin
  2
*MODEL_SPACE
 70
     0
 10
0.0
 20
0.0
 30
0.0
  3
*MODEL_SPACE
  1

  0
ENDBLK
  5
21
330
1F
100
AcDbEntity
  8
0
100
AcDbBlockEnd
  0
BLOCK
  5
1C
330
1B
100
AcDbEntity
 67
     1
  8
0
100
AcDbBlockBegin
  2
*PAPER_SPACE
  1

  0
ENDBLK
  5
1D
330
1B
100
AcDbEntity
 67
     1
  8
0
100
AcDbBlockEnd
  0
ENDSEC
  0
SECTION
  2
ENTITIES
  0
LWPOLYLINE
  5
100
100
AcDbEntity
  8
Layer_1
 62
7
100
AcDbPolyline
 90
11
 70
1
 10
1.852083
 20
295.657446
 30
0.0
 10
1.852083
 20
199.112952
 30
0.0
 10
36.828243
 20
199.112952
 30
0.0
 10
40.556698
 20
199.112952
 30
0.0
 10
145.558556
 20
199.112952
 30
0.0
 10
145.558556
 20
295.657446
 30
0.0
 10
110.589114
 20
295.657446
 30
0.0
 10
106.860659
 20
295.657446
 30
0.0
 10
40.556698
 20
295.657446
 30
0.0
 10
36.828243
 20
295.657446
 30
0.0
 10
1.852083
 20
295.657446
 30
0.0
  0
SPLINE
  5
101
100
AcDbEntity
  8
Layer_1
 62
7
100
AcDbSpline
 70
8
 71
3
 72
8
 73
4
 74
0
 40
0
 40
0
 40
0
 40
0
 40
1
 40
1
 40
1
 40
1
 10
34.021178
 20
287.821232
 30
0.0
 10
30.580150
 20
287.821232
 30
0.0
 10
27.790552
 20
285.031625
 30
0.0
 10
27.790552
 20
281.590605
 30
0.0
  0
LWPOLYLINE
  5
102
100
AcDbEntity
  8
Layer_1
 62
7
100
AcDbPolyline
 90
5
 70
0
 10
7.143750
 20
290.365780
 30
0.0
 10
35.769909
 20
290.365780
 30
0.0
 10
35.769909
 20
287.820716
 30
0.0
 10
34.021178
 20
287.820716
 30
0.0
 10
34.021178
 20
287.821232
 30
0.0
  0
SPLINE
  5
103
100
AcDbEntity
  8
Layer_1
 62
7
100
AcDbSpline
 70
8
 71
3
 72
8
 73
4
 74
0
 40
0
 40
0
 40
0
 40
0
 40
1
 40
1
 40
1
 40
1
 10
27.790552
 20
276.102051
 30
0.0
 10
17.719017
 20
275.468520
 30
0.0
 10
10.160630
 20
271.928241
 30
0.0
 10
7.143750
 20
270.287418
 30
0.0
  0
LWPOLYLINE
  5
104
100
AcDbEntity
  8
Layer_1
 62
7
100
AcDbPolyline
 90
2
 70
0
 10
27.790552
 20
281.590605
 30
0.0
 10
27.790552
 20
276.102051
 30
0.0
  0
LWPOLYLINE
  5
105
100
AcDbEntity
  8
Layer_1
 62
7
100
AcDbPolyline
 90
3
 70
0
 10
7.143750
 20
270.287418
 30
0.0
 10
7.143750
 20
290.365780
 30
0.0
 10
7.143750
 20
290.365780
 30
0.0
  0
SPLINE
  5
106
100
AcDbEntity
  8
Layer_1
 62
7
100
AcDbSpline
 70
8
 71
3
 72
8
 73
4
 74
0
 40
0
 40
0
 40
0
 40
0
 40
1
 40
1
 40
1
 40
1
 10
140.266889
 20
270.287418
 30
0.0
 10
137.250298
 20
271.928127
 30
0.0
 10
129.691560
 20
275.468480
 30
0.0
 10
119.619571
 20
276.102051
 30
0.0
  0
LWPOLYLINE
  5
107
100
AcDbEntity
  8
Layer_1
 62
7
100
AcDbPolyline
 90
3
 70
0
 10
111.647447
 20
290.365780
 30
0.0
 10
140.266889
 20
290.365780
 30
0.0
 10
140.266889
 20
270.287418
 30
0.0
  0
SPLINE
  5
108
100
AcDbEntity
  8
Layer_1
 62
7
100
AcDbSpline
 70
8
 71
3
 72
8
 73
4
 74
0
 40
0
 40
0
 40
0
 40
0
 40
1
 40
1
 40
1
 40
1
 10
119.619571
 20
281.590605
 30
0.0
 10
119.619571
 20
285.031630
 30
0.0
 10
116.829973
 20
287.821232
 30
0.0
 10
113.388943
 20
287.821232
 30
0.0
  0
LWPOLYLINE
  5
109
100
AcDbEntity
  8
Layer_1
 62
7
100
AcDbPolyline
 90
2
 70
0
 10
119.619571
 20
276.102051
 30
0.0
 10
119.619571
 20
281.590605
 30
0.0
  0
LWPOLYLINE
  5
10a
100
AcDbEntity
  8
Layer_1
 62
7
100
AcDbPolyline
 90
5
 70
0
 10
113.388943
 20
287.821232
 30
0.0
 10
113.388943
 20
287.820716
 30
0.0
 10
111.647447
 20
287.820716
 30
0.0
 10
111.647447
 20
290.365780
 30
0.0
 10
111.647447
 20
290.365780
 30
0.0
  0
LWPOLYLINE
  5
10b
100
AcDbEntity
  8
Layer_1
 62
7
100
AcDbPolyline
 90
5
 70
1
 10
34.021178
 20
286.243551
 30
0.0
 10
35.769909
 20
286.243551
 30
0.0
 10
35.769909
 20
279.899235
 30
0.0
 10
34.020146
 20
279.899235
 30
0.0
 10
34.021178
 20
286.243551
 30
0.0
  0
SPLINE
  5
10c
100
AcDbEntity
  8
Layer_1
 62
7
100
AcDbSpline
 70
8
 71
3
 72
8
 73
4
 74
0
 40
0
 40
0
 40
0
 40
0
 40
1
 40
1
 40
1
 40
1
 10
73.707645
 20
282.018486
 30
0.0
 10
79.626951
 20
282.018488
 30
0.0
 10
85.194853
 20
280.514627
 30
0.0
 10
90.050833
 20
277.868868
 30
0.0
  0
LWPOLYLINE
  5
10d
100
AcDbEntity
  8
Layer_1
 62
7
100
AcDbPolyline
 90
5
 70
1
 10
111.647447
 20
286.243551
 30
0.0
 10
113.388943
 20
286.243551
 30
0.0
 10
113.388427
 20
279.899235
 30
0.0
 10
111.647447
 20
279.899235
 30
0.0
 10
111.647447
 20
286.243551
 30
0.0
  0
SPLINE
  5
10e
100
AcDbEntity
  8
Layer_1
 62
7
100
AcDbSpline
 70
8
 71
3
 72
8
 73
4
 74
0
 40
0
 40
0
 40
0
 40
0
 40
1
 40
1
 40
1
 40
1
 10
89.159931
 20
276.325810
 30
0.0
 10
84.701890
 20
278.756937
 30
0.0
 10
79.736213
 20
280.109641
 30
0.0
 10
74.661074
 20
280.275440
 30
0.0
  0
LWPOLYLINE
  5
10f
100
AcDbEntity
  8
Layer_1
 62
7
100
AcDbPolyline
 90
2
 70
0
 10
90.050833
 20
277.868868
 30
0.0
 10
89.159931
 20
276.325810
 30
0.0
  0
SPLINE
  5
110
100
AcDbEntity
  8
Layer_1
 62
7
100
AcDbSpline
 70
8
 71
3
 72
8
 73
4
 74
0
 40
0
 40
0
 40
0
 40
0
 40
1
 40
1
 40
1
 40
1
 10
72.754214
 20
280.260454
 30
0.0
 10
67.608447
 20
280.094102
 30
0.0
 10
62.575820
 20
278.707622
 30
0.0
 10
58.070874
 20
276.215222
 30
0.0
  0
LWPOLYLINE
  5
111
100
AcDbEntity
  8
Layer_1
 62
7
100
AcDbPolyline
 90
4
 70
0
 10
74.661074
 20
280.275440
 30
0.0
 10
74.661074
 20
269.643015
 30
0.0
 10
72.754214
 20
269.643015
 30
0.0
 10
72.754214
 20
280.260454
 30
0.0
  0
SPLINE
  5
112
100
AcDbEntity
  8
Layer_1
 62
7
100
AcDbSpline
 70
8
 71
3
 72
8
 73
4
 74
0
 40
0
 40
0
 40
0
 40
0
 40
1
 40
1
 40
1
 40
1
 10
57.176870
 20
277.763965
 30
0.0
 10
62.077102
 20
280.473875
 30
0.0
 10
67.711608
 20
282.018488
 30
0.0
 10
73.707645
 20
282.018486
 30
0.0
  0
LWPOLYLINE
  5
113
100
AcDbEntity
  8
Layer_1
 62
7
100
AcDbPolyline
 90
2
 70
0
 10
58.070874
 20
276.215222
 30
0.0
 10
57.176870
 20
277.763965
 30
0.0
  0
LWPOLYLINE
  5
114
100
AcDbEntity
  8
Layer_1
 62
7
100
AcDbPolyline
 90
1
 70
1
 10
73.707645
 20
282.018486
 30
0.0
  0
LWPOLYLINE
  5
115
100
AcDbEntity
  8
Layer_1
 62
7
100
AcDbPolyline
 90
5
 70
1
 10
34.020146
 20
278.322071
 30
0.0
 10
35.769909
 20
278.322071
 30
0.0
 10
35.769909
 20
271.977755
 30
0.0
 10
34.019111
 20
271.977755
 30
0.0
 10
34.020146
 20
278.322071
 30
0.0
  0
SPLINE
  5
116
100
AcDbEntity
  8
Layer_1
 62
7
100
AcDbSpline
 70
8
 71
3
 72
8
 73
4
 74
0
 40
0
 40
0
 40
0
 40
0
 40
1
 40
1
 40
1
 40
1
 10
91.566501
 20
276.990886
 30
0.0
 10
101.140894
 20
271.118862
 30
0.0
 10
107.600698
 20
260.667340
 30
0.0
 10
107.901940
 20
248.685121
 30
0.0
  0
LWPOLYLINE
  5
117
100
AcDbEntity
  8
Layer_1
 62
7
100
AcDbPolyline
 90
5
 70
1
 10
111.647963
 20
278.322071
 30
0.0
 10
113.388427
 20
278.322071
 30
0.0
 10
113.387392
 20
271.977755
 30
0.0
 10
111.647963
 20
271.977755
 30
0.0
 10
111.647963
 20
278.322071
 30
0.0
  0
SPLINE
  5
118
100
AcDbEntity
  8
Layer_1
 62
7
100
AcDbSpline
 70
8
 71
3
 72
8
 73
4
 74
0
 40
0
 40
0
 40
0
 40
0
 40
1
 40
1
 40
1
 40
1
 10
106.162511
 20
248.685121
 30
0.0
 10
106.029380
 20
253.764639
 30
0.0
 10
104.707075
 20
258.742179
 30
0.0
 10
102.301764
 20
263.218082
 30
0.0
  0
LWPOLYLINE
  5
119
100
AcDbEntity
  8
Layer_1
 62
7
100
AcDbPolyline
 90
2
 70
0
 10
107.901940
 20
248.685121
 30
0.0
 10
106.162511
 20
248.685121
 30
0.0
  0
SPLINE
  5
11a
100
AcDbEntity
  8
Layer_1
 62
7
100
AcDbSpline
 70
8
 71
3
 72
8
 73
4
 74
0
 40
0
 40
0
 40
0
 40
0
 40
1
 40
1
 40
1
 40
1
 10
101.320429
 20
264.852609
 30
0.0
 10
98.645794
 20
269.164728
 30
0.0
 10
94.998616
 20
272.790670
 30
0.0
 10
90.670950
 20
275.440076
 30
0.0
  0
LWPOLYLINE
  5
11b
100
AcDbEntity
  8
Layer_1
 62
7
100
AcDbPolyline
 90
4
 70
0
 10
102.301764
 20
263.218082
 30
0.0
 10
93.092507
 20
257.901095
 30
0.0
 10
92.139078
 20
259.551640
 30
0.0
 10
101.320429
 20
264.852609
 30
0.0
  0
LWPOLYLINE
  5
11c
100
AcDbEntity
  8
Layer_1
 62
7
100
AcDbPolyline
 90
3
 70
0
 10
90.670950
 20
275.440076
 30
0.0
 10
91.566501
 20
276.990886
 30
0.0
 10
91.566501
 20
276.990886
 30
0.0
  0
SPLINE
  5
11d
100
AcDbEntity
  8
Layer_1
 62
7
100
AcDbSpline
 70
8
 71
3
 72
8
 73
4
 74
0
 40
0
 40
0
 40
0
 40
0
 40
1
 40
1
 40
1
 40
1
 10
56.560889
 20
275.329488
 30
0.0
 10
52.309646
 20
272.691738
 30
0.0
 10
48.724777
 20
269.108110
 30
0.0
 10
46.085558
 20
264.857777
 30
0.0
  0
LWPOLYLINE
  5
11e
100
AcDbEntity
  8
Layer_1
 62
7
100
AcDbPolyline
 90
2
 70
0
 10
55.666885
 20
276.877714
 30
0.0
 10
56.560889
 20
275.329488
 30
0.0
  0
SPLINE
  5
11f
100
AcDbEntity
  8
Layer_1
 62
7
100
AcDbSpline
 70
8
 71
3
 72
8
 73
4
 74
0
 40
0
 40
0
 40
0
 40
0
 40
1
 40
1
 40
1
 40
1
 10
45.105256
 20
263.222734
 30
0.0
 10
42.701043
 20
258.744992
 30
0.0
 10
41.380494
 20
253.765801
 30
0.0
 10
41.249679
 20
248.685121
 30
0.0
  0
LWPOLYLINE
  5
120
100
AcDbEntity
  8
Layer_1
 62
7
100
AcDbPolyline
 90
4
 70
0
 10
46.085558
 20
264.857777
 30
0.0
 10
55.276212
 20
259.551640
 30
0.0
 10
54.322781
 20
257.901095
 30
0.0
 10
45.105256
 20
263.222734
 30
0.0
  0
SPLINE
  5
121
100
AcDbEntity
  8
Layer_1
 62
7
100
AcDbSpline
 70
8
 71
3
 72
8
 73
4
 74
0
 40
0
 40
0
 40
0
 40
0
 40
1
 40
1
 40
1
 40
1
 10
39.512832
 20
248.685121
 30
0.0
 10
39.812293
 20
260.591209
 30
0.0
 10
46.192516
 20
270.985324
 30
0.0
 10
55.666885
 20
276.877714
 30
0.0
  0
LWPOLYLINE
  5
122
100
AcDbEntity
  8
Layer_1
 62
7
100
AcDbPolyline
 90
2
 70
0
 10
41.249679
 20
248.685121
 30
0.0
 10
39.512832
 20
248.685121
 30
0.0
  0
LWPOLYLINE
  5
123
100
AcDbEntity
  8
Layer_1
 62
7
100
AcDbPolyline
 90
1
 70
1
 10
55.666885
 20
276.877714
 30
0.0
  0
LWPOLYLINE
  5
124
100
AcDbEntity
  8
Layer_1
 62
7
100
AcDbPolyline
 90
7
 70
1
 10
16.322001
 20
270.400591
 30
0.0
 10
34.019111
 20
270.400591
 30
0.0
 10
35.769909
 20
270.400591
 30
0.0
 10
35.769909
 20
268.493731
 30
0.0
 10
34.018595
 20
268.493731
 30
0.0
 10
16.322001
 20
268.493731
 30
0.0
 10
16.322001
 20
270.400591
 30
0.0
  0
LWPOLYLINE
  5
125
100
AcDbEntity
  8
Layer_1
 62
7
100
AcDbPolyline
 90
7
 70
1
 10
111.647447
 20
270.400591
 30
0.0
 10
113.391009
 20
270.400591
 30
0.0
 10
131.088120
 20
270.400591
 30
0.0
 10
131.088120
 20
268.493731
 30
0.0
 10
113.388943
 20
268.493731
 30
0.0
 10
111.647447
 20
268.493731
 30
0.0
 10
111.647447
 20
270.400591
 30
0.0
  0
SPLINE
  5
126
100
AcDbEntity
  8
Layer_1
 62
7
100
AcDbSpline
 70
8
 71
3
 72
8
 73
4
 74
0
 40
0
 40
0
 40
0
 40
0
 40
1
 40
1
 40
1
 40
1
 10
140.266889
 20
247.267118
 30
0.0
 10
137.248549
 20
248.908450
 30
0.0
 10
129.691255
 20
252.447326
 30
0.0
 10
119.622153
 20
253.080718
 30
0.0
  0
LWPOLYLINE
  5
127
100
AcDbEntity
  8
Layer_1
 62
7
100
AcDbPolyline
 90
2
 70
0
 10
140.266889
 20
268.755730
 30
0.0
 10
140.266889
 20
247.267118
 30
0.0
  0
SPLINE
  5
128
100
AcDbEntity
  8
Layer_1
 62
7
100
AcDbSpline
 70
8
 71
3
 72
8
 73
4
 74
0
 40
0
 40
0
 40
0
 40
0
 40
1
 40
1
 40
1
 40
1
 10
119.622153
 20
258.569271
 30
0.0
 10
119.622153
 20
262.010302
 30
0.0
 10
116.832556
 20
264.799899
 30
0.0
 10
113.391528
 20
264.799899
 30
0.0
  0
LWPOLYLINE
  5
129
100
AcDbEntity
  8
Layer_1
 62
7
100
AcDbPolyline
 90
2
 70
0
 10
119.622153
 20
253.080718
 30
0.0
 10
119.622153
 20
258.569271
 30
0.0
  0
SPLINE
  5
12a
100
AcDbEntity
  8
Layer_1
 62
7
100
AcDbSpline
 70
8
 71
3
 72
8
 73
4
 74
0
 40
0
 40
0
 40
0
 40
0
 40
1
 40
1
 40
1
 40
1
 10
135.864574
 20
266.920183
 30
0.0
 10
137.745765
 20
267.629150
 30
0.0
 10
139.241899
 20
268.283686
 30
0.0
 10
140.266889
 20
268.755730
 30
0.0
  0
LWPOLYLINE
  5
12b
100
AcDbEntity
  8
Layer_1
 62
7
100
AcDbPolyline
 90
8
 70
0
 10
113.391528
 20
264.799899
 30
0.0
 10
111.647447
 20
264.799899
 30
0.0
 10
111.647447
 20
266.916566
 30
0.0
 10
113.388943
 20
266.916566
 30
0.0
 10
124.766542
 20
266.918632
 30
0.0
 10
138.693341
 20
252.991834
 30
0.0
 10
130.651971
 20
266.919667
 30
0.0
 10
135.864574
 20
266.920183
 30
0.0
  0
SPLINE
  5
12c
100
AcDbEntity
  8
Layer_1
 62
7
100
AcDbSpline
 70
8
 71
3
 72
8
 73
4
 74
0
 40
0
 40
0
 40
0
 40
0
 40
1
 40
1
 40
1
 40
1
 10
7.143750
 20
268.755214
 30
0.0
 10
8.168743
 20
268.283189
 30
0.0
 10
9.664821
 20
267.628975
 30
0.0
 10
11.545548
 20
266.920183
 30
0.0
  0
LWPOLYLINE
  5
12d
100
AcDbEntity
  8
Layer_1
 62
7
100
AcDbPolyline
 90
1
 70
1
 10
140.266889
 20
268.755730
 30
0.0
  0
SPLINE
  5
12e
100
AcDbEntity
  8
Layer_1
 62
7
100
AcDbSpline
 70
8
 71
3
 72
8
 73
4
 74
0
 40
0
 40
0
 40
0
 40
0
 40
1
 40
1
 40
1
 40
1
 10
34.018595
 20
264.799899
 30
0.0
 10
30.577567
 20
264.799899
 30
0.0
 10
27.787967
 20
262.010302
 30
0.0
 10
27.787967
 20
258.569271
 30
0.0
  0
LWPOLYLINE
  5
12f
100
AcDbEntity
  8
Layer_1
 62
7
100
AcDbPolyline
 90
8
 70
0
 10
11.545548
 20
266.920183
 30
0.0
 10
16.758150
 20
266.919667
 30
0.0
 10
8.716780
 20
252.991834
 30
0.0
 10
22.643579
 20
266.918632
 30
0.0
 10
34.018595
 20
266.916566
 30
0.0
 10
35.769909
 20
266.916566
 30
0.0
 10
35.769909
 20
264.799899
 30
0.0
 10
34.018595
 20
264.799899
 30
0.0
  0
SPLINE
  5
130
100
AcDbEntity
  8
Layer_1
 62
7
100
AcDbSpline
 70
8
 71
3
 72
8
 73
4
 74
0
 40
0
 40
0
 40
0
 40
0
 40
1
 40
1
 40
1
 40
1
 10
27.787967
 20
253.080718
 30
0.0
 10
17.719613
 20
252.447369
 30
0.0
 10
10.162539
 20
248.909125
 30
0.0
 10
7.143750
 20
247.267637
 30
0.0
  0
LWPOLYLINE
  5
131
100
AcDbEntity
  8
Layer_1
 62
7
100
AcDbPolyline
 90
2
 70
0
 10
27.787967
 20
258.569271
 30
0.0
 10
27.787967
 20
253.080718
 30
0.0
  0
LWPOLYLINE
  5
132
100
AcDbEntity
  8
Layer_1
 62
7
100
AcDbPolyline
 90
3
 70
0
 10
7.143750
 20
247.267637
 30
0.0
 10
7.143750
 20
268.755214
 30
0.0
 10
7.143750
 20
268.755214
 30
0.0
  0
LWPOLYLINE
  5
133
100
AcDbEntity
  8
Layer_1
 62
7
100
AcDbPolyline
 90
5
 70
1
 10
34.018595
 20
263.222734
 30
0.0
 10
35.769909
 20
263.222734
 30
0.0
 10
35.768875
 20
256.877901
 30
0.0
 10
34.017561
 20
256.877901
 30
0.0
 10
34.018595
 20
263.222734
 30
0.0
  0
LWPOLYLINE
  5
134
100
AcDbEntity
  8
Layer_1
 62
7
100
AcDbPolyline
 90
5
 70
1
 10
111.647447
 20
263.222734
 30
0.0
 10
113.391528
 20
263.222734
 30
0.0
 10
113.390493
 20
256.878936
 30
0.0
 10
111.647447
 20
256.878936
 30
0.0
 10
111.647447
 20
263.222734
 30
0.0
  0
LWPOLYLINE
  5
135
100
AcDbEntity
  8
Layer_1
 62
7
100
AcDbPolyline
 90
5
 70
1
 10
111.647447
 20
255.301770
 30
0.0
 10
113.390493
 20
255.301770
 30
0.0
 10
113.389459
 20
248.957456
 30
0.0
 10
111.647447
 20
248.957456
 30
0.0
 10
111.647447
 20
255.301770
 30
0.0
  0
LWPOLYLINE
  5
136
100
AcDbEntity
  8
Layer_1
 62
7
100
AcDbPolyline
 90
5
 70
1
 10
34.017561
 20
255.300736
 30
0.0
 10
35.768875
 20
255.300736
 30
0.0
 10
35.767843
 20
248.956422
 30
0.0
 10
34.016529
 20
248.956422
 30
0.0
 10
34.017561
 20
255.300736
 30
0.0
  0
LWPOLYLINE
  5
137
100
AcDbEntity
  8
Layer_1
 62
7
100
AcDbPolyline
 90
7
 70
1
 10
111.647447
 20
247.380291
 30
0.0
 10
113.391528
 20
247.379772
 30
0.0
 10
131.090705
 20
247.379772
 30
0.0
 10
131.090705
 20
245.472912
 30
0.0
 10
113.391528
 20
245.472912
 30
0.0
 10
111.647447
 20
245.473431
 30
0.0
 10
111.647447
 20
247.380291
 30
0.0
  0
LWPOLYLINE
  5
138
100
AcDbEntity
  8
Layer_1
 62
7
100
AcDbPolyline
 90
7
 70
1
 10
16.319417
 20
247.379256
 30
0.0
 10
34.016529
 20
247.379256
 30
0.0
 10
35.767843
 20
247.379256
 30
0.0
 10
35.767324
 20
245.472396
 30
0.0
 10
34.016010
 20
245.472396
 30
0.0
 10
16.319417
 20
245.472396
 30
0.0
 10
16.319417
 20
247.379256
 30
0.0
  0
SPLINE
  5
139
100
AcDbEntity
  8
Layer_1
 62
7
100
AcDbSpline
 70
8
 71
3
 72
8
 73
4
 74
0
 40
0
 40
0
 40
0
 40
0
 40
1
 40
1
 40
1
 40
1
 10
41.252780
 20
246.933807
 30
0.0
 10
41.386072
 20
241.854637
 30
0.0
 10
42.708372
 20
236.877471
 30
0.0
 10
45.113524
 20
232.401877
 30
0.0
  0
LWPOLYLINE
  5
13a
100
AcDbEntity
  8
Layer_1
 62
7
100
AcDbPolyline
 90
2
 70
0
 10
39.512832
 20
246.933807
 30
0.0
 10
41.252780
 20
246.933807
 30
0.0
  0
SPLINE
  5
13b
100
AcDbEntity
  8
Layer_1
 62
7
100
AcDbSpline
 70
8
 71
3
 72
8
 73
4
 74
0
 40
0
 40
0
 40
0
 40
0
 40
1
 40
1
 40
1
 40
1
 10
46.094861
 20
230.766834
 30
0.0
 10
48.769285
 20
226.454586
 30
0.0
 10
52.416286
 20
222.828466
 30
0.0
 10
56.743822
 20
220.178849
 30
0.0
  0
LWPOLYLINE
  5
13c
100
AcDbEntity
  8
Layer_1
 62
7
100
AcDbPolyline
 90
4
 70
0
 10
45.113524
 20
232.401877
 30
0.0
 10
54.322781
 20
237.718864
 30
0.0
 10
55.276212
 20
236.067803
 30
0.0
 10
46.094861
 20
230.766834
 30
0.0
  0
SPLINE
  5
13d
100
AcDbEntity
  8
Layer_1
 62
7
100
AcDbSpline
 70
8
 71
3
 72
8
 73
4
 74
0
 40
0
 40
0
 40
0
 40
0
 40
1
 40
1
 40
1
 40
1
 10
55.848786
 20
218.628558
 30
0.0
 10
46.274503
 20
224.500678
 30
0.0
 10
39.814354
 20
234.951897
 30
0.0
 10
39.512832
 20
246.933807
 30
0.0
  0
LWPOLYLINE
  5
13e
100
AcDbEntity
  8
Layer_1
 62
7
100
AcDbPolyline
 90
2
 70
0
 10
56.743822
 20
220.178849
 30
0.0
 10
55.848786
 20
218.628558
 30
0.0
  0
LWPOLYLINE
  5
13f
100
AcDbEntity
  8
Layer_1
 62
7
100
AcDbPolyline
 90
1
 70
1
 10
39.512832
 20
246.933807
 30
0.0
  0
SPLINE
  5
140
100
AcDbEntity
  8
Layer_1
 62
7
100
AcDbSpline
 70
8
 71
3
 72
8
 73
4
 74
0
 40
0
 40
0
 40
0
 40
0
 40
1
 40
1
 40
1
 40
1
 10
107.901940
 20
246.933807
 30
0.0
 10
107.598651
 20
234.875675
 30
0.0
 10
101.058775
 20
224.367150
 30
0.0
 10
91.384084
 20
218.516419
 30
0.0
  0
LWPOLYLINE
  5
141
100
AcDbEntity
  8
Layer_1
 62
7
100
AcDbPolyline
 90
2
 70
0
 10
106.164577
 20
246.933807
 30
0.0
 10
107.901940
 20
246.933807
 30
0.0
  0
SPLINE
  5
142
100
AcDbEntity
  8
Layer_1
 62
7
100
AcDbSpline
 70
8
 71
3
 72
8
 73
4
 74
0
 40
0
 40
0
 40
0
 40
0
 40
1
 40
1
 40
1
 40
1
 10
90.500934
 20
220.046042
 30
0.0
 10
94.912864
 20
222.705361
 30
0.0
 10
98.629442
 20
226.375364
 30
0.0
 10
101.344200
 20
230.753398
 30
0.0
  0
LWPOLYLINE
  5
143
100
AcDbEntity
  8
Layer_1
 62
7
100
AcDbPolyline
 90
2
 70
0
 10
91.384084
 20
218.516419
 30
0.0
 10
90.500934
 20
220.046042
 30
0.0
  0
SPLINE
  5
144
100
AcDbEntity
  8
Layer_1
 62
7
100
AcDbSpline
 70
8
 71
3
 72
8
 73
4
 74
0
 40
0
 40
0
 40
0
 40
0
 40
1
 40
1
 40
1
 40
1
 10
102.292464
 20
232.407044
 30
0.0
 10
104.700794
 20
236.880114
 30
0.0
 10
106.026978
 20
241.855474
 30
0.0
 10
106.164577
 20
246.933807
 30
0.0
  0
LWPOLYLINE
  5
145
100
AcDbEntity
  8
Layer_1
 62
7
100
AcDbPolyline
 90
4
 70
0
 10
101.344200
 20
230.753398
 30
0.0
 10
92.139078
 20
236.067803
 30
0.0
 10
93.092507
 20
237.718864
 30
0.0
 10
102.292464
 20
232.407044
 30
0.0
  0
LWPOLYLINE
  5
146
100
AcDbEntity
  8
Layer_1
 62
7
100
AcDbPolyline
 90
1
 70
1
 10
106.164577
 20
246.933807
 30
0.0
  0
SPLINE
  5
147
100
AcDbEntity
  8
Layer_1
 62
7
100
AcDbSpline
 70
8
 71
3
 72
8
 73
4
 74
0
 40
0
 40
0
 40
0
 40
0
 40
1
 40
1
 40
1
 40
1
 10
140.266889
 20
224.247852
 30
0.0
 10
137.246639
 20
225.889862
 30
0.0
 10
129.690679
 20
229.427217
 30
0.0
 10
119.624738
 20
230.060418
 30
0.0
  0
LWPOLYLINE
  5
148
100
AcDbEntity
  8
Layer_1
 62
7
100
AcDbPolyline
 90
2
 70
0
 10
140.266889
 20
245.733879
 30
0.0
 10
140.266889
 20
224.247852
 30
0.0
  0
SPLINE
  5
149
100
AcDbEntity
  8
Layer_1
 62
7
100
AcDbSpline
 70
8
 71
3
 72
8
 73
4
 74
0
 40
0
 40
0
 40
0
 40
0
 40
1
 40
1
 40
1
 40
1
 10
119.624738
 20
235.548971
 30
0.0
 10
119.624738
 20
238.990002
 30
0.0
 10
116.835141
 20
241.779599
 30
0.0
 10
113.394110
 20
241.779599
 30
0.0
  0
LWPOLYLINE
  5
14a
100
AcDbEntity
  8
Layer_1
 62
7
100
AcDbPolyline
 90
2
 70
0
 10
119.624738
 20
230.060418
 30
0.0
 10
119.624738
 20
235.548971
 30
0.0
  0
SPLINE
  5
14b
100
AcDbEntity
  8
Layer_1
 62
7
100
AcDbSpline
 70
8
 71
3
 72
8
 73
4
 74
0
 40
0
 40
0
 40
0
 40
0
 40
1
 40
1
 40
1
 40
1
 10
135.867157
 20
243.899367
 30
0.0
 10
137.746458
 20
244.607627
 30
0.0
 10
139.241899
 20
245.261910
 30
0.0
 10
140.266889
 20
245.733879
 30
0.0
  0
LWPOLYLINE
  5
14c
100
AcDbEntity
  8
Layer_1
 62
7
100
AcDbPolyline
 90
9
 70
0
 10
113.394110
 20
241.779599
 30
0.0
 10
113.394110
 20
241.779083
 30
0.0
 10
111.647447
 20
241.779083
 30
0.0
 10
111.647447
 20
243.896266
 30
0.0
 10
113.391528
 20
243.895750
 30
0.0
 10
124.769127
 20
243.897816
 30
0.0
 10
138.695926
 20
229.971017
 30
0.0
 10
130.654556
 20
243.898848
 30
0.0
 10
135.867157
 20
243.899367
 30
0.0
  0
SPLINE
  5
14d
100
AcDbEntity
  8
Layer_1
 62
7
100
AcDbSpline
 70
8
 71
3
 72
8
 73
4
 74
0
 40
0
 40
0
 40
0
 40
0
 40
1
 40
1
 40
1
 40
1
 10
7.143750
 20
245.732847
 30
0.0
 10
8.168738
 20
245.260897
 30
0.0
 10
9.664133
 20
244.606939
 30
0.0
 10
11.542965
 20
243.898848
 30
0.0
  0
LWPOLYLINE
  5
14e
100
AcDbEntity
  8
Layer_1
 62
7
100
AcDbPolyline
 90
1
 70
1
 10
140.266889
 20
245.733879
 30
0.0
  0
SPLINE
  5
14f
100
AcDbEntity
  8
Layer_1
 62
7
100
AcDbSpline
 70
8
 71
3
 72
8
 73
4
 74
0
 40
0
 40
0
 40
0
 40
0
 40
1
 40
1
 40
1
 40
1
 10
34.016010
 20
241.779083
 30
0.0
 10
30.574982
 20
241.779083
 30
0.0
 10
27.785385
 20
238.989486
 30
0.0
 10
27.785382
 20
235.548455
 30
0.0
  0
LWPOLYLINE
  5
150
100
AcDbEntity
  8
Layer_1
 62
7
100
AcDbPolyline
 90
9
 70
0
 10
11.542965
 20
243.898848
 30
0.0
 10
16.755566
 20
243.898332
 30
0.0
 10
8.714197
 20
229.970502
 30
0.0
 10
22.640995
 20
243.897300
 30
0.0
 10
34.016010
 20
243.895231
 30
0.0
 10
35.767324
 20
243.895231
 30
0.0
 10
35.767324
 20
241.778564
 30
0.0
 10
34.016010
 20
241.778564
 30
0.0
 10
34.016010
 20
241.779083
 30
0.0
  0
SPLINE
  5
151
100
AcDbEntity
  8
Layer_1
 62
7
100
AcDbSpline
 70
8
 71
3
 72
8
 73
4
 74
0
 40
0
 40
0
 40
0
 40
0
 40
1
 40
1
 40
1
 40
1
 10
27.785382
 20
230.059902
 30
0.0
 10
17.720211
 20
229.426751
 30
0.0
 10
10.164445
 20
225.890013
 30
0.0
 10
7.143750
 20
224.247852
 30
0.0
  0
LWPOLYLINE
  5
152
100
AcDbEntity
  8
Layer_1
 62
7
100
AcDbPolyline
 90
2
 70
0
 10
27.785382
 20
235.548455
 30
0.0
 10
27.785382
 20
230.059902
 30
0.0
  0
LWPOLYLINE
  5
153
100
AcDbEntity
  8
Layer_1
 62
7
100
AcDbPolyline
 90
3
 70
0
 10
7.143750
 20
224.247852
 30
0.0
 10
7.143750
 20
245.732847
 30
0.0
 10
7.143750
 20
245.732847
 30
0.0
  0
LWPOLYLINE
  5
154
100
AcDbEntity
  8
Layer_1
 62
7
100
AcDbPolyline
 90
5
 70
1
 10
34.016010
 20
240.201399
 30
0.0
 10
35.767324
 20
240.201399
 30
0.0
 10
35.766293
 20
233.857085
 30
0.0
 10
34.014978
 20
233.857085
 30
0.0
 10
34.016010
 20
240.201399
 30
0.0
  0
LWPOLYLINE
  5
155
100
AcDbEntity
  8
Layer_1
 62
7
100
AcDbPolyline
 90
5
 70
1
 10
111.647447
 20
240.201399
 30
0.0
 10
113.394110
 20
240.201399
 30
0.0
 10
113.395145
 20
233.857085
 30
0.0
 10
111.647447
 20
233.857085
 30
0.0
 10
111.647447
 20
240.201399
 30
0.0
  0
LWPOLYLINE
  5
156
100
AcDbEntity
  8
Layer_1
 62
7
100
AcDbPolyline
 90
5
 70
1
 10
34.014978
 20
232.279920
 30
0.0
 10
35.766293
 20
232.279920
 30
0.0
 10
35.765258
 20
225.935606
 30
0.0
 10
34.013944
 20
225.935606
 30
0.0
 10
34.014978
 20
232.279920
 30
0.0
  0
LWPOLYLINE
  5
157
100
AcDbEntity
  8
Layer_1
 62
7
100
AcDbPolyline
 90
5
 70
1
 10
111.647447
 20
232.279920
 30
0.0
 10
113.395145
 20
232.279920
 30
0.0
 10
113.394110
 20
225.935606
 30
0.0
 10
111.647447
 20
225.935606
 30
0.0
 10
111.647447
 20
232.279920
 30
0.0
  0
SPLINE
  5
158
100
AcDbEntity
  8
Layer_1
 62
7
100
AcDbSpline
 70
8
 71
3
 72
8
 73
4
 74
0
 40
0
 40
0
 40
0
 40
0
 40
1
 40
1
 40
1
 40
1
 10
74.661074
 20
215.358472
 30
0.0
 10
79.662061
 20
215.519754
 30
0.0
 10
84.558271
 20
216.833558
 30
0.0
 10
88.968211
 20
219.197515
 30
0.0
  0
LWPOLYLINE
  5
159
100
AcDbEntity
  8
Layer_1
 62
7
100
AcDbPolyline
 90
3
 70
0
 10
72.754214
 20
225.976428
 30
0.0
 10
74.661074
 20
225.976428
 30
0.0
 10
74.661074
 20
215.358472
 30
0.0
  0
SPLINE
  5
15a
100
AcDbEntity
  8
Layer_1
 62
7
100
AcDbSpline
 70
8
 71
3
 72
8
 73
4
 74
0
 40
0
 40
0
 40
0
 40
0
 40
1
 40
1
 40
1
 40
1
 10
89.862214
 20
217.649290
 30
0.0
 10
85.050745
 20
215.066660
 30
0.0
 10
79.550685
 20
213.600440
 30
0.0
 10
73.707645
 20
213.600440
 30
0.0
  0
SPLINE
  5
15b
100
AcDbEntity
  8
Layer_1
 62
7
100
AcDbSpline
 70
8
 71
3
 72
8
 73
4
 74
0
 40
0
 40
0
 40
0
 40
0
 40
1
 40
1
 40
1
 40
1
 10
73.707645
 20
213.600440
 30
0.0
 10
67.788096
 20
213.600440
 30
0.0
 10
62.220128
 20
215.104546
 30
0.0
 10
57.363939
 20
217.750575
 30
0.0
  0
LWPOLYLINE
  5
15c
100
AcDbEntity
  8
Layer_1
 62
7
100
AcDbPolyline
 90
2
 70
0
 10
88.968211
 20
219.197515
 30
0.0
 10
89.862214
 20
217.649290
 30
0.0
  0
SPLINE
  5
15d
100
AcDbEntity
  8
Layer_1
 62
7
100
AcDbSpline
 70
8
 71
3
 72
8
 73
4
 74
0
 40
0
 40
0
 40
0
 40
0
 40
1
 40
1
 40
1
 40
1
 10
58.254841
 20
219.293633
 30
0.0
 10
62.713038
 20
216.862430
 30
0.0
 10
67.678902
 20
215.509729
 30
0.0
 10
72.754214
 20
215.344004
 30
0.0
  0
LWPOLYLINE
  5
15e
100
AcDbEntity
  8
Layer_1
 62
7
100
AcDbPolyline
 90
2
 70
0
 10
57.363939
 20
217.750575
 30
0.0
 10
58.254841
 20
219.293633
 30
0.0
  0
LWPOLYLINE
  5
15f
100
AcDbEntity
  8
Layer_1
 62
7
100
AcDbPolyline
 90
3
 70
0
 10
72.754214
 20
215.344004
 30
0.0
 10
72.754214
 20
225.976428
 30
0.0
 10
72.754214
 20
225.976428
 30
0.0
  0
LWPOLYLINE
  5
160
100
AcDbEntity
  8
Layer_1
 62
7
100
AcDbPolyline
 90
7
 70
1
 10
16.316833
 20
224.358440
 30
0.0
 10
34.013944
 20
224.358440
 30
0.0
 10
35.765258
 20
224.358440
 30
0.0
 10
35.764742
 20
222.451580
 30
0.0
 10
34.013428
 20
222.451580
 30
0.0
 10
16.316833
 20
222.451580
 30
0.0
 10
16.316833
 20
224.358440
 30
0.0
  0
SPLINE
  5
161
100
AcDbEntity
  8
Layer_1
 62
7
100
AcDbSpline
 70
8
 71
3
 72
8
 73
4
 74
0
 40
0
 40
0
 40
0
 40
0
 40
1
 40
1
 40
1
 40
1
 10
7.143750
 20
222.710478
 30
0.0
 10
8.168731
 20
222.238609
 30
0.0
 10
9.663427
 20
221.585403
 30
0.0
 10
11.540381
 20
220.878032
 30
0.0
  0
LWPOLYLINE
  5
162
100
AcDbEntity
  8
Layer_1
 62
7
100
AcDbPolyline
 90
7
 70
1
 10
111.647447
 20
224.358440
 30
0.0
 10
113.395145
 20
224.358440
 30
0.0
 10
131.093288
 20
224.358440
 30
0.0
 10
131.093288
 20
222.451580
 30
0.0
 10
113.395145
 20
222.451580
 30
0.0
 10
111.647447
 20
222.451580
 30
0.0
 10
111.647447
 20
224.358440
 30
0.0
  0
LWPOLYLINE
  5
163
100
AcDbEntity
  8
Layer_1
 62
7
100
AcDbPolyline
 90
10
 70
0
 10
11.540381
 20
220.878032
 30
0.0
 10
16.752982
 20
220.877516
 30
0.0
 10
8.711613
 20
206.949683
 30
0.0
 10
22.638411
 20
220.876481
 30
0.0
 10
34.013428
 20
220.874415
 30
0.0
 10
35.764742
 20
220.874415
 30
0.0
 10
35.770425
 20
204.404619
 30
0.0
 10
7.143750
 20
204.404619
 30
0.0
 10
7.143750
 20
222.710478
 30
0.0
 10
7.143750
 20
222.710478
 30
0.0
  0
SPLINE
  5
164
100
AcDbEntity
  8
Layer_1
 62
7
100
AcDbSpline
 70
8
 71
3
 72
8
 73
4
 74
0
 40
0
 40
0
 40
0
 40
0
 40
1
 40
1
 40
1
 40
1
 10
135.869742
 20
220.878032
 30
0.0
 10
137.747011
 20
221.585522
 30
0.0
 10
139.241909
 20
222.238599
 30
0.0
 10
140.266889
 20
222.710478
 30
0.0
  0
LWPOLYLINE
  5
165
100
AcDbEntity
  8
Layer_1
 62
7
100
AcDbPolyline
 90
9
 70
0
 10
140.266889
 20
222.710478
 30
0.0
 10
140.266889
 20
204.404619
 30
0.0
 10
111.647447
 20
204.404619
 30
0.0
 10
111.647447
 20
220.874415
 30
0.0
 10
113.395145
 20
220.874415
 30
0.0
 10
124.771709
 20
220.876481
 30
0.0
 10
138.698508
 20
206.949683
 30
0.0
 10
130.657141
 20
220.877516
 30
0.0
 10
135.869742
 20
220.878032
 30
0.0
  0
LWPOLYLINE
  5
166
100
AcDbEntity
  8
Layer_1
 62
7
100
AcDbPolyline
 90
1
 70
1
 10
140.266889
 20
222.710478
 30
0.0
  0
LWPOLYLINE
  5
167
100
AcDbEntity
  8
Layer_1
 62
7
100
AcDbPolyline
 90
2
 70
0
 10
35.768063
 20
247.379395
 30
0.0
 10
35.767481
 20
245.472535
 30
0.0
  0
ENDSEC
  0
SECTION
  2
OBJECTS
  0
DICTIONARY
  5
C
330
0
100
AcDbDictionary
  3
ACAD_GROUP
350
D
  3
ACAD_MLINESTYLE
350
17
  0
DICTIONARY
  5
D
330
C
100
AcDbDictionary
  0
DICTIONARY
  5
1A
330
C
100
AcDbDictionary
  0
DICTIONARY
  5
17
330
C
100
AcDbDictionary
  3
STANDARD
350
18
  0
DICTIONARY
  5
19
330
C
100
AcDbDictionary
  0
ENDSEC
  0
EOF
