<?xml version="1.0" encoding="UTF-8" standalone="no"?>
<!-- Created with Inkscape (http://www.inkscape.org/) -->

<svg
   xmlns:dc="http://purl.org/dc/elements/1.1/"
   xmlns:cc="http://creativecommons.org/ns#"
   xmlns:rdf="http://www.w3.org/1999/02/22-rdf-syntax-ns#"
   xmlns:svg="http://www.w3.org/2000/svg"
   xmlns="http://www.w3.org/2000/svg"
   xmlns:sodipodi="http://sodipodi.sourceforge.net/DTD/sodipodi-0.dtd"
   xmlns:inkscape="http://www.inkscape.org/namespaces/inkscape"
   width="108.06332mm"
   height="94.427826mm"
   viewBox="0 0 108.06332 94.427826"
   version="1.1"
   id="svg932"
   inkscape:version="0.92.3 (2405546, 2018-03-11)"
   sodipodi:docname="drawing.svg">
  <defs
     id="defs926" />
  <sodipodi:namedview
     id="base"
     pagecolor="#ffffff"
     bordercolor="#666666"
     borderopacity="1.0"
     inkscape:pageopacity="0.0"
     inkscape:pageshadow="2"
     inkscape:zoom="1.4"
     inkscape:cx="166.00385"
     inkscape:cy="176.21587"
     inkscape:document-units="mm"
     inkscape:current-layer="layer1"
     showgrid="false"
     inkscape:snap-center="false"
     inkscape:snap-midpoints="false"
     inkscape:object-paths="true"
     inkscape:snap-smooth-nodes="true"
     inkscape:lockguides="true"
     inkscape:window-width="1536"
     inkscape:window-height="801"
     inkscape:window-x="-8"
     inkscape:window-y="-8"
     inkscape:window-maximized="1"
     inkscape:snap-intersection-paths="true"
     inkscape:snap-nodes="true"
     fit-margin-top="0"
     fit-margin-left="0"
     fit-margin-right="0"
     fit-margin-bottom="0" />
  <metadata
     id="metadata929">
    <rdf:RDF>
      <cc:Work
         rdf:about="">
        <dc:format>image/svg+xml</dc:format>
        <dc:type
           rdf:resource="http://purl.org/dc/dcmitype/StillImage" />
        <dc:title></dc:title>
      </cc:Work>
    </rdf:RDF>
  </metadata>
  <g
     inkscape:label="Layer 1"
     inkscape:groupmode="layer"
     id="layer1"
     transform="translate(-3.4395833,-2.4008871)">
    <path
       style="opacity:1;vector-effect:none;fill:#ffaaaa;fill-opacity:1;stroke:none;stroke-width:0.096;stroke-linecap:round;stroke-linejoin:round;stroke-miterlimit:4;stroke-dasharray:none;stroke-dashoffset:0;stroke-opacity:1"
       d="M 0 0 L 0 356.89258 L 408.42773 356.89258 L 408.42773 0 L 0 0 z M 136.27734 16 L 163.77734 16 L 163.83008 91.357422 C 171.00995 85.958677 178.61132 81.1547 186.6875 76.947266 L 186.75781 16 L 214.85742 16 L 214.85938 87.380859 C 178.29679 101.95147 149.47451 131.79473 136.2793 169.09375 L 136.27734 16 z M 226.02148 16 L 304.60156 16 L 304.60156 37.632812 L 257.97266 37.632812 L 257.97266 47.482422 L 287.51953 47.482422 L 287.51953 65.412109 L 257.7207 65.412109 L 257.72266 77.927734 C 246.974 78.532723 236.55545 80.378501 226.31445 83.332031 L 226.02148 16 z M 316.42773 16 L 395.00781 16 L 394.98242 169.20312 C 381.81173 131.94838 352.99032 102.03884 316.41602 87.402344 L 316.42773 16 z M 345.21484 40.587891 L 345.29883 77.382812 C 353.46167 81.695416 361.12322 86.608309 368.36133 92.138672 L 368.42773 40.587891 L 345.21484 40.587891 z M 137.95508 296.89648 L 140.24023 296.89648 C 140.46835 296.89694 140.65384 297.08245 140.6543 297.31055 L 140.6543 305.90039 L 142.19922 305.90039 L 142.19922 299.77734 C 142.19875 299.54793 142.38386 299.3628 142.61328 299.36328 L 144.89844 299.36328 C 145.1272 299.36374 145.31298 299.54857 145.3125 299.77734 L 145.3125 305.90039 L 146.91602 305.90039 L 146.85742 299.78516 C 146.85507 299.55505 147.04139 299.36764 147.27148 299.36719 L 149.44922 299.35742 C 149.67734 299.35695 149.86155 299.53948 149.86328 299.76758 L 149.89258 305.90039 L 155.94727 305.90039 C 156.17603 305.89992 156.36087 306.08373 156.36133 306.3125 L 156.36133 309.59766 C 156.90727 309.75259 157.43593 309.97813 157.93555 310.25781 C 159.95672 308.97418 162.27671 308.2311 164.67773 308.22656 C 171.6659 308.22681 177.34743 313.90833 177.34766 320.89648 C 177.3478 327.88494 171.66808 333.56813 164.67969 333.56836 C 164.67883 333.56837 164.67673 333.56837 164.67578 333.56836 C 163.37307 333.56333 162.09898 333.2597 160.86133 332.86133 C 159.04706 335.82385 155.86126 337.69562 152.35938 337.69727 L 152.35742 337.69727 C 148.21961 337.69442 144.63177 335.09158 143.13086 331.30078 C 141.50261 332.25889 139.6871 332.86108 137.78711 332.86523 C 137.78711 332.86523 137.78516 332.86523 137.78516 332.86523 C 131.90224 332.86518 127.11724 328.08018 127.11719 322.19727 C 127.11721 319.7434 127.95199 317.48211 129.34961 315.67773 L 129.34961 306.3125 C 129.3495 306.1874 129.40474 306.06896 129.50195 305.99023 L 135.30273 301.30859 C 135.57246 301.09015 135.97592 301.27988 135.97852 301.62695 L 136.01367 305.89453 L 137.54102 305.89844 L 137.54102 297.31055 C 137.54147 297.08179 137.7263 296.89601 137.95508 296.89648 z M 145.33008 309.61719 C 142.98583 309.61852 140.80869 310.81666 139.55078 312.79492 C 139.3898 313.04709 139.09781 313.18397 138.80078 313.14844 C 138.46205 313.1089 138.12228 313.08936 137.78125 313.08789 C 132.74195 313.0898 128.67388 317.15752 128.67383 322.19727 C 128.67387 327.23817 132.74426 331.30855 137.78516 331.30859 C 139.66631 331.30411 141.50072 330.71721 143.03516 329.62891 C 143.47113 329.3197 144.0812 329.53227 144.23242 330.04492 C 145.29073 333.65737 148.5951 336.13413 152.35938 336.13672 C 155.48795 336.13462 158.35901 334.41257 159.83203 331.65234 C 160.01673 331.30674 160.42869 331.15204 160.79492 331.29102 C 162.03718 331.76064 163.35163 332.00252 164.67969 332.00781 C 170.82534 332.00667 175.78919 327.04236 175.78906 320.89648 C 175.78885 314.75031 170.82588 309.78342 164.67969 309.7832 C 162.42983 309.78738 160.23381 310.47498 158.38281 311.75391 C 158.12102 311.93434 157.77697 311.93916 157.51172 311.76367 C 156.67712 311.21335 155.70086 310.91935 154.70117 310.91797 C 153.54819 310.92046 152.42818 311.31209 151.52539 312.0293 C 151.20087 312.28676 150.73326 312.24596 150.45898 311.93555 C 149.16045 310.4646 147.2941 309.62097 145.33203 309.61719 L 145.33008 309.61719 z M 138.09961 315.48242 C 138.61102 315.48242 139.0829 315.61966 139.51562 315.89258 C 139.86231 316.1114 140.03516 316.37284 140.03516 316.67773 C 140.03516 316.90883 139.95381 317.10673 139.78906 317.27148 C 139.62434 317.43374 139.42444 317.51367 139.19336 317.51367 C 139.09747 317.51367 138.90009 317.43903 138.59766 317.28906 C 138.41571 317.19809 138.23947 317.15234 138.07227 317.15234 C 137.81164 317.15234 137.59065 317.25058 137.40625 317.44727 C 137.22185 317.6415 137.12891 317.87167 137.12891 318.13477 C 137.12891 318.40769 137.2233 318.64026 137.41016 318.83203 C 137.59948 319.02135 137.82864 319.11523 138.10156 319.11523 C 138.27614 319.11523 138.46587 319.05264 138.66992 318.92969 L 138.42969 318.92969 C 138.12236 318.92969 137.91531 318.83145 137.80469 318.63477 C 137.75064 318.54134 137.72265 318.43929 137.72266 318.32617 C 137.72266 318.12455 137.80164 317.96664 137.95898 317.85352 C 138.077 317.76746 138.26671 317.72461 138.52734 317.72461 C 138.94287 317.72461 139.18359 317.72713 139.25 317.73242 C 139.56963 317.75457 139.79111 317.81667 139.91406 317.91992 C 140.10092 318.07728 140.19336 318.34453 140.19336 318.7207 C 140.19336 319.00837 140.18788 319.25873 140.17578 319.47266 C 140.15856 319.78245 139.96451 320.06509 139.5957 320.31836 C 139.13838 320.63308 138.64146 320.78906 138.10547 320.78906 C 137.46129 320.78906 136.89409 320.58588 136.40234 320.17773 C 136.10239 319.92695 135.86693 319.62265 135.69727 319.26367 C 135.5276 318.90224 135.44336 318.5257 135.44336 318.13477 C 135.44336 317.62828 135.57625 317.16024 135.8418 316.73242 C 136.10734 316.30215 136.46556 315.9786 136.91797 315.75977 C 137.29907 315.57536 137.69392 315.48242 138.09961 315.48242 z M 168.76953 315.48242 C 169.28094 315.48242 169.75281 315.61966 170.18555 315.89258 C 170.53222 316.1114 170.70508 316.37284 170.70508 316.67773 C 170.70508 316.90883 170.62373 317.10673 170.45898 317.27148 C 170.29427 317.43374 170.09635 317.51367 169.86523 317.51367 C 169.76934 317.51367 169.56806 317.43903 169.26562 317.28906 C 169.08367 317.19809 168.90939 317.15234 168.74219 317.15234 C 168.48156 317.15234 168.26058 317.25058 168.07617 317.44727 C 167.89177 317.6415 167.79883 317.87167 167.79883 318.13477 C 167.79883 318.40769 167.89127 318.64026 168.07812 318.83203 C 168.26744 319.02135 168.4986 319.11523 168.77148 319.11523 C 168.94605 319.11523 169.13579 319.05264 169.33984 318.92969 L 169.09961 318.92969 C 168.79228 318.92969 168.58524 318.83145 168.47461 318.63477 C 168.42056 318.54134 168.39258 318.43929 168.39258 318.32617 C 168.39258 318.12455 168.47156 317.96664 168.62891 317.85352 C 168.74692 317.76746 168.93663 317.72461 169.19727 317.72461 C 169.61279 317.72461 169.85352 317.72713 169.91992 317.73242 C 170.23955 317.75457 170.46104 317.81667 170.58398 317.91992 C 170.77084 318.07728 170.86328 318.34453 170.86328 318.7207 C 170.86328 319.00837 170.8578 319.25873 170.8457 319.47266 C 170.82849 319.78245 170.63443 320.06509 170.26562 320.31836 C 169.8083 320.63308 169.31334 320.78906 168.77734 320.78906 C 168.13316 320.78906 167.564 320.58588 167.07227 320.17773 C 166.77232 319.92695 166.53685 319.62265 166.36719 319.26367 C 166.19752 318.90224 166.11328 318.5257 166.11328 318.13477 C 166.11328 317.62828 166.24617 317.16024 166.51172 316.73242 C 166.77726 316.30215 167.13548 315.9786 167.58789 315.75977 C 167.96899 315.57536 168.36384 315.48242 168.76953 315.48242 z M 151.02539 315.58203 C 151.38682 315.58203 151.64735 315.74911 151.80469 316.08594 L 153.39453 319.46484 C 153.45837 319.60008 153.49023 319.73441 153.49023 319.86719 C 153.49023 320.06388 153.42474 320.2382 153.29688 320.39062 C 153.12968 320.58977 152.91689 320.68945 152.65625 320.68945 C 152.44236 320.68945 152.2637 320.62301 152.12109 320.49023 C 152.01538 320.39188 151.9104 320.22866 151.80469 320 L 150.26172 320 C 150.18303 320.18686 150.10317 320.32504 150.01953 320.41602 C 149.85233 320.59796 149.64864 320.68945 149.41016 320.68945 C 149.11757 320.68945 148.89077 320.57197 148.72852 320.33594 C 148.63263 320.1958 148.58398 320.03786 148.58398 319.86328 C 148.58398 319.71823 148.61864 319.57134 148.6875 319.42383 L 150.26172 316.07227 C 150.41415 315.74526 150.66887 315.58203 151.02539 315.58203 z M 164.76758 315.58203 C 165.01835 315.58203 165.22301 315.67062 165.38281 315.84766 C 165.52787 316.00993 165.60156 316.26467 165.60156 316.61133 L 165.60156 319.73438 C 165.60156 320.00483 165.53077 320.22781 165.39062 320.40234 C 165.24065 320.59415 165.03313 320.68945 164.76758 320.68945 C 164.52417 320.68945 164.31955 320.59941 164.15234 320.41992 C 164.0122 320.26994 163.94141 320.04173 163.94141 319.73438 L 163.94141 316.61133 C 163.94141 316.26219 164.0122 316.0089 164.15234 315.85156 C 164.31216 315.67211 164.51677 315.58203 164.76758 315.58203 z M 160.86133 315.61719 L 161.09375 315.61914 C 161.49696 315.61914 161.78781 315.63984 161.96484 315.68164 C 162.36315 315.77753 162.66458 315.98795 162.87109 316.3125 C 163.04072 316.58049 163.125 316.86938 163.125 317.18164 C 163.125 317.42505 163.04797 317.68556 162.89062 317.96094 C 163.08733 318.15272 163.21973 318.32413 163.29102 318.47656 C 163.39182 318.69293 163.44336 318.92167 163.44336 319.16016 C 163.44336 319.60764 163.27288 319.98077 162.93359 320.2832 C 162.75165 320.44546 162.56627 320.55239 162.37695 320.60156 C 162.23927 320.63596 162.02355 320.65234 161.72852 320.65234 L 160.4043 320.65234 C 160.08713 320.65234 159.8502 320.571 159.69531 320.40625 C 159.58469 320.28823 159.51675 320.15968 159.49219 320.01953 C 159.48009 319.95314 159.47461 319.80048 159.47461 319.56445 L 159.47266 316.4668 C 159.46767 316.16192 159.58903 315.92647 159.83984 315.76172 C 159.95787 315.68303 160.12397 315.63779 160.33789 315.62305 C 160.3846 315.61777 160.55889 315.61459 160.86133 315.61719 z M 141.7207 315.61914 L 142.77539 315.61914 C 143.12207 315.61914 143.4447 315.71832 143.74219 315.91992 C 144.0397 316.11908 144.25684 316.37958 144.39453 316.69922 C 144.49779 316.94017 144.54883 317.18238 144.54883 317.42578 C 144.54883 317.88064 144.36925 318.30966 144.00781 318.71289 L 144.39844 319.33984 C 144.50668 319.51441 144.56055 319.6945 144.56055 319.87891 C 144.56055 320.11249 144.47866 320.30605 144.31641 320.46094 C 144.15659 320.6134 143.96014 320.68945 143.72656 320.68945 C 143.4266 320.68945 143.19981 320.56236 143.04492 320.30664 L 142.35156 319.16992 L 142.35156 319.85156 C 142.35156 320.08515 142.27403 320.28306 142.11914 320.44531 C 141.9667 320.60757 141.77459 320.68945 141.54102 320.68945 C 141.25581 320.68945 141.03814 320.58691 140.89062 320.38281 C 140.75785 320.20333 140.69141 319.96839 140.69141 319.67578 L 140.69141 316.57422 C 140.69141 315.9374 141.03473 315.61914 141.7207 315.61914 z M 146.32422 315.61914 L 147.31641 315.61914 C 147.58687 315.61914 147.74285 315.62166 147.78711 315.62695 C 147.96412 315.64419 148.10957 315.69523 148.22266 315.78125 C 148.42422 315.93369 148.52539 316.13305 148.52539 316.37891 C 148.52539 316.64443 148.4368 316.84814 148.25977 316.98828 C 148.10241 317.11369 147.8862 317.17578 147.61328 317.17578 L 146.79492 317.17578 L 146.79492 317.51758 L 147.44727 317.51758 C 147.63905 317.51758 147.79842 317.56912 147.92383 317.66992 C 148.0566 317.77811 148.12305 317.92592 148.12305 318.11523 C 148.12305 318.516 147.87795 318.7168 147.38867 318.7168 L 146.79492 318.7168 L 146.79492 319.0957 L 147.55078 319.0957 C 147.86304 319.0957 148.09562 319.1612 148.24805 319.28906 C 148.4275 319.44151 148.51758 319.63796 148.51758 319.87891 C 148.51758 320.1248 148.42754 320.32413 148.24805 320.47656 C 148.1079 320.59456 147.87823 320.65234 147.55859 320.65234 L 146.26367 320.65234 C 145.95879 320.65234 145.7498 320.62878 145.63672 320.58203 C 145.41543 320.49106 145.27054 320.34327 145.19922 320.13672 C 145.155 320.00395 145.13281 319.78681 145.13281 319.48438 L 145.13281 316.74805 C 145.13281 316.51937 145.13956 316.36385 145.1543 316.28516 C 145.1814 316.12533 145.24635 315.99149 145.34961 315.88086 C 145.46762 315.75545 145.61688 315.67502 145.79883 315.64062 C 145.88489 315.62588 146.06113 315.61914 146.32422 315.61914 z M 154.36328 315.61914 L 156.03711 315.61914 C 156.44771 315.61914 156.71349 315.64223 156.83398 315.69141 C 156.96676 315.74553 157.07315 315.83988 157.1543 315.97266 C 157.2379 316.10297 157.28125 316.23971 157.28125 316.38477 C 157.28125 316.61342 157.18976 316.81276 157.00781 316.98242 C 156.8775 317.10291 156.66417 317.16406 156.36914 317.16406 L 155.99023 317.16406 L 155.99023 319.67188 C 155.99023 319.94477 155.94304 320.15667 155.84961 320.30664 C 155.69226 320.55741 155.46549 320.68164 155.16797 320.68164 C 154.87046 320.68164 154.64222 320.56851 154.48242 320.33984 C 154.38162 320.19724 154.33008 319.97957 154.33008 319.68945 L 154.33008 317.16406 L 153.89062 317.16406 C 153.64719 317.16406 153.44691 317.09762 153.28711 316.96484 C 153.11745 316.82225 153.03125 316.63107 153.03125 316.39258 C 153.03125 316.24997 153.0717 316.11469 153.15039 315.98438 C 153.2315 315.8516 153.33358 315.75721 153.45898 315.70312 C 153.58683 315.64666 153.88875 315.61914 154.36328 315.61914 z M 161.27148 316.60352 L 160.92188 316.60547 L 160.92188 317.48828 L 161.27148 317.48828 C 161.50582 317.46996 161.6953 317.28121 161.69531 317.04688 C 161.69531 316.81253 161.50582 316.62166 161.27148 316.60352 z M 142.21289 317.01758 L 142.21289 317.90234 L 142.5625 317.90234 C 142.79683 317.88402 142.98828 317.69527 142.98828 317.46094 C 142.98829 317.2266 142.79683 317.03572 142.5625 317.01758 L 142.21289 317.01758 z M 151.05273 317.51367 L 150.50781 318.45703 L 151.59766 318.45703 L 151.05273 317.51367 z M 161.49805 318.78125 L 160.92188 318.7832 L 160.92188 319.66602 L 161.49805 319.66797 C 161.73237 319.64965 161.92383 319.45894 161.92383 319.22461 C 161.92384 318.99027 161.73238 318.79939 161.49805 318.78125 z M 148.37305 323.20312 C 148.98527 323.20053 149.54863 323.40515 150.0625 323.81836 C 150.46573 324.1429 150.66797 324.47951 150.66797 324.82617 C 150.66797 325.12122 150.54469 325.34946 150.29883 325.51172 C 150.15868 325.60515 150.00655 325.65234 149.8418 325.65234 C 149.70658 325.65234 149.57803 325.61864 149.45508 325.55469 C 149.4034 325.52766 149.27437 325.40492 149.07031 325.18359 C 148.88099 324.97708 148.64458 324.87305 148.35938 324.87305 C 148.084 324.87305 147.85288 324.96838 147.66602 325.16016 C 147.48161 325.34948 147.38867 325.58205 147.38867 325.85742 C 147.38867 326.13033 147.48161 326.36291 147.66602 326.55469 C 147.85287 326.744 148.08255 326.83984 148.35547 326.83984 C 148.58167 326.83984 148.7921 326.76376 148.98633 326.61133 C 149.10682 326.49575 149.22575 326.37925 149.34375 326.26367 C 149.4716 326.15305 149.63339 326.09766 149.83008 326.09766 C 150.05631 326.09766 150.25322 326.17809 150.41797 326.33789 C 150.58514 326.49525 150.66797 326.6859 150.66797 326.91211 C 150.66797 327.21945 150.48644 327.53098 150.125 327.8457 C 149.6185 328.28828 149.03495 328.50977 148.37109 328.50977 C 147.96049 328.50977 147.57288 328.42262 147.20898 328.24805 C 146.74921 328.02676 146.38229 327.70125 146.10938 327.27344 C 145.83891 326.84316 145.70312 326.37419 145.70312 325.86523 C 145.70312 325.10304 145.98723 324.45397 146.55273 323.91797 C 147.05185 323.4459 147.65756 323.20804 148.37305 323.20312 z M 157.60156 323.20312 C 158.11297 323.19794 158.58195 323.33228 159.00977 323.60547 C 159.43758 323.87593 159.76308 324.23271 159.98438 324.67773 C 160.16878 325.04653 160.25977 325.43849 160.25977 325.85156 C 160.25977 326.31626 160.14663 326.75057 159.91797 327.15625 C 159.68931 327.56193 159.37633 327.88597 158.98047 328.12695 C 158.56003 328.38264 158.09489 328.50977 157.58594 328.50977 C 157.09174 328.50977 156.63144 328.37688 156.20117 328.11133 C 155.77335 327.84333 155.4493 327.48605 155.23047 327.04102 C 155.04607 326.6673 154.95312 326.25804 154.95312 325.81055 C 154.95312 325.44175 155.03352 325.08447 155.19336 324.74023 C 155.41218 324.26571 155.73863 323.89061 156.17383 323.61523 C 156.59918 323.34479 157.07541 323.20804 157.60156 323.20312 z M 143.27344 323.30273 C 143.63487 323.30274 143.89344 323.46981 144.05078 323.80664 L 145.64062 327.18555 C 145.70442 327.32076 145.73633 327.45512 145.73633 327.58789 C 145.73633 327.78458 145.67278 327.9589 145.54492 328.11133 C 145.37773 328.31047 145.1649 328.41016 144.9043 328.41016 C 144.6904 328.41016 144.51174 328.34371 144.36914 328.21094 C 144.26343 328.11259 144.15649 327.94936 144.05078 327.7207 L 142.50977 327.7207 C 142.43111 327.90757 142.34927 328.04575 142.26562 328.13672 C 142.09843 328.31867 141.89669 328.41016 141.6582 328.41016 C 141.36561 328.41016 141.13886 328.29267 140.97656 328.05664 C 140.88071 327.9165 140.83203 327.75856 140.83203 327.58398 C 140.83203 327.43893 140.86668 327.29205 140.93555 327.14453 L 142.50977 323.79297 C 142.66221 323.46596 142.91691 323.30273 143.27344 323.30273 z M 165.57617 323.30273 C 165.88351 323.30274 166.12375 323.43272 166.30078 323.69336 L 166.88867 324.55273 L 167.50391 323.67188 C 167.67602 323.42602 167.91146 323.30274 168.20898 323.30273 C 168.43519 323.30273 168.62872 323.38267 168.79102 323.54492 C 168.95577 323.70474 169.03906 323.8988 169.03906 324.125 C 169.03906 324.29466 168.98462 324.45354 168.87891 324.60352 L 167.70703 326.27539 L 167.70703 327.38867 C 167.70703 327.66895 167.66274 327.87939 167.57422 328.01953 C 167.40948 328.28014 167.17404 328.41016 166.86914 328.41016 C 166.5741 328.41016 166.34444 328.28307 166.17969 328.02734 C 166.08871 327.88474 166.04297 327.66997 166.04297 327.38477 L 166.04297 326.27539 L 164.91406 324.61523 C 164.80344 324.45297 164.74805 324.2825 164.74805 324.10547 C 164.74805 323.92105 164.81065 323.75544 164.93359 323.60547 C 165.09833 323.40387 165.31308 323.30273 165.57617 323.30273 z M 138.89648 323.33984 L 139.89453 323.33984 C 140.3076 323.33984 140.58736 323.38124 140.73242 323.46484 C 140.97337 323.60253 141.09375 323.81441 141.09375 324.09961 C 141.09375 324.34795 141.00371 324.55114 140.82422 324.71094 C 140.68407 324.83385 140.47655 324.89453 140.20117 324.89453 L 139.36328 324.89453 L 139.36328 325.24219 L 139.87695 325.24219 C 140.12037 325.24219 140.29903 325.27402 140.41211 325.33789 C 140.59651 325.44114 140.6875 325.60728 140.6875 325.83594 C 140.6875 326.23917 140.44291 326.44141 139.95117 326.44141 L 139.36328 326.44141 L 139.36328 327.24023 C 139.36328 327.60658 139.31949 327.86855 139.22852 328.02344 C 139.07608 328.2816 138.84207 328.41016 138.52734 328.41016 C 138.30607 328.41016 138.12212 328.33791 137.97461 328.19531 C 137.82709 328.05025 137.73941 327.86778 137.71484 327.64648 C 137.70728 327.57767 137.70508 327.44093 137.70508 327.23438 L 137.70508 324.33008 C 137.70508 324.07683 137.73782 323.88908 137.80664 323.76367 C 137.91235 323.5719 138.06743 323.44717 138.27148 323.39062 C 138.39196 323.35623 138.60145 323.33984 138.89648 323.33984 z M 152.05469 323.33984 L 153.72852 323.33984 C 154.13912 323.33984 154.40494 323.36294 154.52539 323.41211 C 154.65817 323.46623 154.76456 323.56058 154.8457 323.69336 C 154.92931 323.82367 154.97266 323.96041 154.97266 324.10547 C 154.97266 324.33412 154.88117 324.53346 154.69922 324.70312 C 154.5689 324.82362 154.35558 324.88477 154.06055 324.88477 L 153.68164 324.88477 L 153.68164 327.39258 C 153.68164 327.66547 153.63445 327.87737 153.54102 328.02734 C 153.38366 328.27812 153.1569 328.40234 152.85938 328.40234 C 152.56187 328.40234 152.33167 328.28921 152.17188 328.06055 C 152.07108 327.91794 152.02148 327.70027 152.02148 327.41016 L 152.02148 324.88477 L 151.58203 324.88477 C 151.33864 324.88477 151.13831 324.81832 150.97852 324.68555 C 150.80885 324.54294 150.72266 324.35177 150.72266 324.11328 C 150.72266 323.97067 150.76311 323.8354 150.8418 323.70508 C 150.92291 323.5723 151.02499 323.47791 151.15039 323.42383 C 151.27824 323.36736 151.58016 323.33984 152.05469 323.33984 z M 161.79102 323.33984 L 162.8457 323.33984 C 163.19238 323.33984 163.51501 323.43899 163.8125 323.64062 C 164.11001 323.83978 164.32716 324.10029 164.46484 324.41992 C 164.5681 324.66087 164.61914 324.90308 164.61914 325.14648 C 164.61914 325.60135 164.43956 326.03036 164.07812 326.43359 L 164.46875 327.06055 C 164.577 327.23512 164.63086 327.41521 164.63086 327.59961 C 164.63086 327.83319 164.55096 328.02672 164.38867 328.18164 C 164.22886 328.33411 164.03045 328.41016 163.79688 328.41016 C 163.49692 328.41016 163.27012 328.28307 163.11523 328.02734 L 162.42188 326.89062 L 162.42188 327.57227 C 162.42188 327.80586 162.34434 328.00376 162.18945 328.16602 C 162.03701 328.32827 161.8449 328.41016 161.61133 328.41016 C 161.32612 328.41016 161.10845 328.30757 160.96094 328.10352 C 160.82816 327.92403 160.76172 327.68906 160.76172 327.39648 L 160.76172 324.29492 C 160.76172 323.65811 161.10504 323.33984 161.79102 323.33984 z M 162.24023 324.64062 L 162.24023 325.52539 L 162.58984 325.52539 C 162.82417 325.50707 163.01562 325.31636 163.01562 325.08203 C 163.01563 324.84769 162.82417 324.65877 162.58984 324.64062 L 162.24023 324.64062 z M 157.62305 324.78906 A 1.1169388 1.1169388 0 0 0 156.50586 325.9043 A 1.1169388 1.1169388 0 0 0 157.62305 327.02148 A 1.1169388 1.1169388 0 0 0 158.74023 325.9043 A 1.1169388 1.1169388 0 0 0 157.62305 324.78906 z M 143.28906 325.10938 L 142.74414 326.05273 L 143.83398 326.05273 L 143.28906 325.10938 z "
       transform="matrix(0.26458333,0,0,0.26458333,3.4395833,2.4008871)"
       id="rect3066" />
    <path
       style="opacity:1;vector-effect:none;fill:#f4eed7;fill-opacity:1;stroke:none;stroke-width:0.096;stroke-linecap:round;stroke-linejoin:round;stroke-miterlimit:4;stroke-dasharray:none;stroke-dashoffset:0;stroke-opacity:1"
       d="M 13,9.0742189 V 365.9668 h 126.19336 14.0918 268.14313 V 9.0742189 H 153.28516 139.19336 Z M 27,25.074219 h 108.19336 v 9.61914 h -6.60938 v -0.002 c -13.00546,0 -23.54882,10.543399 -23.54882,23.548828 V 78.984375 C 66.969514,81.378823 38.402383,94.759404 27,100.96094 Z m 101.58398,15.580078 h 6.60938 v 23.978515 h -6.61328 z m 149.9961,53.96875 c 22.37218,-8e-6 43.41622,5.683873 61.76953,15.683593 l -3.36719,5.83203 c -16.84929,-9.18851 -35.6172,-14.30109 -54.79883,-14.92773 v 40.18554 h -7.20703 v -40.1289 c -19.44857,0.62873 -38.46952,5.86897 -55.49609,15.28906 l -3.37891,-5.85351 c 18.52056,-10.24218 39.81633,-16.080091 62.47852,-16.080083 z m -150,-24.029297 h 6.61328 v 23.978516 h -6.61719 z M 346.07812,113.625 c 36.18668,22.19348 60.60169,61.69529 61.74024,106.98242 h -6.57422 c -0.50317,-19.19818 -5.50086,-38.01093 -14.5918,-54.92773 l -3.70898,-6.17774 c -10.10886,-16.29777 -23.89347,-30.00212 -40.25,-40.01562 z m -135.68359,0.42773 3.37891,5.85157 c -16.06769,9.96945 -29.6168,23.51387 -39.5918,39.57812 l -3.70508,6.17969 c -9.08679,16.92375 -14.07784,35.74274 -14.57226,54.94531 h -6.56446 c 1.13182,-44.99939 25.24605,-84.28423 61.05469,-106.55469 z M 61.689453,100.5332 h 66.886717 6.61719 v 7.20703 H 128.57422 61.689453 Z M 27,106.75195 c 3.873989,1.78403 9.528457,4.25665 16.636719,6.93555 l 19.701172,0.002 -30.392579,52.64063 52.636719,-52.63672 42.992189,0.008 h 6.61914 v 8 h -6.61914 c -13.00546,0 -23.54883,10.54336 -23.54883,23.54883 v 20.74414 C 66.971766,168.3879 38.409598,181.76079 27,187.96484 Z m 101.57422,20.91016 h 6.61914 l -0.004,23.98047 h -6.61914 z m -0.004,29.94141 h 6.61914 l -0.004,23.97851 h -6.61914 z m -66.890622,29.93945 h 66.886722 6.61914 l -0.002,7.20703 h -6.61914 -66.884762 z m 87.660152,39.68359 h 6.57618 c 0.50378,19.19686 5.50145,38.0082 14.59179,54.92383 l 34.80664,-20.0957 3.60352,6.24023 -34.70117,20.03516 c 10.10806,16.29826 23.892,30.00328 40.24804,40.01758 l -3.38281,5.85937 c -36.18618,-22.19384 -60.60249,-61.69451 -61.7421,-106.98047 z m 251.91211,0 h 6.56641 c -1.14629,45.57404 -25.86393,85.2913 -62.42969,107.4043 l -3.33789,-5.78125 c 16.67501,-10.05097 30.72192,-23.92185 40.98242,-40.46875 l -34.79101,-20.08594 3.60351,-6.24023 34.77149,20.07617 c 9.10235,-16.90609 14.1147,-35.7106 14.63476,-54.9043 z M 27,193.76562 c 3.87397,1.78375 9.525858,4.2554 16.626953,6.93165 l 19.701172,0.002 -30.392578,52.64062 52.636719,-52.63672 42.992184,0.008 h 6.61914 v 8 h -6.61914 v -0.002 c -13.00546,0 -23.54882,10.54336 -23.54883,23.54883 v 20.74414 C 66.974028,255.39496 38.416802,268.76216 27,274.96875 Z m 101.56445,20.90626 h 6.61914 l -0.004,23.97851 h -6.61914 z m -0.004,29.93945 h 6.61914 l -0.004,23.97851 h -6.61914 z m 153.62304,101.95508 c 18.90137,-0.60957 37.40673,-5.57513 54.07422,-14.50977 0,0 -1.78148,-3.08514 3.37891,5.85156 -18.51742,10.69265 -38.97271,15.30274 -61.05664,15.30274 -22.3731,0 -43.41739,-5.68481 -61.77149,-15.68555 l 3.36719,-5.83203 c 16.84988,9.1888 35.6185,14.30137 54.80078,14.92773 z M 61.669822,274.55078 h 66.886718 6.61914 l -0.002,7.20703 H 128.55469 61.669922 Z M 27,280.7793 c 3.873944,1.78344 9.52319,4.25225 16.617188,6.92578 l 19.701171,0.002 -30.392578,52.64063 52.636719,-52.63672 42.99219,0.008 h 6.61914 l 0.0215,62.24805 H 27 Z"
       transform="scale(0.26458333)"
       id="path866"
       inkscape:connector-curvature="0"
       sodipodi:nodetypes="ccccccccccccccsccccccccsccccccccsccccccccccccccccccccccccccccccccccssccccccccccccccccccccccccccccccccccccccccccccccccsccccccccccccccccccccccccccccccccccccccc" />
    <path
       style="opacity:1;vector-effect:none;fill:none;fill-opacity:1;stroke:#000000;stroke-width:0.0254;stroke-linecap:round;stroke-linejoin:round;stroke-miterlimit:4;stroke-dasharray:none;stroke-dashoffset:0;stroke-opacity:1"
       d="m 35.768063,49.620605 -5.82e-4,1.90686"
       id="path890"
       inkscape:connector-curvature="0" />
    <path
       style="fill:#ececec;stroke:none;stroke-width:0.26458332px;stroke-linecap:butt;stroke-linejoin:miter;stroke-opacity:1"
       d="M 7.1437422,26.712581 C 10.160622,25.071758 17.719012,21.531479 27.790552,20.897948 v -5.488565 c 0,-3.44102 2.78959,-6.2306283 6.230622,-6.2306283 v 5.29e-4 h 1.748729 l -2.1e-5,1.5771653 h -1.74874 l -0.0011,6.344316 h 1.749761 l -5e-5,1.577164 h -1.749769 l -0.0011,6.344315 h 1.75079 l -3.2e-5,1.577164 h -1.75059 -17.69711 v 1.90686 h 17.696591 1.751309 V 30.08348 H 34.018533 L 22.643512,30.08138 8.7167124,44.008179 16.758082,30.080345 l -5.2126,-5.29e-4 C 9.6647524,29.371024 8.1686824,28.71681 7.1436822,28.244786 Z"
       id="path995"
       inkscape:connector-curvature="0"
       sodipodi:nodetypes="ccsccccccccccccccccccccccccc" />
    <path
       style="fill:#ececec;stroke:none;stroke-width:0.26458332px;stroke-linecap:butt;stroke-linejoin:miter;stroke-opacity:1"
       d="M 7.1411573,49.733979 C 10.158037,48.093156 17.716427,44.552877 27.787967,43.919346 v -5.488567 c 0,-3.44102 2.78959,-6.230627 6.230622,-6.230627 v 5.29e-4 h 1.748729 l -2.1e-5,1.577165 h -1.74874 l -0.0011,6.344316 h 1.749761 l -5e-5,1.577165 h -1.749769 l -0.0011,6.344315 h 1.75079 l -3.2e-5,1.577164 h -1.75059 -17.69711 v 1.90686 h 17.696591 1.751309 v 1.577212 h -1.751309 l -11.375021,-0.0021 -13.9267996,13.926799 8.0413696,-13.927834 -5.2126,-5.29e-4 C 9.6621674,52.392422 8.1660973,51.738208 7.1410973,51.266184 Z"
       id="path995-8"
       inkscape:connector-curvature="0"
       sodipodi:nodetypes="ccsccccccccccccccccccccccccc" />
    <path
       style="fill:#ececec;stroke:none;stroke-width:0.26458332px;stroke-linecap:butt;stroke-linejoin:miter;stroke-opacity:1"
       d="M 7.1385724,72.754782 C 10.155452,71.113959 17.713842,67.57368 27.785382,66.940149 v -5.488566 c 0,-3.44102 2.78959,-6.230628 6.230622,-6.230628 v 5.29e-4 h 1.748729 l -2.1e-5,1.577165 h -1.74874 l -0.0011,6.344316 h 1.749761 l -5e-5,1.577165 h -1.749769 l -0.0011,6.344315 h 1.75079 l -3.2e-5,1.577164 h -1.75059 -17.69711 v 1.90686 h 17.696591 1.751309 v 1.577212 H 34.013363 L 22.638342,76.123581 8.7115424,90.05038 16.752912,76.122546 l -5.2126,-5.29e-4 C 9.6595824,75.413225 8.1635124,74.759011 7.1385124,74.286987 Z"
       id="path995-1"
       inkscape:connector-curvature="0"
       sodipodi:nodetypes="ccsccccccccccccccccccccccccc" />
    <path
       inkscape:connector-curvature="0"
       style="opacity:1;vector-effect:none;fill:#ececec;fill-opacity:1;stroke:none;stroke-width:0.23082246;stroke-linecap:round;stroke-linejoin:round;stroke-miterlimit:4;stroke-dasharray:none;stroke-dashoffset:0;stroke-opacity:1"
       d="m 74.661074,26.77976 v 10.631392 h -1.906863 v -10.61744 c -5.14577,0.166351 -10.178391,1.552834 -14.68334,4.045233 l -0.02429,-0.04186 a 32.485351,32.485351 0 0 0 -16.824295,28.420488 32.485351,32.485351 0 0 0 0.144695,2.888195 c 0.0204,0.232672 0.04386,0.464624 0.06925,0.6966 a 32.485351,32.485351 0 0 0 0.393256,2.601907 c 0.03008,0.156385 0.05962,0.312817 0.09199,0.468707 a 32.485351,32.485351 0 0 0 0.726572,2.844787 c 0.02143,0.0705 0.04424,0.14048 0.06615,0.210838 a 32.485351,32.485351 0 0 0 1.072285,2.939357 32.485351,32.485351 0 0 0 1.341519,2.776059 l 9.194789,-5.308722 0.953429,1.651063 -9.165849,5.291667 a 32.485351,32.485351 0 0 0 0.481108,0.784963 c 0.244202,0.369925 0.498432,0.732452 0.75706,1.091407 a 32.485351,32.485351 0 0 0 1.03818,1.366326 c 0.337397,0.419648 0.684871,0.831046 1.042313,1.232998 a 32.485351,32.485351 0 0 0 0.95963,1.030428 c 0.498735,0.514149 1.013902,1.011711 1.545643,1.491901 a 32.485351,32.485351 0 0 0 0.650608,0.57154 c 0.798367,0.683238 1.628934,1.329862 2.492354,1.934249 0.02692,0.01884 0.05312,0.0386 0.0801,0.05736 0.517755,0.360087 1.046996,0.70581 1.586468,1.036111 l -0.0062,0.01138 a 32.485351,32.485351 0 0 0 16.970023,4.816245 32.485351,32.485351 0 0 0 18.01337,-5.472536 c 0.203412,-0.135303 0.405543,-0.27215 0.605648,-0.411861 a 32.485351,32.485351 0 0 0 2.137338,-1.624706 c 0.122473,-0.101528 0.242351,-0.206258 0.363286,-0.309544 a 32.485351,32.485351 0 0 0 2.048971,-1.90841 c 0.07709,-0.07827 0.154696,-0.15607 0.230992,-0.235127 a 32.485351,32.485351 0 0 0 2.034502,-2.316136 c 0.01008,-0.01265 0.0199,-0.02556 0.02997,-0.03824 a 32.485351,32.485351 0 0 0 2.148194,-3.099552 l -9.18084,-5.300451 0.953429,-1.651063 9.175671,5.297868 a 32.485351,32.485351 0 0 0 0.33021,-0.575159 c 0.0317,-0.06194 0.0648,-0.123391 0.0961,-0.185518 a 32.485351,32.485351 0 0 0 1.22577,-2.738334 c 0.0465,-0.118353 0.0902,-0.237712 0.13539,-0.356568 a 32.485351,32.485351 0 0 0 0.86713,-2.610692 c 0.0462,-0.161607 0.0933,-0.322945 0.13694,-0.485243 a 32.485351,32.485351 0 0 0 0.5917,-2.63653 c 0.0399,-0.219679 0.0763,-0.43987 0.11162,-0.660424 a 32.485351,32.485351 0 0 0 0.30334,-2.493389 c 0.0339,-0.413509 0.058,-0.82804 0.076,-1.243335 a 32.485351,32.485351 0 0 0 0.0507,-1.430408 A 32.485351,32.485351 0 0 0 89.195679,30.66687 l -0.03566,0.06149 C 85.022705,28.47214 80.447596,27.146387 75.754123,26.834541 a 32.485351,32.485351 0 0 0 -1.092957,-0.05478 z"
       id="path1038" />
  </g>
</svg>
