<?xml version="1.0" encoding="UTF-8" standalone="no"?>
<!-- Created with Inkscape (http://www.inkscape.org/) -->

<svg
   xmlns:dc="http://purl.org/dc/elements/1.1/"
   xmlns:cc="http://creativecommons.org/ns#"
   xmlns:rdf="http://www.w3.org/1999/02/22-rdf-syntax-ns#"
   xmlns:svg="http://www.w3.org/2000/svg"
   xmlns="http://www.w3.org/2000/svg"
   xmlns:sodipodi="http://sodipodi.sourceforge.net/DTD/sodipodi-0.dtd"
   xmlns:inkscape="http://www.inkscape.org/namespaces/inkscape"
   width="108.06332mm"
   height="94.427826mm"
   viewBox="0 0 108.06332 94.427826"
   version="1.1"
   id="svg932"
   inkscape:version="0.92.3 (2405546, 2018-03-11)"
   sodipodi:docname="mask.svg">
  <sodipodi:namedview
     id="base"
     pagecolor="#ffffff"
     bordercolor="#666666"
     borderopacity="1.0"
     inkscape:pageopacity="0.0"
     inkscape:pageshadow="2"
     inkscape:zoom="1.4"
     inkscape:cx="215.13932"
     inkscape:cy="164.57777"
     inkscape:document-units="mm"
     inkscape:current-layer="layer1"
     showgrid="false"
     inkscape:snap-center="false"
     inkscape:snap-midpoints="false"
     inkscape:object-paths="true"
     inkscape:snap-smooth-nodes="true"
     inkscape:lockguides="true"
     inkscape:window-width="1536"
     inkscape:window-height="801"
     inkscape:window-x="-8"
     inkscape:window-y="-8"
     inkscape:window-maximized="1"
     inkscape:snap-intersection-paths="true"
     inkscape:snap-nodes="true"
     fit-margin-top="0"
     fit-margin-left="0"
     fit-margin-right="0"
     fit-margin-bottom="0" />
  <defs
     id="defs926" />
  <metadata
     id="metadata929">
    <rdf:RDF>
      <cc:Work
         rdf:about="">
        <dc:format>image/svg+xml</dc:format>
        <dc:type
           rdf:resource="http://purl.org/dc/dcmitype/StillImage" />
        <dc:title />
      </cc:Work>
    </rdf:RDF>
  </metadata>
  <g
     transform="translate(-3.4395833,-2.4008871)"
     id="layer1"
     inkscape:groupmode="layer"
     inkscape:label="Layer 1">
    <path
       id="rect3066"
       d="M3.4395833 2.4008872L3.4395833 96.828718L111.50275 96.828718L111.50275 2.4008872L3.4395833 2.4008872M39.496296 6.6342205L46.772338 6.6342205L46.786278 26.572538L52.833979 22.759851L52.852579 6.6342205L60.287267 6.6342205L60.287797 25.520406L56.7601724492 27.1514610117L53.4489983437 29.1371123438L50.3787281289 31.4531230664L47.57381525 34.07525625L45.0587131523 36.9792749648L42.8578752813 40.1409422813L40.995755082 43.5360212695L39.496806 47.140275L39.496296 6.6342205M63.2411 6.6342205L84.032079 6.6342205L84.032079 12.357902L71.69485 12.357902L71.69485 14.963945L79.512459 14.963945L79.512459 19.707841L71.628185 19.707841L71.628714 23.019267L67.42330025 23.501191125L63.318625 24.449154L63.2411 6.6342205M87.161087 6.6342205L107.95207 6.6342205L107.94507 47.169213L106.448357133 43.5680385879L104.587898438 40.1736406406L102.388185023 37.0106000918L99.873708 34.103497875L97.0689584766 31.4769149238L93.9984275625 29.1554321719L90.6866063672 27.1636305527L87.157986 25.526091L87.161087 6.6342205M94.777676 13.139767L94.799906 22.875089L97.9426335 24.70634225L100.90186 26.779244L100.91946 13.139767L94.777676 13.139767M39.940198 80.954747L40.544811 80.954747L40.654367 81.064303L40.654367 83.337032L41.063127 83.337032L41.063127 81.716975L41.17268 81.607422L41.777296 81.607422L41.886849 81.716975L41.886849 83.337032L42.311114 83.337032L42.295604 81.719044L42.405157 81.608456L42.981351 81.605856L43.090904 81.714378L43.098704 83.337017L44.700674 83.337017L44.810227 83.446055L44.810227 84.315253L45.226739 84.489918L47.010608 83.952483L48.3144158438 84.2162915937L49.3800685 84.93527725L50.0990539063 86.0009282812L50.36286 87.304733L50.0991845 88.6086539531L49.3803865 89.674480375L48.314892 90.3936251094L47.011127 90.657501L47.010027 90.657501L46.000787 90.470432L45.043493875 91.403960875L43.751316 91.749942L43.750787 91.749942L42.2685585 91.27956L41.309593 90.057537L39.895725 90.471464L39.895196 90.471464L38.7975140156 90.2493185156L37.900221625 89.643872125L37.2947746719 88.7465806719L37.072629 87.6489L37.22929125 86.7219775L37.66329 85.923938L37.66329 83.446055L37.7036 83.360785L39.23839 82.122101L39.417193 82.206331L39.426493 83.335461L39.830604 83.336561L39.830604 81.064345L39.940158 80.954792L39.940198 80.954747M41.8915 84.320435L41.019161875 84.54464125L40.362394 85.16121L40.163956 85.25475L39.894206 85.23874L38.9552043125 85.4280412031L38.18938175 85.943995625L37.6735533125 86.7098697344L37.484534 87.64893L37.6736545469 88.5882716719L38.189739375 89.354429625L38.9558980156 89.8705137656L39.89524 90.059634L41.284303 89.615218L41.601078 89.725288L42.407723875 90.889347875L43.751336 91.337076L44.90416675 91.01749825L45.728475 90.150584L45.983239 90.054984L47.011085 90.244635L48.1563477813 90.0138379375L49.09053825 89.3843855L49.7198405938 88.4500895625L49.950439 87.304762L49.7198227344 86.1592922187L49.090558125 85.224774L48.1563954531 84.5951525312L47.011085 84.364373L45.345035 84.88579L45.114559 84.88839L44.370935 84.664632L43.530676 84.958671L43.248522 84.933881L42.636104375 84.481610625L41.892016 84.320482L41.8915 84.320435M39.978438 85.872277L40.353091 85.980799L40.490553 86.188536L40.425443 86.345633L40.267828 86.409713L40.110218 86.350283L39.971209 86.314113L39.794991 86.392143L39.721611 86.574044L39.796021 86.758527L39.978954 86.833457L40.129333 86.784367L40.065773 86.784367L39.900411 86.706337L39.878711 86.624687L39.941241 86.499632L40.09162 86.465522L40.282821 86.467622L40.458523 86.517232L40.532423 86.729105L40.527723 86.928061L40.374244 87.151819L39.979954 87.276356L39.529334 87.114608L39.342784 86.872763L39.275604 86.574075L39.381024 86.203039L39.665761 85.945692L39.978403 85.872312L39.978438 85.872277M48.093188 85.872277L48.467843 85.980799L48.605302 86.188536L48.540192 86.345633L48.383095 86.409713L48.224449 86.350283L48.085958 86.314113L47.90974 86.392143L47.83636 86.574044L47.91026 86.758527L48.093712 86.833457L48.244091 86.784367L48.180531 86.784367L48.015167 86.706337L47.993467 86.624687L48.055997 86.499632L48.206376 86.465522L48.397577 86.467622L48.573276 86.517232L48.647176 86.729105L48.642476 86.928061L48.488994 87.151819L48.095222 87.276356L47.644089 87.114608L47.457537 86.872763L47.390357 86.574075L47.495777 86.203039L47.780514 85.945692L48.093156 85.872312L48.093188 85.872277M43.398384 85.898627L43.604574 86.031953L44.025219 86.925954L44.050539 87.032409L43.999379 87.1709L43.829879 87.24996L43.688285 87.19725L43.604575 87.067543L43.19633 87.067543L43.13225 87.177615L42.97102 87.249955L42.79067 87.156425L42.75243 87.031367L42.77982 86.915096L43.196333 86.028329L43.398387 85.898623L43.398384 85.898627M47.034339 85.898627L47.197118 85.968907L47.254998 86.170962L47.254998 86.997268L47.199188 87.174L47.034342 87.24996L46.87156 87.17865L46.81575 86.997268L46.81575 86.170964L46.87156 85.969938L47.034342 85.898628L47.034339 85.898627M46.00081 85.907927L46.06231 85.908456L46.292786 85.924996L46.532564 86.091911L46.599744 86.321871L46.537734 86.528064L46.643674 86.664486L46.683984 86.845355L46.549107 87.142492L46.40183 87.226722L46.230266 87.240162L45.879899 87.240162L45.692312 87.175052L45.638572 87.072732L45.633872 86.952325L45.633343 86.132736L45.730493 85.946187L45.862268 85.909497L46.000762 85.907897L46.00081 85.907927M40.936519 85.908456L41.215572 85.908456L41.471371 85.988036L41.643969 86.194226L41.684799 86.386459L41.541654 86.727007L41.645008 86.89289L41.687898 87.035519L41.623308 87.189515L41.467244 87.249975L41.286893 87.14869L41.103434 86.84796L41.103434 87.02831L41.041934 87.185407L40.888973 87.250007L40.716888 87.168877L40.664178 86.981809L40.664178 86.161188L40.936511 85.908489L40.936519 85.908456M42.154533 85.908456L42.41705 85.908456L42.541589 85.910556L42.656829 85.951376L42.736929 86.109506L42.666649 86.270736L42.495599 86.320346L42.279074 86.320346L42.279074 86.410776L42.451675 86.410776L42.577765 86.451086L42.630475 86.568905L42.436171 86.728073L42.279074 86.728073L42.279074 86.828321L42.479062 86.828321L42.663548 86.879481L42.734858 87.035548L42.663548 87.193676L42.481129 87.240186L42.138514 87.240186L41.972631 87.221586L41.856879 87.103764L41.839309 86.931166L41.839309 86.207178L41.845009 86.084705L41.896689 85.977734L42.015545 85.914174L42.154554 85.908474L42.154533 85.908456M44.281534 85.908456L44.724402 85.908456L44.935241 85.927586L45.019991 86.001996L45.053581 86.111033L44.981231 86.269161L44.812253 86.317221L44.711997 86.317221L44.711997 86.980749L44.674787 87.148696L44.494437 87.247916L44.313052 87.157486L44.272742 86.985406L44.272742 86.31723L44.156471 86.31723L43.996789 86.26452L43.929089 86.113109L43.960609 86.005106L44.042259 85.930686L44.281521 85.908456L44.281534 85.908456M46.109329 86.168906L46.016829 86.169436L46.016829 86.403012L46.109329 86.403012L46.221467 86.286225L46.109329 86.16892L46.109329 86.168906M41.066744 86.27846L41.066744 86.512553L41.159244 86.512553L41.271898 86.395766L41.159244 86.27846L41.066744 86.27846M43.405618 86.409717L43.261441 86.659314L43.549798 86.659314L43.405618 86.409717M46.169276 86.745098L46.016831 86.745627L46.016831 86.979206L46.169276 86.979735L46.28193 86.86243L46.169276 86.745124L46.169276 86.745098M42.696619 87.915051L43.14362 88.077833L43.303817 88.344483L43.206147 88.525868L43.085222 88.563078L42.982905 88.537258L42.881098 88.439068L42.693001 88.356908L42.509546 88.432868L42.436166 88.617351L42.509546 88.801837L42.691963 88.877287L42.858878 88.816827L42.953448 88.724847L43.082123 88.680927L43.237669 88.744487L43.303819 88.896416L43.160159 89.143428L42.696103 89.31913L42.388628 89.24988L42.097692 88.992014L41.990203 88.619425L42.214995 88.104213L42.696622 87.915075L42.696619 87.915051M45.138329 87.915051L45.510918 88.021506L45.768784 88.305208L45.841644 88.615784L45.751214 88.960983L45.503167 89.217814L45.134197 89.319102L44.76781 89.213681L44.510976 88.930495L44.437596 88.604933L44.501156 88.321744L44.760572 88.024088L45.138325 87.915051L45.138329 87.915051M41.347348 87.941401L41.553019 88.074727L41.973664 88.968731L41.998984 89.075183L41.948344 89.213677L41.778847 89.292737L41.637253 89.240027L41.553023 89.110318L41.145301 89.110318L41.080701 89.22039L40.919988 89.29274L40.739637 89.1992L40.701397 89.07414L40.728787 88.957871L41.145299 88.071104L41.347353 87.941395L41.347348 87.941401M47.248278 87.941401L47.439998 88.044755L47.595544 88.27213L47.758326 88.039072L47.944876 87.941402L48.098874 88.005482L48.164504 88.158962L48.122134 88.28557L47.812074 88.727919L47.812074 89.022474L47.776934 89.189389L47.590382 89.292744L47.407965 89.191456L47.371795 89.021443L47.371795 88.727919L47.073105 88.288668L47.029185 88.153794L47.078275 88.021503L47.248291 87.941403L47.248278 87.941401M40.189277 87.951201L40.453344 87.951201L40.675036 87.984271L40.770636 88.152221L40.699326 88.313968L40.534475 88.362538L40.312783 88.362538L40.312783 88.454518L40.448695 88.454518L40.590286 88.479838L40.663146 88.611614L40.468326 88.771811L40.31278 88.771811L40.31278 88.983166L40.27713 89.19039L40.091609 89.29271L39.945366 89.23586L39.876636 89.090649L39.874036 88.981614L39.874036 88.213185L39.900906 88.063322L40.023895 87.964622L40.189259 87.951182L40.189277 87.951201M43.67072 87.951201L44.113588 87.951201L44.324426 87.970331L44.409176 88.044741L44.442766 88.153778L44.370416 88.311906L44.201435 88.359966L44.101181 88.359966L44.101181 89.023493L44.063971 89.19144L43.883623 89.29066L43.701722 89.20023L43.661932 89.028147L43.661932 88.359971L43.54566 88.359971L43.385982 88.307261L43.318282 88.155848L43.349802 88.047845L43.431452 87.973435L43.670718 87.951205L43.67072 87.951201M46.246791 87.951201L46.525841 87.951201L46.781641 88.030781L46.954239 88.236971L46.995059 88.429207L46.851914 88.769754L46.955268 88.935638L46.998158 89.078264L46.934078 89.232259L46.7775 89.292719L46.597147 89.191431L46.413698 88.890674L46.413698 89.071028L46.352198 89.228121L46.199237 89.292721L46.027155 89.211591L45.974445 89.02452L45.974445 88.203899L46.246781 87.9512L46.246791 87.951201M46.365644 88.295365L46.365644 88.529461L46.458144 88.529461L46.570798 88.412155L46.458144 88.295365L46.365644 88.295365M45.144015 88.334645L44.848425 88.629719L44.9349824968 88.8387509175L45.144015 88.925307L45.3530455636 88.8387498564L45.439602 88.629719L45.144015 88.334645L45.144015 88.334645M41.35148 88.419395L41.207304 88.668992L41.495657 88.668992L41.35148 88.419395"
       style="opacity:1;vector-effect:none;fill:#ffaaaa;fill-opacity:1;stroke:none;stroke-width:0.0254;stroke-linecap:round;stroke-linejoin:round;stroke-miterlimit:4;stroke-dasharray:none;stroke-dashoffset:0;stroke-opacity:1"
       inkscape:connector-curvature="0" />
  </g>
</svg>
