%
M48
M72
T01C0.0200
T02C0.0320
T03C0.0354
T04C0.0400
%
T01
X1620Y505
X1620Y855
X1620Y1205
X1620Y1555
X1620Y9405
X1620Y18455
X1570Y27555
X1620Y36005
X1620Y36355
X1620Y36705
X1620Y37055
X12820Y34405
X12820Y31305
X12820Y28155
X12770Y26805
X12820Y25355
X12820Y22255
X12820Y19105
X12820Y17705
X12820Y16305
X15020Y15005
X12820Y13155
X12770Y10055
X12770Y8655
X21420Y4005
X34120Y3955
X40570Y15005
X34170Y26055
X21320Y26055
T02
X27670Y15788
X28170Y14922
T03
X36821Y12955
X39419Y14455
T04
X30956Y23294
X30066Y24836
X32283Y26116
X33173Y24574
M30
