G75*
%MOIN*%
%OFA0B0*%
%FSLAX25Y25*%
%IPPOS*%
%LPD*%
%AMOC8*
5,1,8,0,0,1.08239X$1,22.5*
%
%ADD10C,0.07400*%
%ADD11C,0.00394*%
D10*
X0276697Y0157880D03*
X0281697Y0149220D03*
X0368206Y0129550D03*
X0394187Y0144550D03*
X0309562Y0232942D03*
X0300662Y0248358D03*
X0322832Y0261158D03*
X0331732Y0245742D03*
D11*
X0054340Y0082044D02*
X0028453Y0037208D01*
X0075697Y0084451D01*
X0076035Y0084848D01*
X0076099Y0084854D01*
X0076144Y0084899D01*
X0076666Y0084899D01*
X0076861Y0084915D01*
X0076907Y0084960D01*
X0077429Y0084960D01*
X0077948Y0085002D01*
X0077997Y0084960D01*
X0121187Y0084953D01*
X0120500Y0085640D01*
X0120500Y0087460D01*
X0121414Y0088374D01*
X0054463Y0088374D01*
X0054407Y0088239D01*
X0053508Y0087340D01*
X0052333Y0086853D01*
X0051061Y0086853D01*
X0049886Y0087340D01*
X0048987Y0088239D01*
X0048500Y0089414D01*
X0048500Y0090686D01*
X0048987Y0091861D01*
X0049886Y0092760D01*
X0050501Y0093015D01*
X0050501Y0094585D01*
X0049886Y0094840D01*
X0048987Y0095739D01*
X0048500Y0096914D01*
X0048500Y0098186D01*
X0048987Y0099361D01*
X0049886Y0100260D01*
X0051061Y0100747D01*
X0052333Y0100747D01*
X0053508Y0100260D01*
X0054407Y0099361D01*
X0054694Y0098669D01*
X0121471Y0098669D01*
X0120500Y0099640D01*
X0120500Y0101460D01*
X0121146Y0102106D01*
X0120990Y0102106D01*
X0120979Y0102118D01*
X0120962Y0102118D01*
X0120572Y0102525D01*
X0120174Y0102923D01*
X0120174Y0102939D01*
X0120163Y0102951D01*
X0120174Y0103514D01*
X0120178Y0127643D01*
X0120064Y0127930D01*
X0120178Y0128197D01*
X0120178Y0128488D01*
X0120397Y0128707D01*
X0120415Y0128748D01*
X0120415Y0129039D01*
X0120633Y0129258D01*
X0120755Y0129542D01*
X0121025Y0129650D01*
X0121231Y0129856D01*
X0121540Y0129856D01*
X0121715Y0129925D01*
X0121000Y0130640D01*
X0121000Y0132460D01*
X0121818Y0133278D01*
X0121612Y0133278D01*
X0121054Y0133262D01*
X0121038Y0133278D01*
X0121016Y0133278D01*
X0120621Y0133672D01*
X0120216Y0134056D01*
X0120215Y0134078D01*
X0120200Y0134094D01*
X0120200Y0134652D01*
X0120194Y0134845D01*
X0120178Y0134861D01*
X0120179Y0135418D01*
X0120163Y0135976D01*
X0120179Y0135993D01*
X0120183Y0158735D01*
X0120071Y0158961D01*
X0120183Y0159291D01*
X0120183Y0159638D01*
X0120342Y0159797D01*
X0119920Y0164292D01*
X0117466Y0164045D01*
X0116826Y0163962D01*
X0112562Y0162636D01*
X0108648Y0160512D01*
X0105716Y0158094D01*
X0105213Y0157676D01*
X0102795Y0154745D01*
X0102384Y0154238D01*
X0100260Y0150319D01*
X0098937Y0146057D01*
X0098859Y0145416D01*
X0098470Y0141554D01*
X0098440Y0140838D01*
X0098440Y0120839D01*
X0098517Y0120731D01*
X0098440Y0120277D01*
X0098440Y0119816D01*
X0098347Y0119723D01*
X0098337Y0119663D01*
X0098376Y0119274D01*
X0098244Y0119114D01*
X0098210Y0118909D01*
X0097892Y0118683D01*
X0097644Y0118381D01*
X0097438Y0118360D01*
X0097269Y0118240D01*
X0096884Y0118305D01*
X0083004Y0116921D01*
X0082274Y0116807D01*
X0069892Y0114691D01*
X0069165Y0114538D01*
X0057715Y0111815D01*
X0056995Y0111618D01*
X0046490Y0108459D01*
X0036918Y0105015D01*
X0036220Y0104733D01*
X0028964Y0101716D01*
X0028270Y0101416D01*
X0021889Y0098426D01*
X0021211Y0098084D01*
X0017428Y0096124D01*
X0017375Y0096016D01*
X0017347Y0096006D01*
X0018394Y0094960D01*
X0018394Y0093140D01*
X0017107Y0091853D01*
X0016861Y0091853D01*
X0017012Y0091795D01*
X0017027Y0091760D01*
X0023716Y0088813D01*
X0023993Y0088702D01*
X0024513Y0088495D01*
X0024513Y0088495D01*
X0033277Y0084998D01*
X0033789Y0084966D01*
X0053035Y0084964D01*
X0053188Y0085059D01*
X0053593Y0084964D01*
X0054009Y0084964D01*
X0054137Y0084837D01*
X0054312Y0084795D01*
X0054531Y0084442D01*
X0054825Y0084148D01*
X0054825Y0083967D01*
X0054920Y0083814D01*
X0054825Y0083409D01*
X0054825Y0082993D01*
X0054777Y0082945D01*
X0054804Y0082847D01*
X0054618Y0082526D01*
X0054533Y0082164D01*
X0054340Y0082044D01*
X0054533Y0082164D01*
X0054618Y0082526D01*
X0054804Y0082847D01*
X0054777Y0082945D01*
X0054825Y0082993D01*
X0054825Y0083409D01*
X0054920Y0083814D01*
X0054825Y0083967D01*
X0054825Y0084148D01*
X0054531Y0084442D01*
X0054312Y0084795D01*
X0054137Y0084837D01*
X0054009Y0084964D01*
X0053593Y0084964D01*
X0053188Y0085059D01*
X0053035Y0084964D01*
X0033789Y0084966D01*
X0033277Y0084998D01*
X0024513Y0088495D01*
X0024513Y0088495D01*
X0023993Y0088702D01*
X0023716Y0088813D01*
X0017027Y0091760D01*
X0017012Y0091795D01*
X0016861Y0091853D01*
X0017107Y0091853D01*
X0018394Y0093140D01*
X0018394Y0094960D01*
X0017347Y0096006D01*
X0017375Y0096016D01*
X0017428Y0096124D01*
X0021211Y0098084D01*
X0021889Y0098426D01*
X0028270Y0101416D01*
X0028964Y0101716D01*
X0036220Y0104733D01*
X0036918Y0105015D01*
X0046490Y0108459D01*
X0056995Y0111618D01*
X0057715Y0111815D01*
X0069165Y0114538D01*
X0069892Y0114691D01*
X0082274Y0116807D01*
X0083004Y0116921D01*
X0096884Y0118305D01*
X0097269Y0118240D01*
X0097438Y0118360D01*
X0097644Y0118381D01*
X0097892Y0118683D01*
X0098210Y0118909D01*
X0098244Y0119114D01*
X0098376Y0119274D01*
X0098337Y0119663D01*
X0098347Y0119723D01*
X0098440Y0119816D01*
X0098440Y0120277D01*
X0098517Y0120731D01*
X0098440Y0120839D01*
X0098440Y0140838D01*
X0098470Y0141554D01*
X0098859Y0145416D01*
X0098937Y0146057D01*
X0100260Y0150319D01*
X0102384Y0154238D01*
X0102795Y0154745D01*
X0105213Y0157676D01*
X0105716Y0158094D01*
X0108648Y0160512D01*
X0112562Y0162636D01*
X0116826Y0163962D01*
X0117466Y0164045D01*
X0119920Y0164292D01*
X0120342Y0159797D01*
X0120183Y0159638D01*
X0120183Y0159291D01*
X0120071Y0158961D01*
X0120183Y0158735D01*
X0120179Y0135993D01*
X0120163Y0135976D01*
X0120179Y0135418D01*
X0120178Y0134861D01*
X0120194Y0134845D01*
X0120200Y0134652D01*
X0120200Y0134094D01*
X0120215Y0134078D01*
X0120216Y0134056D01*
X0120621Y0133672D01*
X0121016Y0133278D01*
X0121038Y0133278D01*
X0121054Y0133262D01*
X0121612Y0133278D01*
X0121818Y0133278D01*
X0121000Y0132460D01*
X0121000Y0130640D01*
X0121715Y0129925D01*
X0121540Y0129856D01*
X0121231Y0129856D01*
X0121025Y0129650D01*
X0120755Y0129542D01*
X0120633Y0129258D01*
X0120415Y0129039D01*
X0120415Y0128748D01*
X0120397Y0128707D01*
X0120178Y0128488D01*
X0120178Y0128197D01*
X0120064Y0127930D01*
X0120178Y0127643D01*
X0120174Y0103514D01*
X0120163Y0102951D01*
X0120174Y0102939D01*
X0120174Y0102923D01*
X0120572Y0102525D01*
X0120962Y0102118D01*
X0120979Y0102118D01*
X0120990Y0102106D01*
X0121146Y0102106D01*
X0120500Y0101460D01*
X0120500Y0099640D01*
X0121471Y0098669D01*
X0054694Y0098669D01*
X0054407Y0099361D01*
X0053508Y0100260D01*
X0052333Y0100747D01*
X0051061Y0100747D01*
X0049886Y0100260D01*
X0048987Y0099361D01*
X0048500Y0098186D01*
X0048500Y0096914D01*
X0048987Y0095739D01*
X0049886Y0094840D01*
X0050501Y0094585D01*
X0050501Y0093015D01*
X0049886Y0092760D01*
X0048987Y0091861D01*
X0048500Y0090686D01*
X0048500Y0089414D01*
X0048987Y0088239D01*
X0049886Y0087340D01*
X0051061Y0086853D01*
X0052333Y0086853D01*
X0053508Y0087340D01*
X0054407Y0088239D01*
X0054463Y0088374D01*
X0121414Y0088374D01*
X0120500Y0087460D01*
X0120500Y0085640D01*
X0121187Y0084953D01*
X0077997Y0084960D01*
X0077948Y0085002D01*
X0077429Y0084960D01*
X0076907Y0084960D01*
X0076861Y0084915D01*
X0076666Y0084899D01*
X0076144Y0084899D01*
X0076099Y0084854D01*
X0076035Y0084848D01*
X0075697Y0084451D01*
X0028453Y0037208D01*
X0054340Y0082044D01*
X0054367Y0082061D02*
X0073307Y0082061D01*
X0054367Y0082061D01*
X0054601Y0082453D02*
X0073699Y0082453D01*
X0054601Y0082453D01*
X0054803Y0082846D02*
X0074091Y0082846D01*
X0054803Y0082846D01*
X0054825Y0083238D02*
X0074483Y0083238D01*
X0054825Y0083238D01*
X0054877Y0083630D02*
X0074875Y0083630D01*
X0054877Y0083630D01*
X0054825Y0084022D02*
X0075268Y0084022D01*
X0054825Y0084022D01*
X0054559Y0084415D02*
X0075660Y0084415D01*
X0054559Y0084415D01*
X0054264Y0084807D02*
X0075999Y0084807D01*
X0054264Y0084807D01*
X0053074Y0087160D02*
X0120500Y0087160D01*
X0053074Y0087160D01*
X0053720Y0087552D02*
X0120592Y0087552D01*
X0053720Y0087552D01*
X0054112Y0087944D02*
X0120984Y0087944D01*
X0054112Y0087944D01*
X0054447Y0088337D02*
X0121377Y0088337D01*
X0054447Y0088337D01*
X0050320Y0087160D02*
X0027859Y0087160D01*
X0050320Y0087160D01*
X0049674Y0087552D02*
X0026876Y0087552D01*
X0049674Y0087552D01*
X0049281Y0087944D02*
X0025893Y0087944D01*
X0049281Y0087944D01*
X0048946Y0088337D02*
X0024910Y0088337D01*
X0048946Y0088337D01*
X0048784Y0088729D02*
X0023927Y0088729D01*
X0048784Y0088729D01*
X0048621Y0089121D02*
X0023017Y0089121D01*
X0048621Y0089121D01*
X0048500Y0089513D02*
X0022127Y0089513D01*
X0048500Y0089513D01*
X0048500Y0089906D02*
X0021237Y0089906D01*
X0048500Y0089906D01*
X0048500Y0090298D02*
X0020347Y0090298D01*
X0048500Y0090298D01*
X0048502Y0090690D02*
X0019457Y0090690D01*
X0048502Y0090690D01*
X0048664Y0091082D02*
X0018567Y0091082D01*
X0048664Y0091082D01*
X0048827Y0091474D02*
X0017676Y0091474D01*
X0048827Y0091474D01*
X0048992Y0091867D02*
X0017120Y0091867D01*
X0048992Y0091867D01*
X0049385Y0092259D02*
X0017512Y0092259D01*
X0049385Y0092259D01*
X0049777Y0092651D02*
X0017905Y0092651D01*
X0049777Y0092651D01*
X0050501Y0093043D02*
X0018297Y0093043D01*
X0050501Y0093043D01*
X0050501Y0093435D02*
X0018394Y0093435D01*
X0050501Y0093435D01*
X0050501Y0093828D02*
X0018394Y0093828D01*
X0050501Y0093828D01*
X0050501Y0094220D02*
X0018394Y0094220D01*
X0050501Y0094220D01*
X0050436Y0094612D02*
X0018394Y0094612D01*
X0050436Y0094612D01*
X0049722Y0095004D02*
X0018349Y0095004D01*
X0049722Y0095004D01*
X0049329Y0095396D02*
X0017957Y0095396D01*
X0049329Y0095396D01*
X0048966Y0095789D02*
X0017565Y0095789D01*
X0048966Y0095789D01*
X0048804Y0096181D02*
X0017538Y0096181D01*
X0048804Y0096181D01*
X0048641Y0096573D02*
X0018295Y0096573D01*
X0048641Y0096573D01*
X0048500Y0096965D02*
X0019051Y0096965D01*
X0048500Y0096965D01*
X0048500Y0097358D02*
X0019808Y0097358D01*
X0048500Y0097358D01*
X0048500Y0097750D02*
X0020565Y0097750D01*
X0048500Y0097750D01*
X0048500Y0098142D02*
X0021325Y0098142D01*
X0048500Y0098142D01*
X0048644Y0098534D02*
X0022121Y0098534D01*
X0048644Y0098534D01*
X0048807Y0098926D02*
X0022958Y0098926D01*
X0048807Y0098926D01*
X0048969Y0099319D02*
X0023795Y0099319D01*
X0048969Y0099319D01*
X0049337Y0099711D02*
X0024632Y0099711D01*
X0049337Y0099711D01*
X0049729Y0100103D02*
X0025469Y0100103D01*
X0049729Y0100103D01*
X0050454Y0100495D02*
X0026306Y0100495D01*
X0050454Y0100495D01*
X0052940Y0100495D02*
X0120500Y0100495D01*
X0052940Y0100495D01*
X0053665Y0100103D02*
X0120500Y0100103D01*
X0053665Y0100103D01*
X0054057Y0099711D02*
X0120500Y0099711D01*
X0054057Y0099711D01*
X0054425Y0099319D02*
X0120821Y0099319D01*
X0054425Y0099319D01*
X0054587Y0098926D02*
X0121214Y0098926D01*
X0054587Y0098926D01*
X0047399Y0108732D02*
X0120175Y0108732D01*
X0047399Y0108732D01*
X0046159Y0108339D02*
X0120175Y0108339D01*
X0046159Y0108339D01*
X0045069Y0107947D02*
X0120175Y0107947D01*
X0045069Y0107947D01*
X0043979Y0107555D02*
X0120175Y0107555D01*
X0043979Y0107555D01*
X0042888Y0107163D02*
X0120175Y0107163D01*
X0042888Y0107163D01*
X0041798Y0106771D02*
X0120175Y0106771D01*
X0041798Y0106771D01*
X0040708Y0106378D02*
X0120175Y0106378D01*
X0040708Y0106378D01*
X0039617Y0105986D02*
X0120175Y0105986D01*
X0039617Y0105986D01*
X0038527Y0105594D02*
X0120174Y0105594D01*
X0038527Y0105594D01*
X0037437Y0105202D02*
X0120174Y0105202D01*
X0037437Y0105202D01*
X0036410Y0104810D02*
X0120174Y0104810D01*
X0036410Y0104810D01*
X0035461Y0104417D02*
X0120174Y0104417D01*
X0035461Y0104417D01*
X0034518Y0104025D02*
X0120174Y0104025D01*
X0034518Y0104025D01*
X0033575Y0103633D02*
X0120174Y0103633D01*
X0033575Y0103633D01*
X0032632Y0103241D02*
X0120169Y0103241D01*
X0032632Y0103241D01*
X0031688Y0102849D02*
X0120248Y0102849D01*
X0031688Y0102849D01*
X0030745Y0102456D02*
X0120638Y0102456D01*
X0030745Y0102456D01*
X0029802Y0102064D02*
X0121104Y0102064D01*
X0029802Y0102064D01*
X0028863Y0101672D02*
X0120712Y0101672D01*
X0028863Y0101672D01*
X0027980Y0101280D02*
X0120500Y0101280D01*
X0027980Y0101280D01*
X0027143Y0100887D02*
X0120500Y0100887D01*
X0027143Y0100887D01*
X0028842Y0086768D02*
X0120500Y0086768D01*
X0028842Y0086768D01*
X0029825Y0086376D02*
X0120500Y0086376D01*
X0029825Y0086376D01*
X0030808Y0085983D02*
X0120500Y0085983D01*
X0030808Y0085983D01*
X0031791Y0085591D02*
X0120549Y0085591D01*
X0031791Y0085591D01*
X0032774Y0085199D02*
X0120941Y0085199D01*
X0032774Y0085199D01*
X0050274Y0075001D02*
X0066247Y0075001D01*
X0050274Y0075001D01*
X0050047Y0074609D02*
X0065855Y0074609D01*
X0050047Y0074609D01*
X0049821Y0074217D02*
X0065462Y0074217D01*
X0049821Y0074217D01*
X0049594Y0073825D02*
X0065070Y0073825D01*
X0049594Y0073825D01*
X0049368Y0073433D02*
X0064678Y0073433D01*
X0049368Y0073433D01*
X0049141Y0073040D02*
X0064286Y0073040D01*
X0049141Y0073040D01*
X0048915Y0072648D02*
X0063894Y0072648D01*
X0048915Y0072648D01*
X0048689Y0072256D02*
X0063501Y0072256D01*
X0048689Y0072256D01*
X0048462Y0071864D02*
X0063109Y0071864D01*
X0048462Y0071864D01*
X0048236Y0071472D02*
X0062717Y0071472D01*
X0048236Y0071472D01*
X0048009Y0071079D02*
X0062325Y0071079D01*
X0048009Y0071079D01*
X0047783Y0070687D02*
X0061932Y0070687D01*
X0047783Y0070687D01*
X0047556Y0070295D02*
X0061540Y0070295D01*
X0047556Y0070295D01*
X0047330Y0069903D02*
X0061148Y0069903D01*
X0047330Y0069903D01*
X0047103Y0069510D02*
X0060756Y0069510D01*
X0047103Y0069510D01*
X0046877Y0069118D02*
X0060364Y0069118D01*
X0046877Y0069118D01*
X0046651Y0068726D02*
X0059971Y0068726D01*
X0046651Y0068726D01*
X0046424Y0068334D02*
X0059579Y0068334D01*
X0046424Y0068334D01*
X0046198Y0067942D02*
X0059187Y0067942D01*
X0046198Y0067942D01*
X0045971Y0067549D02*
X0058795Y0067549D01*
X0045971Y0067549D01*
X0045745Y0067157D02*
X0058403Y0067157D01*
X0045745Y0067157D01*
X0045518Y0066765D02*
X0058010Y0066765D01*
X0045518Y0066765D01*
X0045292Y0066373D02*
X0057618Y0066373D01*
X0045292Y0066373D01*
X0045065Y0065981D02*
X0057226Y0065981D01*
X0045065Y0065981D01*
X0044839Y0065588D02*
X0056834Y0065588D01*
X0044839Y0065588D01*
X0044612Y0065196D02*
X0056442Y0065196D01*
X0044612Y0065196D01*
X0044386Y0064804D02*
X0056049Y0064804D01*
X0044386Y0064804D01*
X0044160Y0064412D02*
X0055657Y0064412D01*
X0044160Y0064412D01*
X0043933Y0064020D02*
X0055265Y0064020D01*
X0043933Y0064020D01*
X0043707Y0063627D02*
X0054873Y0063627D01*
X0043707Y0063627D01*
X0043480Y0063235D02*
X0054480Y0063235D01*
X0043480Y0063235D01*
X0043254Y0062843D02*
X0054088Y0062843D01*
X0043254Y0062843D01*
X0043027Y0062451D02*
X0053696Y0062451D01*
X0043027Y0062451D01*
X0042801Y0062058D02*
X0053304Y0062058D01*
X0042801Y0062058D01*
X0042574Y0061666D02*
X0052912Y0061666D01*
X0042574Y0061666D01*
X0042348Y0061274D02*
X0052519Y0061274D01*
X0042348Y0061274D01*
X0042122Y0060882D02*
X0052127Y0060882D01*
X0042122Y0060882D01*
X0041895Y0060490D02*
X0051735Y0060490D01*
X0041895Y0060490D01*
X0041669Y0060097D02*
X0051343Y0060097D01*
X0041669Y0060097D01*
X0041442Y0059705D02*
X0050951Y0059705D01*
X0041442Y0059705D01*
X0041216Y0059313D02*
X0050558Y0059313D01*
X0041216Y0059313D01*
X0040989Y0058921D02*
X0050166Y0058921D01*
X0040989Y0058921D01*
X0040763Y0058529D02*
X0049774Y0058529D01*
X0040763Y0058529D01*
X0040536Y0058136D02*
X0049382Y0058136D01*
X0040536Y0058136D01*
X0040310Y0057744D02*
X0048989Y0057744D01*
X0040310Y0057744D01*
X0040084Y0057352D02*
X0048597Y0057352D01*
X0040084Y0057352D01*
X0039857Y0056960D02*
X0048205Y0056960D01*
X0039857Y0056960D01*
X0039631Y0056567D02*
X0047813Y0056567D01*
X0039631Y0056567D01*
X0039404Y0056175D02*
X0047421Y0056175D01*
X0039404Y0056175D01*
X0039178Y0055783D02*
X0047028Y0055783D01*
X0039178Y0055783D01*
X0038951Y0055391D02*
X0046636Y0055391D01*
X0038951Y0055391D01*
X0038725Y0054999D02*
X0046244Y0054999D01*
X0038725Y0054999D01*
X0038498Y0054606D02*
X0045852Y0054606D01*
X0038498Y0054606D01*
X0038272Y0054214D02*
X0045460Y0054214D01*
X0038272Y0054214D01*
X0038045Y0053822D02*
X0045067Y0053822D01*
X0038045Y0053822D01*
X0037819Y0053430D02*
X0044675Y0053430D01*
X0037819Y0053430D01*
X0037593Y0053038D02*
X0044283Y0053038D01*
X0037593Y0053038D01*
X0037366Y0052645D02*
X0043891Y0052645D01*
X0037366Y0052645D01*
X0037140Y0052253D02*
X0043499Y0052253D01*
X0037140Y0052253D01*
X0036913Y0051861D02*
X0043106Y0051861D01*
X0036913Y0051861D01*
X0036687Y0051469D02*
X0042714Y0051469D01*
X0036687Y0051469D01*
X0036460Y0051077D02*
X0042322Y0051077D01*
X0036460Y0051077D01*
X0036234Y0050684D02*
X0041930Y0050684D01*
X0036234Y0050684D01*
X0036007Y0050292D02*
X0041537Y0050292D01*
X0036007Y0050292D01*
X0035781Y0049900D02*
X0041145Y0049900D01*
X0035781Y0049900D01*
X0035555Y0049508D02*
X0040753Y0049508D01*
X0035555Y0049508D01*
X0035328Y0049115D02*
X0040361Y0049115D01*
X0035328Y0049115D01*
X0035102Y0048723D02*
X0039969Y0048723D01*
X0035102Y0048723D01*
X0034875Y0048331D02*
X0039576Y0048331D01*
X0034875Y0048331D01*
X0034649Y0047939D02*
X0039184Y0047939D01*
X0034649Y0047939D01*
X0034422Y0047547D02*
X0038792Y0047547D01*
X0034422Y0047547D01*
X0034196Y0047154D02*
X0038400Y0047154D01*
X0034196Y0047154D01*
X0033969Y0046762D02*
X0038008Y0046762D01*
X0033969Y0046762D01*
X0033743Y0046370D02*
X0037615Y0046370D01*
X0033743Y0046370D01*
X0033517Y0045978D02*
X0037223Y0045978D01*
X0033517Y0045978D01*
X0033290Y0045586D02*
X0036831Y0045586D01*
X0033290Y0045586D01*
X0033064Y0045193D02*
X0036439Y0045193D01*
X0033064Y0045193D01*
X0032837Y0044801D02*
X0036046Y0044801D01*
X0032837Y0044801D01*
X0032611Y0044409D02*
X0035654Y0044409D01*
X0032611Y0044409D01*
X0032384Y0044017D02*
X0035262Y0044017D01*
X0032384Y0044017D01*
X0032158Y0043624D02*
X0034870Y0043624D01*
X0032158Y0043624D01*
X0031931Y0043232D02*
X0034478Y0043232D01*
X0031931Y0043232D01*
X0031705Y0042840D02*
X0034085Y0042840D01*
X0031705Y0042840D01*
X0031479Y0042448D02*
X0033693Y0042448D01*
X0031479Y0042448D01*
X0031252Y0042056D02*
X0033301Y0042056D01*
X0031252Y0042056D01*
X0031026Y0041663D02*
X0032909Y0041663D01*
X0031026Y0041663D01*
X0030799Y0041271D02*
X0032517Y0041271D01*
X0030799Y0041271D01*
X0030573Y0040879D02*
X0032124Y0040879D01*
X0030573Y0040879D01*
X0030346Y0040487D02*
X0031732Y0040487D01*
X0030346Y0040487D01*
X0030120Y0040095D02*
X0031340Y0040095D01*
X0030120Y0040095D01*
X0029893Y0039702D02*
X0030948Y0039702D01*
X0029893Y0039702D01*
X0029667Y0039310D02*
X0030556Y0039310D01*
X0029667Y0039310D01*
X0029440Y0038918D02*
X0030163Y0038918D01*
X0029440Y0038918D01*
X0029214Y0038526D02*
X0029771Y0038526D01*
X0029214Y0038526D01*
X0029379Y0038134D02*
X0028988Y0038134D01*
X0029379Y0038134D01*
X0028987Y0037741D02*
X0028761Y0037741D01*
X0028987Y0037741D01*
X0028594Y0037349D02*
X0028535Y0037349D01*
X0028594Y0037349D01*
X0050500Y0075394D02*
X0066639Y0075394D01*
X0050500Y0075394D01*
X0050727Y0075786D02*
X0067031Y0075786D01*
X0050727Y0075786D01*
X0050953Y0076178D02*
X0067423Y0076178D01*
X0050953Y0076178D01*
X0051179Y0076570D02*
X0067816Y0076570D01*
X0051179Y0076570D01*
X0051406Y0076963D02*
X0068208Y0076963D01*
X0051406Y0076963D01*
X0051632Y0077355D02*
X0068600Y0077355D01*
X0051632Y0077355D01*
X0051859Y0077747D02*
X0068992Y0077747D01*
X0051859Y0077747D01*
X0052085Y0078139D02*
X0069385Y0078139D01*
X0052085Y0078139D01*
X0052312Y0078531D02*
X0069777Y0078531D01*
X0052312Y0078531D01*
X0052538Y0078924D02*
X0070169Y0078924D01*
X0052538Y0078924D01*
X0052765Y0079316D02*
X0070561Y0079316D01*
X0052765Y0079316D01*
X0052991Y0079708D02*
X0070953Y0079708D01*
X0052991Y0079708D01*
X0053217Y0080100D02*
X0071346Y0080100D01*
X0053217Y0080100D01*
X0053444Y0080492D02*
X0071738Y0080492D01*
X0053444Y0080492D01*
X0053670Y0080885D02*
X0072130Y0080885D01*
X0053670Y0080885D01*
X0053897Y0081277D02*
X0072522Y0081277D01*
X0053897Y0081277D01*
X0054123Y0081669D02*
X0072914Y0081669D01*
X0054123Y0081669D01*
X0048703Y0109124D02*
X0120175Y0109124D01*
X0048703Y0109124D01*
X0050007Y0109516D02*
X0120175Y0109516D01*
X0050007Y0109516D01*
X0051311Y0109908D02*
X0120175Y0109908D01*
X0051311Y0109908D01*
X0052616Y0110301D02*
X0120175Y0110301D01*
X0052616Y0110301D01*
X0053920Y0110693D02*
X0120175Y0110693D01*
X0053920Y0110693D01*
X0055224Y0111085D02*
X0120175Y0111085D01*
X0055224Y0111085D01*
X0056528Y0111477D02*
X0120176Y0111477D01*
X0056528Y0111477D01*
X0057942Y0111869D02*
X0120176Y0111869D01*
X0057942Y0111869D01*
X0059592Y0112262D02*
X0120176Y0112262D01*
X0059592Y0112262D01*
X0061241Y0112654D02*
X0120176Y0112654D01*
X0061241Y0112654D01*
X0062890Y0113046D02*
X0120176Y0113046D01*
X0062890Y0113046D01*
X0064539Y0113438D02*
X0120176Y0113438D01*
X0064539Y0113438D01*
X0066188Y0113830D02*
X0120176Y0113830D01*
X0066188Y0113830D01*
X0067837Y0114223D02*
X0120176Y0114223D01*
X0067837Y0114223D01*
X0069530Y0114615D02*
X0120176Y0114615D01*
X0069530Y0114615D01*
X0071744Y0115007D02*
X0120176Y0115007D01*
X0071744Y0115007D01*
X0074038Y0115399D02*
X0120176Y0115399D01*
X0074038Y0115399D01*
X0076332Y0115792D02*
X0120176Y0115792D01*
X0076332Y0115792D01*
X0078627Y0116184D02*
X0120176Y0116184D01*
X0078627Y0116184D01*
X0080921Y0116576D02*
X0120176Y0116576D01*
X0080921Y0116576D01*
X0083476Y0116968D02*
X0120176Y0116968D01*
X0083476Y0116968D01*
X0087410Y0117360D02*
X0120177Y0117360D01*
X0087410Y0117360D01*
X0091345Y0117753D02*
X0120177Y0117753D01*
X0091345Y0117753D01*
X0095279Y0118145D02*
X0120177Y0118145D01*
X0095279Y0118145D01*
X0097772Y0118537D02*
X0120177Y0118537D01*
X0097772Y0118537D01*
X0098213Y0118929D02*
X0120177Y0118929D01*
X0098213Y0118929D01*
X0098371Y0119321D02*
X0120177Y0119321D01*
X0098371Y0119321D01*
X0098345Y0119714D02*
X0120177Y0119714D01*
X0098345Y0119714D01*
X0098440Y0120106D02*
X0120177Y0120106D01*
X0098440Y0120106D01*
X0098477Y0120498D02*
X0120177Y0120498D01*
X0098477Y0120498D01*
X0098440Y0120890D02*
X0120177Y0120890D01*
X0098440Y0120890D01*
X0098440Y0121282D02*
X0120177Y0121282D01*
X0098440Y0121282D01*
X0098440Y0121675D02*
X0120177Y0121675D01*
X0098440Y0121675D01*
X0098440Y0122067D02*
X0120177Y0122067D01*
X0098440Y0122067D01*
X0098440Y0122459D02*
X0120177Y0122459D01*
X0098440Y0122459D01*
X0098440Y0122851D02*
X0120177Y0122851D01*
X0098440Y0122851D01*
X0098440Y0123244D02*
X0120178Y0123244D01*
X0098440Y0123244D01*
X0098440Y0123636D02*
X0120178Y0123636D01*
X0098440Y0123636D01*
X0098440Y0124028D02*
X0120178Y0124028D01*
X0098440Y0124028D01*
X0098440Y0124420D02*
X0120178Y0124420D01*
X0098440Y0124420D01*
X0098440Y0124812D02*
X0120178Y0124812D01*
X0098440Y0124812D01*
X0098440Y0125205D02*
X0120178Y0125205D01*
X0098440Y0125205D01*
X0098440Y0125597D02*
X0120178Y0125597D01*
X0098440Y0125597D01*
X0098440Y0125989D02*
X0120178Y0125989D01*
X0098440Y0125989D01*
X0098440Y0126381D02*
X0120178Y0126381D01*
X0098440Y0126381D01*
X0098440Y0126773D02*
X0120178Y0126773D01*
X0098440Y0126773D01*
X0098440Y0127166D02*
X0120178Y0127166D01*
X0098440Y0127166D01*
X0098440Y0127558D02*
X0120178Y0127558D01*
X0098440Y0127558D01*
X0098440Y0127950D02*
X0120072Y0127950D01*
X0098440Y0127950D01*
X0098440Y0128342D02*
X0120178Y0128342D01*
X0098440Y0128342D01*
X0098440Y0128735D02*
X0120409Y0128735D01*
X0098440Y0128735D01*
X0098440Y0129127D02*
X0120502Y0129127D01*
X0098440Y0129127D01*
X0098440Y0129519D02*
X0120745Y0129519D01*
X0098440Y0129519D01*
X0098440Y0129911D02*
X0121679Y0129911D01*
X0098440Y0129911D01*
X0098440Y0130303D02*
X0121337Y0130303D01*
X0098440Y0130303D01*
X0098440Y0130696D02*
X0121000Y0130696D01*
X0098440Y0130696D01*
X0098440Y0131088D02*
X0121000Y0131088D01*
X0098440Y0131088D01*
X0098440Y0131480D02*
X0121000Y0131480D01*
X0098440Y0131480D01*
X0098440Y0131872D02*
X0121000Y0131872D01*
X0098440Y0131872D01*
X0098440Y0132264D02*
X0121000Y0132264D01*
X0098440Y0132264D01*
X0098440Y0132657D02*
X0121197Y0132657D01*
X0098440Y0132657D01*
X0098440Y0133049D02*
X0121589Y0133049D01*
X0098440Y0133049D01*
X0098440Y0133441D02*
X0120852Y0133441D01*
X0098440Y0133441D01*
X0098440Y0133833D02*
X0120451Y0133833D01*
X0098440Y0133833D01*
X0098440Y0134225D02*
X0120200Y0134225D01*
X0098440Y0134225D01*
X0098440Y0134618D02*
X0120200Y0134618D01*
X0098440Y0134618D01*
X0098440Y0135010D02*
X0120179Y0135010D01*
X0098440Y0135010D01*
X0098440Y0135402D02*
X0120179Y0135402D01*
X0098440Y0135402D01*
X0098440Y0135794D02*
X0120168Y0135794D01*
X0098440Y0135794D01*
X0098440Y0136187D02*
X0120179Y0136187D01*
X0098440Y0136187D01*
X0098440Y0136579D02*
X0120179Y0136579D01*
X0098440Y0136579D01*
X0098440Y0136971D02*
X0120179Y0136971D01*
X0098440Y0136971D01*
X0098440Y0137363D02*
X0120179Y0137363D01*
X0098440Y0137363D01*
X0098440Y0137755D02*
X0120179Y0137755D01*
X0098440Y0137755D01*
X0098440Y0138148D02*
X0120179Y0138148D01*
X0098440Y0138148D01*
X0098440Y0138540D02*
X0120179Y0138540D01*
X0098440Y0138540D01*
X0098440Y0138932D02*
X0120179Y0138932D01*
X0098440Y0138932D01*
X0098440Y0139324D02*
X0120179Y0139324D01*
X0098440Y0139324D01*
X0098440Y0139716D02*
X0120179Y0139716D01*
X0098440Y0139716D01*
X0098440Y0140109D02*
X0120179Y0140109D01*
X0098440Y0140109D01*
X0098440Y0140501D02*
X0120179Y0140501D01*
X0098440Y0140501D01*
X0098442Y0140893D02*
X0120180Y0140893D01*
X0098442Y0140893D01*
X0098459Y0141285D02*
X0120180Y0141285D01*
X0098459Y0141285D01*
X0098482Y0141678D02*
X0120180Y0141678D01*
X0098482Y0141678D01*
X0098522Y0142070D02*
X0120180Y0142070D01*
X0098522Y0142070D01*
X0098561Y0142462D02*
X0120180Y0142462D01*
X0098561Y0142462D01*
X0098601Y0142854D02*
X0120180Y0142854D01*
X0098601Y0142854D01*
X0098640Y0143246D02*
X0120180Y0143246D01*
X0098640Y0143246D01*
X0098680Y0143639D02*
X0120180Y0143639D01*
X0098680Y0143639D01*
X0098719Y0144031D02*
X0120180Y0144031D01*
X0098719Y0144031D01*
X0098759Y0144423D02*
X0120180Y0144423D01*
X0098759Y0144423D01*
X0098799Y0144815D02*
X0120180Y0144815D01*
X0098799Y0144815D01*
X0098838Y0145207D02*
X0120180Y0145207D01*
X0098838Y0145207D01*
X0098881Y0145600D02*
X0120180Y0145600D01*
X0098881Y0145600D01*
X0098929Y0145992D02*
X0120180Y0145992D01*
X0098929Y0145992D01*
X0099038Y0146384D02*
X0120180Y0146384D01*
X0099038Y0146384D01*
X0099160Y0146776D02*
X0120181Y0146776D01*
X0099160Y0146776D01*
X0099282Y0147168D02*
X0120181Y0147168D01*
X0099282Y0147168D01*
X0099404Y0147561D02*
X0120181Y0147561D01*
X0099404Y0147561D01*
X0099525Y0147953D02*
X0120181Y0147953D01*
X0099525Y0147953D01*
X0099647Y0148345D02*
X0120181Y0148345D01*
X0099647Y0148345D01*
X0099769Y0148737D02*
X0120181Y0148737D01*
X0099769Y0148737D01*
X0099891Y0149130D02*
X0120181Y0149130D01*
X0099891Y0149130D01*
X0100012Y0149522D02*
X0120181Y0149522D01*
X0100012Y0149522D01*
X0100134Y0149914D02*
X0120181Y0149914D01*
X0100134Y0149914D01*
X0100256Y0150306D02*
X0120181Y0150306D01*
X0100256Y0150306D01*
X0100466Y0150698D02*
X0120181Y0150698D01*
X0100466Y0150698D01*
X0100678Y0151091D02*
X0120181Y0151091D01*
X0100678Y0151091D01*
X0100891Y0151483D02*
X0120181Y0151483D01*
X0100891Y0151483D01*
X0101103Y0151875D02*
X0120181Y0151875D01*
X0101103Y0151875D01*
X0101316Y0152267D02*
X0120182Y0152267D01*
X0101316Y0152267D01*
X0101528Y0152659D02*
X0120182Y0152659D01*
X0101528Y0152659D01*
X0101741Y0153052D02*
X0120182Y0153052D01*
X0101741Y0153052D01*
X0101953Y0153444D02*
X0120182Y0153444D01*
X0101953Y0153444D01*
X0102166Y0153836D02*
X0120182Y0153836D01*
X0102166Y0153836D01*
X0102378Y0154228D02*
X0120182Y0154228D01*
X0102378Y0154228D01*
X0102694Y0154621D02*
X0120182Y0154621D01*
X0102694Y0154621D01*
X0103016Y0155013D02*
X0120182Y0155013D01*
X0103016Y0155013D01*
X0103340Y0155405D02*
X0120182Y0155405D01*
X0103340Y0155405D01*
X0103663Y0155797D02*
X0120182Y0155797D01*
X0103663Y0155797D01*
X0103987Y0156189D02*
X0120182Y0156189D01*
X0103987Y0156189D01*
X0104311Y0156582D02*
X0120182Y0156582D01*
X0104311Y0156582D01*
X0104634Y0156974D02*
X0120182Y0156974D01*
X0104634Y0156974D01*
X0104958Y0157366D02*
X0120182Y0157366D01*
X0104958Y0157366D01*
X0105313Y0157758D02*
X0120182Y0157758D01*
X0105313Y0157758D01*
X0105785Y0158150D02*
X0120183Y0158150D01*
X0105785Y0158150D01*
X0106260Y0158543D02*
X0120183Y0158543D01*
X0106260Y0158543D01*
X0106736Y0158935D02*
X0120084Y0158935D01*
X0106736Y0158935D01*
X0107212Y0159327D02*
X0120183Y0159327D01*
X0107212Y0159327D01*
X0107687Y0159719D02*
X0120264Y0159719D01*
X0107687Y0159719D01*
X0108163Y0160111D02*
X0120312Y0160111D01*
X0108163Y0160111D01*
X0108638Y0160504D02*
X0120275Y0160504D01*
X0108638Y0160504D01*
X0109356Y0160896D02*
X0120239Y0160896D01*
X0109356Y0160896D01*
X0110078Y0161288D02*
X0120202Y0161288D01*
X0110078Y0161288D01*
X0110801Y0161680D02*
X0120165Y0161680D01*
X0110801Y0161680D01*
X0111524Y0162073D02*
X0120128Y0162073D01*
X0111524Y0162073D01*
X0112246Y0162465D02*
X0120091Y0162465D01*
X0112246Y0162465D01*
X0113272Y0162857D02*
X0120054Y0162857D01*
X0113272Y0162857D01*
X0114533Y0163249D02*
X0120017Y0163249D01*
X0114533Y0163249D01*
X0115794Y0163641D02*
X0119981Y0163641D01*
X0115794Y0163641D01*
X0117379Y0164034D02*
X0119944Y0164034D01*
X0117379Y0164034D01*
X0124889Y0164465D02*
X0128133Y0164464D01*
X0128461Y0164380D01*
X0128461Y0161067D01*
X0128036Y0161043D01*
X0124296Y0161043D01*
X0125394Y0162140D01*
X0125394Y0163960D01*
X0124889Y0164465D01*
X0128133Y0164464D01*
X0128461Y0164380D01*
X0128461Y0161067D01*
X0128036Y0161043D01*
X0124296Y0161043D01*
X0125394Y0162140D01*
X0125394Y0163960D01*
X0124889Y0164465D01*
X0124928Y0164426D02*
X0128283Y0164426D01*
X0124928Y0164426D01*
X0125320Y0164034D02*
X0128461Y0164034D01*
X0125320Y0164034D01*
X0125394Y0163641D02*
X0128461Y0163641D01*
X0125394Y0163641D01*
X0125394Y0163249D02*
X0128461Y0163249D01*
X0125394Y0163249D01*
X0125394Y0162857D02*
X0128461Y0162857D01*
X0125394Y0162857D01*
X0125394Y0162465D02*
X0128461Y0162465D01*
X0125394Y0162465D01*
X0125326Y0162073D02*
X0128461Y0162073D01*
X0125326Y0162073D01*
X0124934Y0161680D02*
X0128461Y0161680D01*
X0124934Y0161680D01*
X0124542Y0161288D02*
X0128461Y0161288D01*
X0124542Y0161288D01*
X0124839Y0175586D02*
X0125394Y0176140D01*
X0125394Y0177960D01*
X0124347Y0179007D01*
X0126427Y0179007D01*
X0126732Y0175585D01*
X0124839Y0175586D01*
X0125394Y0176140D01*
X0125394Y0177960D01*
X0124347Y0179007D01*
X0126427Y0179007D01*
X0126732Y0175585D01*
X0124839Y0175586D01*
X0125054Y0175800D02*
X0126712Y0175800D01*
X0125054Y0175800D01*
X0125394Y0176192D02*
X0126677Y0176192D01*
X0125394Y0176192D01*
X0125394Y0176584D02*
X0126643Y0176584D01*
X0125394Y0176584D01*
X0125394Y0176977D02*
X0126608Y0176977D01*
X0125394Y0176977D01*
X0125394Y0177369D02*
X0126573Y0177369D01*
X0125394Y0177369D01*
X0125394Y0177761D02*
X0126538Y0177761D01*
X0125394Y0177761D01*
X0125200Y0178153D02*
X0126503Y0178153D01*
X0125200Y0178153D01*
X0124808Y0178545D02*
X0126468Y0178545D01*
X0124808Y0178545D01*
X0124416Y0178938D02*
X0126433Y0178938D01*
X0124416Y0178938D01*
X0122047Y0179007D02*
X0121000Y0177960D01*
X0121000Y0176140D01*
X0121554Y0175586D01*
X0077348Y0175593D01*
X0077017Y0175704D01*
X0076793Y0175593D01*
X0076544Y0175593D01*
X0076296Y0175346D01*
X0076140Y0175268D01*
X0075891Y0175268D01*
X0075643Y0175021D01*
X0075330Y0174865D01*
X0075251Y0174629D01*
X0028463Y0127841D01*
X0054459Y0172865D01*
X0054525Y0172890D01*
X0054743Y0173357D01*
X0055001Y0173804D01*
X0054982Y0173872D01*
X0055012Y0173937D01*
X0054835Y0174421D01*
X0054702Y0174919D01*
X0054640Y0174955D01*
X0054616Y0175021D01*
X0054148Y0175239D01*
X0053809Y0175435D01*
X0053646Y0175597D01*
X0053377Y0175597D01*
X0053133Y0175711D01*
X0052822Y0175597D01*
X0033554Y0175599D01*
X0033060Y0175722D01*
X0024380Y0179186D01*
X0023331Y0179621D01*
X0017115Y0182361D01*
X0018394Y0183640D01*
X0018394Y0185460D01*
X0017212Y0186641D01*
X0021426Y0188826D01*
X0022109Y0189158D01*
X0028489Y0192148D01*
X0036442Y0195456D01*
X0037145Y0195727D01*
X0046007Y0198918D01*
X0046718Y0199157D01*
X0057224Y0202317D01*
X0057947Y0202501D01*
X0069395Y0205224D01*
X0070125Y0205362D01*
X0082507Y0207479D01*
X0083239Y0207577D01*
X0096105Y0208859D01*
X0096231Y0208790D01*
X0096663Y0208915D01*
X0097111Y0208959D01*
X0097202Y0209071D01*
X0097254Y0209086D01*
X0097634Y0209086D01*
X0097789Y0209241D01*
X0097999Y0209302D01*
X0098182Y0209634D01*
X0098450Y0209903D01*
X0098450Y0210121D01*
X0098556Y0210313D01*
X0098450Y0210678D01*
X0098450Y0231690D01*
X0098502Y0232406D01*
X0098889Y0236246D01*
X0099006Y0236879D01*
X0100137Y0240523D01*
X0100363Y0241130D01*
X0102178Y0244473D01*
X0102517Y0245028D01*
X0104935Y0247959D01*
X0105376Y0248438D01*
X0108308Y0250857D01*
X0108833Y0251240D01*
X0112177Y0253055D01*
X0112762Y0253331D01*
X0116407Y0254462D01*
X0117030Y0254633D01*
X0121554Y0255089D01*
X0121630Y0255090D01*
X0121000Y0254460D01*
X0121000Y0252640D01*
X0121962Y0251678D01*
X0121728Y0251678D01*
X0121675Y0251624D01*
X0121521Y0251609D01*
X0121010Y0251609D01*
X0120956Y0251555D01*
X0120880Y0251548D01*
X0120555Y0251154D01*
X0120193Y0250793D01*
X0120193Y0250717D01*
X0120145Y0250658D01*
X0120193Y0250149D01*
X0120189Y0225991D01*
X0120086Y0225613D01*
X0120189Y0225434D01*
X0120189Y0225228D01*
X0120466Y0224951D01*
X0120476Y0224933D01*
X0120476Y0224727D01*
X0120753Y0224450D01*
X0120947Y0224110D01*
X0121146Y0224056D01*
X0121292Y0223911D01*
X0121451Y0223911D01*
X0121000Y0223460D01*
X0121000Y0221640D01*
X0122151Y0220489D01*
X0121762Y0220489D01*
X0121738Y0220465D01*
X0121554Y0220458D01*
X0121005Y0220458D01*
X0120982Y0220434D01*
X0120948Y0220433D01*
X0120577Y0220029D01*
X0120189Y0219642D01*
X0120189Y0219608D01*
X0120166Y0219584D01*
X0120189Y0219036D01*
X0120184Y0194898D01*
X0120071Y0194585D01*
X0120184Y0194343D01*
X0120184Y0194077D01*
X0120420Y0193841D01*
X0120436Y0193807D01*
X0120436Y0193540D01*
X0120671Y0193305D01*
X0120812Y0193003D01*
X0121063Y0192912D01*
X0121252Y0192724D01*
X0121585Y0192724D01*
X0121716Y0192676D01*
X0121000Y0191960D01*
X0121000Y0190140D01*
X0121838Y0189302D01*
X0055139Y0189302D01*
X0054907Y0189861D01*
X0054008Y0190760D01*
X0052833Y0191247D01*
X0051561Y0191247D01*
X0050386Y0190760D01*
X0049487Y0189861D01*
X0049000Y0188686D01*
X0049000Y0187414D01*
X0049487Y0186239D01*
X0050386Y0185340D01*
X0050511Y0185288D01*
X0050511Y0183312D01*
X0050386Y0183260D01*
X0049487Y0182361D01*
X0049000Y0181186D01*
X0049000Y0179914D01*
X0049487Y0178739D01*
X0050386Y0177840D01*
X0051561Y0177353D01*
X0052833Y0177353D01*
X0054008Y0177840D01*
X0054907Y0178739D01*
X0055018Y0179007D01*
X0122047Y0179007D01*
X0121000Y0177960D01*
X0121000Y0176140D01*
X0121554Y0175586D01*
X0077348Y0175593D01*
X0077017Y0175704D01*
X0076793Y0175593D01*
X0076544Y0175593D01*
X0076296Y0175346D01*
X0076140Y0175268D01*
X0075891Y0175268D01*
X0075643Y0175021D01*
X0075330Y0174865D01*
X0075251Y0174629D01*
X0028463Y0127841D01*
X0054459Y0172865D01*
X0054525Y0172890D01*
X0054743Y0173357D01*
X0055001Y0173804D01*
X0054982Y0173872D01*
X0055012Y0173937D01*
X0054835Y0174421D01*
X0054702Y0174919D01*
X0054640Y0174955D01*
X0054616Y0175021D01*
X0054148Y0175239D01*
X0053809Y0175435D01*
X0053646Y0175597D01*
X0053377Y0175597D01*
X0053133Y0175711D01*
X0052822Y0175597D01*
X0033554Y0175599D01*
X0033060Y0175722D01*
X0024380Y0179186D01*
X0023331Y0179621D01*
X0017115Y0182361D01*
X0018394Y0183640D01*
X0018394Y0185460D01*
X0017212Y0186641D01*
X0021426Y0188826D01*
X0022109Y0189158D01*
X0028489Y0192148D01*
X0036442Y0195456D01*
X0037145Y0195727D01*
X0046007Y0198918D01*
X0046718Y0199157D01*
X0057224Y0202317D01*
X0057947Y0202501D01*
X0069395Y0205224D01*
X0070125Y0205362D01*
X0082507Y0207479D01*
X0083239Y0207577D01*
X0096105Y0208859D01*
X0096231Y0208790D01*
X0096663Y0208915D01*
X0097111Y0208959D01*
X0097202Y0209071D01*
X0097254Y0209086D01*
X0097634Y0209086D01*
X0097789Y0209241D01*
X0097999Y0209302D01*
X0098182Y0209634D01*
X0098450Y0209903D01*
X0098450Y0210121D01*
X0098556Y0210313D01*
X0098450Y0210678D01*
X0098450Y0231690D01*
X0098502Y0232406D01*
X0098889Y0236246D01*
X0099006Y0236879D01*
X0100137Y0240523D01*
X0100363Y0241130D01*
X0102178Y0244473D01*
X0102517Y0245028D01*
X0104935Y0247959D01*
X0105376Y0248438D01*
X0108308Y0250857D01*
X0108833Y0251240D01*
X0112177Y0253055D01*
X0112762Y0253331D01*
X0116407Y0254462D01*
X0117030Y0254633D01*
X0121554Y0255089D01*
X0121630Y0255090D01*
X0121000Y0254460D01*
X0121000Y0252640D01*
X0121962Y0251678D01*
X0121728Y0251678D01*
X0121675Y0251624D01*
X0121521Y0251609D01*
X0121010Y0251609D01*
X0120956Y0251555D01*
X0120880Y0251548D01*
X0120555Y0251154D01*
X0120193Y0250793D01*
X0120193Y0250717D01*
X0120145Y0250658D01*
X0120193Y0250149D01*
X0120189Y0225991D01*
X0120086Y0225613D01*
X0120189Y0225434D01*
X0120189Y0225228D01*
X0120466Y0224951D01*
X0120476Y0224933D01*
X0120476Y0224727D01*
X0120753Y0224450D01*
X0120947Y0224110D01*
X0121146Y0224056D01*
X0121292Y0223911D01*
X0121451Y0223911D01*
X0121000Y0223460D01*
X0121000Y0221640D01*
X0122151Y0220489D01*
X0121762Y0220489D01*
X0121738Y0220465D01*
X0121554Y0220458D01*
X0121005Y0220458D01*
X0120982Y0220434D01*
X0120948Y0220433D01*
X0120577Y0220029D01*
X0120189Y0219642D01*
X0120189Y0219608D01*
X0120166Y0219584D01*
X0120189Y0219036D01*
X0120184Y0194898D01*
X0120071Y0194585D01*
X0120184Y0194343D01*
X0120184Y0194077D01*
X0120420Y0193841D01*
X0120436Y0193807D01*
X0120436Y0193540D01*
X0120671Y0193305D01*
X0120812Y0193003D01*
X0121063Y0192912D01*
X0121252Y0192724D01*
X0121585Y0192724D01*
X0121716Y0192676D01*
X0121000Y0191960D01*
X0121000Y0190140D01*
X0121838Y0189302D01*
X0055139Y0189302D01*
X0054907Y0189861D01*
X0054008Y0190760D01*
X0052833Y0191247D01*
X0051561Y0191247D01*
X0050386Y0190760D01*
X0049487Y0189861D01*
X0049000Y0188686D01*
X0049000Y0187414D01*
X0049487Y0186239D01*
X0050386Y0185340D01*
X0050511Y0185288D01*
X0050511Y0183312D01*
X0050386Y0183260D01*
X0049487Y0182361D01*
X0049000Y0181186D01*
X0049000Y0179914D01*
X0049487Y0178739D01*
X0050386Y0177840D01*
X0051561Y0177353D01*
X0052833Y0177353D01*
X0054008Y0177840D01*
X0054907Y0178739D01*
X0055018Y0179007D01*
X0122047Y0179007D01*
X0121978Y0178938D02*
X0054989Y0178938D01*
X0121978Y0178938D01*
X0121585Y0178545D02*
X0054713Y0178545D01*
X0121585Y0178545D01*
X0121193Y0178153D02*
X0054321Y0178153D01*
X0121193Y0178153D01*
X0121000Y0177761D02*
X0053817Y0177761D01*
X0121000Y0177761D01*
X0121000Y0177369D02*
X0052871Y0177369D01*
X0121000Y0177369D01*
X0121000Y0176977D02*
X0029917Y0176977D01*
X0121000Y0176977D01*
X0121000Y0176584D02*
X0030900Y0176584D01*
X0121000Y0176584D01*
X0121000Y0176192D02*
X0031882Y0176192D01*
X0121000Y0176192D01*
X0121340Y0175800D02*
X0032865Y0175800D01*
X0121340Y0175800D01*
X0121613Y0189527D02*
X0055045Y0189527D01*
X0121613Y0189527D01*
X0121220Y0189920D02*
X0054848Y0189920D01*
X0121220Y0189920D01*
X0121000Y0190312D02*
X0054456Y0190312D01*
X0121000Y0190312D01*
X0121000Y0190704D02*
X0054064Y0190704D01*
X0121000Y0190704D01*
X0121000Y0191096D02*
X0053196Y0191096D01*
X0121000Y0191096D01*
X0121000Y0191488D02*
X0027082Y0191488D01*
X0121000Y0191488D01*
X0121000Y0191881D02*
X0027919Y0191881D01*
X0121000Y0191881D01*
X0121313Y0192273D02*
X0028789Y0192273D01*
X0121313Y0192273D01*
X0121705Y0192665D02*
X0029732Y0192665D01*
X0121705Y0192665D01*
X0120787Y0193057D02*
X0030675Y0193057D01*
X0120787Y0193057D01*
X0120526Y0193450D02*
X0031618Y0193450D01*
X0120526Y0193450D01*
X0120419Y0193842D02*
X0032561Y0193842D01*
X0120419Y0193842D01*
X0120184Y0194234D02*
X0033505Y0194234D01*
X0120184Y0194234D01*
X0120086Y0194626D02*
X0034448Y0194626D01*
X0120086Y0194626D01*
X0120184Y0195018D02*
X0035391Y0195018D01*
X0120184Y0195018D01*
X0120185Y0195411D02*
X0036334Y0195411D01*
X0120185Y0195411D01*
X0120185Y0195803D02*
X0037355Y0195803D01*
X0120185Y0195803D01*
X0120185Y0196195D02*
X0038444Y0196195D01*
X0120185Y0196195D01*
X0120185Y0196587D02*
X0039534Y0196587D01*
X0120185Y0196587D01*
X0120185Y0196979D02*
X0040623Y0196979D01*
X0120185Y0196979D01*
X0120185Y0197372D02*
X0041713Y0197372D01*
X0120185Y0197372D01*
X0120185Y0197764D02*
X0042802Y0197764D01*
X0120185Y0197764D01*
X0120185Y0198156D02*
X0043892Y0198156D01*
X0120185Y0198156D01*
X0120185Y0198548D02*
X0044981Y0198548D01*
X0120185Y0198548D01*
X0120185Y0198940D02*
X0046075Y0198940D01*
X0120185Y0198940D01*
X0120185Y0199333D02*
X0047300Y0199333D01*
X0120185Y0199333D01*
X0120185Y0199725D02*
X0048604Y0199725D01*
X0120185Y0199725D01*
X0120185Y0200117D02*
X0049908Y0200117D01*
X0120185Y0200117D01*
X0120185Y0200509D02*
X0051212Y0200509D01*
X0120185Y0200509D01*
X0120185Y0200902D02*
X0052517Y0200902D01*
X0120185Y0200902D01*
X0120186Y0201294D02*
X0053821Y0201294D01*
X0120186Y0201294D01*
X0120186Y0201686D02*
X0055125Y0201686D01*
X0120186Y0201686D01*
X0120186Y0202078D02*
X0056429Y0202078D01*
X0120186Y0202078D01*
X0120186Y0202470D02*
X0057825Y0202470D01*
X0120186Y0202470D01*
X0120186Y0202863D02*
X0059465Y0202863D01*
X0120186Y0202863D01*
X0120186Y0203255D02*
X0061114Y0203255D01*
X0120186Y0203255D01*
X0120186Y0203647D02*
X0062763Y0203647D01*
X0120186Y0203647D01*
X0120186Y0204039D02*
X0064412Y0204039D01*
X0120186Y0204039D01*
X0120186Y0204431D02*
X0066061Y0204431D01*
X0120186Y0204431D01*
X0120186Y0204824D02*
X0067710Y0204824D01*
X0120186Y0204824D01*
X0120186Y0205216D02*
X0069359Y0205216D01*
X0120186Y0205216D01*
X0120186Y0205608D02*
X0071566Y0205608D01*
X0120186Y0205608D01*
X0120186Y0206000D02*
X0073860Y0206000D01*
X0120186Y0206000D01*
X0120186Y0206393D02*
X0076154Y0206393D01*
X0120186Y0206393D01*
X0120187Y0206785D02*
X0078448Y0206785D01*
X0120187Y0206785D01*
X0120187Y0207177D02*
X0080743Y0207177D01*
X0120187Y0207177D01*
X0120187Y0207569D02*
X0083184Y0207569D01*
X0120187Y0207569D01*
X0120187Y0207961D02*
X0087099Y0207961D01*
X0120187Y0207961D01*
X0120187Y0208354D02*
X0091033Y0208354D01*
X0120187Y0208354D01*
X0120187Y0208746D02*
X0094968Y0208746D01*
X0120187Y0208746D01*
X0120187Y0209138D02*
X0097686Y0209138D01*
X0120187Y0209138D01*
X0120187Y0209530D02*
X0098125Y0209530D01*
X0120187Y0209530D01*
X0120187Y0209922D02*
X0098450Y0209922D01*
X0120187Y0209922D01*
X0120187Y0210315D02*
X0098556Y0210315D01*
X0120187Y0210315D01*
X0120187Y0210707D02*
X0098450Y0210707D01*
X0120187Y0210707D01*
X0120187Y0211099D02*
X0098450Y0211099D01*
X0120187Y0211099D01*
X0120187Y0211491D02*
X0098450Y0211491D01*
X0120187Y0211491D01*
X0120187Y0211883D02*
X0098450Y0211883D01*
X0120187Y0211883D01*
X0120187Y0212276D02*
X0098450Y0212276D01*
X0120187Y0212276D01*
X0120188Y0212668D02*
X0098450Y0212668D01*
X0120188Y0212668D01*
X0120188Y0213060D02*
X0098450Y0213060D01*
X0120188Y0213060D01*
X0120188Y0213452D02*
X0098450Y0213452D01*
X0120188Y0213452D01*
X0120188Y0213845D02*
X0098450Y0213845D01*
X0120188Y0213845D01*
X0120188Y0214237D02*
X0098450Y0214237D01*
X0120188Y0214237D01*
X0120188Y0214629D02*
X0098450Y0214629D01*
X0120188Y0214629D01*
X0120188Y0215021D02*
X0098450Y0215021D01*
X0120188Y0215021D01*
X0120188Y0215413D02*
X0098450Y0215413D01*
X0120188Y0215413D01*
X0120188Y0215806D02*
X0098450Y0215806D01*
X0120188Y0215806D01*
X0120188Y0216198D02*
X0098450Y0216198D01*
X0120188Y0216198D01*
X0120188Y0216590D02*
X0098450Y0216590D01*
X0120188Y0216590D01*
X0120188Y0216982D02*
X0098450Y0216982D01*
X0120188Y0216982D01*
X0120188Y0217374D02*
X0098450Y0217374D01*
X0120188Y0217374D01*
X0120188Y0217767D02*
X0098450Y0217767D01*
X0120188Y0217767D01*
X0120188Y0218159D02*
X0098450Y0218159D01*
X0120188Y0218159D01*
X0120189Y0218551D02*
X0098450Y0218551D01*
X0120189Y0218551D01*
X0120189Y0218943D02*
X0098450Y0218943D01*
X0120189Y0218943D01*
X0120176Y0219336D02*
X0098450Y0219336D01*
X0120176Y0219336D01*
X0120275Y0219728D02*
X0098450Y0219728D01*
X0120275Y0219728D01*
X0120660Y0220120D02*
X0098450Y0220120D01*
X0120660Y0220120D01*
X0121736Y0220904D02*
X0098450Y0220904D01*
X0121736Y0220904D01*
X0122128Y0220512D02*
X0098450Y0220512D01*
X0122128Y0220512D01*
X0121343Y0221297D02*
X0098450Y0221297D01*
X0121343Y0221297D01*
X0121000Y0221689D02*
X0098450Y0221689D01*
X0121000Y0221689D01*
X0121000Y0222081D02*
X0098450Y0222081D01*
X0121000Y0222081D01*
X0121000Y0222473D02*
X0098450Y0222473D01*
X0121000Y0222473D01*
X0121000Y0222865D02*
X0098450Y0222865D01*
X0121000Y0222865D01*
X0121000Y0223258D02*
X0098450Y0223258D01*
X0121000Y0223258D01*
X0121190Y0223650D02*
X0098450Y0223650D01*
X0121190Y0223650D01*
X0121161Y0224042D02*
X0098450Y0224042D01*
X0121161Y0224042D01*
X0120762Y0224434D02*
X0098450Y0224434D01*
X0120762Y0224434D01*
X0120476Y0224826D02*
X0098450Y0224826D01*
X0120476Y0224826D01*
X0120198Y0225219D02*
X0098450Y0225219D01*
X0120198Y0225219D01*
X0120087Y0225611D02*
X0098450Y0225611D01*
X0120087Y0225611D01*
X0120189Y0226003D02*
X0098450Y0226003D01*
X0120189Y0226003D01*
X0120189Y0226395D02*
X0098450Y0226395D01*
X0120189Y0226395D01*
X0120189Y0226788D02*
X0098450Y0226788D01*
X0120189Y0226788D01*
X0120189Y0227180D02*
X0098450Y0227180D01*
X0120189Y0227180D01*
X0120189Y0227572D02*
X0098450Y0227572D01*
X0120189Y0227572D01*
X0120189Y0227964D02*
X0098450Y0227964D01*
X0120189Y0227964D01*
X0120189Y0228356D02*
X0098450Y0228356D01*
X0120189Y0228356D01*
X0120189Y0228749D02*
X0098450Y0228749D01*
X0120189Y0228749D01*
X0120189Y0229141D02*
X0098450Y0229141D01*
X0120189Y0229141D01*
X0120190Y0229533D02*
X0098450Y0229533D01*
X0120190Y0229533D01*
X0120190Y0229925D02*
X0098450Y0229925D01*
X0120190Y0229925D01*
X0120190Y0230317D02*
X0098450Y0230317D01*
X0120190Y0230317D01*
X0120190Y0230710D02*
X0098450Y0230710D01*
X0120190Y0230710D01*
X0120190Y0231102D02*
X0098450Y0231102D01*
X0120190Y0231102D01*
X0120190Y0231494D02*
X0098450Y0231494D01*
X0120190Y0231494D01*
X0120190Y0231886D02*
X0098464Y0231886D01*
X0120190Y0231886D01*
X0120190Y0232279D02*
X0098493Y0232279D01*
X0120190Y0232279D01*
X0120190Y0232671D02*
X0098529Y0232671D01*
X0120190Y0232671D01*
X0120190Y0233063D02*
X0098568Y0233063D01*
X0120190Y0233063D01*
X0120190Y0233455D02*
X0098608Y0233455D01*
X0120190Y0233455D01*
X0120190Y0233847D02*
X0098647Y0233847D01*
X0120190Y0233847D01*
X0120190Y0234240D02*
X0098687Y0234240D01*
X0120190Y0234240D01*
X0120190Y0234632D02*
X0098726Y0234632D01*
X0120190Y0234632D01*
X0120190Y0235024D02*
X0098766Y0235024D01*
X0120190Y0235024D01*
X0120191Y0235416D02*
X0098805Y0235416D01*
X0120191Y0235416D01*
X0120191Y0235808D02*
X0098845Y0235808D01*
X0120191Y0235808D01*
X0120191Y0236201D02*
X0098885Y0236201D01*
X0120191Y0236201D01*
X0120191Y0236593D02*
X0098953Y0236593D01*
X0120191Y0236593D01*
X0120191Y0236985D02*
X0099039Y0236985D01*
X0120191Y0236985D01*
X0120191Y0237377D02*
X0099160Y0237377D01*
X0120191Y0237377D01*
X0120191Y0237769D02*
X0099282Y0237769D01*
X0120191Y0237769D01*
X0120191Y0238162D02*
X0099404Y0238162D01*
X0120191Y0238162D01*
X0120191Y0238554D02*
X0099526Y0238554D01*
X0120191Y0238554D01*
X0120191Y0238946D02*
X0099647Y0238946D01*
X0120191Y0238946D01*
X0120191Y0239338D02*
X0099769Y0239338D01*
X0120191Y0239338D01*
X0120191Y0239731D02*
X0099891Y0239731D01*
X0120191Y0239731D01*
X0120191Y0240123D02*
X0100013Y0240123D01*
X0120191Y0240123D01*
X0120191Y0240515D02*
X0100134Y0240515D01*
X0120191Y0240515D01*
X0120191Y0240907D02*
X0100280Y0240907D01*
X0120191Y0240907D01*
X0120192Y0241299D02*
X0100455Y0241299D01*
X0120192Y0241299D01*
X0120192Y0241692D02*
X0100668Y0241692D01*
X0120192Y0241692D01*
X0120192Y0242084D02*
X0100881Y0242084D01*
X0120192Y0242084D01*
X0120192Y0242476D02*
X0101094Y0242476D01*
X0120192Y0242476D01*
X0120192Y0242868D02*
X0101307Y0242868D01*
X0120192Y0242868D01*
X0120192Y0243260D02*
X0101520Y0243260D01*
X0120192Y0243260D01*
X0120192Y0243653D02*
X0101732Y0243653D01*
X0120192Y0243653D01*
X0120192Y0244045D02*
X0101945Y0244045D01*
X0120192Y0244045D01*
X0120192Y0244437D02*
X0102158Y0244437D01*
X0120192Y0244437D01*
X0120192Y0244829D02*
X0102395Y0244829D01*
X0120192Y0244829D01*
X0120192Y0245222D02*
X0102676Y0245222D01*
X0120192Y0245222D01*
X0120192Y0245614D02*
X0103000Y0245614D01*
X0120192Y0245614D01*
X0120192Y0246006D02*
X0103323Y0246006D01*
X0120192Y0246006D01*
X0120192Y0246398D02*
X0103647Y0246398D01*
X0120192Y0246398D01*
X0120193Y0246790D02*
X0103971Y0246790D01*
X0120193Y0246790D01*
X0120193Y0247183D02*
X0104294Y0247183D01*
X0120193Y0247183D01*
X0120193Y0247575D02*
X0104618Y0247575D01*
X0120193Y0247575D01*
X0120193Y0247967D02*
X0104942Y0247967D01*
X0120193Y0247967D01*
X0120193Y0248359D02*
X0105304Y0248359D01*
X0120193Y0248359D01*
X0120193Y0248751D02*
X0105756Y0248751D01*
X0120193Y0248751D01*
X0120193Y0249144D02*
X0106232Y0249144D01*
X0120193Y0249144D01*
X0120193Y0249536D02*
X0106707Y0249536D01*
X0120193Y0249536D01*
X0120193Y0249928D02*
X0107182Y0249928D01*
X0120193Y0249928D01*
X0120177Y0250320D02*
X0107658Y0250320D01*
X0120177Y0250320D01*
X0120190Y0250712D02*
X0108133Y0250712D01*
X0120190Y0250712D01*
X0120505Y0251105D02*
X0108648Y0251105D01*
X0120505Y0251105D01*
X0120838Y0251497D02*
X0109307Y0251497D01*
X0120838Y0251497D01*
X0121359Y0252281D02*
X0110752Y0252281D01*
X0121359Y0252281D01*
X0121000Y0252674D02*
X0111475Y0252674D01*
X0121000Y0252674D01*
X0121000Y0253066D02*
X0112200Y0253066D01*
X0121000Y0253066D01*
X0121000Y0253458D02*
X0113172Y0253458D01*
X0121000Y0253458D01*
X0121000Y0253850D02*
X0114435Y0253850D01*
X0121000Y0253850D01*
X0121000Y0254242D02*
X0115699Y0254242D01*
X0121000Y0254242D01*
X0121175Y0254635D02*
X0117046Y0254635D01*
X0121175Y0254635D01*
X0120936Y0255027D02*
X0121567Y0255027D01*
X0120936Y0255027D01*
X0121751Y0251889D02*
X0110029Y0251889D01*
X0121751Y0251889D01*
X0124431Y0251678D02*
X0125394Y0252640D01*
X0125394Y0254460D01*
X0124754Y0255099D01*
X0126340Y0255099D01*
X0126365Y0251678D01*
X0124431Y0251678D01*
X0125394Y0252640D01*
X0125394Y0254460D01*
X0124754Y0255099D01*
X0126340Y0255099D01*
X0126365Y0251678D01*
X0124431Y0251678D01*
X0124643Y0251889D02*
X0126363Y0251889D01*
X0124643Y0251889D01*
X0125035Y0252281D02*
X0126360Y0252281D01*
X0125035Y0252281D01*
X0125394Y0252674D02*
X0126358Y0252674D01*
X0125394Y0252674D01*
X0125394Y0253066D02*
X0126355Y0253066D01*
X0125394Y0253066D01*
X0125394Y0253458D02*
X0126352Y0253458D01*
X0125394Y0253458D01*
X0125394Y0253850D02*
X0126349Y0253850D01*
X0125394Y0253850D01*
X0125394Y0254242D02*
X0126346Y0254242D01*
X0125394Y0254242D01*
X0125219Y0254635D02*
X0126344Y0254635D01*
X0125219Y0254635D01*
X0124827Y0255027D02*
X0126341Y0255027D01*
X0124827Y0255027D01*
X0123974Y0266221D02*
X0124894Y0267140D01*
X0124894Y0268960D01*
X0124211Y0269642D01*
X0126410Y0269642D01*
X0126566Y0266220D01*
X0123974Y0266221D01*
X0124894Y0267140D01*
X0124894Y0268960D01*
X0124211Y0269642D01*
X0126410Y0269642D01*
X0126566Y0266220D01*
X0123974Y0266221D01*
X0124155Y0266401D02*
X0126557Y0266401D01*
X0124155Y0266401D01*
X0124547Y0266793D02*
X0126540Y0266793D01*
X0124547Y0266793D01*
X0124894Y0267185D02*
X0126522Y0267185D01*
X0124894Y0267185D01*
X0124894Y0267578D02*
X0126504Y0267578D01*
X0124894Y0267578D01*
X0124894Y0267970D02*
X0126486Y0267970D01*
X0124894Y0267970D01*
X0124894Y0268362D02*
X0126468Y0268362D01*
X0124894Y0268362D01*
X0124894Y0268754D02*
X0126450Y0268754D01*
X0124894Y0268754D01*
X0124707Y0269146D02*
X0126432Y0269146D01*
X0124707Y0269146D01*
X0124315Y0269539D02*
X0126414Y0269539D01*
X0124315Y0269539D01*
X0121182Y0269642D02*
X0120500Y0268960D01*
X0120500Y0267140D01*
X0121419Y0266221D01*
X0076946Y0266228D01*
X0076426Y0266270D01*
X0076377Y0266229D01*
X0076313Y0266229D01*
X0075944Y0265860D01*
X0075795Y0265733D01*
X0075730Y0265733D01*
X0075362Y0265364D01*
X0074965Y0265027D01*
X0074960Y0264962D01*
X0028473Y0218476D01*
X0054163Y0262971D01*
X0054169Y0262973D01*
X0054451Y0263471D01*
X0054737Y0263966D01*
X0054736Y0263972D01*
X0054744Y0263987D01*
X0055019Y0264261D01*
X0055019Y0264471D01*
X0055122Y0264653D01*
X0055019Y0265028D01*
X0055019Y0265416D01*
X0054871Y0265564D01*
X0054815Y0265766D01*
X0054477Y0265958D01*
X0054203Y0266232D01*
X0053993Y0266232D01*
X0053811Y0266336D01*
X0053437Y0266233D01*
X0033406Y0266235D01*
X0032921Y0266417D01*
X0024171Y0269909D01*
X0023096Y0270364D01*
X0016777Y0273149D01*
X0016513Y0273353D01*
X0016607Y0273353D01*
X0017894Y0274640D01*
X0017894Y0276460D01*
X0017127Y0277226D01*
X0021724Y0279608D01*
X0028104Y0282598D01*
X0028795Y0282905D01*
X0036746Y0286213D01*
X0046316Y0289661D01*
X0047032Y0289884D01*
X0056069Y0292602D01*
X0057542Y0293037D01*
X0068989Y0295761D01*
X0069713Y0295925D01*
X0082823Y0298166D01*
X0096383Y0299521D01*
X0096449Y0299477D01*
X0096947Y0299577D01*
X0097453Y0299628D01*
X0097503Y0299689D01*
X0097581Y0299705D01*
X0097862Y0300128D01*
X0098184Y0300522D01*
X0098177Y0300589D01*
X0098460Y0300872D01*
X0098460Y0301028D01*
X0098547Y0301158D01*
X0098460Y0301588D01*
X0098460Y0321912D01*
X0098471Y0322629D01*
X0098927Y0327154D01*
X0099097Y0327777D01*
X0100229Y0331422D01*
X0100505Y0332007D01*
X0102320Y0335351D01*
X0102703Y0335877D01*
X0105121Y0338808D01*
X0105600Y0339250D01*
X0108531Y0341668D01*
X0109086Y0342007D01*
X0112429Y0343822D01*
X0113036Y0344048D01*
X0116679Y0345179D01*
X0117312Y0345296D01*
X0121153Y0345682D01*
X0121766Y0345726D01*
X0121000Y0344960D01*
X0121000Y0343140D01*
X0121827Y0342313D01*
X0121823Y0342311D01*
X0121556Y0342311D01*
X0121320Y0342075D01*
X0121286Y0342060D01*
X0121020Y0342060D01*
X0120784Y0341824D01*
X0120483Y0341683D01*
X0120392Y0341432D01*
X0120203Y0341243D01*
X0120203Y0340910D01*
X0120090Y0340597D01*
X0120203Y0340356D01*
X0120199Y0316679D01*
X0120114Y0316551D01*
X0120199Y0316119D01*
X0120199Y0315678D01*
X0120308Y0315570D01*
X0120338Y0315419D01*
X0120704Y0315173D01*
X0121015Y0314862D01*
X0121169Y0314862D01*
X0121175Y0314858D01*
X0121487Y0314546D01*
X0121586Y0314546D01*
X0121000Y0313960D01*
X0121000Y0312140D01*
X0122016Y0311124D01*
X0121643Y0311124D01*
X0121090Y0311143D01*
X0121069Y0311124D01*
X0121041Y0311124D01*
X0120650Y0310733D01*
X0120246Y0310355D01*
X0120245Y0310327D01*
X0120225Y0310308D01*
X0120225Y0309754D01*
X0120218Y0309566D01*
X0120199Y0309546D01*
X0120199Y0308993D01*
X0120180Y0308440D01*
X0120199Y0308420D01*
X0120195Y0285679D01*
X0120084Y0285460D01*
X0120195Y0285123D01*
X0120195Y0284769D01*
X0120368Y0284596D01*
X0120389Y0284530D01*
X0120389Y0284175D01*
X0120562Y0284002D01*
X0120638Y0283770D01*
X0120955Y0283610D01*
X0121206Y0283359D01*
X0121450Y0283359D01*
X0121668Y0283248D01*
X0121847Y0283307D01*
X0121000Y0282460D01*
X0121000Y0280640D01*
X0121703Y0279937D01*
X0054790Y0279937D01*
X0054407Y0280861D01*
X0053508Y0281760D01*
X0052333Y0282247D01*
X0051061Y0282247D01*
X0049886Y0281760D01*
X0048987Y0280861D01*
X0048500Y0279686D01*
X0048500Y0278414D01*
X0048987Y0277239D01*
X0049886Y0276340D01*
X0050521Y0276077D01*
X0050521Y0274023D01*
X0049886Y0273760D01*
X0048987Y0272861D01*
X0048500Y0271686D01*
X0048500Y0270414D01*
X0048987Y0269239D01*
X0049886Y0268340D01*
X0051061Y0267853D01*
X0052333Y0267853D01*
X0053508Y0268340D01*
X0054407Y0269239D01*
X0054574Y0269642D01*
X0121182Y0269642D01*
X0120500Y0268960D01*
X0120500Y0267140D01*
X0121419Y0266221D01*
X0076946Y0266228D01*
X0076426Y0266270D01*
X0076377Y0266229D01*
X0076313Y0266229D01*
X0075944Y0265860D01*
X0075795Y0265733D01*
X0075730Y0265733D01*
X0075362Y0265364D01*
X0074965Y0265027D01*
X0074960Y0264962D01*
X0028473Y0218476D01*
X0054163Y0262971D01*
X0054169Y0262973D01*
X0054451Y0263471D01*
X0054737Y0263966D01*
X0054736Y0263972D01*
X0054744Y0263987D01*
X0055019Y0264261D01*
X0055019Y0264471D01*
X0055122Y0264653D01*
X0055019Y0265028D01*
X0055019Y0265416D01*
X0054871Y0265564D01*
X0054815Y0265766D01*
X0054477Y0265958D01*
X0054203Y0266232D01*
X0053993Y0266232D01*
X0053811Y0266336D01*
X0053437Y0266233D01*
X0033406Y0266235D01*
X0032921Y0266417D01*
X0024171Y0269909D01*
X0023096Y0270364D01*
X0016777Y0273149D01*
X0016513Y0273353D01*
X0016607Y0273353D01*
X0017894Y0274640D01*
X0017894Y0276460D01*
X0017127Y0277226D01*
X0021724Y0279608D01*
X0028104Y0282598D01*
X0028795Y0282905D01*
X0036746Y0286213D01*
X0046316Y0289661D01*
X0047032Y0289884D01*
X0056069Y0292602D01*
X0057542Y0293037D01*
X0068989Y0295761D01*
X0069713Y0295925D01*
X0082823Y0298166D01*
X0096383Y0299521D01*
X0096449Y0299477D01*
X0096947Y0299577D01*
X0097453Y0299628D01*
X0097503Y0299689D01*
X0097581Y0299705D01*
X0097862Y0300128D01*
X0098184Y0300522D01*
X0098177Y0300589D01*
X0098460Y0300872D01*
X0098460Y0301028D01*
X0098547Y0301158D01*
X0098460Y0301588D01*
X0098460Y0321912D01*
X0098471Y0322629D01*
X0098927Y0327154D01*
X0099097Y0327777D01*
X0100229Y0331422D01*
X0100505Y0332007D01*
X0102320Y0335351D01*
X0102703Y0335877D01*
X0105121Y0338808D01*
X0105600Y0339250D01*
X0108531Y0341668D01*
X0109086Y0342007D01*
X0112429Y0343822D01*
X0113036Y0344048D01*
X0116679Y0345179D01*
X0117312Y0345296D01*
X0121153Y0345682D01*
X0121766Y0345726D01*
X0121000Y0344960D01*
X0121000Y0343140D01*
X0121827Y0342313D01*
X0121823Y0342311D01*
X0121556Y0342311D01*
X0121320Y0342075D01*
X0121286Y0342060D01*
X0121020Y0342060D01*
X0120784Y0341824D01*
X0120483Y0341683D01*
X0120392Y0341432D01*
X0120203Y0341243D01*
X0120203Y0340910D01*
X0120090Y0340597D01*
X0120203Y0340356D01*
X0120199Y0316679D01*
X0120114Y0316551D01*
X0120199Y0316119D01*
X0120199Y0315678D01*
X0120308Y0315570D01*
X0120338Y0315419D01*
X0120704Y0315173D01*
X0121015Y0314862D01*
X0121169Y0314862D01*
X0121175Y0314858D01*
X0121487Y0314546D01*
X0121586Y0314546D01*
X0121000Y0313960D01*
X0121000Y0312140D01*
X0122016Y0311124D01*
X0121643Y0311124D01*
X0121090Y0311143D01*
X0121069Y0311124D01*
X0121041Y0311124D01*
X0120650Y0310733D01*
X0120246Y0310355D01*
X0120245Y0310327D01*
X0120225Y0310308D01*
X0120225Y0309754D01*
X0120218Y0309566D01*
X0120199Y0309546D01*
X0120199Y0308993D01*
X0120180Y0308440D01*
X0120199Y0308420D01*
X0120195Y0285679D01*
X0120084Y0285460D01*
X0120195Y0285123D01*
X0120195Y0284769D01*
X0120368Y0284596D01*
X0120389Y0284530D01*
X0120389Y0284175D01*
X0120562Y0284002D01*
X0120638Y0283770D01*
X0120955Y0283610D01*
X0121206Y0283359D01*
X0121450Y0283359D01*
X0121668Y0283248D01*
X0121847Y0283307D01*
X0121000Y0282460D01*
X0121000Y0280640D01*
X0121703Y0279937D01*
X0054790Y0279937D01*
X0054407Y0280861D01*
X0053508Y0281760D01*
X0052333Y0282247D01*
X0051061Y0282247D01*
X0049886Y0281760D01*
X0048987Y0280861D01*
X0048500Y0279686D01*
X0048500Y0278414D01*
X0048987Y0277239D01*
X0049886Y0276340D01*
X0050521Y0276077D01*
X0050521Y0274023D01*
X0049886Y0273760D01*
X0048987Y0272861D01*
X0048500Y0271686D01*
X0048500Y0270414D01*
X0048987Y0269239D01*
X0049886Y0268340D01*
X0051061Y0267853D01*
X0052333Y0267853D01*
X0053508Y0268340D01*
X0054407Y0269239D01*
X0054574Y0269642D01*
X0121182Y0269642D01*
X0121079Y0269539D02*
X0054531Y0269539D01*
X0121079Y0269539D01*
X0120686Y0269146D02*
X0054314Y0269146D01*
X0120686Y0269146D01*
X0120500Y0268754D02*
X0053922Y0268754D01*
X0120500Y0268754D01*
X0120500Y0268362D02*
X0053530Y0268362D01*
X0120500Y0268362D01*
X0120500Y0267970D02*
X0052614Y0267970D01*
X0120500Y0267970D01*
X0120500Y0267578D02*
X0030012Y0267578D01*
X0120500Y0267578D01*
X0120500Y0267185D02*
X0030995Y0267185D01*
X0120500Y0267185D01*
X0120847Y0266793D02*
X0031978Y0266793D01*
X0120847Y0266793D01*
X0121239Y0266401D02*
X0032963Y0266401D01*
X0121239Y0266401D01*
X0121512Y0280128D02*
X0054710Y0280128D01*
X0121512Y0280128D01*
X0121119Y0280521D02*
X0054548Y0280521D01*
X0121119Y0280521D01*
X0121000Y0280913D02*
X0054355Y0280913D01*
X0121000Y0280913D01*
X0121000Y0281305D02*
X0053963Y0281305D01*
X0121000Y0281305D01*
X0121000Y0281697D02*
X0053571Y0281697D01*
X0121000Y0281697D01*
X0121000Y0282089D02*
X0052713Y0282089D01*
X0121000Y0282089D01*
X0121022Y0282482D02*
X0027856Y0282482D01*
X0121022Y0282482D01*
X0121414Y0282874D02*
X0028724Y0282874D01*
X0121414Y0282874D01*
X0121633Y0283266D02*
X0029662Y0283266D01*
X0121633Y0283266D01*
X0121722Y0283266D02*
X0121806Y0283266D01*
X0121722Y0283266D01*
X0120859Y0283658D02*
X0030605Y0283658D01*
X0120859Y0283658D01*
X0120514Y0284051D02*
X0031548Y0284051D01*
X0120514Y0284051D01*
X0120389Y0284443D02*
X0032490Y0284443D01*
X0120389Y0284443D01*
X0120195Y0284835D02*
X0033433Y0284835D01*
X0120195Y0284835D01*
X0120161Y0285227D02*
X0034376Y0285227D01*
X0120161Y0285227D01*
X0120165Y0285619D02*
X0035319Y0285619D01*
X0120165Y0285619D01*
X0120195Y0286012D02*
X0036262Y0286012D01*
X0120195Y0286012D01*
X0120195Y0286404D02*
X0037275Y0286404D01*
X0120195Y0286404D01*
X0120195Y0286796D02*
X0038364Y0286796D01*
X0120195Y0286796D01*
X0120195Y0287188D02*
X0039453Y0287188D01*
X0120195Y0287188D01*
X0120195Y0287580D02*
X0040542Y0287580D01*
X0120195Y0287580D01*
X0120195Y0287973D02*
X0041630Y0287973D01*
X0120195Y0287973D01*
X0120195Y0288365D02*
X0042719Y0288365D01*
X0120195Y0288365D01*
X0120196Y0288757D02*
X0043808Y0288757D01*
X0120196Y0288757D01*
X0120196Y0289149D02*
X0044897Y0289149D01*
X0120196Y0289149D01*
X0120196Y0289541D02*
X0045985Y0289541D01*
X0120196Y0289541D01*
X0120196Y0289934D02*
X0047198Y0289934D01*
X0120196Y0289934D01*
X0120196Y0290326D02*
X0048502Y0290326D01*
X0120196Y0290326D01*
X0120196Y0290718D02*
X0049806Y0290718D01*
X0120196Y0290718D01*
X0120196Y0291110D02*
X0051110Y0291110D01*
X0120196Y0291110D01*
X0120196Y0291503D02*
X0052413Y0291503D01*
X0120196Y0291503D01*
X0120196Y0291895D02*
X0053717Y0291895D01*
X0120196Y0291895D01*
X0120196Y0292287D02*
X0055021Y0292287D01*
X0120196Y0292287D01*
X0120196Y0292679D02*
X0056329Y0292679D01*
X0120196Y0292679D01*
X0120196Y0293071D02*
X0057684Y0293071D01*
X0120196Y0293071D01*
X0120196Y0293464D02*
X0059333Y0293464D01*
X0120196Y0293464D01*
X0120196Y0293856D02*
X0060982Y0293856D01*
X0120196Y0293856D01*
X0120196Y0294248D02*
X0062630Y0294248D01*
X0120196Y0294248D01*
X0120196Y0294640D02*
X0064279Y0294640D01*
X0120196Y0294640D01*
X0120196Y0295032D02*
X0065928Y0295032D01*
X0120196Y0295032D01*
X0120197Y0295425D02*
X0067576Y0295425D01*
X0120197Y0295425D01*
X0120197Y0295817D02*
X0069237Y0295817D01*
X0120197Y0295817D01*
X0120197Y0296209D02*
X0071377Y0296209D01*
X0120197Y0296209D01*
X0120197Y0296601D02*
X0073671Y0296601D01*
X0120197Y0296601D01*
X0120197Y0296994D02*
X0075964Y0296994D01*
X0120197Y0296994D01*
X0120197Y0297386D02*
X0078258Y0297386D01*
X0120197Y0297386D01*
X0120197Y0297778D02*
X0080552Y0297778D01*
X0120197Y0297778D01*
X0120197Y0298170D02*
X0082862Y0298170D01*
X0120197Y0298170D01*
X0120197Y0298562D02*
X0086787Y0298562D01*
X0120197Y0298562D01*
X0120197Y0298955D02*
X0090713Y0298955D01*
X0120197Y0298955D01*
X0120197Y0299347D02*
X0094638Y0299347D01*
X0120197Y0299347D01*
X0120197Y0299739D02*
X0097603Y0299739D01*
X0120197Y0299739D01*
X0120197Y0300131D02*
X0097865Y0300131D01*
X0120197Y0300131D01*
X0120197Y0300523D02*
X0098184Y0300523D01*
X0120197Y0300523D01*
X0120197Y0300916D02*
X0098460Y0300916D01*
X0120197Y0300916D01*
X0120197Y0301308D02*
X0098517Y0301308D01*
X0120197Y0301308D01*
X0120198Y0301700D02*
X0098460Y0301700D01*
X0120198Y0301700D01*
X0120198Y0302092D02*
X0098460Y0302092D01*
X0120198Y0302092D01*
X0120198Y0302484D02*
X0098460Y0302484D01*
X0120198Y0302484D01*
X0120198Y0302877D02*
X0098460Y0302877D01*
X0120198Y0302877D01*
X0120198Y0303269D02*
X0098460Y0303269D01*
X0120198Y0303269D01*
X0120198Y0303661D02*
X0098460Y0303661D01*
X0120198Y0303661D01*
X0120198Y0304053D02*
X0098460Y0304053D01*
X0120198Y0304053D01*
X0120198Y0304446D02*
X0098460Y0304446D01*
X0120198Y0304446D01*
X0120198Y0304838D02*
X0098460Y0304838D01*
X0120198Y0304838D01*
X0120198Y0305230D02*
X0098460Y0305230D01*
X0120198Y0305230D01*
X0120198Y0305622D02*
X0098460Y0305622D01*
X0120198Y0305622D01*
X0120198Y0306014D02*
X0098460Y0306014D01*
X0120198Y0306014D01*
X0120198Y0306407D02*
X0098460Y0306407D01*
X0120198Y0306407D01*
X0120198Y0306799D02*
X0098460Y0306799D01*
X0120198Y0306799D01*
X0120198Y0307191D02*
X0098460Y0307191D01*
X0120198Y0307191D01*
X0120198Y0307583D02*
X0098460Y0307583D01*
X0120198Y0307583D01*
X0120199Y0307975D02*
X0098460Y0307975D01*
X0120199Y0307975D01*
X0120199Y0308368D02*
X0098460Y0308368D01*
X0120199Y0308368D01*
X0120191Y0308760D02*
X0098460Y0308760D01*
X0120191Y0308760D01*
X0120199Y0309152D02*
X0098460Y0309152D01*
X0120199Y0309152D01*
X0120199Y0309544D02*
X0098460Y0309544D01*
X0120199Y0309544D01*
X0120225Y0309937D02*
X0098460Y0309937D01*
X0120225Y0309937D01*
X0120245Y0310329D02*
X0098460Y0310329D01*
X0120245Y0310329D01*
X0120638Y0310721D02*
X0098460Y0310721D01*
X0120638Y0310721D01*
X0121031Y0311113D02*
X0098460Y0311113D01*
X0121031Y0311113D01*
X0121635Y0311505D02*
X0098460Y0311505D01*
X0121635Y0311505D01*
X0121242Y0311898D02*
X0098460Y0311898D01*
X0121242Y0311898D01*
X0121000Y0312290D02*
X0098460Y0312290D01*
X0121000Y0312290D01*
X0121000Y0312682D02*
X0098460Y0312682D01*
X0121000Y0312682D01*
X0121000Y0313074D02*
X0098460Y0313074D01*
X0121000Y0313074D01*
X0121000Y0313466D02*
X0098460Y0313466D01*
X0121000Y0313466D01*
X0121000Y0313859D02*
X0098460Y0313859D01*
X0121000Y0313859D01*
X0121291Y0314251D02*
X0098460Y0314251D01*
X0121291Y0314251D01*
X0121390Y0314643D02*
X0098460Y0314643D01*
X0121390Y0314643D01*
X0120842Y0315035D02*
X0098460Y0315035D01*
X0120842Y0315035D01*
X0120336Y0315427D02*
X0098460Y0315427D01*
X0120336Y0315427D01*
X0120199Y0315820D02*
X0098460Y0315820D01*
X0120199Y0315820D01*
X0120181Y0316212D02*
X0098460Y0316212D01*
X0120181Y0316212D01*
X0120149Y0316604D02*
X0098460Y0316604D01*
X0120149Y0316604D01*
X0120199Y0316996D02*
X0098460Y0316996D01*
X0120199Y0316996D01*
X0120199Y0317389D02*
X0098460Y0317389D01*
X0120199Y0317389D01*
X0120199Y0317781D02*
X0098460Y0317781D01*
X0120199Y0317781D01*
X0120199Y0318173D02*
X0098460Y0318173D01*
X0120199Y0318173D01*
X0120199Y0318565D02*
X0098460Y0318565D01*
X0120199Y0318565D01*
X0120200Y0318957D02*
X0098460Y0318957D01*
X0120200Y0318957D01*
X0120200Y0319350D02*
X0098460Y0319350D01*
X0120200Y0319350D01*
X0120200Y0319742D02*
X0098460Y0319742D01*
X0120200Y0319742D01*
X0120200Y0320134D02*
X0098460Y0320134D01*
X0120200Y0320134D01*
X0120200Y0320526D02*
X0098460Y0320526D01*
X0120200Y0320526D01*
X0120200Y0320918D02*
X0098460Y0320918D01*
X0120200Y0320918D01*
X0120200Y0321311D02*
X0098460Y0321311D01*
X0120200Y0321311D01*
X0120200Y0321703D02*
X0098460Y0321703D01*
X0120200Y0321703D01*
X0120200Y0322095D02*
X0098463Y0322095D01*
X0120200Y0322095D01*
X0120200Y0322487D02*
X0098469Y0322487D01*
X0120200Y0322487D01*
X0120200Y0322880D02*
X0098496Y0322880D01*
X0120200Y0322880D01*
X0120200Y0323272D02*
X0098535Y0323272D01*
X0120200Y0323272D01*
X0120200Y0323664D02*
X0098575Y0323664D01*
X0120200Y0323664D01*
X0120200Y0324056D02*
X0098614Y0324056D01*
X0120200Y0324056D01*
X0120200Y0324448D02*
X0098654Y0324448D01*
X0120200Y0324448D01*
X0120200Y0324841D02*
X0098694Y0324841D01*
X0120200Y0324841D01*
X0120201Y0325233D02*
X0098733Y0325233D01*
X0120201Y0325233D01*
X0120201Y0325625D02*
X0098773Y0325625D01*
X0120201Y0325625D01*
X0120201Y0326017D02*
X0098812Y0326017D01*
X0120201Y0326017D01*
X0120201Y0326409D02*
X0098852Y0326409D01*
X0120201Y0326409D01*
X0120201Y0326802D02*
X0098891Y0326802D01*
X0120201Y0326802D01*
X0120201Y0327194D02*
X0098938Y0327194D01*
X0120201Y0327194D01*
X0120201Y0327586D02*
X0099045Y0327586D01*
X0120201Y0327586D01*
X0120201Y0327978D02*
X0099160Y0327978D01*
X0120201Y0327978D01*
X0120201Y0328370D02*
X0099282Y0328370D01*
X0120201Y0328370D01*
X0120201Y0328763D02*
X0099403Y0328763D01*
X0120201Y0328763D01*
X0120201Y0329155D02*
X0099525Y0329155D01*
X0120201Y0329155D01*
X0120201Y0329547D02*
X0099647Y0329547D01*
X0120201Y0329547D01*
X0120201Y0329939D02*
X0099769Y0329939D01*
X0120201Y0329939D01*
X0120201Y0330332D02*
X0099890Y0330332D01*
X0120201Y0330332D01*
X0120201Y0330724D02*
X0100012Y0330724D01*
X0120201Y0330724D01*
X0120201Y0331116D02*
X0100134Y0331116D01*
X0120201Y0331116D01*
X0120202Y0331508D02*
X0100270Y0331508D01*
X0120202Y0331508D01*
X0120202Y0331900D02*
X0100454Y0331900D01*
X0120202Y0331900D01*
X0120202Y0332293D02*
X0100660Y0332293D01*
X0120202Y0332293D01*
X0120202Y0332685D02*
X0100872Y0332685D01*
X0120202Y0332685D01*
X0120202Y0333077D02*
X0101085Y0333077D01*
X0120202Y0333077D01*
X0120202Y0333469D02*
X0101298Y0333469D01*
X0120202Y0333469D01*
X0120202Y0333861D02*
X0101511Y0333861D01*
X0120202Y0333861D01*
X0120202Y0334254D02*
X0101724Y0334254D01*
X0120202Y0334254D01*
X0120202Y0334646D02*
X0101937Y0334646D01*
X0120202Y0334646D01*
X0120202Y0335038D02*
X0102150Y0335038D01*
X0120202Y0335038D01*
X0120202Y0335430D02*
X0102377Y0335430D01*
X0120202Y0335430D01*
X0120202Y0335823D02*
X0102663Y0335823D01*
X0120202Y0335823D01*
X0120202Y0336215D02*
X0102982Y0336215D01*
X0120202Y0336215D01*
X0120202Y0336607D02*
X0103305Y0336607D01*
X0120202Y0336607D01*
X0120202Y0336999D02*
X0103629Y0336999D01*
X0120202Y0336999D01*
X0120202Y0337391D02*
X0103952Y0337391D01*
X0120202Y0337391D01*
X0120203Y0337784D02*
X0104276Y0337784D01*
X0120203Y0337784D01*
X0120203Y0338176D02*
X0104600Y0338176D01*
X0120203Y0338176D01*
X0120203Y0338568D02*
X0104923Y0338568D01*
X0120203Y0338568D01*
X0120203Y0338960D02*
X0105286Y0338960D01*
X0120203Y0338960D01*
X0120203Y0339352D02*
X0105725Y0339352D01*
X0120203Y0339352D01*
X0120203Y0339745D02*
X0106200Y0339745D01*
X0120203Y0339745D01*
X0120203Y0340137D02*
X0106675Y0340137D01*
X0120203Y0340137D01*
X0120122Y0340529D02*
X0107151Y0340529D01*
X0120122Y0340529D01*
X0120203Y0340921D02*
X0107626Y0340921D01*
X0120203Y0340921D01*
X0120273Y0341313D02*
X0108102Y0341313D01*
X0120273Y0341313D01*
X0120531Y0341706D02*
X0108593Y0341706D01*
X0120531Y0341706D01*
X0121343Y0342098D02*
X0109254Y0342098D01*
X0121343Y0342098D01*
X0121650Y0342490D02*
X0109976Y0342490D01*
X0121650Y0342490D01*
X0121258Y0342882D02*
X0110699Y0342882D01*
X0121258Y0342882D01*
X0121000Y0343275D02*
X0111421Y0343275D01*
X0121000Y0343275D01*
X0121000Y0343667D02*
X0112144Y0343667D01*
X0121000Y0343667D01*
X0121000Y0344059D02*
X0113071Y0344059D01*
X0121000Y0344059D01*
X0121000Y0344451D02*
X0114335Y0344451D01*
X0121000Y0344451D01*
X0121000Y0344843D02*
X0115598Y0344843D01*
X0121000Y0344843D01*
X0121276Y0345236D02*
X0116986Y0345236D01*
X0121276Y0345236D01*
X0121668Y0345628D02*
X0120613Y0345628D01*
X0121668Y0345628D01*
X0124620Y0345733D02*
X0125394Y0344960D01*
X0125394Y0343140D01*
X0124564Y0342311D01*
X0126917Y0342311D01*
X0126743Y0345733D01*
X0124620Y0345733D01*
X0126743Y0345733D01*
X0126917Y0342311D01*
X0124564Y0342311D01*
X0125394Y0343140D01*
X0125394Y0344960D01*
X0124620Y0345733D01*
X0124726Y0345628D02*
X0126749Y0345628D01*
X0124726Y0345628D01*
X0125118Y0345236D02*
X0126769Y0345236D01*
X0125118Y0345236D01*
X0125394Y0344843D02*
X0126788Y0344843D01*
X0125394Y0344843D01*
X0125394Y0344451D02*
X0126808Y0344451D01*
X0125394Y0344451D01*
X0125394Y0344059D02*
X0126828Y0344059D01*
X0125394Y0344059D01*
X0125394Y0343667D02*
X0126848Y0343667D01*
X0125394Y0343667D01*
X0125394Y0343275D02*
X0126868Y0343275D01*
X0125394Y0343275D01*
X0125136Y0342882D02*
X0126888Y0342882D01*
X0125136Y0342882D01*
X0124744Y0342490D02*
X0126908Y0342490D01*
X0124744Y0342490D01*
X0124808Y0314546D02*
X0126780Y0314546D01*
X0126561Y0311124D01*
X0124378Y0311124D01*
X0125394Y0312140D01*
X0125394Y0313960D01*
X0124808Y0314546D01*
X0126780Y0314546D01*
X0126561Y0311124D01*
X0124378Y0311124D01*
X0125394Y0312140D01*
X0125394Y0313960D01*
X0124808Y0314546D01*
X0125103Y0314251D02*
X0126761Y0314251D01*
X0125103Y0314251D01*
X0125394Y0313859D02*
X0126736Y0313859D01*
X0125394Y0313859D01*
X0125394Y0313466D02*
X0126711Y0313466D01*
X0125394Y0313466D01*
X0125394Y0313074D02*
X0126686Y0313074D01*
X0125394Y0313074D01*
X0125394Y0312682D02*
X0126661Y0312682D01*
X0125394Y0312682D01*
X0125394Y0312290D02*
X0126636Y0312290D01*
X0125394Y0312290D01*
X0125151Y0311898D02*
X0126611Y0311898D01*
X0125151Y0311898D01*
X0124759Y0311505D02*
X0126586Y0311505D01*
X0124759Y0311505D01*
X0124495Y0283359D02*
X0126625Y0283359D01*
X0126590Y0279937D01*
X0124691Y0279937D01*
X0125394Y0280640D01*
X0125394Y0282460D01*
X0124495Y0283359D01*
X0126625Y0283359D01*
X0126590Y0279937D01*
X0124691Y0279937D01*
X0125394Y0280640D01*
X0125394Y0282460D01*
X0124495Y0283359D01*
X0124588Y0283266D02*
X0126624Y0283266D01*
X0124588Y0283266D01*
X0124980Y0282874D02*
X0126620Y0282874D01*
X0124980Y0282874D01*
X0125372Y0282482D02*
X0126616Y0282482D01*
X0125372Y0282482D01*
X0125394Y0282089D02*
X0126612Y0282089D01*
X0125394Y0282089D01*
X0125394Y0281697D02*
X0126608Y0281697D01*
X0125394Y0281697D01*
X0125394Y0281305D02*
X0126604Y0281305D01*
X0125394Y0281305D01*
X0125394Y0280913D02*
X0126600Y0280913D01*
X0125394Y0280913D01*
X0125274Y0280521D02*
X0126596Y0280521D01*
X0125274Y0280521D01*
X0124882Y0280128D02*
X0126592Y0280128D01*
X0124882Y0280128D01*
X0076093Y0266009D02*
X0054427Y0266009D01*
X0076093Y0266009D01*
X0075614Y0265617D02*
X0054857Y0265617D01*
X0075614Y0265617D01*
X0075197Y0265224D02*
X0055019Y0265224D01*
X0075197Y0265224D01*
X0074830Y0264832D02*
X0055073Y0264832D01*
X0074830Y0264832D01*
X0074437Y0264440D02*
X0055019Y0264440D01*
X0074437Y0264440D01*
X0074045Y0264048D02*
X0054805Y0264048D01*
X0074045Y0264048D01*
X0073653Y0263655D02*
X0054558Y0263655D01*
X0073653Y0263655D01*
X0073261Y0263263D02*
X0054334Y0263263D01*
X0073261Y0263263D01*
X0072868Y0262871D02*
X0054105Y0262871D01*
X0072868Y0262871D01*
X0072476Y0262479D02*
X0053879Y0262479D01*
X0072476Y0262479D01*
X0072084Y0262087D02*
X0053652Y0262087D01*
X0072084Y0262087D01*
X0071692Y0261694D02*
X0053426Y0261694D01*
X0071692Y0261694D01*
X0071300Y0261302D02*
X0053200Y0261302D01*
X0071300Y0261302D01*
X0070907Y0260910D02*
X0052973Y0260910D01*
X0070907Y0260910D01*
X0070515Y0260518D02*
X0052747Y0260518D01*
X0070515Y0260518D01*
X0070123Y0260126D02*
X0052520Y0260126D01*
X0070123Y0260126D01*
X0069731Y0259733D02*
X0052294Y0259733D01*
X0069731Y0259733D01*
X0069339Y0259341D02*
X0052067Y0259341D01*
X0069339Y0259341D01*
X0068946Y0258949D02*
X0051841Y0258949D01*
X0068946Y0258949D01*
X0068554Y0258557D02*
X0051614Y0258557D01*
X0068554Y0258557D01*
X0068162Y0258165D02*
X0051388Y0258165D01*
X0068162Y0258165D01*
X0067770Y0257772D02*
X0051162Y0257772D01*
X0067770Y0257772D01*
X0067377Y0257380D02*
X0050935Y0257380D01*
X0067377Y0257380D01*
X0066985Y0256988D02*
X0050709Y0256988D01*
X0066985Y0256988D01*
X0066593Y0256596D02*
X0050482Y0256596D01*
X0066593Y0256596D01*
X0066201Y0256203D02*
X0050256Y0256203D01*
X0066201Y0256203D01*
X0065809Y0255811D02*
X0050029Y0255811D01*
X0065809Y0255811D01*
X0065416Y0255419D02*
X0049803Y0255419D01*
X0065416Y0255419D01*
X0065024Y0255027D02*
X0049576Y0255027D01*
X0065024Y0255027D01*
X0064632Y0254635D02*
X0049350Y0254635D01*
X0064632Y0254635D01*
X0064240Y0254242D02*
X0049123Y0254242D01*
X0064240Y0254242D01*
X0063848Y0253850D02*
X0048897Y0253850D01*
X0063848Y0253850D01*
X0063455Y0253458D02*
X0048671Y0253458D01*
X0063455Y0253458D01*
X0063063Y0253066D02*
X0048444Y0253066D01*
X0063063Y0253066D01*
X0062671Y0252674D02*
X0048218Y0252674D01*
X0062671Y0252674D01*
X0062279Y0252281D02*
X0047991Y0252281D01*
X0062279Y0252281D01*
X0061887Y0251889D02*
X0047765Y0251889D01*
X0061887Y0251889D01*
X0061494Y0251497D02*
X0047538Y0251497D01*
X0061494Y0251497D01*
X0061102Y0251105D02*
X0047312Y0251105D01*
X0061102Y0251105D01*
X0060710Y0250712D02*
X0047085Y0250712D01*
X0060710Y0250712D01*
X0060318Y0250320D02*
X0046859Y0250320D01*
X0060318Y0250320D01*
X0059925Y0249928D02*
X0046633Y0249928D01*
X0059925Y0249928D01*
X0059533Y0249536D02*
X0046406Y0249536D01*
X0059533Y0249536D01*
X0059141Y0249144D02*
X0046180Y0249144D01*
X0059141Y0249144D01*
X0058749Y0248751D02*
X0045953Y0248751D01*
X0058749Y0248751D01*
X0058357Y0248359D02*
X0045727Y0248359D01*
X0058357Y0248359D01*
X0057964Y0247967D02*
X0045500Y0247967D01*
X0057964Y0247967D01*
X0057572Y0247575D02*
X0045274Y0247575D01*
X0057572Y0247575D01*
X0057180Y0247183D02*
X0045047Y0247183D01*
X0057180Y0247183D01*
X0056788Y0246790D02*
X0044821Y0246790D01*
X0056788Y0246790D01*
X0056396Y0246398D02*
X0044595Y0246398D01*
X0056396Y0246398D01*
X0056003Y0246006D02*
X0044368Y0246006D01*
X0056003Y0246006D01*
X0055611Y0245614D02*
X0044142Y0245614D01*
X0055611Y0245614D01*
X0055219Y0245222D02*
X0043915Y0245222D01*
X0055219Y0245222D01*
X0054827Y0244829D02*
X0043689Y0244829D01*
X0054827Y0244829D01*
X0054434Y0244437D02*
X0043462Y0244437D01*
X0054434Y0244437D01*
X0054042Y0244045D02*
X0043236Y0244045D01*
X0054042Y0244045D01*
X0053650Y0243653D02*
X0043009Y0243653D01*
X0053650Y0243653D01*
X0053258Y0243260D02*
X0042783Y0243260D01*
X0053258Y0243260D01*
X0052866Y0242868D02*
X0042557Y0242868D01*
X0052866Y0242868D01*
X0052473Y0242476D02*
X0042330Y0242476D01*
X0052473Y0242476D01*
X0052081Y0242084D02*
X0042104Y0242084D01*
X0052081Y0242084D01*
X0051689Y0241692D02*
X0041877Y0241692D01*
X0051689Y0241692D01*
X0051297Y0241299D02*
X0041651Y0241299D01*
X0051297Y0241299D01*
X0050905Y0240907D02*
X0041424Y0240907D01*
X0050905Y0240907D01*
X0050512Y0240515D02*
X0041198Y0240515D01*
X0050512Y0240515D01*
X0050120Y0240123D02*
X0040971Y0240123D01*
X0050120Y0240123D01*
X0049728Y0239731D02*
X0040745Y0239731D01*
X0049728Y0239731D01*
X0049336Y0239338D02*
X0040518Y0239338D01*
X0049336Y0239338D01*
X0048944Y0238946D02*
X0040292Y0238946D01*
X0048944Y0238946D01*
X0048551Y0238554D02*
X0040066Y0238554D01*
X0048551Y0238554D01*
X0048159Y0238162D02*
X0039839Y0238162D01*
X0048159Y0238162D01*
X0047767Y0237769D02*
X0039613Y0237769D01*
X0047767Y0237769D01*
X0047375Y0237377D02*
X0039386Y0237377D01*
X0047375Y0237377D01*
X0046982Y0236985D02*
X0039160Y0236985D01*
X0046982Y0236985D01*
X0046590Y0236593D02*
X0038933Y0236593D01*
X0046590Y0236593D01*
X0046198Y0236201D02*
X0038707Y0236201D01*
X0046198Y0236201D01*
X0045806Y0235808D02*
X0038480Y0235808D01*
X0045806Y0235808D01*
X0045414Y0235416D02*
X0038254Y0235416D01*
X0045414Y0235416D01*
X0045021Y0235024D02*
X0038028Y0235024D01*
X0045021Y0235024D01*
X0044629Y0234632D02*
X0037801Y0234632D01*
X0044629Y0234632D01*
X0044237Y0234240D02*
X0037575Y0234240D01*
X0044237Y0234240D01*
X0043845Y0233847D02*
X0037348Y0233847D01*
X0043845Y0233847D01*
X0043453Y0233455D02*
X0037122Y0233455D01*
X0043453Y0233455D01*
X0043060Y0233063D02*
X0036895Y0233063D01*
X0043060Y0233063D01*
X0042668Y0232671D02*
X0036669Y0232671D01*
X0042668Y0232671D01*
X0042276Y0232279D02*
X0036442Y0232279D01*
X0042276Y0232279D01*
X0041884Y0231886D02*
X0036216Y0231886D01*
X0041884Y0231886D01*
X0041491Y0231494D02*
X0035990Y0231494D01*
X0041491Y0231494D01*
X0041099Y0231102D02*
X0035763Y0231102D01*
X0041099Y0231102D01*
X0040707Y0230710D02*
X0035537Y0230710D01*
X0040707Y0230710D01*
X0040315Y0230317D02*
X0035310Y0230317D01*
X0040315Y0230317D01*
X0039923Y0229925D02*
X0035084Y0229925D01*
X0039923Y0229925D01*
X0039530Y0229533D02*
X0034857Y0229533D01*
X0039530Y0229533D01*
X0039138Y0229141D02*
X0034631Y0229141D01*
X0039138Y0229141D01*
X0038746Y0228749D02*
X0034404Y0228749D01*
X0038746Y0228749D01*
X0038354Y0228356D02*
X0034178Y0228356D01*
X0038354Y0228356D01*
X0037962Y0227964D02*
X0033952Y0227964D01*
X0037962Y0227964D01*
X0037569Y0227572D02*
X0033725Y0227572D01*
X0037569Y0227572D01*
X0037177Y0227180D02*
X0033499Y0227180D01*
X0037177Y0227180D01*
X0036785Y0226788D02*
X0033272Y0226788D01*
X0036785Y0226788D01*
X0036393Y0226395D02*
X0033046Y0226395D01*
X0036393Y0226395D01*
X0036001Y0226003D02*
X0032819Y0226003D01*
X0036001Y0226003D01*
X0035608Y0225611D02*
X0032593Y0225611D01*
X0035608Y0225611D01*
X0035216Y0225219D02*
X0032366Y0225219D01*
X0035216Y0225219D01*
X0034824Y0224826D02*
X0032140Y0224826D01*
X0034824Y0224826D01*
X0034432Y0224434D02*
X0031913Y0224434D01*
X0034432Y0224434D01*
X0034039Y0224042D02*
X0031687Y0224042D01*
X0034039Y0224042D01*
X0033647Y0223650D02*
X0031461Y0223650D01*
X0033647Y0223650D01*
X0033255Y0223258D02*
X0031234Y0223258D01*
X0033255Y0223258D01*
X0032863Y0222865D02*
X0031008Y0222865D01*
X0032863Y0222865D01*
X0032471Y0222473D02*
X0030781Y0222473D01*
X0032471Y0222473D01*
X0032078Y0222081D02*
X0030555Y0222081D01*
X0032078Y0222081D01*
X0031686Y0221689D02*
X0030328Y0221689D01*
X0031686Y0221689D01*
X0031294Y0221297D02*
X0030102Y0221297D01*
X0031294Y0221297D01*
X0030902Y0220904D02*
X0029875Y0220904D01*
X0030902Y0220904D01*
X0030510Y0220512D02*
X0029649Y0220512D01*
X0030510Y0220512D01*
X0030117Y0220120D02*
X0029423Y0220120D01*
X0030117Y0220120D01*
X0029725Y0219728D02*
X0029196Y0219728D01*
X0029725Y0219728D01*
X0029333Y0219336D02*
X0028970Y0219336D01*
X0029333Y0219336D01*
X0028941Y0218943D02*
X0028743Y0218943D01*
X0028941Y0218943D01*
X0028548Y0218551D02*
X0028517Y0218551D01*
X0028548Y0218551D01*
X0026245Y0191096D02*
X0051197Y0191096D01*
X0026245Y0191096D01*
X0025408Y0190704D02*
X0050330Y0190704D01*
X0025408Y0190704D01*
X0024571Y0190312D02*
X0049938Y0190312D01*
X0024571Y0190312D01*
X0023734Y0189920D02*
X0049545Y0189920D01*
X0023734Y0189920D01*
X0022897Y0189527D02*
X0049349Y0189527D01*
X0022897Y0189527D01*
X0022062Y0189135D02*
X0049186Y0189135D01*
X0022062Y0189135D01*
X0021266Y0188743D02*
X0049024Y0188743D01*
X0021266Y0188743D01*
X0020510Y0188351D02*
X0049000Y0188351D01*
X0020510Y0188351D01*
X0019753Y0187959D02*
X0049000Y0187959D01*
X0019753Y0187959D01*
X0018997Y0187566D02*
X0049000Y0187566D01*
X0018997Y0187566D01*
X0018240Y0187174D02*
X0049099Y0187174D01*
X0018240Y0187174D01*
X0017483Y0186782D02*
X0049262Y0186782D01*
X0017483Y0186782D01*
X0017464Y0186390D02*
X0049424Y0186390D01*
X0017464Y0186390D01*
X0017856Y0185997D02*
X0049728Y0185997D01*
X0017856Y0185997D01*
X0018248Y0185605D02*
X0050121Y0185605D01*
X0018248Y0185605D01*
X0018394Y0185213D02*
X0050511Y0185213D01*
X0018394Y0185213D01*
X0018394Y0184821D02*
X0050511Y0184821D01*
X0018394Y0184821D01*
X0018394Y0184429D02*
X0050511Y0184429D01*
X0018394Y0184429D01*
X0018394Y0184036D02*
X0050511Y0184036D01*
X0018394Y0184036D01*
X0018394Y0183644D02*
X0050511Y0183644D01*
X0018394Y0183644D01*
X0018006Y0183252D02*
X0050378Y0183252D01*
X0018006Y0183252D01*
X0017613Y0182860D02*
X0049986Y0182860D01*
X0017613Y0182860D01*
X0017221Y0182468D02*
X0049593Y0182468D01*
X0017221Y0182468D01*
X0017763Y0182075D02*
X0049368Y0182075D01*
X0017763Y0182075D01*
X0018653Y0181683D02*
X0049206Y0181683D01*
X0018653Y0181683D01*
X0019542Y0181291D02*
X0049044Y0181291D01*
X0019542Y0181291D01*
X0020432Y0180899D02*
X0049000Y0180899D01*
X0020432Y0180899D01*
X0021322Y0180507D02*
X0049000Y0180507D01*
X0021322Y0180507D01*
X0022212Y0180114D02*
X0049000Y0180114D01*
X0022212Y0180114D01*
X0023101Y0179722D02*
X0049080Y0179722D01*
X0023101Y0179722D01*
X0024033Y0179330D02*
X0049242Y0179330D01*
X0024033Y0179330D01*
X0025002Y0178938D02*
X0049404Y0178938D01*
X0025002Y0178938D01*
X0025985Y0178545D02*
X0049680Y0178545D01*
X0025985Y0178545D01*
X0026968Y0178153D02*
X0050073Y0178153D01*
X0026968Y0178153D01*
X0027951Y0177761D02*
X0050576Y0177761D01*
X0027951Y0177761D01*
X0028934Y0177369D02*
X0051523Y0177369D01*
X0028934Y0177369D01*
X0050039Y0165210D02*
X0065833Y0165210D01*
X0050039Y0165210D01*
X0049812Y0164818D02*
X0065440Y0164818D01*
X0049812Y0164818D01*
X0049586Y0164426D02*
X0065048Y0164426D01*
X0049586Y0164426D01*
X0049359Y0164034D02*
X0064656Y0164034D01*
X0049359Y0164034D01*
X0049133Y0163641D02*
X0064264Y0163641D01*
X0049133Y0163641D01*
X0048907Y0163249D02*
X0063872Y0163249D01*
X0048907Y0163249D01*
X0048680Y0162857D02*
X0063479Y0162857D01*
X0048680Y0162857D01*
X0048454Y0162465D02*
X0063087Y0162465D01*
X0048454Y0162465D01*
X0048227Y0162073D02*
X0062695Y0162073D01*
X0048227Y0162073D01*
X0048001Y0161680D02*
X0062303Y0161680D01*
X0048001Y0161680D01*
X0047774Y0161288D02*
X0061910Y0161288D01*
X0047774Y0161288D01*
X0047548Y0160896D02*
X0061518Y0160896D01*
X0047548Y0160896D01*
X0047321Y0160504D02*
X0061126Y0160504D01*
X0047321Y0160504D01*
X0047095Y0160111D02*
X0060734Y0160111D01*
X0047095Y0160111D01*
X0046869Y0159719D02*
X0060342Y0159719D01*
X0046869Y0159719D01*
X0046642Y0159327D02*
X0059949Y0159327D01*
X0046642Y0159327D01*
X0046416Y0158935D02*
X0059557Y0158935D01*
X0046416Y0158935D01*
X0046189Y0158543D02*
X0059165Y0158543D01*
X0046189Y0158543D01*
X0045963Y0158150D02*
X0058773Y0158150D01*
X0045963Y0158150D01*
X0045736Y0157758D02*
X0058381Y0157758D01*
X0045736Y0157758D01*
X0045510Y0157366D02*
X0057988Y0157366D01*
X0045510Y0157366D01*
X0045283Y0156974D02*
X0057596Y0156974D01*
X0045283Y0156974D01*
X0045057Y0156582D02*
X0057204Y0156582D01*
X0045057Y0156582D01*
X0044831Y0156189D02*
X0056812Y0156189D01*
X0044831Y0156189D01*
X0044604Y0155797D02*
X0056420Y0155797D01*
X0044604Y0155797D01*
X0044378Y0155405D02*
X0056027Y0155405D01*
X0044378Y0155405D01*
X0044151Y0155013D02*
X0055635Y0155013D01*
X0044151Y0155013D01*
X0043925Y0154621D02*
X0055243Y0154621D01*
X0043925Y0154621D01*
X0043698Y0154228D02*
X0054851Y0154228D01*
X0043698Y0154228D01*
X0043472Y0153836D02*
X0054458Y0153836D01*
X0043472Y0153836D01*
X0043245Y0153444D02*
X0054066Y0153444D01*
X0043245Y0153444D01*
X0043019Y0153052D02*
X0053674Y0153052D01*
X0043019Y0153052D01*
X0042793Y0152659D02*
X0053282Y0152659D01*
X0042793Y0152659D01*
X0042566Y0152267D02*
X0052890Y0152267D01*
X0042566Y0152267D01*
X0042340Y0151875D02*
X0052497Y0151875D01*
X0042340Y0151875D01*
X0042113Y0151483D02*
X0052105Y0151483D01*
X0042113Y0151483D01*
X0041887Y0151091D02*
X0051713Y0151091D01*
X0041887Y0151091D01*
X0041660Y0150698D02*
X0051321Y0150698D01*
X0041660Y0150698D01*
X0041434Y0150306D02*
X0050929Y0150306D01*
X0041434Y0150306D01*
X0041207Y0149914D02*
X0050536Y0149914D01*
X0041207Y0149914D01*
X0040981Y0149522D02*
X0050144Y0149522D01*
X0040981Y0149522D01*
X0040754Y0149130D02*
X0049752Y0149130D01*
X0040754Y0149130D01*
X0040528Y0148737D02*
X0049360Y0148737D01*
X0040528Y0148737D01*
X0040302Y0148345D02*
X0048967Y0148345D01*
X0040302Y0148345D01*
X0040075Y0147953D02*
X0048575Y0147953D01*
X0040075Y0147953D01*
X0039849Y0147561D02*
X0048183Y0147561D01*
X0039849Y0147561D01*
X0039622Y0147168D02*
X0047791Y0147168D01*
X0039622Y0147168D01*
X0039396Y0146776D02*
X0047399Y0146776D01*
X0039396Y0146776D01*
X0039169Y0146384D02*
X0047006Y0146384D01*
X0039169Y0146384D01*
X0038943Y0145992D02*
X0046614Y0145992D01*
X0038943Y0145992D01*
X0038716Y0145600D02*
X0046222Y0145600D01*
X0038716Y0145600D01*
X0038490Y0145207D02*
X0045830Y0145207D01*
X0038490Y0145207D01*
X0038264Y0144815D02*
X0045438Y0144815D01*
X0038264Y0144815D01*
X0038037Y0144423D02*
X0045045Y0144423D01*
X0038037Y0144423D01*
X0037811Y0144031D02*
X0044653Y0144031D01*
X0037811Y0144031D01*
X0037584Y0143639D02*
X0044261Y0143639D01*
X0037584Y0143639D01*
X0037358Y0143246D02*
X0043869Y0143246D01*
X0037358Y0143246D01*
X0037131Y0142854D02*
X0043477Y0142854D01*
X0037131Y0142854D01*
X0036905Y0142462D02*
X0043084Y0142462D01*
X0036905Y0142462D01*
X0036678Y0142070D02*
X0042692Y0142070D01*
X0036678Y0142070D01*
X0036452Y0141678D02*
X0042300Y0141678D01*
X0036452Y0141678D01*
X0036226Y0141285D02*
X0041908Y0141285D01*
X0036226Y0141285D01*
X0035999Y0140893D02*
X0041515Y0140893D01*
X0035999Y0140893D01*
X0035773Y0140501D02*
X0041123Y0140501D01*
X0035773Y0140501D01*
X0035546Y0140109D02*
X0040731Y0140109D01*
X0035546Y0140109D01*
X0035320Y0139716D02*
X0040339Y0139716D01*
X0035320Y0139716D01*
X0035093Y0139324D02*
X0039947Y0139324D01*
X0035093Y0139324D01*
X0034867Y0138932D02*
X0039554Y0138932D01*
X0034867Y0138932D01*
X0034640Y0138540D02*
X0039162Y0138540D01*
X0034640Y0138540D01*
X0034414Y0138148D02*
X0038770Y0138148D01*
X0034414Y0138148D01*
X0034188Y0137755D02*
X0038378Y0137755D01*
X0034188Y0137755D01*
X0033961Y0137363D02*
X0037986Y0137363D01*
X0033961Y0137363D01*
X0033735Y0136971D02*
X0037593Y0136971D01*
X0033735Y0136971D01*
X0033508Y0136579D02*
X0037201Y0136579D01*
X0033508Y0136579D01*
X0033282Y0136187D02*
X0036809Y0136187D01*
X0033282Y0136187D01*
X0033055Y0135794D02*
X0036417Y0135794D01*
X0033055Y0135794D01*
X0032829Y0135402D02*
X0036024Y0135402D01*
X0032829Y0135402D01*
X0032602Y0135010D02*
X0035632Y0135010D01*
X0032602Y0135010D01*
X0032376Y0134618D02*
X0035240Y0134618D01*
X0032376Y0134618D01*
X0032149Y0134225D02*
X0034848Y0134225D01*
X0032149Y0134225D01*
X0031923Y0133833D02*
X0034456Y0133833D01*
X0031923Y0133833D01*
X0031697Y0133441D02*
X0034063Y0133441D01*
X0031697Y0133441D01*
X0031470Y0133049D02*
X0033671Y0133049D01*
X0031470Y0133049D01*
X0031244Y0132657D02*
X0033279Y0132657D01*
X0031244Y0132657D01*
X0031017Y0132264D02*
X0032887Y0132264D01*
X0031017Y0132264D01*
X0030791Y0131872D02*
X0032495Y0131872D01*
X0030791Y0131872D01*
X0030564Y0131480D02*
X0032102Y0131480D01*
X0030564Y0131480D01*
X0030338Y0131088D02*
X0031710Y0131088D01*
X0030338Y0131088D01*
X0030111Y0130696D02*
X0031318Y0130696D01*
X0030111Y0130696D01*
X0029885Y0130303D02*
X0030926Y0130303D01*
X0029885Y0130303D01*
X0029659Y0129911D02*
X0030534Y0129911D01*
X0029659Y0129911D01*
X0029432Y0129519D02*
X0030141Y0129519D01*
X0029432Y0129519D01*
X0029206Y0129127D02*
X0029749Y0129127D01*
X0029206Y0129127D01*
X0029357Y0128735D02*
X0028979Y0128735D01*
X0029357Y0128735D01*
X0028965Y0128342D02*
X0028753Y0128342D01*
X0028965Y0128342D01*
X0028572Y0127950D02*
X0028526Y0127950D01*
X0028572Y0127950D01*
X0050265Y0165602D02*
X0066225Y0165602D01*
X0050265Y0165602D01*
X0050492Y0165995D02*
X0066617Y0165995D01*
X0050492Y0165995D01*
X0050718Y0166387D02*
X0067009Y0166387D01*
X0050718Y0166387D01*
X0050945Y0166779D02*
X0067401Y0166779D01*
X0050945Y0166779D01*
X0051171Y0167171D02*
X0067794Y0167171D01*
X0051171Y0167171D01*
X0051398Y0167564D02*
X0068186Y0167564D01*
X0051398Y0167564D01*
X0051624Y0167956D02*
X0068578Y0167956D01*
X0051624Y0167956D01*
X0051850Y0168348D02*
X0068970Y0168348D01*
X0051850Y0168348D01*
X0052077Y0168740D02*
X0069363Y0168740D01*
X0052077Y0168740D01*
X0052303Y0169132D02*
X0069755Y0169132D01*
X0052303Y0169132D01*
X0052530Y0169525D02*
X0070147Y0169525D01*
X0052530Y0169525D01*
X0052756Y0169917D02*
X0070539Y0169917D01*
X0052756Y0169917D01*
X0052983Y0170309D02*
X0070931Y0170309D01*
X0052983Y0170309D01*
X0053209Y0170701D02*
X0071324Y0170701D01*
X0053209Y0170701D01*
X0053436Y0171093D02*
X0071716Y0171093D01*
X0053436Y0171093D01*
X0053662Y0171486D02*
X0072108Y0171486D01*
X0053662Y0171486D01*
X0053888Y0171878D02*
X0072500Y0171878D01*
X0053888Y0171878D01*
X0054115Y0172270D02*
X0072892Y0172270D01*
X0054115Y0172270D01*
X0054341Y0172662D02*
X0073285Y0172662D01*
X0054341Y0172662D01*
X0054602Y0173054D02*
X0073677Y0173054D01*
X0054602Y0173054D01*
X0054794Y0173447D02*
X0074069Y0173447D01*
X0054794Y0173447D01*
X0054991Y0173839D02*
X0074461Y0173839D01*
X0054991Y0173839D01*
X0054905Y0174231D02*
X0074853Y0174231D01*
X0054905Y0174231D01*
X0054781Y0174623D02*
X0075246Y0174623D01*
X0054781Y0174623D01*
X0054618Y0175016D02*
X0075632Y0175016D01*
X0054618Y0175016D01*
X0053856Y0175408D02*
X0076358Y0175408D01*
X0053856Y0175408D01*
X0124555Y0189302D02*
X0125394Y0190140D01*
X0125394Y0191960D01*
X0124630Y0192724D01*
X0126666Y0192724D01*
X0126616Y0189302D01*
X0124555Y0189302D01*
X0125394Y0190140D01*
X0125394Y0191960D01*
X0124630Y0192724D01*
X0126666Y0192724D01*
X0126616Y0189302D01*
X0124555Y0189302D01*
X0124781Y0189527D02*
X0126619Y0189527D01*
X0124781Y0189527D01*
X0125173Y0189920D02*
X0126625Y0189920D01*
X0125173Y0189920D01*
X0125394Y0190312D02*
X0126631Y0190312D01*
X0125394Y0190312D01*
X0125394Y0190704D02*
X0126636Y0190704D01*
X0125394Y0190704D01*
X0125394Y0191096D02*
X0126642Y0191096D01*
X0125394Y0191096D01*
X0125394Y0191488D02*
X0126648Y0191488D01*
X0125394Y0191488D01*
X0125394Y0191881D02*
X0126653Y0191881D01*
X0125394Y0191881D01*
X0125081Y0192273D02*
X0126659Y0192273D01*
X0125081Y0192273D01*
X0124689Y0192665D02*
X0126665Y0192665D01*
X0124689Y0192665D01*
X0154026Y0175741D02*
X0153880Y0175009D01*
X0152807Y0168824D01*
X0152684Y0168087D01*
X0151888Y0161106D01*
X0151831Y0160362D01*
X0151512Y0154565D01*
X0151568Y0154484D01*
X0151480Y0154001D01*
X0151454Y0153511D01*
X0151380Y0153445D01*
X0151371Y0153396D01*
X0151385Y0151969D01*
X0152394Y0150960D01*
X0152394Y0149140D01*
X0151422Y0148169D01*
X0151438Y0146592D01*
X0151448Y0146484D01*
X0151469Y0146465D01*
X0151500Y0145913D01*
X0151550Y0145363D01*
X0151532Y0145341D01*
X0151850Y0139618D01*
X0151911Y0138874D01*
X0152710Y0131895D01*
X0153913Y0124973D01*
X0154062Y0124242D01*
X0155670Y0117402D01*
X0157670Y0110670D01*
X0157906Y0109962D01*
X0160042Y0104057D01*
X0160300Y0103357D01*
X0163071Y0096901D01*
X0163390Y0096226D01*
X0165852Y0091306D01*
X0198016Y0109876D01*
X0198000Y0109914D01*
X0198000Y0111186D01*
X0198487Y0112361D01*
X0199386Y0113260D01*
X0200561Y0113747D01*
X0201833Y0113747D01*
X0203008Y0113260D01*
X0203907Y0112361D01*
X0204394Y0111186D01*
X0204394Y0109914D01*
X0203958Y0108863D01*
X0204892Y0107247D01*
X0205833Y0107247D01*
X0207008Y0106760D01*
X0207907Y0105861D01*
X0208394Y0104686D01*
X0208394Y0103414D01*
X0207907Y0102239D01*
X0207008Y0101340D01*
X0205833Y0100853D01*
X0204561Y0100853D01*
X0203638Y0101235D01*
X0171110Y0082455D01*
X0174358Y0077545D01*
X0178567Y0071917D01*
X0179029Y0071332D01*
X0183560Y0065964D01*
X0188394Y0060868D01*
X0188924Y0060343D01*
X0194052Y0055538D01*
X0199443Y0051040D01*
X0200034Y0050583D01*
X0205080Y0046849D01*
X0205684Y0046410D01*
X0211270Y0042761D01*
X0211467Y0042752D01*
X0211737Y0042456D01*
X0212072Y0042237D01*
X0212112Y0042045D01*
X0212245Y0041899D01*
X0212227Y0041499D01*
X0212281Y0041241D01*
X0213287Y0042247D01*
X0215107Y0042247D01*
X0216394Y0040960D01*
X0216394Y0039140D01*
X0215958Y0038704D01*
X0216114Y0038746D01*
X0216235Y0038876D01*
X0216654Y0038891D01*
X0217058Y0038999D01*
X0217210Y0038912D01*
X0217568Y0039029D01*
X0217762Y0038930D01*
X0217979Y0038938D01*
X0218258Y0038678D01*
X0223694Y0035917D01*
X0224362Y0035584D01*
X0230801Y0032773D01*
X0231496Y0032501D01*
X0237386Y0030329D01*
X0238089Y0030078D01*
X0244810Y0028036D01*
X0245533Y0027849D01*
X0251635Y0026376D01*
X0252363Y0026213D01*
X0259276Y0024965D01*
X0260017Y0024867D01*
X0266249Y0024113D01*
X0266992Y0024038D01*
X0273998Y0023604D01*
X0274737Y0023600D01*
X0281018Y0023648D01*
X0281767Y0023666D01*
X0288779Y0024094D01*
X0289223Y0024144D01*
X0295465Y0024888D01*
X0296206Y0024985D01*
X0303117Y0026215D01*
X0303846Y0026383D01*
X0309947Y0027834D01*
X0310668Y0028029D01*
X0316678Y0029828D01*
X0317390Y0030052D01*
X0323986Y0032446D01*
X0330441Y0035214D01*
X0331118Y0035532D01*
X0336582Y0038261D01*
X0336609Y0038284D01*
X0336648Y0038428D01*
X0337033Y0038651D01*
X0337370Y0038942D01*
X0337518Y0038931D01*
X0337647Y0039006D01*
X0338077Y0038890D01*
X0338521Y0038858D01*
X0338619Y0038745D01*
X0338763Y0038707D01*
X0338985Y0038321D01*
X0339033Y0038267D01*
X0339250Y0038390D01*
X0339000Y0038640D01*
X0339000Y0040460D01*
X0340287Y0041747D01*
X0342107Y0041747D01*
X0342851Y0041003D01*
X0342883Y0041152D01*
X0342958Y0041675D01*
X0343004Y0041709D01*
X0343016Y0041765D01*
X0343460Y0042051D01*
X0343882Y0042367D01*
X0343939Y0042359D01*
X0349432Y0045896D01*
X0350038Y0046329D01*
X0355111Y0050038D01*
X0355708Y0050486D01*
X0361127Y0054963D01*
X0361685Y0055458D01*
X0366830Y0060247D01*
X0371684Y0065331D01*
X0372186Y0065883D01*
X0376731Y0071245D01*
X0377185Y0071836D01*
X0380958Y0076862D01*
X0381399Y0077464D01*
X0384668Y0082402D01*
X0351925Y0101306D01*
X0350833Y0100853D01*
X0349561Y0100853D01*
X0348386Y0101340D01*
X0347487Y0102239D01*
X0347000Y0103414D01*
X0347000Y0104686D01*
X0347487Y0105861D01*
X0348386Y0106760D01*
X0349561Y0107247D01*
X0350793Y0107247D01*
X0351436Y0108361D01*
X0351000Y0109414D01*
X0351000Y0110686D01*
X0351487Y0111861D01*
X0352386Y0112760D01*
X0353561Y0113247D01*
X0354833Y0113247D01*
X0356008Y0112760D01*
X0356907Y0111861D01*
X0357394Y0110686D01*
X0357394Y0110035D01*
X0389798Y0091325D01*
X0392224Y0096165D01*
X0392548Y0096837D01*
X0395324Y0103291D01*
X0395587Y0103989D01*
X0397728Y0109891D01*
X0397970Y0110598D01*
X0399976Y0117330D01*
X0400153Y0118055D01*
X0401593Y0124165D01*
X0401748Y0124896D01*
X0402958Y0131812D01*
X0403766Y0138794D01*
X0403833Y0139537D01*
X0404221Y0146410D01*
X0404142Y0146799D01*
X0404252Y0146966D01*
X0404264Y0147166D01*
X0404560Y0147430D01*
X0404779Y0147761D01*
X0404975Y0147801D01*
X0405033Y0147853D01*
X0404787Y0147853D01*
X0403500Y0149140D01*
X0403500Y0150960D01*
X0404787Y0152247D01*
X0405048Y0152247D01*
X0404986Y0152309D01*
X0404683Y0152453D01*
X0404593Y0152702D01*
X0404407Y0152889D01*
X0404407Y0153224D01*
X0404391Y0153267D01*
X0404224Y0153416D01*
X0404204Y0153791D01*
X0404077Y0154144D01*
X0404173Y0154346D01*
X0403844Y0160272D01*
X0403791Y0161017D01*
X0402993Y0167996D01*
X0402874Y0168733D01*
X0401798Y0174919D01*
X0401657Y0175652D01*
X0400052Y0182491D01*
X0399846Y0183208D01*
X0398059Y0189226D01*
X0397830Y0189937D01*
X0395442Y0196540D01*
X0392674Y0203001D01*
X0392363Y0203678D01*
X0389225Y0209952D01*
X0388851Y0210584D01*
X0385617Y0215971D01*
X0385217Y0216613D01*
X0381337Y0222478D01*
X0380894Y0223079D01*
X0377130Y0228104D01*
X0376669Y0228691D01*
X0372139Y0234057D01*
X0367304Y0239155D01*
X0366775Y0239681D01*
X0361649Y0244486D01*
X0356256Y0248984D01*
X0355667Y0249442D01*
X0350620Y0253176D01*
X0350016Y0253616D01*
X0344462Y0257244D01*
X0344302Y0257243D01*
X0343993Y0257550D01*
X0343629Y0257788D01*
X0343597Y0257944D01*
X0343483Y0258057D01*
X0343482Y0258331D01*
X0342892Y0258638D01*
X0342607Y0258353D01*
X0340787Y0258353D01*
X0339500Y0259640D01*
X0339500Y0260407D01*
X0338155Y0261109D01*
X0338089Y0261129D01*
X0337963Y0261088D01*
X0337553Y0261296D01*
X0337114Y0261433D01*
X0337052Y0261551D01*
X0331845Y0264196D01*
X0331172Y0264520D01*
X0324734Y0267331D01*
X0324035Y0267594D01*
X0318145Y0269766D01*
X0317439Y0270008D01*
X0310720Y0272050D01*
X0303890Y0273701D01*
X0303160Y0273855D01*
X0296246Y0275102D01*
X0289273Y0275945D01*
X0288530Y0276011D01*
X0282990Y0276355D01*
X0282990Y0238767D01*
X0283008Y0238760D01*
X0283907Y0237861D01*
X0284394Y0236686D01*
X0284394Y0235414D01*
X0283907Y0234239D01*
X0283008Y0233340D01*
X0281833Y0232853D01*
X0280561Y0232853D01*
X0279386Y0233340D01*
X0278487Y0234239D01*
X0278344Y0234584D01*
X0276550Y0234584D01*
X0276407Y0234239D01*
X0275508Y0233340D01*
X0274333Y0232853D01*
X0273061Y0232853D01*
X0271886Y0233340D01*
X0270987Y0234239D01*
X0270500Y0235414D01*
X0270500Y0236686D01*
X0270987Y0237861D01*
X0271886Y0238760D01*
X0272695Y0239095D01*
X0272695Y0276295D01*
X0266918Y0275937D01*
X0266176Y0275863D01*
X0259197Y0275012D01*
X0252283Y0273752D01*
X0251552Y0273599D01*
X0244724Y0271933D01*
X0244009Y0271721D01*
X0238003Y0269874D01*
X0237294Y0269644D01*
X0230709Y0267185D01*
X0230021Y0266897D01*
X0223592Y0264051D01*
X0217442Y0260883D01*
X0217087Y0260608D01*
X0216943Y0260626D01*
X0216815Y0260560D01*
X0216421Y0260685D01*
X0215394Y0260135D01*
X0215394Y0259640D01*
X0214107Y0258353D01*
X0212287Y0258353D01*
X0212209Y0258431D01*
X0211666Y0258140D01*
X0211686Y0258064D01*
X0211511Y0257765D01*
X0211442Y0257426D01*
X0211231Y0257286D01*
X0211103Y0257068D01*
X0210768Y0256980D01*
X0205077Y0253218D01*
X0204475Y0252776D01*
X0199450Y0249021D01*
X0198865Y0248556D01*
X0194064Y0244519D01*
X0193497Y0244032D01*
X0188392Y0239214D01*
X0187875Y0238674D01*
X0183568Y0234115D01*
X0183072Y0233556D01*
X0179034Y0228756D01*
X0178560Y0228179D01*
X0174356Y0222556D01*
X0173940Y0221936D01*
X0170475Y0216699D01*
X0170072Y0216059D01*
X0166463Y0210039D01*
X0163327Y0203765D01*
X0163011Y0203089D01*
X0160244Y0196632D01*
X0157856Y0190025D01*
X0157624Y0189316D01*
X0155627Y0182578D01*
X0154026Y0175741D01*
X0154039Y0175800D02*
X0401623Y0175800D01*
X0401704Y0175408D02*
X0153959Y0175408D01*
X0153882Y0175016D02*
X0401780Y0175016D01*
X0401850Y0174623D02*
X0153813Y0174623D01*
X0153745Y0174231D02*
X0401918Y0174231D01*
X0401986Y0173839D02*
X0153677Y0173839D01*
X0153609Y0173447D02*
X0402054Y0173447D01*
X0402123Y0173054D02*
X0153541Y0173054D01*
X0153473Y0172662D02*
X0402191Y0172662D01*
X0402259Y0172270D02*
X0153405Y0172270D01*
X0153337Y0171878D02*
X0402327Y0171878D01*
X0402396Y0171486D02*
X0153269Y0171486D01*
X0153201Y0171093D02*
X0402464Y0171093D01*
X0402532Y0170701D02*
X0153133Y0170701D01*
X0153065Y0170309D02*
X0402600Y0170309D01*
X0402668Y0169917D02*
X0152996Y0169917D01*
X0152928Y0169525D02*
X0402737Y0169525D01*
X0402805Y0169132D02*
X0152860Y0169132D01*
X0152793Y0168740D02*
X0402873Y0168740D01*
X0402936Y0168348D02*
X0152727Y0168348D01*
X0152669Y0167956D02*
X0402997Y0167956D01*
X0403042Y0167564D02*
X0152624Y0167564D01*
X0152579Y0167171D02*
X0403087Y0167171D01*
X0403132Y0166779D02*
X0152535Y0166779D01*
X0152490Y0166387D02*
X0403177Y0166387D01*
X0403222Y0165995D02*
X0152445Y0165995D01*
X0152401Y0165602D02*
X0403266Y0165602D01*
X0403311Y0165210D02*
X0152356Y0165210D01*
X0152311Y0164818D02*
X0403356Y0164818D01*
X0403401Y0164426D02*
X0152267Y0164426D01*
X0152222Y0164034D02*
X0403446Y0164034D01*
X0403491Y0163641D02*
X0152177Y0163641D01*
X0152132Y0163249D02*
X0403536Y0163249D01*
X0403581Y0162857D02*
X0152088Y0162857D01*
X0152043Y0162465D02*
X0403626Y0162465D01*
X0403670Y0162073D02*
X0278326Y0162073D01*
X0277591Y0162377D02*
X0279244Y0161692D01*
X0280509Y0160427D01*
X0281194Y0158775D01*
X0281194Y0156986D01*
X0280509Y0155333D01*
X0279244Y0154068D01*
X0277591Y0153383D01*
X0275802Y0153383D01*
X0274150Y0154068D01*
X0272885Y0155333D01*
X0272200Y0156986D01*
X0272200Y0158775D01*
X0272885Y0160427D01*
X0274150Y0161692D01*
X0275802Y0162377D01*
X0277591Y0162377D01*
X0279256Y0161680D02*
X0403715Y0161680D01*
X0403760Y0161288D02*
X0279648Y0161288D01*
X0280041Y0160896D02*
X0403800Y0160896D01*
X0403827Y0160504D02*
X0280433Y0160504D01*
X0280640Y0160111D02*
X0403853Y0160111D01*
X0403875Y0159719D02*
X0280802Y0159719D01*
X0280965Y0159327D02*
X0403896Y0159327D01*
X0403918Y0158935D02*
X0281127Y0158935D01*
X0281194Y0158543D02*
X0403940Y0158543D01*
X0403962Y0158150D02*
X0281194Y0158150D01*
X0281194Y0157758D02*
X0403983Y0157758D01*
X0404005Y0157366D02*
X0281194Y0157366D01*
X0281189Y0156974D02*
X0404027Y0156974D01*
X0404049Y0156582D02*
X0281026Y0156582D01*
X0280864Y0156189D02*
X0404071Y0156189D01*
X0404092Y0155797D02*
X0280701Y0155797D01*
X0280539Y0155405D02*
X0404114Y0155405D01*
X0404136Y0155013D02*
X0280189Y0155013D01*
X0279797Y0154621D02*
X0404158Y0154621D01*
X0404117Y0154228D02*
X0279405Y0154228D01*
X0278685Y0153836D02*
X0404187Y0153836D01*
X0404223Y0153444D02*
X0283250Y0153444D01*
X0282591Y0153717D02*
X0280802Y0153717D01*
X0279150Y0153032D01*
X0277885Y0151767D01*
X0277200Y0150114D01*
X0277200Y0148325D01*
X0277885Y0146673D01*
X0279150Y0145408D01*
X0280802Y0144723D01*
X0282591Y0144723D01*
X0284244Y0145408D01*
X0285509Y0146673D01*
X0286194Y0148325D01*
X0286194Y0150114D01*
X0285509Y0151767D01*
X0284244Y0153032D01*
X0282591Y0153717D01*
X0284197Y0153052D02*
X0404407Y0153052D01*
X0404609Y0152659D02*
X0284617Y0152659D01*
X0285009Y0152267D02*
X0405028Y0152267D01*
X0404415Y0151875D02*
X0285401Y0151875D01*
X0285627Y0151483D02*
X0404023Y0151483D01*
X0403631Y0151091D02*
X0285789Y0151091D01*
X0285952Y0150698D02*
X0403500Y0150698D01*
X0403500Y0150306D02*
X0286114Y0150306D01*
X0286194Y0149914D02*
X0403500Y0149914D01*
X0403500Y0149522D02*
X0286194Y0149522D01*
X0286194Y0149130D02*
X0403510Y0149130D01*
X0403903Y0148737D02*
X0395829Y0148737D01*
X0395082Y0149047D02*
X0393293Y0149047D01*
X0391640Y0148362D01*
X0390375Y0147097D01*
X0389690Y0145444D01*
X0389690Y0143656D01*
X0390375Y0142003D01*
X0391640Y0140738D01*
X0393293Y0140053D01*
X0395082Y0140053D01*
X0396734Y0140738D01*
X0397999Y0142003D01*
X0398684Y0143656D01*
X0398684Y0145444D01*
X0397999Y0147097D01*
X0396734Y0148362D01*
X0395082Y0149047D01*
X0396752Y0148345D02*
X0404295Y0148345D01*
X0404687Y0147953D02*
X0397144Y0147953D01*
X0397536Y0147561D02*
X0404646Y0147561D01*
X0404266Y0147168D02*
X0397928Y0147168D01*
X0398132Y0146776D02*
X0404146Y0146776D01*
X0404219Y0146384D02*
X0398295Y0146384D01*
X0398457Y0145992D02*
X0404197Y0145992D01*
X0404175Y0145600D02*
X0398620Y0145600D01*
X0398684Y0145207D02*
X0404153Y0145207D01*
X0404131Y0144815D02*
X0398684Y0144815D01*
X0398684Y0144423D02*
X0404109Y0144423D01*
X0404087Y0144031D02*
X0398684Y0144031D01*
X0398677Y0143639D02*
X0404065Y0143639D01*
X0404042Y0143246D02*
X0398515Y0143246D01*
X0398352Y0142854D02*
X0404020Y0142854D01*
X0403998Y0142462D02*
X0398190Y0142462D01*
X0398027Y0142070D02*
X0403976Y0142070D01*
X0403954Y0141678D02*
X0397674Y0141678D01*
X0397282Y0141285D02*
X0403932Y0141285D01*
X0403910Y0140893D02*
X0396890Y0140893D01*
X0396163Y0140501D02*
X0403888Y0140501D01*
X0403865Y0140109D02*
X0395216Y0140109D01*
X0393159Y0140109D02*
X0151822Y0140109D01*
X0151801Y0140501D02*
X0392212Y0140501D01*
X0391485Y0140893D02*
X0151779Y0140893D01*
X0151757Y0141285D02*
X0391092Y0141285D01*
X0390700Y0141678D02*
X0151735Y0141678D01*
X0151713Y0142070D02*
X0390347Y0142070D01*
X0390185Y0142462D02*
X0151692Y0142462D01*
X0151670Y0142854D02*
X0390022Y0142854D01*
X0389860Y0143246D02*
X0151648Y0143246D01*
X0151626Y0143639D02*
X0389697Y0143639D01*
X0389690Y0144031D02*
X0151604Y0144031D01*
X0151583Y0144423D02*
X0389690Y0144423D01*
X0389690Y0144815D02*
X0282814Y0144815D01*
X0283761Y0145207D02*
X0389690Y0145207D01*
X0389755Y0145600D02*
X0284436Y0145600D01*
X0284828Y0145992D02*
X0389917Y0145992D01*
X0390080Y0146384D02*
X0285221Y0146384D01*
X0285552Y0146776D02*
X0390242Y0146776D01*
X0390446Y0147168D02*
X0285714Y0147168D01*
X0285877Y0147561D02*
X0390838Y0147561D01*
X0391231Y0147953D02*
X0286039Y0147953D01*
X0286194Y0148345D02*
X0391623Y0148345D01*
X0392546Y0148737D02*
X0286194Y0148737D01*
X0280580Y0144815D02*
X0151561Y0144815D01*
X0151539Y0145207D02*
X0279633Y0145207D01*
X0278958Y0145600D02*
X0151528Y0145600D01*
X0151495Y0145992D02*
X0278565Y0145992D01*
X0278173Y0146384D02*
X0151474Y0146384D01*
X0151436Y0146776D02*
X0277842Y0146776D01*
X0277679Y0147168D02*
X0151432Y0147168D01*
X0151428Y0147561D02*
X0277517Y0147561D01*
X0277354Y0147953D02*
X0151425Y0147953D01*
X0151599Y0148345D02*
X0277200Y0148345D01*
X0277200Y0148737D02*
X0151991Y0148737D01*
X0152383Y0149130D02*
X0277200Y0149130D01*
X0277200Y0149522D02*
X0152394Y0149522D01*
X0152394Y0149914D02*
X0277200Y0149914D01*
X0277279Y0150306D02*
X0152394Y0150306D01*
X0152394Y0150698D02*
X0277442Y0150698D01*
X0277604Y0151091D02*
X0152263Y0151091D01*
X0151871Y0151483D02*
X0277767Y0151483D01*
X0277993Y0151875D02*
X0151479Y0151875D01*
X0151382Y0152267D02*
X0278385Y0152267D01*
X0278777Y0152659D02*
X0151378Y0152659D01*
X0151374Y0153052D02*
X0279197Y0153052D01*
X0280144Y0153444D02*
X0277738Y0153444D01*
X0275656Y0153444D02*
X0151380Y0153444D01*
X0151471Y0153836D02*
X0274709Y0153836D01*
X0273989Y0154228D02*
X0151522Y0154228D01*
X0151515Y0154621D02*
X0273597Y0154621D01*
X0273205Y0155013D02*
X0151536Y0155013D01*
X0151558Y0155405D02*
X0272855Y0155405D01*
X0272692Y0155797D02*
X0151579Y0155797D01*
X0151601Y0156189D02*
X0272530Y0156189D01*
X0272367Y0156582D02*
X0151623Y0156582D01*
X0151644Y0156974D02*
X0272205Y0156974D01*
X0272200Y0157366D02*
X0151666Y0157366D01*
X0151687Y0157758D02*
X0272200Y0157758D01*
X0272200Y0158150D02*
X0151709Y0158150D01*
X0151731Y0158543D02*
X0272200Y0158543D01*
X0272266Y0158935D02*
X0151752Y0158935D01*
X0151774Y0159327D02*
X0272429Y0159327D01*
X0272591Y0159719D02*
X0151795Y0159719D01*
X0151817Y0160111D02*
X0272754Y0160111D01*
X0272961Y0160504D02*
X0151842Y0160504D01*
X0151872Y0160896D02*
X0273353Y0160896D01*
X0273745Y0161288D02*
X0151909Y0161288D01*
X0151954Y0161680D02*
X0274138Y0161680D01*
X0275067Y0162073D02*
X0151998Y0162073D01*
X0154131Y0176192D02*
X0401530Y0176192D01*
X0401438Y0176584D02*
X0154223Y0176584D01*
X0154315Y0176977D02*
X0401346Y0176977D01*
X0401254Y0177369D02*
X0154407Y0177369D01*
X0154499Y0177761D02*
X0401162Y0177761D01*
X0401070Y0178153D02*
X0154591Y0178153D01*
X0154683Y0178545D02*
X0400978Y0178545D01*
X0400886Y0178938D02*
X0154775Y0178938D01*
X0154866Y0179330D02*
X0400794Y0179330D01*
X0400702Y0179722D02*
X0154958Y0179722D01*
X0155050Y0180114D02*
X0400610Y0180114D01*
X0400518Y0180507D02*
X0155142Y0180507D01*
X0155234Y0180899D02*
X0400426Y0180899D01*
X0400334Y0181291D02*
X0155326Y0181291D01*
X0155418Y0181683D02*
X0400242Y0181683D01*
X0400150Y0182075D02*
X0155510Y0182075D01*
X0155601Y0182468D02*
X0400058Y0182468D01*
X0399946Y0182860D02*
X0155711Y0182860D01*
X0155827Y0183252D02*
X0399833Y0183252D01*
X0399717Y0183644D02*
X0155943Y0183644D01*
X0156059Y0184036D02*
X0399600Y0184036D01*
X0399484Y0184429D02*
X0156176Y0184429D01*
X0156292Y0184821D02*
X0399367Y0184821D01*
X0399251Y0185213D02*
X0156408Y0185213D01*
X0156524Y0185605D02*
X0399134Y0185605D01*
X0399018Y0185997D02*
X0156640Y0185997D01*
X0156757Y0186390D02*
X0398901Y0186390D01*
X0398785Y0186782D02*
X0156873Y0186782D01*
X0156989Y0187174D02*
X0398668Y0187174D01*
X0398552Y0187566D02*
X0157105Y0187566D01*
X0157222Y0187959D02*
X0398435Y0187959D01*
X0398318Y0188351D02*
X0157338Y0188351D01*
X0157454Y0188743D02*
X0398202Y0188743D01*
X0398085Y0189135D02*
X0157570Y0189135D01*
X0157693Y0189527D02*
X0397962Y0189527D01*
X0397836Y0189920D02*
X0157822Y0189920D01*
X0157960Y0190312D02*
X0397695Y0190312D01*
X0397553Y0190704D02*
X0158101Y0190704D01*
X0158243Y0191096D02*
X0397411Y0191096D01*
X0397269Y0191488D02*
X0158385Y0191488D01*
X0158527Y0191881D02*
X0397127Y0191881D01*
X0396985Y0192273D02*
X0158668Y0192273D01*
X0158810Y0192665D02*
X0396843Y0192665D01*
X0396702Y0193057D02*
X0158952Y0193057D01*
X0159094Y0193450D02*
X0396560Y0193450D01*
X0396418Y0193842D02*
X0159235Y0193842D01*
X0159377Y0194234D02*
X0396276Y0194234D01*
X0396134Y0194626D02*
X0159519Y0194626D01*
X0159660Y0195018D02*
X0395992Y0195018D01*
X0395850Y0195411D02*
X0159802Y0195411D01*
X0159944Y0195803D02*
X0395709Y0195803D01*
X0395567Y0196195D02*
X0160086Y0196195D01*
X0160227Y0196587D02*
X0395422Y0196587D01*
X0395254Y0196979D02*
X0160392Y0196979D01*
X0160561Y0197372D02*
X0395086Y0197372D01*
X0394918Y0197764D02*
X0160729Y0197764D01*
X0160897Y0198156D02*
X0394750Y0198156D01*
X0394582Y0198548D02*
X0161065Y0198548D01*
X0161233Y0198940D02*
X0394414Y0198940D01*
X0394245Y0199333D02*
X0161401Y0199333D01*
X0161569Y0199725D02*
X0394077Y0199725D01*
X0393909Y0200117D02*
X0161738Y0200117D01*
X0161906Y0200509D02*
X0393741Y0200509D01*
X0393573Y0200902D02*
X0162074Y0200902D01*
X0162242Y0201294D02*
X0393405Y0201294D01*
X0393237Y0201686D02*
X0162410Y0201686D01*
X0162578Y0202078D02*
X0393069Y0202078D01*
X0392901Y0202470D02*
X0162746Y0202470D01*
X0162915Y0202863D02*
X0392733Y0202863D01*
X0392557Y0203255D02*
X0163089Y0203255D01*
X0163271Y0203647D02*
X0392378Y0203647D01*
X0392183Y0204039D02*
X0163463Y0204039D01*
X0163660Y0204431D02*
X0391986Y0204431D01*
X0391790Y0204824D02*
X0163856Y0204824D01*
X0164052Y0205216D02*
X0391594Y0205216D01*
X0391398Y0205608D02*
X0164248Y0205608D01*
X0164444Y0206000D02*
X0391202Y0206000D01*
X0391005Y0206393D02*
X0164640Y0206393D01*
X0164836Y0206785D02*
X0390809Y0206785D01*
X0390613Y0207177D02*
X0165032Y0207177D01*
X0165228Y0207569D02*
X0390417Y0207569D01*
X0390221Y0207961D02*
X0165424Y0207961D01*
X0165620Y0208354D02*
X0390024Y0208354D01*
X0389828Y0208746D02*
X0165816Y0208746D01*
X0166013Y0209138D02*
X0389632Y0209138D01*
X0389436Y0209530D02*
X0166209Y0209530D01*
X0166405Y0209922D02*
X0389240Y0209922D01*
X0389011Y0210315D02*
X0166628Y0210315D01*
X0166863Y0210707D02*
X0388778Y0210707D01*
X0388542Y0211099D02*
X0167098Y0211099D01*
X0167334Y0211491D02*
X0388307Y0211491D01*
X0388071Y0211883D02*
X0167569Y0211883D01*
X0167804Y0212276D02*
X0387836Y0212276D01*
X0387600Y0212668D02*
X0168039Y0212668D01*
X0168274Y0213060D02*
X0387365Y0213060D01*
X0387129Y0213452D02*
X0168509Y0213452D01*
X0168745Y0213845D02*
X0386894Y0213845D01*
X0386658Y0214237D02*
X0168980Y0214237D01*
X0169215Y0214629D02*
X0386423Y0214629D01*
X0386187Y0215021D02*
X0169450Y0215021D01*
X0169685Y0215413D02*
X0385952Y0215413D01*
X0385716Y0215806D02*
X0169920Y0215806D01*
X0170160Y0216198D02*
X0385476Y0216198D01*
X0385231Y0216590D02*
X0170406Y0216590D01*
X0170662Y0216982D02*
X0384973Y0216982D01*
X0384713Y0217374D02*
X0170922Y0217374D01*
X0171181Y0217767D02*
X0384454Y0217767D01*
X0384194Y0218159D02*
X0171441Y0218159D01*
X0171700Y0218551D02*
X0383935Y0218551D01*
X0383676Y0218943D02*
X0171960Y0218943D01*
X0172219Y0219336D02*
X0383416Y0219336D01*
X0383157Y0219728D02*
X0172479Y0219728D01*
X0172738Y0220120D02*
X0382897Y0220120D01*
X0382638Y0220512D02*
X0172998Y0220512D01*
X0173257Y0220904D02*
X0382378Y0220904D01*
X0382119Y0221297D02*
X0173517Y0221297D01*
X0173776Y0221689D02*
X0381859Y0221689D01*
X0381600Y0222081D02*
X0174037Y0222081D01*
X0174300Y0222473D02*
X0381341Y0222473D01*
X0381051Y0222865D02*
X0174587Y0222865D01*
X0174881Y0223258D02*
X0380760Y0223258D01*
X0380466Y0223650D02*
X0175174Y0223650D01*
X0175467Y0224042D02*
X0380173Y0224042D01*
X0379879Y0224434D02*
X0175761Y0224434D01*
X0176054Y0224826D02*
X0379585Y0224826D01*
X0379291Y0225219D02*
X0176347Y0225219D01*
X0176640Y0225611D02*
X0378998Y0225611D01*
X0378704Y0226003D02*
X0176934Y0226003D01*
X0177227Y0226395D02*
X0378410Y0226395D01*
X0378116Y0226788D02*
X0177520Y0226788D01*
X0177813Y0227180D02*
X0377823Y0227180D01*
X0377529Y0227572D02*
X0178107Y0227572D01*
X0178400Y0227964D02*
X0377235Y0227964D01*
X0376932Y0228356D02*
X0178706Y0228356D01*
X0179028Y0228749D02*
X0307936Y0228749D01*
X0308667Y0228446D02*
X0307014Y0229130D01*
X0305749Y0230395D01*
X0305065Y0232048D01*
X0305065Y0233837D01*
X0305749Y0235490D01*
X0307014Y0236755D01*
X0308667Y0237439D01*
X0310456Y0237439D01*
X0312109Y0236755D01*
X0313374Y0235490D01*
X0314059Y0233837D01*
X0314059Y0232048D01*
X0313374Y0230395D01*
X0312109Y0229130D01*
X0310456Y0228446D01*
X0308667Y0228446D01*
X0307004Y0229141D02*
X0179358Y0229141D01*
X0179688Y0229533D02*
X0306612Y0229533D01*
X0306219Y0229925D02*
X0180018Y0229925D01*
X0180348Y0230317D02*
X0305827Y0230317D01*
X0305619Y0230710D02*
X0180678Y0230710D01*
X0181008Y0231102D02*
X0305457Y0231102D01*
X0305294Y0231494D02*
X0181338Y0231494D01*
X0181668Y0231886D02*
X0305132Y0231886D01*
X0305065Y0232279D02*
X0181998Y0232279D01*
X0182328Y0232671D02*
X0305065Y0232671D01*
X0305065Y0233063D02*
X0282339Y0233063D01*
X0283123Y0233455D02*
X0305065Y0233455D01*
X0305069Y0233847D02*
X0283515Y0233847D01*
X0283907Y0234240D02*
X0305232Y0234240D01*
X0305394Y0234632D02*
X0284070Y0234632D01*
X0284232Y0235024D02*
X0305557Y0235024D01*
X0305719Y0235416D02*
X0284394Y0235416D01*
X0284394Y0235808D02*
X0306068Y0235808D01*
X0306460Y0236201D02*
X0284394Y0236201D01*
X0284394Y0236593D02*
X0306853Y0236593D01*
X0307571Y0236985D02*
X0284270Y0236985D01*
X0284107Y0237377D02*
X0308518Y0237377D01*
X0310606Y0237377D02*
X0368990Y0237377D01*
X0368618Y0237769D02*
X0283945Y0237769D01*
X0283606Y0238162D02*
X0368246Y0238162D01*
X0367874Y0238554D02*
X0283214Y0238554D01*
X0282990Y0238946D02*
X0367502Y0238946D01*
X0367120Y0239338D02*
X0282990Y0239338D01*
X0282990Y0239731D02*
X0366722Y0239731D01*
X0366304Y0240123D02*
X0282990Y0240123D01*
X0282990Y0240515D02*
X0365886Y0240515D01*
X0365467Y0240907D02*
X0282990Y0240907D01*
X0282990Y0241299D02*
X0330707Y0241299D01*
X0330837Y0241246D02*
X0332626Y0241246D01*
X0334279Y0241930D01*
X0335544Y0243195D01*
X0336229Y0244848D01*
X0336229Y0246637D01*
X0335544Y0248290D01*
X0334279Y0249555D01*
X0332626Y0250239D01*
X0330837Y0250239D01*
X0329185Y0249555D01*
X0327920Y0248290D01*
X0327235Y0246637D01*
X0327235Y0244848D01*
X0327920Y0243195D01*
X0329185Y0241930D01*
X0330837Y0241246D01*
X0329761Y0241692D02*
X0282990Y0241692D01*
X0282990Y0242084D02*
X0329031Y0242084D01*
X0328639Y0242476D02*
X0282990Y0242476D01*
X0282990Y0242868D02*
X0328247Y0242868D01*
X0327893Y0243260D02*
X0282990Y0243260D01*
X0282990Y0243653D02*
X0327730Y0243653D01*
X0327568Y0244045D02*
X0302001Y0244045D01*
X0301556Y0243861D02*
X0303209Y0244545D01*
X0304474Y0245810D01*
X0305159Y0247463D01*
X0305159Y0249252D01*
X0304474Y0250905D01*
X0303209Y0252170D01*
X0301556Y0252854D01*
X0299767Y0252854D01*
X0298114Y0252170D01*
X0296849Y0250905D01*
X0296165Y0249252D01*
X0296165Y0247463D01*
X0296849Y0245810D01*
X0298114Y0244545D01*
X0299767Y0243861D01*
X0301556Y0243861D01*
X0302948Y0244437D02*
X0327405Y0244437D01*
X0327243Y0244829D02*
X0303493Y0244829D01*
X0303885Y0245222D02*
X0327235Y0245222D01*
X0327235Y0245614D02*
X0304277Y0245614D01*
X0304555Y0246006D02*
X0327235Y0246006D01*
X0327235Y0246398D02*
X0304717Y0246398D01*
X0304880Y0246790D02*
X0327299Y0246790D01*
X0327461Y0247183D02*
X0305042Y0247183D01*
X0305159Y0247575D02*
X0327624Y0247575D01*
X0327786Y0247967D02*
X0305159Y0247967D01*
X0305159Y0248359D02*
X0327989Y0248359D01*
X0328382Y0248751D02*
X0305159Y0248751D01*
X0305159Y0249144D02*
X0328774Y0249144D01*
X0329166Y0249536D02*
X0305041Y0249536D01*
X0304879Y0249928D02*
X0330086Y0249928D01*
X0333378Y0249928D02*
X0355010Y0249928D01*
X0354480Y0250320D02*
X0304716Y0250320D01*
X0304554Y0250712D02*
X0353950Y0250712D01*
X0353420Y0251105D02*
X0304274Y0251105D01*
X0303882Y0251497D02*
X0352890Y0251497D01*
X0352360Y0251889D02*
X0303490Y0251889D01*
X0302940Y0252281D02*
X0351829Y0252281D01*
X0351299Y0252674D02*
X0301993Y0252674D01*
X0299330Y0252674D02*
X0282990Y0252674D01*
X0282990Y0253066D02*
X0350769Y0253066D01*
X0350233Y0253458D02*
X0282990Y0253458D01*
X0282990Y0253850D02*
X0349658Y0253850D01*
X0349057Y0254242D02*
X0282990Y0254242D01*
X0282990Y0254635D02*
X0348457Y0254635D01*
X0347856Y0255027D02*
X0282990Y0255027D01*
X0282990Y0255419D02*
X0347256Y0255419D01*
X0346655Y0255811D02*
X0282990Y0255811D01*
X0282990Y0256203D02*
X0346055Y0256203D01*
X0345454Y0256596D02*
X0282990Y0256596D01*
X0282990Y0256988D02*
X0321148Y0256988D01*
X0321937Y0256661D02*
X0323726Y0256661D01*
X0325379Y0257345D01*
X0326644Y0258610D01*
X0327329Y0260263D01*
X0327329Y0262052D01*
X0326644Y0263705D01*
X0325379Y0264970D01*
X0323726Y0265654D01*
X0321937Y0265654D01*
X0320285Y0264970D01*
X0319020Y0263705D01*
X0318335Y0262052D01*
X0318335Y0260263D01*
X0319020Y0258610D01*
X0320285Y0257345D01*
X0321937Y0256661D01*
X0320250Y0257380D02*
X0282990Y0257380D01*
X0282990Y0257772D02*
X0319858Y0257772D01*
X0319466Y0258165D02*
X0282990Y0258165D01*
X0282990Y0258557D02*
X0319073Y0258557D01*
X0318879Y0258949D02*
X0282990Y0258949D01*
X0282990Y0259341D02*
X0318717Y0259341D01*
X0318555Y0259733D02*
X0282990Y0259733D01*
X0282990Y0260126D02*
X0318392Y0260126D01*
X0318335Y0260518D02*
X0282990Y0260518D01*
X0282990Y0260910D02*
X0318335Y0260910D01*
X0318335Y0261302D02*
X0282990Y0261302D01*
X0282990Y0261694D02*
X0318335Y0261694D01*
X0318349Y0262087D02*
X0282990Y0262087D01*
X0282990Y0262479D02*
X0318512Y0262479D01*
X0318674Y0262871D02*
X0282990Y0262871D01*
X0282990Y0263263D02*
X0318837Y0263263D01*
X0318999Y0263655D02*
X0282990Y0263655D01*
X0282990Y0264048D02*
X0319363Y0264048D01*
X0319755Y0264440D02*
X0282990Y0264440D01*
X0282990Y0264832D02*
X0320147Y0264832D01*
X0320899Y0265224D02*
X0282990Y0265224D01*
X0282990Y0265617D02*
X0321846Y0265617D01*
X0323818Y0265617D02*
X0328661Y0265617D01*
X0327762Y0266009D02*
X0282990Y0266009D01*
X0282990Y0266401D02*
X0326864Y0266401D01*
X0325965Y0266793D02*
X0282990Y0266793D01*
X0282990Y0267185D02*
X0325067Y0267185D01*
X0324080Y0267578D02*
X0282990Y0267578D01*
X0282990Y0267970D02*
X0323017Y0267970D01*
X0321954Y0268362D02*
X0282990Y0268362D01*
X0282990Y0268754D02*
X0320890Y0268754D01*
X0319826Y0269146D02*
X0282990Y0269146D01*
X0282990Y0269539D02*
X0318763Y0269539D01*
X0317665Y0269931D02*
X0282990Y0269931D01*
X0282990Y0270323D02*
X0316402Y0270323D01*
X0315112Y0270715D02*
X0282990Y0270715D01*
X0282990Y0271108D02*
X0313821Y0271108D01*
X0312531Y0271500D02*
X0282990Y0271500D01*
X0282990Y0271892D02*
X0311240Y0271892D01*
X0309752Y0272284D02*
X0282990Y0272284D01*
X0282990Y0272676D02*
X0308129Y0272676D01*
X0306507Y0273069D02*
X0282990Y0273069D01*
X0282990Y0273461D02*
X0304884Y0273461D01*
X0303171Y0273853D02*
X0282990Y0273853D01*
X0282990Y0274245D02*
X0300998Y0274245D01*
X0298824Y0274637D02*
X0282990Y0274637D01*
X0282990Y0275030D02*
X0296649Y0275030D01*
X0293603Y0275422D02*
X0282990Y0275422D01*
X0282990Y0275814D02*
X0290360Y0275814D01*
X0285383Y0276206D02*
X0282990Y0276206D01*
X0272695Y0276206D02*
X0271258Y0276206D01*
X0272695Y0275814D02*
X0265774Y0275814D01*
X0262558Y0275422D02*
X0272695Y0275422D01*
X0272695Y0275030D02*
X0259341Y0275030D01*
X0257142Y0274637D02*
X0272695Y0274637D01*
X0272695Y0274245D02*
X0254990Y0274245D01*
X0252839Y0273853D02*
X0272695Y0273853D01*
X0272695Y0273461D02*
X0250984Y0273461D01*
X0249377Y0273069D02*
X0272695Y0273069D01*
X0272695Y0272676D02*
X0247769Y0272676D01*
X0246162Y0272284D02*
X0272695Y0272284D01*
X0272695Y0271892D02*
X0244585Y0271892D01*
X0243290Y0271500D02*
X0272695Y0271500D01*
X0272695Y0271108D02*
X0242015Y0271108D01*
X0240740Y0270715D02*
X0272695Y0270715D01*
X0272695Y0270323D02*
X0239464Y0270323D01*
X0238189Y0269931D02*
X0272695Y0269931D01*
X0272695Y0269539D02*
X0237012Y0269539D01*
X0235961Y0269146D02*
X0272695Y0269146D01*
X0272695Y0268754D02*
X0234911Y0268754D01*
X0233861Y0268362D02*
X0272695Y0268362D01*
X0272695Y0267970D02*
X0232810Y0267970D01*
X0231760Y0267578D02*
X0272695Y0267578D01*
X0272695Y0267185D02*
X0230709Y0267185D01*
X0229786Y0266793D02*
X0272695Y0266793D01*
X0272695Y0266401D02*
X0228900Y0266401D01*
X0228014Y0266009D02*
X0272695Y0266009D01*
X0272695Y0265617D02*
X0227128Y0265617D01*
X0226242Y0265224D02*
X0272695Y0265224D01*
X0272695Y0264832D02*
X0225357Y0264832D01*
X0224471Y0264440D02*
X0272695Y0264440D01*
X0272695Y0264048D02*
X0223586Y0264048D01*
X0222824Y0263655D02*
X0272695Y0263655D01*
X0272695Y0263263D02*
X0222063Y0263263D01*
X0221302Y0262871D02*
X0272695Y0262871D01*
X0272695Y0262479D02*
X0220540Y0262479D01*
X0219779Y0262087D02*
X0272695Y0262087D01*
X0272695Y0261694D02*
X0219018Y0261694D01*
X0218256Y0261302D02*
X0272695Y0261302D01*
X0272695Y0260910D02*
X0217495Y0260910D01*
X0216108Y0260518D02*
X0272695Y0260518D01*
X0272695Y0260126D02*
X0215394Y0260126D01*
X0215394Y0259733D02*
X0272695Y0259733D01*
X0272695Y0259341D02*
X0215095Y0259341D01*
X0214703Y0258949D02*
X0272695Y0258949D01*
X0272695Y0258557D02*
X0214310Y0258557D01*
X0211712Y0258165D02*
X0272695Y0258165D01*
X0272695Y0257772D02*
X0211516Y0257772D01*
X0211373Y0257380D02*
X0272695Y0257380D01*
X0272695Y0256988D02*
X0210797Y0256988D01*
X0210186Y0256596D02*
X0272695Y0256596D01*
X0272695Y0256203D02*
X0209593Y0256203D01*
X0209000Y0255811D02*
X0272695Y0255811D01*
X0272695Y0255419D02*
X0208407Y0255419D01*
X0207813Y0255027D02*
X0272695Y0255027D01*
X0272695Y0254635D02*
X0207220Y0254635D01*
X0206627Y0254242D02*
X0272695Y0254242D01*
X0272695Y0253850D02*
X0206034Y0253850D01*
X0205440Y0253458D02*
X0272695Y0253458D01*
X0272695Y0253066D02*
X0204870Y0253066D01*
X0204338Y0252674D02*
X0272695Y0252674D01*
X0272695Y0252281D02*
X0203813Y0252281D01*
X0203288Y0251889D02*
X0272695Y0251889D01*
X0272695Y0251497D02*
X0202763Y0251497D01*
X0202239Y0251105D02*
X0272695Y0251105D01*
X0272695Y0250712D02*
X0201714Y0250712D01*
X0201189Y0250320D02*
X0272695Y0250320D01*
X0272695Y0249928D02*
X0200664Y0249928D01*
X0200139Y0249536D02*
X0272695Y0249536D01*
X0272695Y0249144D02*
X0199614Y0249144D01*
X0199111Y0248751D02*
X0272695Y0248751D01*
X0272695Y0248359D02*
X0198630Y0248359D01*
X0198164Y0247967D02*
X0272695Y0247967D01*
X0272695Y0247575D02*
X0197698Y0247575D01*
X0197231Y0247183D02*
X0272695Y0247183D01*
X0272695Y0246790D02*
X0196765Y0246790D01*
X0196298Y0246398D02*
X0272695Y0246398D01*
X0272695Y0246006D02*
X0195832Y0246006D01*
X0195365Y0245614D02*
X0272695Y0245614D01*
X0272695Y0245222D02*
X0194899Y0245222D01*
X0194433Y0244829D02*
X0272695Y0244829D01*
X0272695Y0244437D02*
X0193968Y0244437D01*
X0193512Y0244045D02*
X0272695Y0244045D01*
X0272695Y0243653D02*
X0193095Y0243653D01*
X0192679Y0243260D02*
X0272695Y0243260D01*
X0272695Y0242868D02*
X0192264Y0242868D01*
X0191848Y0242476D02*
X0272695Y0242476D01*
X0272695Y0242084D02*
X0191433Y0242084D01*
X0191017Y0241692D02*
X0272695Y0241692D01*
X0272695Y0241299D02*
X0190602Y0241299D01*
X0190186Y0240907D02*
X0272695Y0240907D01*
X0272695Y0240515D02*
X0189771Y0240515D01*
X0189355Y0240123D02*
X0272695Y0240123D01*
X0272695Y0239731D02*
X0188940Y0239731D01*
X0188524Y0239338D02*
X0272695Y0239338D01*
X0272335Y0238946D02*
X0188136Y0238946D01*
X0187761Y0238554D02*
X0271680Y0238554D01*
X0271288Y0238162D02*
X0187391Y0238162D01*
X0187020Y0237769D02*
X0270949Y0237769D01*
X0270786Y0237377D02*
X0186650Y0237377D01*
X0186279Y0236985D02*
X0270624Y0236985D01*
X0270500Y0236593D02*
X0185909Y0236593D01*
X0185538Y0236201D02*
X0270500Y0236201D01*
X0270500Y0235808D02*
X0185168Y0235808D01*
X0184797Y0235416D02*
X0270500Y0235416D01*
X0270662Y0235024D02*
X0184427Y0235024D01*
X0184057Y0234632D02*
X0270824Y0234632D01*
X0270987Y0234240D02*
X0183686Y0234240D01*
X0183331Y0233847D02*
X0271378Y0233847D01*
X0271771Y0233455D02*
X0182988Y0233455D01*
X0182658Y0233063D02*
X0272554Y0233063D01*
X0274839Y0233063D02*
X0280054Y0233063D01*
X0279271Y0233455D02*
X0275623Y0233455D01*
X0276015Y0233847D02*
X0278878Y0233847D01*
X0278487Y0234240D02*
X0276407Y0234240D01*
X0282990Y0244045D02*
X0299323Y0244045D01*
X0298376Y0244437D02*
X0282990Y0244437D01*
X0282990Y0244829D02*
X0297831Y0244829D01*
X0297438Y0245222D02*
X0282990Y0245222D01*
X0282990Y0245614D02*
X0297046Y0245614D01*
X0296768Y0246006D02*
X0282990Y0246006D01*
X0282990Y0246398D02*
X0296606Y0246398D01*
X0296444Y0246790D02*
X0282990Y0246790D01*
X0282990Y0247183D02*
X0296281Y0247183D01*
X0296165Y0247575D02*
X0282990Y0247575D01*
X0282990Y0247967D02*
X0296165Y0247967D01*
X0296165Y0248359D02*
X0282990Y0248359D01*
X0282990Y0248751D02*
X0296165Y0248751D01*
X0296165Y0249144D02*
X0282990Y0249144D01*
X0282990Y0249536D02*
X0296282Y0249536D01*
X0296445Y0249928D02*
X0282990Y0249928D01*
X0282990Y0250320D02*
X0296607Y0250320D01*
X0296770Y0250712D02*
X0282990Y0250712D01*
X0282990Y0251105D02*
X0297049Y0251105D01*
X0297442Y0251497D02*
X0282990Y0251497D01*
X0282990Y0251889D02*
X0297834Y0251889D01*
X0298384Y0252281D02*
X0282990Y0252281D01*
X0311553Y0236985D02*
X0369362Y0236985D01*
X0369734Y0236593D02*
X0312271Y0236593D01*
X0312663Y0236201D02*
X0370106Y0236201D01*
X0370478Y0235808D02*
X0313055Y0235808D01*
X0313404Y0235416D02*
X0370850Y0235416D01*
X0371222Y0235024D02*
X0313567Y0235024D01*
X0313729Y0234632D02*
X0371594Y0234632D01*
X0371966Y0234240D02*
X0313892Y0234240D01*
X0314054Y0233847D02*
X0372316Y0233847D01*
X0372647Y0233455D02*
X0314059Y0233455D01*
X0314059Y0233063D02*
X0372978Y0233063D01*
X0373310Y0232671D02*
X0314059Y0232671D01*
X0314059Y0232279D02*
X0373641Y0232279D01*
X0373972Y0231886D02*
X0313992Y0231886D01*
X0313829Y0231494D02*
X0374303Y0231494D01*
X0374634Y0231102D02*
X0313667Y0231102D01*
X0313504Y0230710D02*
X0374965Y0230710D01*
X0375296Y0230317D02*
X0313296Y0230317D01*
X0312904Y0229925D02*
X0375627Y0229925D01*
X0375958Y0229533D02*
X0312512Y0229533D01*
X0312120Y0229141D02*
X0376289Y0229141D01*
X0376620Y0228749D02*
X0311188Y0228749D01*
X0332756Y0241299D02*
X0365049Y0241299D01*
X0364630Y0241692D02*
X0333703Y0241692D01*
X0334433Y0242084D02*
X0364212Y0242084D01*
X0363793Y0242476D02*
X0334825Y0242476D01*
X0335217Y0242868D02*
X0363375Y0242868D01*
X0362956Y0243260D02*
X0335571Y0243260D01*
X0335734Y0243653D02*
X0362538Y0243653D01*
X0362120Y0244045D02*
X0335896Y0244045D01*
X0336059Y0244437D02*
X0361701Y0244437D01*
X0361237Y0244829D02*
X0336221Y0244829D01*
X0336229Y0245222D02*
X0360767Y0245222D01*
X0360297Y0245614D02*
X0336229Y0245614D01*
X0336229Y0246006D02*
X0359827Y0246006D01*
X0359357Y0246398D02*
X0336229Y0246398D01*
X0336165Y0246790D02*
X0358886Y0246790D01*
X0358416Y0247183D02*
X0336003Y0247183D01*
X0335840Y0247575D02*
X0357946Y0247575D01*
X0357476Y0247967D02*
X0335678Y0247967D01*
X0335475Y0248359D02*
X0357006Y0248359D01*
X0356535Y0248751D02*
X0335082Y0248751D01*
X0334690Y0249144D02*
X0356051Y0249144D01*
X0355540Y0249536D02*
X0334298Y0249536D01*
X0340583Y0258557D02*
X0326591Y0258557D01*
X0326784Y0258949D02*
X0340191Y0258949D01*
X0339799Y0259341D02*
X0326947Y0259341D01*
X0327109Y0259733D02*
X0339500Y0259733D01*
X0339500Y0260126D02*
X0327272Y0260126D01*
X0327329Y0260518D02*
X0339288Y0260518D01*
X0338536Y0260910D02*
X0327329Y0260910D01*
X0327329Y0261302D02*
X0337533Y0261302D01*
X0336769Y0261694D02*
X0327329Y0261694D01*
X0327315Y0262087D02*
X0335997Y0262087D01*
X0335225Y0262479D02*
X0327152Y0262479D01*
X0326990Y0262871D02*
X0334453Y0262871D01*
X0333680Y0263263D02*
X0326827Y0263263D01*
X0326665Y0263655D02*
X0332908Y0263655D01*
X0332136Y0264048D02*
X0326301Y0264048D01*
X0325909Y0264440D02*
X0331339Y0264440D01*
X0330458Y0264832D02*
X0325517Y0264832D01*
X0324765Y0265224D02*
X0329559Y0265224D01*
X0326198Y0258165D02*
X0343483Y0258165D01*
X0343653Y0257772D02*
X0325806Y0257772D01*
X0325414Y0257380D02*
X0344164Y0257380D01*
X0344854Y0256988D02*
X0324516Y0256988D01*
X0342810Y0258557D02*
X0343048Y0258557D01*
X0403843Y0139716D02*
X0151844Y0139716D01*
X0151874Y0139324D02*
X0403814Y0139324D01*
X0403779Y0138932D02*
X0151906Y0138932D01*
X0151949Y0138540D02*
X0403737Y0138540D01*
X0403692Y0138148D02*
X0151994Y0138148D01*
X0152039Y0137755D02*
X0403646Y0137755D01*
X0403601Y0137363D02*
X0152084Y0137363D01*
X0152129Y0136971D02*
X0403555Y0136971D01*
X0403510Y0136579D02*
X0152174Y0136579D01*
X0152218Y0136187D02*
X0403464Y0136187D01*
X0403419Y0135794D02*
X0152263Y0135794D01*
X0152308Y0135402D02*
X0403373Y0135402D01*
X0403328Y0135010D02*
X0152353Y0135010D01*
X0152398Y0134618D02*
X0403283Y0134618D01*
X0403237Y0134225D02*
X0152443Y0134225D01*
X0152488Y0133833D02*
X0366796Y0133833D01*
X0367312Y0134047D02*
X0365659Y0133362D01*
X0364394Y0132097D01*
X0363710Y0130444D01*
X0363710Y0128656D01*
X0364394Y0127003D01*
X0365659Y0125738D01*
X0367312Y0125053D01*
X0369101Y0125053D01*
X0370754Y0125738D01*
X0372019Y0127003D01*
X0372703Y0128656D01*
X0372703Y0130444D01*
X0372019Y0132097D01*
X0370754Y0133362D01*
X0369101Y0134047D01*
X0367312Y0134047D01*
X0365850Y0133441D02*
X0152533Y0133441D01*
X0152578Y0133049D02*
X0365346Y0133049D01*
X0364954Y0132657D02*
X0152622Y0132657D01*
X0152667Y0132264D02*
X0364561Y0132264D01*
X0364301Y0131872D02*
X0152714Y0131872D01*
X0152782Y0131480D02*
X0364139Y0131480D01*
X0363976Y0131088D02*
X0152850Y0131088D01*
X0152918Y0130696D02*
X0363814Y0130696D01*
X0363710Y0130303D02*
X0152986Y0130303D01*
X0153054Y0129911D02*
X0363710Y0129911D01*
X0363710Y0129519D02*
X0153123Y0129519D01*
X0153191Y0129127D02*
X0363710Y0129127D01*
X0363710Y0128735D02*
X0153259Y0128735D01*
X0153327Y0128342D02*
X0363839Y0128342D01*
X0364002Y0127950D02*
X0153395Y0127950D01*
X0153464Y0127558D02*
X0364164Y0127558D01*
X0364327Y0127166D02*
X0153532Y0127166D01*
X0153600Y0126773D02*
X0364624Y0126773D01*
X0365016Y0126381D02*
X0153668Y0126381D01*
X0153736Y0125989D02*
X0365408Y0125989D01*
X0365999Y0125597D02*
X0153804Y0125597D01*
X0153873Y0125205D02*
X0366946Y0125205D01*
X0369467Y0125205D02*
X0401802Y0125205D01*
X0401871Y0125597D02*
X0370413Y0125597D01*
X0371005Y0125989D02*
X0401939Y0125989D01*
X0402008Y0126381D02*
X0371397Y0126381D01*
X0371789Y0126773D02*
X0402076Y0126773D01*
X0402145Y0127166D02*
X0372086Y0127166D01*
X0372249Y0127558D02*
X0402214Y0127558D01*
X0402282Y0127950D02*
X0372411Y0127950D01*
X0372574Y0128342D02*
X0402351Y0128342D01*
X0402419Y0128735D02*
X0372703Y0128735D01*
X0372703Y0129127D02*
X0402488Y0129127D01*
X0402557Y0129519D02*
X0372703Y0129519D01*
X0372703Y0129911D02*
X0402625Y0129911D01*
X0402694Y0130303D02*
X0372703Y0130303D01*
X0372599Y0130696D02*
X0402762Y0130696D01*
X0402831Y0131088D02*
X0372437Y0131088D01*
X0372274Y0131480D02*
X0402899Y0131480D01*
X0402965Y0131872D02*
X0372112Y0131872D01*
X0371852Y0132264D02*
X0403010Y0132264D01*
X0403055Y0132657D02*
X0371459Y0132657D01*
X0371067Y0133049D02*
X0403101Y0133049D01*
X0403146Y0133441D02*
X0370563Y0133441D01*
X0369617Y0133833D02*
X0403192Y0133833D01*
X0401730Y0124812D02*
X0153946Y0124812D01*
X0154026Y0124420D02*
X0401647Y0124420D01*
X0401561Y0124028D02*
X0154112Y0124028D01*
X0154205Y0123636D02*
X0401468Y0123636D01*
X0401376Y0123244D02*
X0154297Y0123244D01*
X0154389Y0122851D02*
X0401284Y0122851D01*
X0401191Y0122459D02*
X0154481Y0122459D01*
X0154573Y0122067D02*
X0401099Y0122067D01*
X0401006Y0121675D02*
X0154666Y0121675D01*
X0154758Y0121282D02*
X0400914Y0121282D01*
X0400822Y0120890D02*
X0154850Y0120890D01*
X0154942Y0120498D02*
X0400729Y0120498D01*
X0400637Y0120106D02*
X0155034Y0120106D01*
X0155126Y0119714D02*
X0400544Y0119714D01*
X0400452Y0119321D02*
X0155219Y0119321D01*
X0155311Y0118929D02*
X0400360Y0118929D01*
X0400267Y0118537D02*
X0155403Y0118537D01*
X0155495Y0118145D02*
X0400175Y0118145D01*
X0400079Y0117753D02*
X0155587Y0117753D01*
X0155682Y0117360D02*
X0399983Y0117360D01*
X0399868Y0116968D02*
X0155798Y0116968D01*
X0155915Y0116576D02*
X0399751Y0116576D01*
X0399634Y0116184D02*
X0156032Y0116184D01*
X0156148Y0115792D02*
X0399517Y0115792D01*
X0399401Y0115399D02*
X0156265Y0115399D01*
X0156381Y0115007D02*
X0399284Y0115007D01*
X0399167Y0114615D02*
X0156498Y0114615D01*
X0156614Y0114223D02*
X0399050Y0114223D01*
X0398933Y0113830D02*
X0156731Y0113830D01*
X0156847Y0113438D02*
X0199816Y0113438D01*
X0199172Y0113046D02*
X0156964Y0113046D01*
X0157080Y0112654D02*
X0198780Y0112654D01*
X0198446Y0112262D02*
X0157197Y0112262D01*
X0157313Y0111869D02*
X0198283Y0111869D01*
X0198121Y0111477D02*
X0157430Y0111477D01*
X0157546Y0111085D02*
X0198000Y0111085D01*
X0198000Y0110693D02*
X0157663Y0110693D01*
X0157793Y0110301D02*
X0198000Y0110301D01*
X0198002Y0109908D02*
X0157926Y0109908D01*
X0158067Y0109516D02*
X0197393Y0109516D01*
X0196714Y0109124D02*
X0158209Y0109124D01*
X0158351Y0108732D02*
X0196035Y0108732D01*
X0195355Y0108339D02*
X0158493Y0108339D01*
X0158635Y0107947D02*
X0194676Y0107947D01*
X0193997Y0107555D02*
X0158777Y0107555D01*
X0158919Y0107163D02*
X0193317Y0107163D01*
X0192638Y0106771D02*
X0159060Y0106771D01*
X0159202Y0106378D02*
X0191959Y0106378D01*
X0191279Y0105986D02*
X0159344Y0105986D01*
X0159486Y0105594D02*
X0190600Y0105594D01*
X0189921Y0105202D02*
X0159628Y0105202D01*
X0159770Y0104810D02*
X0189241Y0104810D01*
X0188562Y0104417D02*
X0159912Y0104417D01*
X0160054Y0104025D02*
X0187883Y0104025D01*
X0187203Y0103633D02*
X0160198Y0103633D01*
X0160350Y0103241D02*
X0186524Y0103241D01*
X0185845Y0102849D02*
X0160518Y0102849D01*
X0160687Y0102456D02*
X0185165Y0102456D01*
X0184486Y0102064D02*
X0160855Y0102064D01*
X0161023Y0101672D02*
X0183807Y0101672D01*
X0183127Y0101280D02*
X0161192Y0101280D01*
X0161360Y0100887D02*
X0182448Y0100887D01*
X0181769Y0100495D02*
X0161528Y0100495D01*
X0161697Y0100103D02*
X0181089Y0100103D01*
X0180410Y0099711D02*
X0161865Y0099711D01*
X0162033Y0099319D02*
X0179731Y0099319D01*
X0179051Y0098926D02*
X0162202Y0098926D01*
X0162370Y0098534D02*
X0178372Y0098534D01*
X0177693Y0098142D02*
X0162538Y0098142D01*
X0162707Y0097750D02*
X0177013Y0097750D01*
X0176334Y0097358D02*
X0162875Y0097358D01*
X0163043Y0096965D02*
X0175655Y0096965D01*
X0174975Y0096573D02*
X0163226Y0096573D01*
X0163413Y0096181D02*
X0174296Y0096181D01*
X0173617Y0095789D02*
X0163609Y0095789D01*
X0163805Y0095396D02*
X0172937Y0095396D01*
X0172258Y0095004D02*
X0164001Y0095004D01*
X0164198Y0094612D02*
X0171579Y0094612D01*
X0170899Y0094220D02*
X0164394Y0094220D01*
X0164590Y0093828D02*
X0170220Y0093828D01*
X0169541Y0093435D02*
X0164786Y0093435D01*
X0164982Y0093043D02*
X0168861Y0093043D01*
X0168182Y0092651D02*
X0165179Y0092651D01*
X0165375Y0092259D02*
X0167503Y0092259D01*
X0166823Y0091867D02*
X0165571Y0091867D01*
X0165767Y0091474D02*
X0166144Y0091474D01*
X0171787Y0082846D02*
X0383900Y0082846D01*
X0383221Y0083238D02*
X0172466Y0083238D01*
X0173145Y0083630D02*
X0382542Y0083630D01*
X0381862Y0084022D02*
X0173825Y0084022D01*
X0174504Y0084415D02*
X0381183Y0084415D01*
X0380504Y0084807D02*
X0175183Y0084807D01*
X0175863Y0085199D02*
X0379824Y0085199D01*
X0379145Y0085591D02*
X0176542Y0085591D01*
X0177221Y0085983D02*
X0378466Y0085983D01*
X0377786Y0086376D02*
X0177901Y0086376D01*
X0178580Y0086768D02*
X0377107Y0086768D01*
X0376427Y0087160D02*
X0179259Y0087160D01*
X0179938Y0087552D02*
X0375748Y0087552D01*
X0375069Y0087944D02*
X0180618Y0087944D01*
X0181297Y0088337D02*
X0374389Y0088337D01*
X0373710Y0088729D02*
X0181976Y0088729D01*
X0182656Y0089121D02*
X0373031Y0089121D01*
X0372351Y0089513D02*
X0183335Y0089513D01*
X0184014Y0089906D02*
X0371672Y0089906D01*
X0370993Y0090298D02*
X0184694Y0090298D01*
X0185373Y0090690D02*
X0370313Y0090690D01*
X0369634Y0091082D02*
X0186052Y0091082D01*
X0186732Y0091474D02*
X0368955Y0091474D01*
X0368275Y0091867D02*
X0187411Y0091867D01*
X0188090Y0092259D02*
X0367596Y0092259D01*
X0366916Y0092651D02*
X0188770Y0092651D01*
X0189449Y0093043D02*
X0366237Y0093043D01*
X0365558Y0093435D02*
X0190128Y0093435D01*
X0190808Y0093828D02*
X0364878Y0093828D01*
X0364199Y0094220D02*
X0191487Y0094220D01*
X0192166Y0094612D02*
X0363520Y0094612D01*
X0362840Y0095004D02*
X0192845Y0095004D01*
X0193525Y0095396D02*
X0362161Y0095396D01*
X0361482Y0095789D02*
X0194204Y0095789D01*
X0194883Y0096181D02*
X0360802Y0096181D01*
X0360123Y0096573D02*
X0195563Y0096573D01*
X0196242Y0096965D02*
X0359444Y0096965D01*
X0358764Y0097358D02*
X0196921Y0097358D01*
X0197601Y0097750D02*
X0358085Y0097750D01*
X0357406Y0098142D02*
X0198280Y0098142D01*
X0198959Y0098534D02*
X0356726Y0098534D01*
X0356047Y0098926D02*
X0199639Y0098926D01*
X0200318Y0099319D02*
X0355367Y0099319D01*
X0354688Y0099711D02*
X0200997Y0099711D01*
X0201677Y0100103D02*
X0354009Y0100103D01*
X0353329Y0100495D02*
X0202356Y0100495D01*
X0203035Y0100887D02*
X0204478Y0100887D01*
X0205916Y0100887D02*
X0349478Y0100887D01*
X0348531Y0101280D02*
X0206862Y0101280D01*
X0207340Y0101672D02*
X0348054Y0101672D01*
X0347662Y0102064D02*
X0207732Y0102064D01*
X0207997Y0102456D02*
X0347397Y0102456D01*
X0347234Y0102849D02*
X0208159Y0102849D01*
X0208322Y0103241D02*
X0347072Y0103241D01*
X0347000Y0103633D02*
X0208394Y0103633D01*
X0208394Y0104025D02*
X0347000Y0104025D01*
X0347000Y0104417D02*
X0208394Y0104417D01*
X0208342Y0104810D02*
X0347051Y0104810D01*
X0347214Y0105202D02*
X0208180Y0105202D01*
X0208018Y0105594D02*
X0347376Y0105594D01*
X0347612Y0105986D02*
X0207782Y0105986D01*
X0207389Y0106378D02*
X0348004Y0106378D01*
X0348411Y0106771D02*
X0206982Y0106771D01*
X0206036Y0107163D02*
X0349358Y0107163D01*
X0350971Y0107555D02*
X0204714Y0107555D01*
X0204487Y0107947D02*
X0351198Y0107947D01*
X0351424Y0108339D02*
X0204261Y0108339D01*
X0204034Y0108732D02*
X0351283Y0108732D01*
X0351120Y0109124D02*
X0204066Y0109124D01*
X0204229Y0109516D02*
X0351000Y0109516D01*
X0351000Y0109908D02*
X0204391Y0109908D01*
X0204394Y0110301D02*
X0351000Y0110301D01*
X0351003Y0110693D02*
X0204394Y0110693D01*
X0204394Y0111085D02*
X0351165Y0111085D01*
X0351328Y0111477D02*
X0204273Y0111477D01*
X0204111Y0111869D02*
X0351495Y0111869D01*
X0351887Y0112262D02*
X0203948Y0112262D01*
X0203614Y0112654D02*
X0352280Y0112654D01*
X0353076Y0113046D02*
X0203222Y0113046D01*
X0202578Y0113438D02*
X0398816Y0113438D01*
X0398699Y0113046D02*
X0355318Y0113046D01*
X0356114Y0112654D02*
X0398582Y0112654D01*
X0398466Y0112262D02*
X0356506Y0112262D01*
X0356898Y0111869D02*
X0398349Y0111869D01*
X0398232Y0111477D02*
X0357066Y0111477D01*
X0357228Y0111085D02*
X0398115Y0111085D01*
X0397998Y0110693D02*
X0357391Y0110693D01*
X0357394Y0110301D02*
X0397868Y0110301D01*
X0397734Y0109908D02*
X0357612Y0109908D01*
X0358292Y0109516D02*
X0397592Y0109516D01*
X0397449Y0109124D02*
X0358971Y0109124D01*
X0359650Y0108732D02*
X0397307Y0108732D01*
X0397165Y0108339D02*
X0360330Y0108339D01*
X0361009Y0107947D02*
X0397023Y0107947D01*
X0396881Y0107555D02*
X0361688Y0107555D01*
X0362368Y0107163D02*
X0396738Y0107163D01*
X0396596Y0106771D02*
X0363047Y0106771D01*
X0363726Y0106378D02*
X0396454Y0106378D01*
X0396312Y0105986D02*
X0364405Y0105986D01*
X0365085Y0105594D02*
X0396170Y0105594D01*
X0396027Y0105202D02*
X0365764Y0105202D01*
X0366443Y0104810D02*
X0395885Y0104810D01*
X0395743Y0104417D02*
X0367123Y0104417D01*
X0367802Y0104025D02*
X0395601Y0104025D01*
X0395453Y0103633D02*
X0368481Y0103633D01*
X0369161Y0103241D02*
X0395302Y0103241D01*
X0395134Y0102849D02*
X0369840Y0102849D01*
X0370519Y0102456D02*
X0394965Y0102456D01*
X0394796Y0102064D02*
X0371198Y0102064D01*
X0371878Y0101672D02*
X0394628Y0101672D01*
X0394459Y0101280D02*
X0372557Y0101280D01*
X0373236Y0100887D02*
X0394290Y0100887D01*
X0394121Y0100495D02*
X0373916Y0100495D01*
X0374595Y0100103D02*
X0393953Y0100103D01*
X0393784Y0099711D02*
X0375274Y0099711D01*
X0375954Y0099319D02*
X0393615Y0099319D01*
X0393447Y0098926D02*
X0376633Y0098926D01*
X0377312Y0098534D02*
X0393278Y0098534D01*
X0393109Y0098142D02*
X0377992Y0098142D01*
X0378671Y0097750D02*
X0392941Y0097750D01*
X0392772Y0097358D02*
X0379350Y0097358D01*
X0380029Y0096965D02*
X0392603Y0096965D01*
X0392421Y0096573D02*
X0380709Y0096573D01*
X0381388Y0096181D02*
X0392231Y0096181D01*
X0392035Y0095789D02*
X0382067Y0095789D01*
X0382747Y0095396D02*
X0391839Y0095396D01*
X0391642Y0095004D02*
X0383426Y0095004D01*
X0384105Y0094612D02*
X0391445Y0094612D01*
X0391249Y0094220D02*
X0384785Y0094220D01*
X0385464Y0093828D02*
X0391052Y0093828D01*
X0390856Y0093435D02*
X0386143Y0093435D01*
X0386822Y0093043D02*
X0390659Y0093043D01*
X0390462Y0092651D02*
X0387502Y0092651D01*
X0388181Y0092259D02*
X0390266Y0092259D01*
X0390069Y0091867D02*
X0388860Y0091867D01*
X0389540Y0091474D02*
X0389873Y0091474D01*
X0384580Y0082453D02*
X0171111Y0082453D01*
X0171371Y0082061D02*
X0384442Y0082061D01*
X0384183Y0081669D02*
X0171630Y0081669D01*
X0171890Y0081277D02*
X0383923Y0081277D01*
X0383663Y0080885D02*
X0172149Y0080885D01*
X0172408Y0080492D02*
X0383404Y0080492D01*
X0383144Y0080100D02*
X0172668Y0080100D01*
X0172927Y0079708D02*
X0382884Y0079708D01*
X0382625Y0079316D02*
X0173187Y0079316D01*
X0173446Y0078924D02*
X0382365Y0078924D01*
X0382106Y0078531D02*
X0173705Y0078531D01*
X0173965Y0078139D02*
X0381846Y0078139D01*
X0381586Y0077747D02*
X0174224Y0077747D01*
X0174500Y0077355D02*
X0381319Y0077355D01*
X0381032Y0076963D02*
X0174794Y0076963D01*
X0175087Y0076570D02*
X0380739Y0076570D01*
X0380445Y0076178D02*
X0175380Y0076178D01*
X0175674Y0075786D02*
X0380150Y0075786D01*
X0379856Y0075394D02*
X0175967Y0075394D01*
X0176260Y0075001D02*
X0379561Y0075001D01*
X0379267Y0074609D02*
X0176554Y0074609D01*
X0176847Y0074217D02*
X0378972Y0074217D01*
X0378678Y0073825D02*
X0177140Y0073825D01*
X0177434Y0073433D02*
X0378383Y0073433D01*
X0378089Y0073040D02*
X0177727Y0073040D01*
X0178020Y0072648D02*
X0377794Y0072648D01*
X0377500Y0072256D02*
X0178314Y0072256D01*
X0178609Y0071864D02*
X0377205Y0071864D01*
X0376905Y0071472D02*
X0178919Y0071472D01*
X0179242Y0071079D02*
X0376590Y0071079D01*
X0376258Y0070687D02*
X0179573Y0070687D01*
X0179904Y0070295D02*
X0375925Y0070295D01*
X0375593Y0069903D02*
X0180235Y0069903D01*
X0180566Y0069510D02*
X0375260Y0069510D01*
X0374928Y0069118D02*
X0180897Y0069118D01*
X0181228Y0068726D02*
X0374595Y0068726D01*
X0374263Y0068334D02*
X0181559Y0068334D01*
X0181890Y0067942D02*
X0373930Y0067942D01*
X0373598Y0067549D02*
X0182221Y0067549D01*
X0182552Y0067157D02*
X0373265Y0067157D01*
X0372933Y0066765D02*
X0182883Y0066765D01*
X0183214Y0066373D02*
X0372600Y0066373D01*
X0372268Y0065981D02*
X0183546Y0065981D01*
X0183916Y0065588D02*
X0371917Y0065588D01*
X0371555Y0065196D02*
X0184288Y0065196D01*
X0184660Y0064804D02*
X0371180Y0064804D01*
X0370806Y0064412D02*
X0185032Y0064412D01*
X0185404Y0064020D02*
X0370431Y0064020D01*
X0370057Y0063627D02*
X0185776Y0063627D01*
X0186148Y0063235D02*
X0369683Y0063235D01*
X0369308Y0062843D02*
X0186520Y0062843D01*
X0186892Y0062451D02*
X0368934Y0062451D01*
X0368559Y0062058D02*
X0187265Y0062058D01*
X0187637Y0061666D02*
X0368185Y0061666D01*
X0367810Y0061274D02*
X0188009Y0061274D01*
X0188381Y0060882D02*
X0367436Y0060882D01*
X0367062Y0060490D02*
X0188776Y0060490D01*
X0189186Y0060097D02*
X0366669Y0060097D01*
X0366248Y0059705D02*
X0189604Y0059705D01*
X0190023Y0059313D02*
X0365827Y0059313D01*
X0365405Y0058921D02*
X0190441Y0058921D01*
X0190860Y0058529D02*
X0364984Y0058529D01*
X0364563Y0058136D02*
X0191279Y0058136D01*
X0191697Y0057744D02*
X0364141Y0057744D01*
X0363720Y0057352D02*
X0192116Y0057352D01*
X0192534Y0056960D02*
X0363298Y0056960D01*
X0362877Y0056567D02*
X0192953Y0056567D01*
X0193371Y0056175D02*
X0362456Y0056175D01*
X0362034Y0055783D02*
X0193790Y0055783D01*
X0194228Y0055391D02*
X0361609Y0055391D01*
X0361167Y0054999D02*
X0194698Y0054999D01*
X0195168Y0054606D02*
X0360695Y0054606D01*
X0360221Y0054214D02*
X0195638Y0054214D01*
X0196108Y0053822D02*
X0359746Y0053822D01*
X0359271Y0053430D02*
X0196578Y0053430D01*
X0197049Y0053038D02*
X0358797Y0053038D01*
X0358322Y0052645D02*
X0197519Y0052645D01*
X0197989Y0052253D02*
X0357847Y0052253D01*
X0357373Y0051861D02*
X0198459Y0051861D01*
X0198929Y0051469D02*
X0356898Y0051469D01*
X0356423Y0051077D02*
X0199399Y0051077D01*
X0199902Y0050684D02*
X0355948Y0050684D01*
X0355449Y0050292D02*
X0200426Y0050292D01*
X0200956Y0049900D02*
X0354921Y0049900D01*
X0354385Y0049508D02*
X0201487Y0049508D01*
X0202017Y0049115D02*
X0353849Y0049115D01*
X0353312Y0048723D02*
X0202547Y0048723D01*
X0203077Y0048331D02*
X0352776Y0048331D01*
X0352239Y0047939D02*
X0203607Y0047939D01*
X0204137Y0047547D02*
X0351703Y0047547D01*
X0351167Y0047154D02*
X0204667Y0047154D01*
X0205199Y0046762D02*
X0350630Y0046762D01*
X0350094Y0046370D02*
X0205745Y0046370D01*
X0206346Y0045978D02*
X0349546Y0045978D01*
X0348949Y0045586D02*
X0206946Y0045586D01*
X0207547Y0045193D02*
X0348340Y0045193D01*
X0347731Y0044801D02*
X0208147Y0044801D01*
X0208748Y0044409D02*
X0347122Y0044409D01*
X0346513Y0044017D02*
X0209348Y0044017D01*
X0209949Y0043624D02*
X0345904Y0043624D01*
X0345295Y0043232D02*
X0210549Y0043232D01*
X0211149Y0042840D02*
X0344686Y0042840D01*
X0344077Y0042448D02*
X0211750Y0042448D01*
X0212110Y0042056D02*
X0213096Y0042056D01*
X0212703Y0041663D02*
X0212234Y0041663D01*
X0212275Y0041271D02*
X0212311Y0041271D01*
X0215298Y0042056D02*
X0343467Y0042056D01*
X0342957Y0041663D02*
X0342190Y0041663D01*
X0342582Y0041271D02*
X0342900Y0041271D01*
X0340203Y0041663D02*
X0215690Y0041663D01*
X0216082Y0041271D02*
X0339811Y0041271D01*
X0339419Y0040879D02*
X0216394Y0040879D01*
X0216394Y0040487D02*
X0339027Y0040487D01*
X0339000Y0040095D02*
X0216394Y0040095D01*
X0216394Y0039702D02*
X0339000Y0039702D01*
X0339000Y0039310D02*
X0216394Y0039310D01*
X0216172Y0038918D02*
X0216756Y0038918D01*
X0217199Y0038918D02*
X0217229Y0038918D01*
X0218000Y0038918D02*
X0337342Y0038918D01*
X0337975Y0038918D02*
X0339000Y0038918D01*
X0339114Y0038526D02*
X0338867Y0038526D01*
X0336816Y0038526D02*
X0218558Y0038526D01*
X0219330Y0038134D02*
X0336327Y0038134D01*
X0335542Y0037741D02*
X0220102Y0037741D01*
X0220874Y0037349D02*
X0334757Y0037349D01*
X0333971Y0036957D02*
X0221646Y0036957D01*
X0222418Y0036565D02*
X0333186Y0036565D01*
X0332401Y0036172D02*
X0223191Y0036172D01*
X0223968Y0035780D02*
X0331616Y0035780D01*
X0330812Y0035388D02*
X0224811Y0035388D01*
X0225709Y0034996D02*
X0329931Y0034996D01*
X0329017Y0034604D02*
X0226608Y0034604D01*
X0227506Y0034211D02*
X0328102Y0034211D01*
X0327187Y0033819D02*
X0228405Y0033819D01*
X0229303Y0033427D02*
X0326273Y0033427D01*
X0325358Y0033035D02*
X0230202Y0033035D01*
X0231134Y0032643D02*
X0324444Y0032643D01*
X0323446Y0032250D02*
X0232175Y0032250D01*
X0233239Y0031858D02*
X0322366Y0031858D01*
X0321285Y0031466D02*
X0234302Y0031466D01*
X0235366Y0031074D02*
X0320205Y0031074D01*
X0319124Y0030681D02*
X0236430Y0030681D01*
X0237497Y0030289D02*
X0318044Y0030289D01*
X0316897Y0029897D02*
X0238685Y0029897D01*
X0239976Y0029505D02*
X0315597Y0029505D01*
X0314287Y0029113D02*
X0241266Y0029113D01*
X0242557Y0028720D02*
X0312977Y0028720D01*
X0311666Y0028328D02*
X0243847Y0028328D01*
X0245196Y0027936D02*
X0310324Y0027936D01*
X0308729Y0027544D02*
X0246798Y0027544D01*
X0248423Y0027152D02*
X0307080Y0027152D01*
X0305430Y0026759D02*
X0250047Y0026759D01*
X0251675Y0026367D02*
X0303779Y0026367D01*
X0301769Y0025975D02*
X0253680Y0025975D01*
X0255852Y0025583D02*
X0299565Y0025583D01*
X0297361Y0025191D02*
X0258025Y0025191D01*
X0260583Y0024798D02*
X0294713Y0024798D01*
X0291422Y0024406D02*
X0263827Y0024406D01*
X0267380Y0024014D02*
X0287466Y0024014D01*
X0277536Y0023622D02*
X0273709Y0023622D01*
X0215928Y0038675D02*
X0215907Y0038638D01*
X0215897Y0038643D01*
X0215928Y0038675D01*
X0126455Y0084952D02*
X0124206Y0084952D01*
X0124894Y0085640D01*
X0124894Y0087460D01*
X0123980Y0088374D01*
X0126499Y0088374D01*
X0126455Y0084952D01*
X0124206Y0084952D01*
X0124894Y0085640D01*
X0124894Y0087460D01*
X0123980Y0088374D01*
X0126499Y0088374D01*
X0126455Y0084952D01*
X0126458Y0085199D02*
X0124453Y0085199D01*
X0126458Y0085199D01*
X0126463Y0085591D02*
X0124845Y0085591D01*
X0126463Y0085591D01*
X0126468Y0085983D02*
X0124894Y0085983D01*
X0126468Y0085983D01*
X0126473Y0086376D02*
X0124894Y0086376D01*
X0126473Y0086376D01*
X0126478Y0086768D02*
X0124894Y0086768D01*
X0126478Y0086768D01*
X0126483Y0087160D02*
X0124894Y0087160D01*
X0126483Y0087160D01*
X0126488Y0087552D02*
X0124801Y0087552D01*
X0126488Y0087552D01*
X0126493Y0087944D02*
X0124409Y0087944D01*
X0126493Y0087944D01*
X0126498Y0088337D02*
X0124017Y0088337D01*
X0126498Y0088337D01*
X0126376Y0098669D02*
X0123922Y0098669D01*
X0124894Y0099640D01*
X0124894Y0101460D01*
X0124263Y0102091D01*
X0126399Y0102091D01*
X0126376Y0098669D01*
X0123922Y0098669D01*
X0124894Y0099640D01*
X0124894Y0101460D01*
X0124263Y0102091D01*
X0126399Y0102091D01*
X0126376Y0098669D01*
X0126378Y0098926D02*
X0124180Y0098926D01*
X0126378Y0098926D01*
X0126381Y0099319D02*
X0124572Y0099319D01*
X0126381Y0099319D01*
X0126383Y0099711D02*
X0124894Y0099711D01*
X0126383Y0099711D01*
X0126386Y0100103D02*
X0124894Y0100103D01*
X0126386Y0100103D01*
X0126389Y0100495D02*
X0124894Y0100495D01*
X0126389Y0100495D01*
X0126391Y0100887D02*
X0124894Y0100887D01*
X0126391Y0100887D01*
X0126394Y0101280D02*
X0124894Y0101280D01*
X0126394Y0101280D01*
X0126396Y0101672D02*
X0124682Y0101672D01*
X0126396Y0101672D01*
X0126399Y0102064D02*
X0124290Y0102064D01*
X0126399Y0102064D01*
X0126616Y0129856D02*
X0124609Y0129856D01*
X0125394Y0130640D01*
X0125394Y0132460D01*
X0124576Y0133278D01*
X0126497Y0133278D01*
X0126616Y0129856D01*
X0124609Y0129856D01*
X0125394Y0130640D01*
X0125394Y0132460D01*
X0124576Y0133278D01*
X0126497Y0133278D01*
X0126616Y0129856D01*
X0126614Y0129911D02*
X0124665Y0129911D01*
X0126614Y0129911D01*
X0126600Y0130303D02*
X0125057Y0130303D01*
X0126600Y0130303D01*
X0126587Y0130696D02*
X0125394Y0130696D01*
X0126587Y0130696D01*
X0126573Y0131088D02*
X0125394Y0131088D01*
X0126573Y0131088D01*
X0126559Y0131480D02*
X0125394Y0131480D01*
X0126559Y0131480D01*
X0126546Y0131872D02*
X0125394Y0131872D01*
X0126546Y0131872D01*
X0126532Y0132264D02*
X0125394Y0132264D01*
X0126532Y0132264D01*
X0126519Y0132657D02*
X0125197Y0132657D01*
X0126519Y0132657D01*
X0126505Y0133049D02*
X0124805Y0133049D01*
X0126505Y0133049D01*
X0126478Y0220489D02*
X0124242Y0220489D01*
X0125394Y0221640D01*
X0125394Y0223460D01*
X0124943Y0223911D01*
X0126653Y0223911D01*
X0126478Y0220489D01*
X0124242Y0220489D01*
X0125394Y0221640D01*
X0125394Y0223460D01*
X0124943Y0223911D01*
X0126653Y0223911D01*
X0126478Y0220489D01*
X0126479Y0220512D02*
X0124266Y0220512D01*
X0126479Y0220512D01*
X0126499Y0220904D02*
X0124658Y0220904D01*
X0126499Y0220904D01*
X0126519Y0221297D02*
X0125050Y0221297D01*
X0126519Y0221297D01*
X0126539Y0221689D02*
X0125394Y0221689D01*
X0126539Y0221689D01*
X0126559Y0222081D02*
X0125394Y0222081D01*
X0126559Y0222081D01*
X0126579Y0222473D02*
X0125394Y0222473D01*
X0126579Y0222473D01*
X0126599Y0222865D02*
X0125394Y0222865D01*
X0126599Y0222865D01*
X0126619Y0223258D02*
X0125394Y0223258D01*
X0126619Y0223258D01*
X0126640Y0223650D02*
X0125204Y0223650D01*
X0126640Y0223650D01*
X0050779Y0267970D02*
X0029029Y0267970D01*
X0050779Y0267970D01*
X0049864Y0268362D02*
X0028047Y0268362D01*
X0049864Y0268362D01*
X0049472Y0268754D02*
X0027064Y0268754D01*
X0049472Y0268754D01*
X0049079Y0269146D02*
X0026081Y0269146D01*
X0049079Y0269146D01*
X0048863Y0269539D02*
X0025098Y0269539D01*
X0048863Y0269539D01*
X0048700Y0269931D02*
X0024118Y0269931D01*
X0048700Y0269931D01*
X0048538Y0270323D02*
X0023192Y0270323D01*
X0048538Y0270323D01*
X0048500Y0270715D02*
X0022298Y0270715D01*
X0048500Y0270715D01*
X0048500Y0271108D02*
X0021408Y0271108D01*
X0048500Y0271108D01*
X0048500Y0271500D02*
X0020519Y0271500D01*
X0048500Y0271500D01*
X0048585Y0271892D02*
X0019629Y0271892D01*
X0048585Y0271892D01*
X0048748Y0272284D02*
X0018739Y0272284D01*
X0048748Y0272284D01*
X0048910Y0272676D02*
X0017849Y0272676D01*
X0048910Y0272676D01*
X0049194Y0273069D02*
X0016960Y0273069D01*
X0049194Y0273069D01*
X0049587Y0273461D02*
X0016714Y0273461D01*
X0049587Y0273461D01*
X0050110Y0273853D02*
X0017107Y0273853D01*
X0050110Y0273853D01*
X0050521Y0274245D02*
X0017499Y0274245D01*
X0050521Y0274245D01*
X0050521Y0274637D02*
X0017891Y0274637D01*
X0050521Y0274637D01*
X0050521Y0275030D02*
X0017894Y0275030D01*
X0050521Y0275030D01*
X0050521Y0275422D02*
X0017894Y0275422D01*
X0050521Y0275422D01*
X0050521Y0275814D02*
X0017894Y0275814D01*
X0050521Y0275814D01*
X0050208Y0276206D02*
X0017894Y0276206D01*
X0050208Y0276206D01*
X0049627Y0276598D02*
X0017755Y0276598D01*
X0049627Y0276598D01*
X0049235Y0276991D02*
X0017363Y0276991D01*
X0049235Y0276991D01*
X0048927Y0277383D02*
X0017430Y0277383D01*
X0048927Y0277383D01*
X0048765Y0277775D02*
X0018187Y0277775D01*
X0048765Y0277775D01*
X0048602Y0278167D02*
X0018944Y0278167D01*
X0048602Y0278167D01*
X0048500Y0278560D02*
X0019701Y0278560D01*
X0048500Y0278560D01*
X0048500Y0278952D02*
X0020458Y0278952D01*
X0048500Y0278952D01*
X0048500Y0279344D02*
X0021216Y0279344D01*
X0048500Y0279344D01*
X0048521Y0279736D02*
X0021999Y0279736D01*
X0048521Y0279736D01*
X0048683Y0280128D02*
X0022835Y0280128D01*
X0048683Y0280128D01*
X0048846Y0280521D02*
X0023672Y0280521D01*
X0048846Y0280521D01*
X0049039Y0280913D02*
X0024509Y0280913D01*
X0049039Y0280913D01*
X0049431Y0281305D02*
X0025346Y0281305D01*
X0049431Y0281305D01*
X0049823Y0281697D02*
X0026182Y0281697D01*
X0049823Y0281697D01*
X0050681Y0282089D02*
X0027019Y0282089D01*
X0050681Y0282089D01*
X0015841Y0273353D02*
X0015780Y0273330D01*
X0015780Y0273353D01*
X0015841Y0273353D01*
X0015780Y0273330D01*
X0015780Y0273353D01*
X0015841Y0273353D01*
X0350916Y0100887D02*
X0352650Y0100887D01*
X0351971Y0101280D02*
X0351862Y0101280D01*
M02*
