%
M48
M72
T01C0.0200
T02C0.0320
T03C0.0354
T04C0.0400
%
T01
X1620Y505
X1620Y855
X1620Y1205
X1620Y1555
X1620Y9405
X1620Y18455
X1570Y27555
X1620Y36005
X1620Y36355
X1620Y36705
X1620Y37055
X12320Y34405
X12320Y31305
X12320Y28155
X12270Y26805
X12320Y25355
X12320Y22255
X12320Y19105
X12320Y17705
X12320Y16305
X15020Y15005
X12320Y13155
X12270Y10055
X12270Y8655
X21420Y4005
X34120Y3955
X40570Y15005
X34170Y26055
X21320Y26055
T02
X27670Y15788
X28170Y14922
T03
X36821Y12955
X39419Y14455
T04
X35420Y11005
X35020Y10405
X20520Y10405
X20120Y11055
X27370Y23605
X28120Y23605
X30066Y24836
X30956Y23294
X33173Y24574
X32283Y26116
X5170Y27105
X5170Y27905
X5220Y18805
X5220Y18055
X5170Y9755
X5170Y9005
M30
