<?xml version="1.0" encoding="UTF-8" standalone="no"?>
<!-- Created with Inkscape (http://www.inkscape.org/) -->

<svg
   xmlns:dc="http://purl.org/dc/elements/1.1/"
   xmlns:cc="http://creativecommons.org/ns#"
   xmlns:rdf="http://www.w3.org/1999/02/22-rdf-syntax-ns#"
   xmlns:svg="http://www.w3.org/2000/svg"
   xmlns="http://www.w3.org/2000/svg"
   xmlns:sodipodi="http://sodipodi.sourceforge.net/DTD/sodipodi-0.dtd"
   xmlns:inkscape="http://www.inkscape.org/namespaces/inkscape"
   width="210.07401mm"
   height="110.07752mm"
   viewBox="0 0 210.07401 110.07752"
   version="1.1"
   id="svg8"
   inkscape:version="0.92.3 (2405546, 2018-03-11)"
   sodipodi:docname="mask.svg">
  <sodipodi:namedview
     id="base"
     pagecolor="#ffffff"
     bordercolor="#666666"
     borderopacity="1.0"
     inkscape:pageopacity="0.0"
     inkscape:pageshadow="2"
     inkscape:zoom="1.4"
     inkscape:cx="402.86647"
     inkscape:cy="184.63665"
     inkscape:document-units="mm"
     inkscape:current-layer="layer1"
     showgrid="false"
     inkscape:window-width="1920"
     inkscape:window-height="1017"
     inkscape:window-x="3832"
     inkscape:window-y="1056"
     inkscape:window-maximized="1"
     inkscape:snap-midpoints="true"
     inkscape:snap-smooth-nodes="true"
     inkscape:object-paths="true"
     inkscape:lockguides="true"
     inkscape:snap-intersection-paths="true"
     inkscape:snap-center="true"
     inkscape:snap-object-midpoints="true"
     inkscape:snap-nodes="true"
     fit-margin-top="0"
     fit-margin-left="0"
     fit-margin-right="0"
     fit-margin-bottom="0" />
  <defs
     id="defs2" />
  <metadata
     id="metadata5">
    <rdf:RDF>
      <cc:Work
         rdf:about="">
        <dc:format>image/svg+xml</dc:format>
        <dc:type
           rdf:resource="http://purl.org/dc/dcmitype/StillImage" />
        <dc:title />
      </cc:Work>
    </rdf:RDF>
  </metadata>
  <g
     inkscape:label="Layer 1"
     inkscape:groupmode="layer"
     id="layer1"
     transform="translate(-0.02148384,-0.21003)">
    <path
       style="opacity:1;vector-effect:none;fill:#f2f2f2;fill-opacity:1;stroke:none;stroke-width:4.02519703;stroke-linecap:butt;stroke-linejoin:miter;stroke-miterlimit:4;stroke-dasharray:none;stroke-dashoffset:0;stroke-opacity:1"
       d="M 0 0.32617188 L 0 159.00195 L 59.285156 159.00195 L 59.285156 417.46875 L 794.28516 417.46875 L 794.28516 0.32617188 L 0 0.32617188 z M 606.61133 65.416016 A 3.963481 3.963481 0 0 1 610.57422 69.380859 A 3.963481 3.963481 0 0 1 606.61133 73.34375 A 3.963481 3.963481 0 0 1 602.64844 69.380859 A 3.963481 3.963481 0 0 1 606.61133 65.416016 z M 649.83008 65.416016 A 3.963481 3.963481 0 0 1 653.79297 69.380859 A 3.963481 3.963481 0 0 1 649.83008 73.34375 A 3.963481 3.963481 0 0 1 645.86719 69.380859 A 3.963481 3.963481 0 0 1 649.83008 65.416016 z M 691.64062 65.416016 A 3.963481 3.963481 0 0 1 695.60547 69.378906 A 3.963481 3.963481 0 0 1 691.64062 73.341797 A 3.963481 3.963481 0 0 1 687.67773 69.378906 A 3.963481 3.963481 0 0 1 691.64062 65.416016 z M 734.86133 65.416016 A 3.963481 3.963481 0 0 1 738.82422 69.378906 A 3.963481 3.963481 0 0 1 734.86133 73.341797 A 3.963481 3.963481 0 0 1 730.89648 69.378906 A 3.963481 3.963481 0 0 1 734.86133 65.416016 z M 606.61133 82.625 A 3.963481 3.963481 0 0 1 610.57422 86.587891 A 3.963481 3.963481 0 0 1 606.61133 90.552734 A 3.963481 3.963481 0 0 1 602.64844 86.587891 A 3.963481 3.963481 0 0 1 606.61133 82.625 z M 649.83008 82.625 A 3.963481 3.963481 0 0 1 653.79297 86.587891 A 3.963481 3.963481 0 0 1 649.83008 90.552734 A 3.963481 3.963481 0 0 1 645.86719 86.587891 A 3.963481 3.963481 0 0 1 649.83008 82.625 z M 691.64062 82.625 A 3.963481 3.963481 0 0 1 695.60547 86.587891 A 3.963481 3.963481 0 0 1 691.64062 90.550781 A 3.963481 3.963481 0 0 1 687.67773 86.587891 A 3.963481 3.963481 0 0 1 691.64062 82.625 z M 734.86133 82.625 A 3.963481 3.963481 0 0 1 738.82422 86.587891 A 3.963481 3.963481 0 0 1 734.86133 90.550781 A 3.963481 3.963481 0 0 1 730.89648 86.587891 A 3.963481 3.963481 0 0 1 734.86133 82.625 z M 95.632812 107.94141 A 3.963481 3.963481 0 0 1 99.595703 111.9043 A 3.963481 3.963481 0 0 1 95.632812 115.86719 A 3.963481 3.963481 0 0 1 91.669922 111.9043 A 3.963481 3.963481 0 0 1 95.632812 107.94141 z M 180.26367 107.94141 A 3.963481 3.963481 0 0 1 184.22656 111.9043 A 3.963481 3.963481 0 0 1 180.26367 115.86719 A 3.963481 3.963481 0 0 1 176.30078 111.9043 A 3.963481 3.963481 0 0 1 180.26367 107.94141 z M 137.94531 116.88867 C 151.16702 116.88867 161.92969 127.64938 161.92969 140.87109 L 161.92969 142.88672 L 113.96094 142.88672 L 113.96094 140.87109 C 113.96094 127.64938 124.7236 116.88867 137.94531 116.88867 z M 137.94531 120.91211 C 127.61431 120.91211 119.45131 128.81157 118.39844 138.85742 L 137.87891 138.85742 L 144.61914 127.18555 L 146.46484 128.24805 L 140.34375 138.85742 L 157.5 138.85742 C 156.44713 128.81157 148.27631 120.91211 137.94531 120.91211 z M 95.632812 127.94141 A 3.963481 3.963481 0 0 1 99.595703 131.9043 A 3.963481 3.963481 0 0 1 95.632812 135.86719 A 3.963481 3.963481 0 0 1 91.669922 131.9043 A 3.963481 3.963481 0 0 1 95.632812 127.94141 z M 180.26367 127.94141 A 3.963481 3.963481 0 0 1 184.22656 131.9043 A 3.963481 3.963481 0 0 1 180.26367 135.86719 A 3.963481 3.963481 0 0 1 176.30078 131.9043 A 3.963481 3.963481 0 0 1 180.26367 127.94141 z M 95.632812 147.94141 A 3.963481 3.963481 0 0 1 99.595703 151.9043 A 3.963481 3.963481 0 0 1 95.632812 155.86719 A 3.963481 3.963481 0 0 1 91.669922 151.9043 A 3.963481 3.963481 0 0 1 95.632812 147.94141 z M 180.26367 147.94141 A 3.963481 3.963481 0 0 1 184.22656 151.9043 A 3.963481 3.963481 0 0 1 180.26367 155.86719 A 3.963481 3.963481 0 0 1 176.30078 151.9043 A 3.963481 3.963481 0 0 1 180.26367 147.94141 z M 113.96094 157.42188 L 161.92969 157.42188 L 161.92969 172.6875 L 113.96094 172.6875 L 113.96094 159.4375 L 113.96094 157.42188 z M 117.99219 161.45312 L 117.99219 168.6582 L 128.23047 168.6582 L 128.23047 164.83398 L 130.36328 164.83398 L 130.36328 168.6582 L 157.90625 168.6582 L 157.90625 161.45312 L 117.99219 161.45312 z M 632.86914 164.61914 A 11.767709 11.767709 0 0 1 644.63672 176.38672 A 11.767709 11.767709 0 0 1 632.86914 188.1543 A 11.767709 11.767709 0 0 1 621.10156 176.38672 A 11.767709 11.767709 0 0 1 632.86914 164.61914 z M 687.94141 169.33398 L 741.69922 201.98633 L 741.70703 210.71875 L 687.94141 179.71289 L 687.94141 169.33398 z M 700.72266 206.93555 L 732.90234 229.48242 L 732.90234 238.24414 L 700.75977 219.7832 L 700.72266 206.93555 z M 559.11914 237.00195 L 674.86523 237.00391 L 674.86523 312.57422 L 559.11914 312.57227 L 559.11914 237.00195 z M 713.50195 246.88867 L 724.10547 256.97852 L 724.10547 265.74219 L 713.46094 259.48828 L 713.50195 246.88867 z M 717.12695 335.07031 L 711.82422 348.95898 L 725.9668 355.77734 L 699.95508 374.46484 L 713.33984 357.04102 L 702.48047 351.23242 L 717.12695 335.07031 z M 631.1582 340.0625 L 634.8125 340.0625 L 634.8125 373.12891 L 631.1582 373.12891 L 631.1582 340.0625 z M 661.32812 340.0625 L 664.97461 340.0625 L 664.97461 373.12891 L 661.32812 373.12891 L 661.32812 340.0625 z M 592.74414 345.35742 L 595.57031 347.41016 C 594.92802 348.29795 594.55273 349.37602 594.55273 350.5625 C 594.55273 353.55936 596.94454 355.95117 599.94141 355.95117 L 599.94141 359.44922 C 595.05512 359.44922 591.06055 355.44878 591.06055 350.5625 C 591.06055 348.628 591.68697 346.81876 592.74414 345.35742 z "
       transform="matrix(0.26458333,0,0,0.26458333,0.02148384,0.21003)"
       id="rect6991" />
  </g>
</svg>
